<svg xmlns="http://www.w3.org/2000/svg" viewBox="0 0 22.69 22.81"><defs><style>.cls-1{fill:#010101;}</style></defs><title>Asset 36</title><g id="Layer_2" data-name="Layer 2"><g id="Layer_1-2" data-name="Layer 1"><path class="cls-1" d="M21.22,10.63A10.69,10.69,0,0,1,20,7.27a8.54,8.54,0,0,0-3.11-4.7.26.26,0,0,0-.18-.06c-.4-1-1.27-1.31-2-2a.24.24,0,0,0-.21-.08.25.25,0,0,0-.25-.12h0C11-.24,7.1-.35,5.14,2.82A6.94,6.94,0,0,0,4.2,5.71a.18.18,0,0,0-.09.1,11.18,11.18,0,0,0-1.25,4.58A10.82,10.82,0,0,1,.44,16c-.6.78-.7,1.6.45,1.83.44.1.79.12,1,.63a3.75,3.75,0,0,0,.29.79c.29.47.87.37,1.36.38a1.51,1.51,0,0,0,.21,1.64c1,1.09,3.25,1.12,4.53,1.3a21.23,21.23,0,0,0,7.2,0c1.27-.26,5.47-1.38,4.92-3.39a2.21,2.21,0,0,0-.68-1.1,1.55,1.55,0,0,0,1.13-.62c.39-.72-.15-1.57.33-2.21.35-.46.94-.67,1.3-1.13a1.64,1.64,0,0,0,.09-1.62A8.38,8.38,0,0,0,21.22,10.63Zm-4.37-6c.27.18,0,.68-.13.87s.31.55.5.25a2,2,0,0,0,.18-.36.42.42,0,0,1-.06.81.25.25,0,0,0-.17.27c-.16.09-.25.3-.06.43s.21.13.19.25-.13.19-.21.25a1,1,0,0,1-.48.18.32.32,0,0,0,0-.14c.05-.35-.5-.46-.54-.1a.35.35,0,0,1-.06.14.32.32,0,0,0-.19.15,1.27,1.27,0,0,1-1.16-.36,2.74,2.74,0,0,0,.77,0c.35-.06.31-.62,0-.56a1.67,1.67,0,0,1-1.26-.18c-.17-.14-.06-.79.11-.88a3.19,3.19,0,0,1,.62.43c.21.28.68,0,.46-.31s-.53-.36-.77-.58,0-.18.09-.29a1.35,1.35,0,0,1,.86-.18,1,1,0,0,0,0,.34c.05.36.61.32.55,0,0-.17-.05-.33.13-.4A.77.77,0,0,1,16.85,4.61Zm.83,13.91a.86.86,0,0,0-1.27.55,1.23,1.23,0,0,0-1.6.57A1.2,1.2,0,0,0,13,20a1.21,1.21,0,0,0-1.6-.1,1.06,1.06,0,0,0-1.32-.37c-.16.06-.42.45-.6.28a.88.88,0,0,0-.76-.22c-.5.12-.7.28-1-.14a1,1,0,0,0-.65-.29c-.14,0-.77.15-.83.06a1.18,1.18,0,0,0-.56-.42l.21,0a12.48,12.48,0,0,0,1.69-.38A2.56,2.56,0,0,0,9.63,16l.1,0a4.18,4.18,0,0,0,3.41-.43c.55,2.08,2.82,2,4.62,2.3l.33.07A1.46,1.46,0,0,0,17.68,18.52Zm1-.29.05,0a2.47,2.47,0,0,1,.55.35.27.27,0,0,0-.14.07c-2.33,2-5.15,2.23-8.1,2.25a17.55,17.55,0,0,1-4.34-.34c-.23-.06-2.37-.67-2.35-.93a.29.29,0,0,0,0-.19,1.39,1.39,0,0,1,.49-.32.22.22,0,0,0,.21.17l.94.58a.28.28,0,0,0,.33.11c.41-.28.83-.17,1.24.32a.28.28,0,0,0,.29.18c.55-.07,1.1-.49,1.56.09a.29.29,0,0,0,.39.08c.33-.28.95-.91,1.43-.08a.28.28,0,0,0,.44,0l1.23,0c.1.12.33.19.44,0a1,1,0,0,1,1.49-.33.28.28,0,0,0,.46-.23l1.14-.32a.28.28,0,0,0,.46-.16c0-.46.27-.61.86-.43a.27.27,0,0,0,.37-.13A1.22,1.22,0,0,1,18.68,18.23ZM7.31,7c2-1.09,6.2-1.06,7.14-3.55.2.3.41.59.61.88a2.52,2.52,0,0,0-.79.5A1.78,1.78,0,0,0,13.85,7a.88.88,0,0,0,.21.12.75.75,0,0,0,.1.32,1.63,1.63,0,0,0,.31.27,2,2,0,0,0,.75.34,1.48,1.48,0,0,0,.36.1s0,.05,0,.08h0v0c0,.14,0,.28,0,.42v0c0,.14,0,.27,0,.41v.07c0,.13,0,.26-.05.39a.34.34,0,0,1,0,.1c0,.12,0,.24-.05.35a.77.77,0,0,1,0,.15c0,.1,0,.2,0,.31a1.16,1.16,0,0,0,0,.18c0,.09,0,.18,0,.27s0,.17-.05.25,0,.13,0,.2l-.09.45c-.61,2.65-3.42,5-6,3.15C6.56,13.19,6.37,9.32,6.12,6.55c.12-.2.26-.4.39-.59a.13.13,0,0,1,0,.06A.28.28,0,0,0,7,6.23a2,2,0,0,0-.08.56C6.87,7,7.14,7.09,7.31,7Zm8.74,1.14.15-.06.15,0A2.67,2.67,0,0,0,17,7.89c0,.26,0,.53,0,.79-.1,2.61-.81,5.66.08,8.2a.26.26,0,0,0,.08.29l.05.07c-1.57-.17-3.2-.26-3.58-2v0A4.66,4.66,0,0,0,14.71,14a13.33,13.33,0,0,0,1.45-5.87ZM4.91,5C5.78.51,10.23.23,14,.8a2,2,0,0,1-.32.69c-.21.29.21.66.42.37A2.78,2.78,0,0,0,14.47,1a4.1,4.1,0,0,0,.72.48,3.46,3.46,0,0,1,1.36,2.35l0,.14h0a1.46,1.46,0,0,1,.05.2,2.62,2.62,0,0,0-.79,0,.39.39,0,0,0-.1.08l-.07-.06h-.08l0-.06c-.19-.28-.4-.56-.58-.86l-.05-.07-.19-.35a.29.29,0,0,0-.15-.14.28.28,0,0,0-.53,0c-.24,1.65-2,2.11-3.34,2.48a18.86,18.86,0,0,0-3.16,1,1.6,1.6,0,0,1,1.08-1,.28.28,0,0,0-.19-.53l-.17.07A5.94,5.94,0,0,0,7,5.46a1.67,1.67,0,0,1,.05-.31.28.28,0,0,0-.48-.24L6,5.71a2.93,2.93,0,0,1,2.21-3c1.41-.51,2.95-.16,4.32-.84.32-.16.14-.69-.18-.53-1.72.85-3.72.37-5.43,1.34A3.41,3.41,0,0,0,5.55,6.51a0,0,0,0,0,0,0c.26,2.83.58,7.72,3.54,9.22a4,4,0,0,1-.33,1.34A3.31,3.31,0,0,1,7,18c-.53.17-1.08.23-1.62.35C6.18,13.86,4.05,9.52,4.91,5ZM3.29,19c-.89,0-.82-.49-1-1a1.09,1.09,0,0,0-.66-.65A3.69,3.69,0,0,0,1,17.24c-.37-.36-.41-.66-.14-.92l.39-.5a13.69,13.69,0,0,0,1-1.57c1.27-2.22,1-4.83,1.85-7.14a21.06,21.06,0,0,0,.17,2.68c.35,3,1.12,5.69.53,8.7l-.37.14a2.31,2.31,0,0,0-.6.42A2,2,0,0,0,3.29,19ZM19,20.44a9.69,9.69,0,0,1-3.32,1.41,17.88,17.88,0,0,1-5.79.3,17.78,17.78,0,0,1-5.17-.91c-.6-.24-1-.65-.79-1.28.77,1.09,4.38,1.41,5.09,1.45,3.6.2,7.56.11,10.41-2.34a.28.28,0,0,0,.1-.22C19.84,19.3,19.78,19.87,19,20.44Zm3.1-7.14c0,.58-.7.89-1.11,1.21a1.55,1.55,0,0,0-.6.86,2.17,2.17,0,0,0,0,.72c.1.94-.54,1.33-1.4,1.44a.2.2,0,0,0-.11,0,6.79,6.79,0,0,0-1.16-.26.26.26,0,0,0,0-.23.73.73,0,0,0,0-.12,11.14,11.14,0,0,1-.4-4.53c.06-1.57.23-3.13.27-4.71a.77.77,0,0,0,.12-1.07,1,1,0,0,0-.18-1.83.75.75,0,0,0-.31-.63c-.06-.29-.13-.57-.2-.85a8.12,8.12,0,0,1,2.42,3.81c.45,1.42.67,3,1.63,4.16C21.5,11.88,22.19,12.48,22.12,13.3Z"/><path class="cls-1" d="M17,8c0,.21,0,.43,0,.64,0-.26,0-.53,0-.79a2.67,2.67,0,0,1-.66.21A1.44,1.44,0,0,0,17,8Z"/><path class="cls-1" d="M15.56,4.12l0,.06h.08a.25.25,0,0,0-.11,0Z"/><path class="cls-1" d="M15,3.26l-.05-.07Z"/><path class="cls-1" d="M15.84,4.15a2.62,2.62,0,0,1,.79,0,1.46,1.46,0,0,0-.05-.2,1.3,1.3,0,0,0-.71.14Z"/><path class="cls-1" d="M15.52,8.7c0,.14,0,.27,0,.41C15.49,9,15.51,8.84,15.52,8.7Z"/><path class="cls-1" d="M15.26,10.66c0,.09,0,.18,0,.27C15.23,10.84,15.25,10.75,15.26,10.66Z"/><path class="cls-1" d="M15.47,9.18c0,.13,0,.26-.05.39C15.44,9.44,15.45,9.31,15.47,9.18Z"/><path class="cls-1" d="M15.57,8.23c0,.14,0,.28,0,.42C15.54,8.51,15.55,8.37,15.57,8.23Z"/><path class="cls-1" d="M15.57,8.2s0,0,0-.08a1.48,1.48,0,0,1-.36-.1,2,2,0,0,1-.75-.34,1.63,1.63,0,0,1-.31-.27A1.76,1.76,0,0,0,15.57,8.2Z"/><path class="cls-1" d="M15.41,9.67c0,.12,0,.24-.05.35C15.38,9.91,15.4,9.79,15.41,9.67Z"/><path class="cls-1" d="M15.34,10.17c0,.1,0,.2,0,.31C15.31,10.37,15.33,10.27,15.34,10.17Z"/><path class="cls-1" d="M15.17,11.18c0,.07,0,.13,0,.2S15.16,11.25,15.17,11.18Z"/><path class="cls-1" d="M14,5.08v.06a1.5,1.5,0,0,0-.4,1.4.75.75,0,0,0,.3.43,1.78,1.78,0,0,1,.42-2.14,2.52,2.52,0,0,1,.79-.5c-.2-.29-.41-.58-.61-.88l.5.73C14.45,4.27,14,4.52,14,5.08Z"/><path class="cls-1" d="M8.74,8.83A.65.65,0,0,0,9.16,8,.27.27,0,0,0,9,7.82.64.64,0,0,0,8.27,8h0a.28.28,0,0,0-.25.3A.61.61,0,0,0,8.74,8.83Z"/><path class="cls-1" d="M13.06,8.75a.54.54,0,0,0,.37-.9.9.9,0,0,0-.59-.2.53.53,0,0,0-.52.27.76.76,0,0,0,0,.11.42.42,0,0,0,0,.16A.68.68,0,0,0,13.06,8.75Z"/><path class="cls-1" d="M12.52,12.4a.28.28,0,0,0-.55,0c.06,1-1.77.56-2.19.12-.26-.26-.62.16-.37.42C10.2,13.8,12.62,14,12.52,12.4Z"/></g></g></svg>