<svg xmlns="http://www.w3.org/2000/svg" viewBox="0 0 17.05 22.45"><defs><style>.cls-1{fill:#010101;}</style></defs><title>Asset 44</title><g id="Layer_2" data-name="Layer 2"><g id="Layer_1-2" data-name="Layer 1"><path class="cls-1" d="M15.64,16.44a8.17,8.17,0,0,1-2.51-2.21c-.24-.28-.37-.56-.57-.78A5.1,5.1,0,0,0,14.7,9.58h0A1.7,1.7,0,0,0,16.31,7.8a1.46,1.46,0,0,0-.66-1.26l.23-.24-.15-.06A3.06,3.06,0,0,0,15.94,5a2.09,2.09,0,0,0-.81-1.59h.19a.27.27,0,0,0,.24-.28c0-1.63-2.19-2-3.47-1.61A4.94,4.94,0,0,0,9.18.09C7.56-.25,6.05.48,4.55,1c-.29.1-.17.49.11.5a2.25,2.25,0,0,1,.77.11c-1.28.4-2.9.17-3.55,1.65-.07.16.05.42.25.38l.08,0a4.36,4.36,0,0,0-.67,2h0s0,0,0,.08a.28.28,0,0,0,0,.13.19.19,0,0,0-.08,0l.19.19a.63.63,0,0,1,.13.2,2.35,2.35,0,0,0-.32,1.5A1.59,1.59,0,0,0,3.17,9.33h0l.06.23a7.71,7.71,0,0,0,1.82,2.79,5,5,0,0,0,1.23.94c-.19.71-1.45,1-2,1.24a18.64,18.64,0,0,0-2.18,1A3.65,3.65,0,0,0,0,19c.08.9,1,1.58,1.88,2a.26.26,0,0,0,.29.13,6.38,6.38,0,0,0,.81.3,27.64,27.64,0,0,0,6,1c3,.21,6.37-.61,7.85-3.48C17.45,17.76,16.63,17,15.64,16.44Zm-.89-7.38V9c0-.16,0-.37,0-.61h0v0A1,1,0,0,0,15,7.63a.26.26,0,0,0-.24-.24.17.17,0,0,0,0-.07A.72.72,0,0,1,14.8,7l-.09,0a1.1,1.1,0,0,0,0-.18l0,0C16.14,6.64,16.09,8.88,14.75,9.06Zm-2.65-7,.06,0c.91-.34,2.62-.21,2.86.84H13.93a.26.26,0,0,0,0,.51,1.78,1.78,0,0,1,1.51,1.49c0,.24.06,1.31-.38,1.3a.23.23,0,0,0-.19.08l-.26.1c-.16-.63-.45-1.15-1-1.28a.26.26,0,0,0-.18,0,1.08,1.08,0,0,1-.11-.18c-.1-.18-.31-.13-.42,0-.68-.11-1.18-1.15-1.15-1.76a.19.19,0,0,0,0-.08A3.11,3.11,0,0,0,12.1,2.06ZM2.91,8.79A1,1,0,0,1,2,7.87c-.07-.46-.06-1.43.58-1.39h.08a3.64,3.64,0,0,1,.39.23l0,.5H3a.2.2,0,0,0-.13,0h0a.31.31,0,0,0-.15.13.8.8,0,0,0,.12,1,1.62,1.62,0,0,1,0,.22L3,8.45a1.23,1.23,0,0,1,0,.19A.31.31,0,0,0,2.91,8.79ZM3.09,5.6c0,.17,0,.33,0,.49A2.13,2.13,0,0,0,2,5.8a.05.05,0,0,1,0,0c0-.09.07-.18.1-.26a.23.23,0,0,0,0-.29A6.48,6.48,0,0,1,3,3.3a.27.27,0,0,0-.24-.38c.86-.8,2.45-.55,3.45-1.07a.25.25,0,0,0,0-.41,1.81,1.81,0,0,0-.57-.29A7,7,0,0,1,8.82.55a4.52,4.52,0,0,1,2.79,1.19c-.14,1.52-1.37,2.31-2.67,2.88C9,4.31,9,4,9,3.68a.26.26,0,0,0-.45-.15c-.3.4-1.08,1.09-1,.22,0-.27-.39-.32-.49-.1C6.57,4.71,4.48,4.74,3.52,5.38A.27.27,0,0,0,3.09,5.6Zm1.83,5.79A6.81,6.81,0,0,1,3.63,9a3.18,3.18,0,0,1-.16-.86A1.08,1.08,0,0,0,3.58,8a.27.27,0,0,0-.11-.32c0-.28,0-.57.06-.85a.26.26,0,0,0,0-.3c0-.2,0-.39,0-.57a.37.37,0,0,0,.15,0C4.59,5.23,6.13,5.19,7,4.5a.42.42,0,0,0,.32.37,1.31,1.31,0,0,0,1.1-.42,2.13,2.13,0,0,0,0,.56.27.27,0,0,0,.35.23,6.82,6.82,0,0,0,2.48-1.55c.19.84.91,1.77,1.77,1.76a1.09,1.09,0,0,0,.52.42.27.27,0,0,0,.28,0,2.84,2.84,0,0,1,.37,1.32.3.3,0,0,0-.08.2.27.27,0,0,0,.11.19,13.33,13.33,0,0,1-.05,1.85A4.39,4.39,0,0,1,12,13.09h0a.21.21,0,0,0-.27.15,4.54,4.54,0,0,1-1.22.3A6.26,6.26,0,0,1,4.92,11.39Zm7.62,2.79h-.1a.21.21,0,0,0-.22.16A6.74,6.74,0,0,1,9.08,15c-.68,0-2.13-.17-2.45-.86A.33.33,0,0,0,6.5,14a1.22,1.22,0,0,0,.28-.45,7.65,7.65,0,0,0,4.85.33,3,3,0,0,0,.45-.15A2.44,2.44,0,0,1,12.54,14.18ZM2,20.49a4,4,0,0,1-1.33-1.1c-.68-.89,0-2,.71-2.7h.07C2.37,16.66,2.34,19.57,2,20.49ZM14,18.24c0,.69.08,1.38.11,2.07a.24.24,0,0,0,0,.28.19.19,0,0,0,0,.07.25.25,0,0,0,.21.23c-2.07,1.26-4.75,1.14-7.13.83a21.56,21.56,0,0,1-4.42-.91l-.21-.08A5.5,5.5,0,0,0,2.64,18c-.06-.66-.12-1.53-.74-1.78L2,16.14a14.73,14.73,0,0,1,3.38-1.53,4.36,4.36,0,0,0,.72-.35c.38.83,1.49,1,2.3,1.15a6.53,6.53,0,0,0,4.29-.76.24.24,0,0,0,.09-.08c.15.21.28.42.38.54a10.11,10.11,0,0,0,1.16,1.2l.09.07a1.89,1.89,0,0,0-.34.55A2.91,2.91,0,0,0,14,18.24Zm1.56,1.65a5.93,5.93,0,0,1-.94.81.22.22,0,0,0,0-.08c0-.7-.06-1.41-.1-2.11,0,0,0-2.12.45-1.81a.21.21,0,0,0,.11,0c.23.12.48.22.7.34C17.24,17.84,16.22,19.13,15.52,19.89Z"/><path class="cls-1" d="M6.76,7.49l0-.08A.46.46,0,0,0,6.9,7a.29.29,0,0,0-.21-.24.71.71,0,0,0-.61.16.65.65,0,0,0-.15.57.26.26,0,0,0,.21.23A.55.55,0,0,0,6.76,7.49Z"/><path class="cls-1" d="M10.8,7.45a.62.62,0,0,0,.52.23.47.47,0,0,0,.38-.3.55.55,0,0,0,0-.5.53.53,0,0,0-.57-.15.45.45,0,0,0-.37.43v0A.33.33,0,0,0,10.8,7.45Z"/><path class="cls-1" d="M11.92,10.48a.26.26,0,0,0-.47-.24c-.66,1.39-3.65,1.16-4.47,0-.19-.27-.62,0-.42.29C7.6,12,11.08,12.25,11.92,10.48Z"/></g></g></svg>