<svg xmlns="http://www.w3.org/2000/svg" viewBox="0 0 16.7 23.32"><defs><style>.cls-1{fill:#010101;}</style></defs><title>Asset 38</title><g id="Layer_2" data-name="Layer 2"><g id="Layer_1-2" data-name="Layer 1"><path class="cls-1" d="M5.6,8.58a.36.36,0,0,0-.2.06.22.22,0,0,0-.16.13.77.77,0,0,0,0,.19.71.71,0,0,0,0,.2.26.26,0,0,0,.28.24h0a.42.42,0,1,0,.15-.82Z"/><path class="cls-1" d="M10.35,9.35A.61.61,0,0,0,11,9.08a.4.4,0,0,0-.27-.58.47.47,0,0,0-.59.45h0v.16A.26.26,0,0,0,10.35,9.35Z"/><path class="cls-1" d="M9.71,12.88c0-.33-.47-.43-.51-.1-.06.68-1.17.93-1.39.22-.09-.31-.58-.15-.48.17A1.25,1.25,0,0,0,9.71,12.88Z"/><path class="cls-1" d="M16.11,17.5c-1.59-.95-3.55.28-4.84-1.27a8.7,8.7,0,0,0,2.2-4.75,1.06,1.06,0,0,0,.69-.27,1.51,1.51,0,0,0,.35-.94,1.81,1.81,0,0,0-.11-.87l0,0c1.15-1.5.29-3.41-.74-4.74a7.22,7.22,0,0,0-2.25-1.88.29.29,0,0,0,.09-.21c.07-4.43-8.1-2.17-7.42.17A5.68,5.68,0,0,0,1.56,5.08C1,6.18,1,8.87,2.36,9.46h.05a1.6,1.6,0,0,0-.17,1.21c.1.36.51,1.47,1,1.13A7.24,7.24,0,0,0,5.9,16.17v0c.58,3-4.73.49-5.71,2.27C-1.19,21,5.43,22.75,6.85,23.07c3.09.71,7.64-.06,9.39-3.05C16.69,19.26,17.06,18.07,16.11,17.5Zm-4.35-.08,0-.07a3.36,3.36,0,0,0,1.41.29h.49a.29.29,0,0,0,.11.11c0,.27-.07.7-.37.62s-.43.38-.16.48c-.06,0-.19.37-.23.46a1.05,1.05,0,0,1-1.21.58.27.27,0,0,0-.37.19c-.21,1.36-2.18-1-2-1.38a.2.2,0,0,0,0-.19,4,4,0,0,0,2.2-.79A.26.26,0,0,0,11.76,17.42Zm-.27-.24c-.18,0-.36.12-.26.32,0,0-1.2.42-1.29.43a7.27,7.27,0,0,1-1.4.09,5.1,5.1,0,0,1-2.32-.41.27.27,0,0,0-.08-.07,1.44,1.44,0,0,0,.31-1,5.82,5.82,0,0,0,1.78.58,3.55,3.55,0,0,0,2.57-.49.29.29,0,0,0,.16,0C10.88,16.61,11.27,17,11.49,17.18ZM14,10.26a1.26,1.26,0,0,1-.16.54.44.44,0,0,1-.27.16c.08-.54.15-1.07.19-1.57C14,9.5,14,10,14,10.26ZM2.59,9c-.65-.28-.79-1.44-.84-2a3.41,3.41,0,0,1,.79-2.47,5.31,5.31,0,0,1,2-1.45A.35.35,0,0,0,4.7,3c.7-.32,1.45-.56,2.14-.81a.26.26,0,0,0-.17-.49c-.71.26-1.44.52-2.13.84a.19.19,0,0,0-.2.09,4.29,4.29,0,0,1,3-1.92C8.73.42,10.83.58,11,2.27a.25.25,0,0,0-.09.2l-.08,0a1.85,1.85,0,0,0-.2-.63c-.05-.1-.12-.2-.18-.31s0-.12-.07-.17a.26.26,0,0,0-.41,0,.37.37,0,0,0-.07.23.23.23,0,0,0,.08.17h0l.16.27a1.47,1.47,0,0,1,.1.22l-.4-.15a3.59,3.59,0,0,0-.41-1c-.16-.29-.58,0-.43.29s.2.34.28.52l-.38-.09A1.24,1.24,0,0,0,8.41,1a.25.25,0,0,0-.34.11.27.27,0,0,0,.12.35.55.55,0,0,1,.18.26L7.85,1.6a1.22,1.22,0,0,1-.15-.4.26.26,0,0,0-.51,0,1,1,0,0,0,.14.43.32.32,0,0,0-.06.17V2c0,.28.36.29.48.09a8.78,8.78,0,0,1,1.76.39.29.29,0,0,0,.13,0,9.61,9.61,0,0,1,2.6,1.35c1.36,1,3.07,3.45,1.84,5.11a.91.91,0,0,0-.22-.11s0,0-.06,0a19.81,19.81,0,0,0,0-2,.27.27,0,0,0-.23-.23c0-.07-.07-.14-.12-.23a.25.25,0,0,0-.35-.07l-.23.14c-.27-.58-.61-.8-1.08-.37a1.32,1.32,0,0,0-1.06-1,.48.48,0,0,0-.51.29,1.48,1.48,0,0,0-1-.64c-.48-.08-.81.45-1,.9C8,5.29,7.67,4.91,7.17,5s-.72.56-.87,1c-.24-.39-.56-.78-1-.74s-.71.51-.86,1c-.08-.3-.06-.66-.12-.93a.27.27,0,0,0-.44-.09A3.52,3.52,0,0,0,3,6.94a.27.27,0,0,0-.36.25v.09a.19.19,0,0,0,0,.08c.06.58.12,1.19.2,1.81a.19.19,0,0,0-.09,0A.21.21,0,0,0,2.59,9Zm.53,2.33-.07-.08L2.93,11a2.34,2.34,0,0,1-.19-.46.94.94,0,0,1,.15-.86c.08.55.17,1.09.29,1.62ZM3.3,9c-.06-.5-.1-1-.14-1.45a.27.27,0,0,0,.25-.27A2.86,2.86,0,0,1,3.89,6a1.3,1.3,0,0,0,.43,1A.26.26,0,0,0,4.72,7c.11-.31.2-.62.33-.91.33-.78,1,.51,1.11.72a.25.25,0,0,0,.44,0,3,3,0,0,0,.17-.5c.26-.9.94-.37,1.32.14a.25.25,0,0,0,.44,0c0-.08.05-.15.08-.22.16-.63.65-.58,1.45.12,0,.26.49.34.51,0a.2.2,0,0,1,0-.07h0s0,0,0-.06c0-.26.21-.33.61-.22a3.34,3.34,0,0,1,.31.73.26.26,0,0,0,.44.08c.27-.35.51-.12.64.22a.25.25,0,0,0,.38.13c.13-.19.22-.23.28-.15a.24.24,0,0,0,.1.33c0,.45,0,1,0,1.49A2.41,2.41,0,0,0,12.22,9a2.34,2.34,0,0,0-1.59-1.7C9.38,7,8.77,7.89,8.53,8.88a1.45,1.45,0,0,0-1.1.24,2.07,2.07,0,0,0-.92-1,1.73,1.73,0,0,0-2.31.42A1.76,1.76,0,0,0,4,9L3.72,9a1.89,1.89,0,0,0-.41,0ZM9,9.08a1.32,1.32,0,0,1,1.27-1.29c.87-.07,1.41.88,1.5,1.62C12,11.73,8.3,11.2,9,9.35A.28.28,0,0,0,9,9.08Zm-2,1a1.33,1.33,0,0,1-2.21.59.19.19,0,0,0-.12-.07A2.12,2.12,0,0,1,4.55,9c.22-.64,1-.69,1.52-.5A1.35,1.35,0,0,1,7,10.08ZM3.36,9.56l.12,0a1,1,0,0,1,.45,0,1.57,1.57,0,0,0,.66,1.64h0a1.86,1.86,0,0,0,2.71-.52,1.6,1.6,0,0,0,.27-.9.18.18,0,0,0,.1-.12c.09-.24.48-.29.76-.25,0,.14,0,.27,0,.39a.29.29,0,0,0,0,.16,1.73,1.73,0,0,0,1.26,1.45A1.89,1.89,0,0,0,12.22,10a.85.85,0,0,0,0-.17.2.2,0,0,0,.15-.25h0l.11-.08a1.61,1.61,0,0,1,.39-.12,2.35,2.35,0,0,1,.34-.06A15.28,15.28,0,0,1,13,11a.25.25,0,0,0-.08.44c-.64,3.13-2.23,6.06-5.7,4.87C4.44,15.34,3.7,12.34,3.36,9.56Zm2.4,8.31a.16.16,0,0,0,.06.08,4.59,4.59,0,0,0,2.39.57,5.05,5.05,0,0,1-.37,1,6.33,6.33,0,0,1-.39.61c-.08.1-.15.21-.22.31-.12.28-.32.28-.6,0a.27.27,0,0,0-.28-.24c-.42,0-.78,0-.62-.51a.26.26,0,0,0-.28-.3c-.8,0-1.21-.32-1.22-1.1A3.22,3.22,0,0,0,5.76,17.87Zm9.56,2.49C12.75,23.31,8.24,23.17,4.88,22c-.67-.24-1.32-.55-2-.85-.34-.16-.67-.33-1-.5l-.57-.38c-.59-.38-.65-1-.18-1.84a7,7,0,0,1,2.55-.09,1.38,1.38,0,0,0,1.44,1.59c-.07.63.36.81,1,.83.15.51.67.85,1.17.37l.27-.29a.3.3,0,0,0,.07.29c-.07.3.16.56.44.73a1.48,1.48,0,0,0,1.43.06.79.79,0,0,0,0-1.34,1.55,1.55,0,0,0-1.85.11,5.79,5.79,0,0,0,1-2.07.11.11,0,0,0,0,0h.21c-.24.57.8,1.69,1.12,2,.65.71,1.5.79,1.78-.15a1.54,1.54,0,0,0,1.45-.65,2.38,2.38,0,0,0,.4-.91,1.25,1.25,0,0,0,.55-1.25,5.77,5.77,0,0,1,.72,0C16.7,17.83,16.1,19.46,15.32,20.36ZM8.17,21a1.06,1.06,0,0,1,.88-.1c.29.08.52.38.2.6a.94.94,0,0,1-.68,0,1.07,1.07,0,0,1-.32-.16c-.06-.05-.07-.12-.1-.07A.26.26,0,0,0,8.17,21Z"/></g></g></svg>