<svg xmlns="http://www.w3.org/2000/svg" viewBox="0 0 17.14 21.8"><defs><style>.cls-1{fill:#010101;}</style></defs><title>Asset 42</title><g id="Layer_2" data-name="Layer 2"><g id="Layer_1-2" data-name="Layer 1"><path class="cls-1" d="M17.08,14c-.27-1.57-.66-3.13-.88-4.71C16,8.13,16,6.93,15.71,5.76A7.44,7.44,0,0,0,11.84.34C11.09,0,9.29-.28,8.72.53A5.84,5.84,0,0,0,3.36.86C1.7,1.82.82,4.1.52,5.88a48.48,48.48,0,0,0-.43,8c0,.58-.29,2,.17,2.41A3.5,3.5,0,0,0,1.57,17c-.51.25-.95.59-.92,1.09.08,1.3,1.67,2.23,2.73,2.73a12.55,12.55,0,0,0,5.81,1c2.4-.1,7.24-.94,7.71-4,.16-1-1-1.2-1.72-1.23l-1.14,0a9.86,9.86,0,0,0,2-.85C17,15.2,17.27,15.16,17.08,14Zm-2.15,3.06a4.78,4.78,0,0,1,.84.08c1.26.19.28,1.38,0,1.69a5.32,5.32,0,0,1-2,1.41,14.68,14.68,0,0,1-5.07,1,11.89,11.89,0,0,1-5.45-1.1A6.11,6.11,0,0,1,1.3,18.57c-.51-.59.3-1,1-1.28a.27.27,0,0,0,.2.09h.09a.24.24,0,0,0,.23-.26L3,17.07c.65-.18,1.3-.33,1.91-.56a5.66,5.66,0,0,0,1,1.7c.22.32.53.82,1,.84.7,0,1.36-.78,1.84-1.2,0,0,0,0,0,0a4,4,0,0,0,.55.54,2.32,2.32,0,0,0,.86.62c.45.1.74-.24,1.06-.52s1.28-1,1.43-1.58A11,11,0,0,0,14.93,17.09Zm-10.72-7a15.61,15.61,0,0,1-.29-1.92l.54.21a2.77,2.77,0,0,1,.41.19,1.11,1.11,0,0,0,0,.71c.47,1.22,3.14,1,3.13-.34.59-.22.91-.13,1.22.38a1.56,1.56,0,0,0,1,.58,1.92,1.92,0,0,0,2.11-.62,1,1,0,0,0,.16-.46c.15,0,.28-.12.23-.28l.05-.07a1.79,1.79,0,0,1,.25-.23l0,0c0,.76-.1,1.52-.21,2.28a4.63,4.63,0,0,1-4.76,3.84c-2.25-.21-3.32-1.93-3.84-3.95A.25.25,0,0,0,4.21,10.09ZM4,5.25c.36-.47,1.09-.54,1.64-.7A12.3,12.3,0,0,0,7.4,3.92a2.28,2.28,0,0,0,1-.8c.65,1.32,3.3,1.25,4.49,2.05-.11.19,0,.49.26.39a10.68,10.68,0,0,1,0,2v0a3.9,3.9,0,0,0-.51.4,1.29,1.29,0,0,0-.31.34,2,2,0,0,0-1-.46l0-.07,0,0a.41.41,0,0,0,.09-.28.28.28,0,0,0-.06-.16c0-.06,0-.09-.1-.12a.47.47,0,0,0-.63,0,.42.42,0,0,0-.21.57,0,0,0,0,0,0,0c-.6.06-1.1.3-1.12.75A1.52,1.52,0,0,0,8,8.41a1.3,1.3,0,0,0-1.19-.7.51.51,0,0,0,0-.13.43.43,0,0,0-.53-.28.17.17,0,0,0-.12,0,.44.44,0,0,0-.34.43.09.09,0,0,0,0,0,1.62,1.62,0,0,0-.65.35,4.58,4.58,0,0,0-1.27-.53c-.05-.72-.07-1.41-.07-2l.1-.07A.23.23,0,0,0,4,5.25ZM9.89,8.61c.16-.48,2.4-.56,2,.44-.19.51-1.16.42-1.55.34a1.2,1.2,0,0,1-.54-.24A.29.29,0,0,0,10,8.91V8.78A.22.22,0,0,0,9.89,8.61Zm-4.38,0a1.18,1.18,0,0,1,.56-.3c.26,0,1.5-.08,1.44.4v0a.25.25,0,0,0,0,.12c.26.95-1.56.83-2,.46A.56.56,0,0,1,5.35,9a.21.21,0,0,0,.21-.26A1,1,0,0,0,5.51,8.56Zm1.1,6a.13.13,0,0,0,.07-.06,6.05,6.05,0,0,0,2.16.42,3.29,3.29,0,0,0,1.35-.27,11.47,11.47,0,0,1,.92,1.31.24.24,0,0,0-.15.37c-.49,1.28-4.42.58-4.76-.51a.47.47,0,0,0-.06-.09,1.24,1.24,0,0,0,.18-.22S6.7,14.66,6.61,14.52Zm4.88,1.8a2,2,0,0,0,.28.21l.32.16a.23.23,0,0,0,.07.11c-.06-.06-.43.44-.52.53-.23.25-.48.47-.73.7s-.34.28-.52.41-.92-.56-1.23-.93C10.29,17.53,11.3,17.18,11.49,16.32ZM8.37,17.44c-.36.31-.72.61-1.09.9s-.75-.08-1-.42c-.11-.16-1.06-1.44-.92-1.58a.24.24,0,0,0,.06-.09.61.61,0,0,0,.14-.07.81.81,0,0,0,.18-.12A3.48,3.48,0,0,0,8.37,17.44Zm4.72-1.23a.25.25,0,0,0-.22.2,3.89,3.89,0,0,1-.58-.18c-.87-.36-1.1-1.22-1.63-1.86a6.3,6.3,0,0,0,2.52-3,4.62,4.62,0,0,0,.21-.66h0c.89.1,1-1,1-1.63-.05-.47-.25-1.21-.76-1.14a.81.81,0,0,0,0-.16.23.23,0,0,0,0-.29,11.84,11.84,0,0,0,0-1.88.26.26,0,0,0,.05-.34,1.15,1.15,0,0,0-.14-.17v0a.26.26,0,0,0-.23-.17C12.07,4,8.71,4,8.8,2.31c0-.3-.41-.29-.5,0a.25.25,0,0,0-.19.25c0,.91-2,1.34-2.64,1.53s-1.66.32-2,1.11a.26.26,0,0,0-.16.25c0,.9.05,1.8.15,2.7-1,.12-.56,2.37.44,2.46a15.36,15.36,0,0,0,.63,1.88,3.54,3.54,0,0,0,1.67,1.76c-.17,1.76-2,2-3.39,2.36l-.48.14c-.42-.18-.85-.32-1.28-.51C.31,15.9.61,14,.61,13.42a49.29,49.29,0,0,1,.22-6.2,10.26,10.26,0,0,1,1.82-5,5,5,0,0,1,6-1.11A.23.23,0,0,0,8.94,1,.22.22,0,0,0,9.11.85C9.39.34,10.52.59,11,.65a3.79,3.79,0,0,1,1.93,1A8.24,8.24,0,0,1,15.4,7.05c.25,1.71.45,3.41.79,5.1.13.64.85,2.5.06,2.87A9.54,9.54,0,0,1,13.09,16.21Zm.39-6a17.16,17.16,0,0,0,.12-1.72h0c.15-.1.23.57.24.72s0,1-.38,1ZM3.73,10c-.33-.3-.42-1.16-.23-1.3C3.56,9.08,3.63,9.52,3.73,10Z"/><path class="cls-1" d="M10.54,12.42c.21-.26-.17-.6-.39-.34-.59.71-2.44,1-3,.11-.18-.29-.61,0-.43.29C7.46,13.68,9.74,13.39,10.54,12.42Z"/><path class="cls-1" d="M8.81,19.36a.27.27,0,0,0,.24-.28.26.26,0,0,0-.27-.24H8.69a.26.26,0,0,0,0,.52Z"/><path class="cls-1" d="M8.86,20.31h0a.26.26,0,0,0-.24.28.27.27,0,0,0,.28.23h0a.26.26,0,0,0,.24-.27A.27.27,0,0,0,8.86,20.31Z"/></g></g></svg>