<?xml version="1.0" encoding="utf-8"?>
<!-- Generator: Adobe Illustrator 22.0.1, SVG Export Plug-In . SVG Version: 6.00 Build 0)  -->
<svg version="1.1" id="Layer_1" xmlns="http://www.w3.org/2000/svg" xmlns:xlink="http://www.w3.org/1999/xlink" x="0px" y="0px"
	 viewBox="0 0 28.2 45.9" style="enable-background:new 0 0 28.2 45.9;" xml:space="preserve">
<style type="text/css">
	.st0{fill:#D4DE50;}
</style>
<title>Asset 20</title>
<g id="Layer_2_1_">
	<g id="Layer_1-2">
		<path class="st0" d="M9.2,43.5c0.4,0.5,0.9,0.9,1.4,1.2c0.9,0.6,1.9,1,2.9,1.2l2.4-0.1c0.1,0,0.3-0.1,0.4-0.1
			c0.9-0.4,1.7-0.9,2.3-1.6c0.2-0.2,0.4-0.4,0.5-0.6c0.2-0.3,0.4-0.7,0.6-1c0.2-0.3,0.3-0.6,0.3-1l0,0c0,0,0.1-0.1,0.1-0.1
			c0.1-0.2,0.1-0.3,0.1-0.5c0-0.2-0.1-0.4-0.2-0.5c0.3-0.1,0.4-0.3,0.4-0.6c0-0.1-0.1-0.2-0.2-0.3c0-0.1,0.1-0.2,0.1-0.3v-0.1
			c0-0.2-0.1-0.4-0.3-0.5l0,0l-0.2-0.1v-0.1l0.1-0.2l0.1,0c0.2,0,0.4-0.2,0.4-0.4c0-0.1,0-0.2,0-0.3c0-0.3-0.1-0.6-0.3-0.8L20,36.6
			c0.1-0.1,0.2-0.2,0.2-0.3c0.1-0.1,0.1-0.3,0.1-0.5v-0.2c0-0.5-0.1-0.9-0.1-1.4c0,0,0.1-0.1,0.1-0.1c0.7-0.9,1.2-1.9,1.5-2.9
			c0.3-0.9,0.4-1.8,0.6-2.6c0.5-1.8,1.3-3.5,2.3-5c1.8-2.7,2.7-5.9,2.6-9.2c0.1-3.1-0.9-6.2-2.8-8.7c-2-2.5-5.3-4.2-10.2-4.4h-0.6
			c-3.6,0-7.1,1.6-9.4,4.4C0.7,10.4,0,16.8,2.5,22.2c0.6,1.3,1.4,2.3,2.1,3.5c0.7,1,1.2,2.1,1.4,3.2c0.1,0.5,0.1,1,0.1,1.5
			c0.2,1.1,0.7,2.1,1.4,3c0.3,0.4,0.4,0.9,0.4,1.4c0,0.2,0,0.4,0,0.6c0,0.3,0,0.5,0,0.8l0.1,0.9c0,0.2,0.1,0.4,0.1,0.6
			c0,0.1,0.1,0.2,0.1,0.3c-0.1,0.3-0.2,0.6-0.2,0.9c0.1,1.2,0.2,2.3,0.5,3.5C8.6,42.8,8.9,43.2,9.2,43.5z M8.2,39.8c0,0,0-0.1,0-0.1
			L8.2,39.8L8.2,39.8z M8.8,34.2l0.1-0.1c0,0,0.1,0,0.1,0c1.8,0.2,3.6,0.3,5.5,0.3c0.9,0,1.9,0,2.8-0.1c0.6,0,1.3-0.1,1.9-0.3
			l0.1,0.8l-8.1,0.5h-0.8c-0.5,0-1,0-1.5-0.2c0-0.1,0-0.2,0-0.3S8.8,34.4,8.8,34.2L8.8,34.2z M12.9,33.4l-1.5-0.1
			c0.5-0.1,0.9-0.2,1.4-0.2L12.9,33.4C12.8,33.4,12.8,33.4,12.9,33.4L12.9,33.4z M14.9,21.4c0.4,0.4,0.9,0.6,1.5,0.6
			c-0.4,2.6-0.7,5.3-0.7,8c0,0.6,0,1.3,0.1,1.9h-0.9h-0.9c0-3.1-0.3-6.2-0.8-9.3h0.1c0.5-0.1,1-0.4,1.3-0.8
			C14.6,21.7,14.7,21.6,14.9,21.4L14.9,21.4z M14.7,16.4c0-1,0.1-2.1,0.4-3.1c0-0.2,0.1-0.4,0.2-0.5c0-0.1,0.1-0.2,0.2-0.2h0.1
			c0.2,0,0.4,0.2,0.5,0.4c0.1,0.2,0.1,0.4,0.1,0.7c0,0.2,0,0.4,0,0.6c-0.2,1.6-0.6,3.2-1.2,4.7C14.8,18.1,14.7,17.3,14.7,16.4
			L14.7,16.4z M15.8,33.4c-0.4,0-0.9,0-1.3,0h-0.7c0,0,0-0.1,0-0.1V33h0.9h1c0,0.1,0,0.2,0,0.2C15.7,33.3,15.7,33.4,15.8,33.4
			L15.8,33.4z M16.7,33.1c0.6,0,1.1,0.1,1.7,0.2c-0.4,0.1-0.8,0.1-1.2,0.2h-0.6C16.7,33.3,16.7,33.2,16.7,33.1L16.7,33.1z
			 M18.9,38.6c-1.2,0.2-2.4,0.3-3.7,0.5c-1.2,0.2-2.5,0.3-3.8,0.3c-0.8,0-1.6-0.1-2.3-0.2L8.9,39c0-0.2,0.1-0.4,0.1-0.5h0.3h0.1
			c3.3-0.2,6.6-0.5,9.8-1.1c-0.1,0-0.1,0.1-0.2,0.2c-0.2,0.2-0.3,0.5-0.3,0.8C18.8,38.4,18.8,38.5,18.9,38.6L18.9,38.6z M8.9,36.2
			c0.5,0.1,1,0.2,1.4,0.2c0.3,0,0.6,0,0.9,0l8-0.5l-0.1,0.2c-0.1,0.1-0.1,0.2-0.2,0.3c0,0,0,0.1,0,0.1c-3.1,0.5-6.3,0.9-9.4,1H9.4
			c-0.1,0-0.2,0-0.2,0c0,0-0.1-0.1-0.1-0.1C9,37.3,9,37.1,9,37C8.9,36.7,8.9,36.4,8.9,36.2L8.9,36.2z M9.2,40.7H9c0,0,0-0.1,0-0.2
			c0-0.2,0.1-0.3,0.2-0.5c0.8,0.1,1.6,0.2,2.3,0.2c1.3,0,2.6-0.1,3.9-0.3c1.3-0.2,2.5-0.3,3.8-0.5L19,39.7c-2.4,0.7-4.9,1.2-7.4,1.3
			C10.8,41,10,40.9,9.2,40.7L9.2,40.7z M17.1,44.3c-0.8,0.5-1.7,0.8-2.7,0.8H14c-1-0.1-2-0.5-2.8-1.1c-0.5-0.3-0.9-0.6-1.2-1
			c-0.1-0.2-0.3-0.4-0.4-0.5c0.3,0.1,0.6,0.1,0.9,0.2c1.3,0.2,2.7,0.3,4,0.3c1.5,0,3-0.2,4.4-0.6C18.4,43.1,17.8,43.7,17.1,44.3
			L17.1,44.3z M19.1,41.2c-0.2,0.1-0.4,0.1-0.6,0.2c-1.3,0.4-2.7,0.5-4.1,0.5h-0.8c1.8-0.2,3.6-0.6,5.4-1.1c0.1,0,0.1,0,0.2,0l0.1,0
			l0.1,0.1C19.3,41,19.2,41.1,19.1,41.2L19.1,41.2z M8.3,32.8c-0.6-0.8-1-1.6-1.2-2.6c-0.1-0.5,0-1-0.1-1.5
			c-0.3-1.3-0.8-2.5-1.6-3.6c-0.7-1.2-1.5-2.2-2-3.4c-2.4-5.1-1.7-11,1.7-15.4c2.1-2.6,5.3-4.1,8.7-4.1h0.5c4.7,0.2,7.6,1.8,9.5,4
			c1.8,2.3,2.7,5.1,2.6,8c0.1,3.1-0.8,6.1-2.4,8.7c-1.2,1.6-2,3.3-2.5,5.2c-0.3,0.9-0.4,1.8-0.6,2.6c-0.2,0.6-0.5,1.2-0.8,1.8
			c-0.1-0.1-0.2-0.2-0.3-0.2c-0.1,0-0.2,0-0.4,0c-0.9-0.1-1.8-0.2-2.7-0.3c0-0.6-0.1-1.3-0.1-1.9c0-2.7,0.2-5.5,0.7-8.2
			c0.1,0,0.3-0.1,0.4-0.1c0.8-0.5,1.4-1.1,1.9-1.9c1.1-1.8,1.6-3.8,1.6-5.8c0-0.4-0.1-0.7-0.3-1.1c-0.2-0.3-0.5-0.4-0.9-0.4
			c-0.3,0-0.7,0.1-0.9,0.3c-0.4,0.3-0.6,0.8-0.8,1.2c-0.8,2.3-1.4,4.6-1.9,7c-0.5,0-0.9-0.2-1.1-0.7c0.9-1.9,1.5-4,1.8-6.1
			c0-0.3,0-0.5,0-0.8c0-0.4-0.1-0.7-0.2-1.1c-0.2-0.6-0.8-1-1.4-1c-0.2,0-0.4,0-0.5,0.1c-0.3,0.1-0.5,0.4-0.7,0.7
			c-0.1,0.2-0.2,0.5-0.3,0.8c-0.5,2.2-0.5,4.5,0,6.7c0.1,0.2,0.1,0.4,0.2,0.6c-0.1,0.3-0.3,0.5-0.5,0.8c-0.2,0.2-0.4,0.4-0.7,0.5
			h-0.1c-0.4-2.4-1-4.7-1.7-7.1c-0.1-0.4-0.3-0.8-0.5-1.2c-0.2-0.4-0.5-0.8-0.9-1.1C9.5,12.1,9.1,12,8.6,12c-0.5,0-1,0.1-1.4,0.4
			c-0.7,0.5-1.1,1.3-1.1,2.2v0.1c0.1,0.7,0.3,1.4,0.6,2c1,1.9,2.3,3.6,3.9,5c0.4,0.3,0.8,0.6,1.3,0.8c0.5,3.2,0.8,6.4,0.8,9.6
			c-1.4,0.1-2.7,0.5-4,1.1c-0.1,0-0.1,0-0.2,0H8.5H8.4C8.4,33,8.4,32.9,8.3,32.8L8.3,32.8z M17.6,20.7c0.4-2.1,1-4.2,1.7-6.2
			c0.1-0.3,0.2-0.6,0.5-0.8l0.3-0.1h0.1c0.1,0.1,0.1,0.3,0.1,0.4c0,1.9-0.5,3.7-1.5,5.3C18.4,19.8,18,20.3,17.6,20.7L17.6,20.7z
			 M11.9,21.3c-0.2-0.1-0.3-0.2-0.5-0.4c-1.5-1.3-2.8-2.9-3.7-4.7c-0.3-0.5-0.5-1-0.5-1.5v-0.1c0-0.5,0.2-1,0.7-1.4
			c0.2-0.2,0.5-0.3,0.8-0.3c0.2,0,0.5,0.1,0.7,0.2c0.2,0.2,0.4,0.4,0.6,0.7c0.2,0.3,0.3,0.7,0.4,1C10.9,17,11.4,19.2,11.9,21.3
			L11.9,21.3z"/>
	</g>
</g>
</svg>
