<?xml version="1.0" encoding="utf-8"?>
<!-- Generator: Adobe Illustrator 22.0.1, SVG Export Plug-In . SVG Version: 6.00 Build 0)  -->
<svg version="1.1" id="Layer_1" xmlns="http://www.w3.org/2000/svg" xmlns:xlink="http://www.w3.org/1999/xlink" x="0px" y="0px"
	 viewBox="0 0 30.2 17.3" style="enable-background:new 0 0 30.2 17.3;" xml:space="preserve">
<style type="text/css">
	.st0{fill:#FF7A00;}
</style>
<title>Asset 27</title>
<g id="Layer_2_1_">
	<g id="Layer_1-2">
		<path class="st0" d="M30.1,8.8c-0.4-0.8-0.9-1.5-1.6-2.1l0,0C29,5.7,30,4,29.4,2.9c-0.5-0.9-1.4,0.5-1.7,1
			c-0.1-0.1-0.3-0.2-0.4-0.1C27,3.9,27.1,3.3,27,3.1s-0.4-0.4-0.7-0.3C25.9,2.9,25.4,3,25,3.3c-0.9,0.3-0.9-0.5-1.2-0.9
			c-0.4-0.7-2.4,0.7-2.5-0.2c-0.1-0.7-0.1-1.4-1-1.4c-0.4,0.1-0.8,0.2-1.2,0.5c-0.7,0.4-1-0.5-1.4-1c-0.7-0.8-1.6-0.1-2.2,0.5
			c-0.1,0.1-0.4,0.7-0.6,0.5S14.4,0.9,14,0.6c-0.2-0.2-0.5-0.2-0.8-0.2c-0.4,0.1-0.7,0.6-0.9,0.8c-0.7,0.8-1,0-1.5-0.6
			c-0.1-0.1-0.2-0.1-0.4-0.1C9.7,1,9.1,2.5,8.3,2.2l0,0C8.2,2.3,8.1,2.2,8,2.1C7.9,2,7.7,2,7.6,2c-1,0.5-1.1,1.7-1.7,2.5
			c0-0.3-0.1-0.5-0.3-0.7c0-0.3-0.1-0.5-0.4-0.5C4,3.3,4.5,4.7,3.7,5.1S2.4,5.6,2.2,6.6c-0.1,0.3-0.1,0.7-0.1,1
			C1.4,7.5,0.7,7.8,0.3,8.3c-0.7,0.8,0.1,2,0.4,2.7c0.4,0.6,0.9,1.3,1.2,2c0.2,0.4,0.1,1,0.5,1.3c0.5,0.5,1.3,0.6,2,0.3v0.1
			c0.1,0.8,0.7,1.4,1.5,1.4c0.6,0,1.4,1.3,2.1,1c0.3-0.2,0.5-0.5,0.6-0.8c0.2,0,0.3-0.1,0.3-0.3v-0.1v-0.1c-0.1-0.7-0.2-1.4-0.4-2
			c0.3,0.3,0.6,0.5,1,0.7c0.1,0.1,0.2,0.1,0.3,0c0.4-0.5,0.8-1.1,1.2-1.6s0.8,0.6,1.2,0.7c0.9,0.3,1.7-1.1,2.5-1.6
			c0.1,0.6,0.4,1.3,0.9,1.4c0.5,0.1,1.4-0.6,2.1-1.1c0.1,0.2,0.3,0.2,0.4,0.1l0,0c0.1,0.4,0.4,0.7,0.8,0.9c0.2,0.1,0.4,0.1,0.6,0
			c0.2,0.1,0.3,0,0.4-0.2l0,0c0,0,0,0,0-0.1c0.3-0.2,0.6-0.4,0.9-0.6c0,0.4,0.1,0.9,0.6,1c0.2,0,0.5,0,0.7-0.1
			c0.8-0.2,1.1-0.5,1.5,0.3l0,0c-0.2,0.5-0.2,1.1-0.1,1.7c-0.2-0.1-0.3,0.3-0.1,0.4c0.8,0.3,1.6-1.3,2.1-2.4
			c0.8-0.2,1.3,0.8,2.3,0.4c0.7-0.3,1.2-1.6,1.5-2.3S30.4,9.6,30.1,8.8z M2.5,12.9C2.3,12.5,2,12,1.7,11.6c-0.3-0.5-0.6-1-0.9-1.4
			S0.3,8.9,1,8.4c0.3-0.3,0.8-0.3,1.2-0.2C2.4,9,2.6,9.8,2.9,10.6c0.4,1.2,0.9,2.3,1.3,3.5C3.4,15.1,2.6,13.6,2.5,12.9z M7.9,15.7
			C8.2,17.1,7.4,16,7,15.8c-0.3-0.2-0.7-0.3-1.1-0.2c-0.8,0.1-1-1.4-1.2-1.9c-0.2-0.8-0.7-1.6-1-2.4c-0.4-1.1-2.1-4.7-0.4-5.4
			C3.6,5.8,4,5.7,4.2,5.5c0,0,0.3-0.3,0.3-0.4C4.5,5.3,5.1,4,5,4.5c0,0.1,0.1,0.2,0.2,0.2l0,0c0,0.1,0,0.2,0,0.2
			c0.1,0.5,0.2,1,0.4,1.5c0.6,1.3,1,2.6,1.4,4s0.6,2.7,0.9,4c0.1,0.3,0.1,0.7,0.2,1C7.9,15.4,7.9,15.6,7.9,15.7z M9.5,13.9
			c-0.3-0.2-0.6-0.3-0.9-0.6c-0.1-0.1-0.2-0.1-0.3,0C8.1,12.1,7.8,11,7.4,9.8C7.1,8.4,6.6,7.1,6.1,5.7C6.1,5.6,6,5.4,6,5.1
			C6.3,4.8,6.6,4.4,6.8,4C6.9,3.8,7,3.5,7.1,3.3C7.5,2.7,7.5,2.6,8,3l0.1,0.1c0.4,1.6,0.7,3.1,1,4.7c0.4,1.8,0.7,3.5,0.9,5.3
			C9.8,13.4,9.7,13.7,9.5,13.9z M11.7,6.7c0.1,1.8,0,3.6-0.2,5.3c-0.3,0-0.7,0.1-0.9,0.4c-0.1-1.5-0.6-2.9-0.9-4.3
			c-0.2-1.6-0.5-3.3-1-4.9c0.4-0.1,0.7-0.3,0.9-0.7C10,2,10.3,1.2,10.9,1.8c0.2,0.3,0.5,0.5,0.9,0.6c0,0.5,0,1,0,1.5
			C11.7,4.8,11.7,5.8,11.7,6.7z M14.6,11.3c-0.5,0.3-0.9,0.6-1.3,1c-0.2,0.2-0.6,0.9-1.1,0.5c-0.1-0.1-0.2-0.2-0.3-0.3
			c0.3-1.8,0.4-3.6,0.2-5.3c0-1.1,0-2.2,0-3.2c0.1-0.6,0-1.1-0.1-1.7c0.3-0.2,0.5-0.4,0.7-0.7c0.8-0.8,1.4,0,2.2,0.5
			C15,5.2,15.5,8.3,14.6,11.3z M17.7,11.3c-0.4,0.2-0.7,0.5-1,0.8c-0.3,0.2-0.6,0.4-0.9,0.6c-0.2-0.4-0.4-0.8-0.5-1.3v-0.1
			c0.7-3,0.5-6.3,0.4-9.4c0.2-0.3,0.5-0.6,0.7-0.9c0.9-1,1.6,0.6,2,1c0.1,0.1,0.1,0.1,0.2,0.1c0,1.9-0.1,3.7-0.3,5.6
			C18.1,8.9,17.8,10.1,17.7,11.3z M19.5,12.4c-0.6,0.2-0.8-0.6-1.1-1.1l-0.1-0.1c0.1-1.4,0.4-2.8,0.6-4.2c0.2-1.6,0.2-3.3,0.2-4.9
			C19.2,2,19.4,2,19.5,1.9c0.5-0.2,1.2-0.4,1.2,0.3c0,0.3,0.1,0.5,0.2,0.7C21,3,21.1,3,21.1,3c-0.1,1.6-0.5,3.1-0.7,4.7
			C20.2,9.3,19.9,10.9,19.5,12.4z M21.9,12.5l-0.1,0.1c-0.2,0-0.3-0.2-0.4-0.8c0-0.2-0.1-0.3-0.3-0.3c0,0,0,0-0.1,0
			c-0.3,0-0.6,0.2-0.8,0.3c0.3-1.3,0.5-2.7,0.7-4c0.3-1.5,0.5-3.1,0.6-4.6c0.4,0,0.7-0.1,1.1-0.3c0.2-0.1,0.5-0.2,0.7-0.3
			c0.1,0.3,0.3,0.6,0.5,0.8c0.1,0.2,0.3,0.3,0.5,0.3l0,0c-0.3,1.4-0.7,2.8-1.1,4.2c-0.2,0.8-0.4,1.6-0.6,2.4
			C22.5,11.2,22.3,11.9,21.9,12.5z M24,12.7c-0.1-0.3-0.4-0.5-0.6-0.6c-0.2,0-0.4,0-0.6,0.1c0.4-1,0.6-2,0.9-3
			C24,7.5,24.9,5.8,24.8,4l0,0c0.2,0,0.5-0.1,0.7-0.2c0.2,0,1-0.6,1-0.2c0,0.2,0,0.5,0.1,0.7s0.4,0.3,0.6,0.3v0.1
			c0,0.1,0.1,0.2,0.1,0.3c-0.3,0.6-0.5,1.3-0.8,1.9c-0.4,0.8-0.9,1.6-1.3,2.5l-1.2,3L24,12.7z M24.2,14.8c-0.2-1.4,0.9-3.2,1.4-4.5
			s1.3-2.7,1.9-4.1c0.3-0.8,0.6-1.5,1-2.3c0.3-0.7,0.5-0.7,0.6,0c-0.1,0.5-0.3,1-0.5,1.5C28.3,6,28,6.6,27.8,7.3
			C26.6,9.9,25.5,12.4,24.2,14.8z M29.6,9.4c-0.2,0.9-0.7,1.7-1.2,2.5c-0.2,0.3-0.4,0.7-0.6,1c-0.4,0.4-1.1-0.1-1.5-0.2
			c-0.1-0.1-0.3-0.1-0.4-0.1l0.1-0.1l0.3-0.5c0,0,0,0,0,0.1c0.1,0.1,0.2,0.1,0.3,0.1l0,0l0,0l0,0l0,0l0,0c0.3-0.4,0.6-0.8,0.8-1.2
			c0.1-0.3-0.4-0.4-0.5-0.1c-0.1,0.3-0.3,0.5-0.5,0.8c0.6-1.4,1.2-2.7,1.8-4.1C28.8,7.9,29.7,8.5,29.6,9.4z"/>
		<path class="st0" d="M3.3,13.4L3.3,13.4c0.2,0,0.4-0.1,0.4-0.3c0-0.1-0.1-0.3-0.3-0.3H3.3C3.1,12.9,3,13,3,13.1
			C3,13.3,3.1,13.4,3.3,13.4L3.3,13.4z"/>
		<path class="st0" d="M2.7,12.1c-0.1,0-0.3,0.1-0.3,0.3s0.1,0.3,0.3,0.3h0.1c0.1,0,0.3-0.1,0.3-0.3S3,12.1,2.9,12.1H2.7z"/>
		<path class="st0" d="M2.4,11.1l-0.3-0.9C2,9.9,1.5,10,1.6,10.4L2,11.5l0,0c0,0.1,0.1,0.1,0.1,0.1l0,0h0.1h0.1l0,0l0,0l0,0
			c0.1,0,0.1-0.1,0.1-0.2l0,0v-0.1C2.5,11.3,2.4,11.2,2.4,11.1z"/>
		<path class="st0" d="M1.2,9C1,9,0.9,9.2,1,9.3c0,0.1,0.1,0.2,0.2,0.2s0.2-0.2,0.2-0.3C1.4,9.1,1.3,9,1.2,9z"/>
		<path class="st0" d="M27.7,11.2c0,0.2-0.1,0.4-0.2,0.5c-0.1,0-0.2,0.1-0.2,0.2V12c0,0.1,0.1,0.2,0.2,0.2s0.2,0,0.3-0.1
			c0.2-0.3,0.3-0.6,0.4-1C28.2,10.9,27.7,10.9,27.7,11.2z"/>
		<path class="st0" d="M28.7,10.6c0.1,0,0.3-0.1,0.3-0.3c0-0.1-0.1-0.3-0.3-0.3c-0.1,0-0.3,0.1-0.3,0.3
			C28.5,10.4,28.6,10.5,28.7,10.6z"/>
		<path class="st0" d="M28.1,8.6C28,8.7,27.9,9,27.7,9.1c-0.1,0.1-0.1,0.2,0,0.3h-0.1c-0.1,0-0.3,0.1-0.3,0.3c0,0.1,0.1,0.3,0.3,0.3
			c0.1,0,0.3-0.1,0.3-0.2c0-0.1,0-0.1,0-0.2c0.1,0,0.2,0,0.2-0.1c0.1-0.1,0.2-0.4,0.4-0.5c0.1-0.1,0.1-0.3,0-0.4
			C28.4,8.5,28.3,8.5,28.1,8.6L28.1,8.6z"/>
	</g>
</g>
</svg>
