<?xml version="1.0" encoding="utf-8"?>
<!-- Generator: Adobe Illustrator 22.0.1, SVG Export Plug-In . SVG Version: 6.00 Build 0)  -->
<svg version="1.1" id="Layer_1" xmlns="http://www.w3.org/2000/svg" xmlns:xlink="http://www.w3.org/1999/xlink" x="0px" y="0px"
	 viewBox="0 0 21.8 19.7" style="enable-background:new 0 0 21.8 19.7;" xml:space="preserve">
<style type="text/css">
	.st0{fill:#D4DE50;}
</style>
<title>Asset 8</title>
<g id="Layer_2_1_">
	<g id="Layer_1-2">
		<path class="st0" d="M21.1,10.4c0.6-1.5,0.8-3.1,0.6-4.8c-0.2-1.2-1.2-2.1-2.4-2.2c-1.4-0.1-2.7,0.1-4,0.6
			c-1.2,0.5-1.9,1.6-2.9,2.4h-0.1c-0.3-0.1-0.5-0.2-0.8-0.2c0.2-0.1,0.5-0.3,0.7-0.5C13,5,12.6,4,11.8,3.5c-0.2-0.2-0.5-0.3-0.8-0.3
			c0.8-0.5,1.1-1.6,0.5-2.5l0,0C10.8,0,9.6-0.1,8.8,0.6C8.5,0.8,8.3,1.4,8.4,1.9c0,0.3,0.1,0.5,0.3,0.7C8.8,2.8,9.4,3,9.4,3.3
			c0,0.1,0,0.1,0.1,0.2L9.4,3.6C8.5,4.3,8.9,5.3,9.6,6c0,0-0.1,0.1-0.1,0.2H8.9H8.8C6.6,4.3,0.7,2.7,0.1,6.9c-0.3,1.7,0.5,3.5,1.1,5
			c0.8,1.8,1.6,3.9,3,5.3c-0.3,0.7-0.2,1.6,0.3,2.3c0.1,0.1,0.1,0.1,0.2,0.1c0.1,0.1,0.2,0.1,0.3,0.1c0.9-0.4,2.2,0,3.1,0.1
			c1.2,0,2.4-0.1,3.6-0.3c2.6-0.3,5.1-0.2,7.6-0.7c0.1,0,0.2-0.1,0.2-0.3c-0.1-0.7-0.2-1.3-0.5-1.9l0.1-0.1
			C19.8,14.5,20.4,12.4,21.1,10.4z M9.1,2.4C8.8,2.2,8.9,1.6,8.9,1.3c0.1-0.8,1.5-0.9,2-0.6c1.3,0.6-0.3,3-1.3,2H9.5l0,0
			C9.4,2.6,9.3,2.5,9.1,2.4L9.1,2.4z M9.8,3.8c0.6-0.4,1.5-0.4,2,0.2c1.1,1-0.3,1.9-1.4,2l0,0C9.7,5.4,8.9,4.5,9.8,3.8L9.8,3.8z
			 M9.6,6.7c0.5,0,1,0,1.4,0c1.3,0,1.5,0.8,1.7,1.9c0.2,0.8,0.3,1.6,0.4,2.4c0.2,1.6,0.3,3.3,0.4,4.9c-0.1,0.1-0.1,0.3,0.1,0.3h0.1
			h-0.4c-0.9,0-1.8,0.1-2.8,0.1c0-2-0.7-3.9-0.8-5.9c0-0.6-0.1-1.3-0.1-1.9c0.1,0,0.2-0.2,0.2-0.3S9.7,8.1,9.7,8L9.4,8.2
			c0-0.1-0.1-0.3-0.1-0.4C9.2,7,8.9,6.7,9.6,6.7z M13.3,8.6c0.1,0,0.1,0,0.2,0c0.7-0.5,1.4-1,2.1-1.5c0.5-0.4,1.2-0.6,1.9-0.5
			c1.3,0.1,1.4,1.8,1.3,2.7c-0.3,2.4-0.9,4.8-1.9,7H14c0.1,0,0.2-0.1,0.2-0.3C13.8,13.6,13.7,11.1,13.3,8.6z M8.1,16.6
			c-1.4-2.4-3-4.5-4.4-6.8C3.3,9.2,2,7.1,3.2,6.7c0.9-0.3,2.2,0.2,3,0.5c1,0.4,1.9,0.9,2.8,1.3c0.1,1,0.2,2,0.2,3.1
			c0.1,1.7,0.8,3.2,0.8,4.9C9.4,16.6,8.7,16.6,8.1,16.6z M2,12.3C1.3,11,0.8,9.7,0.6,8.2c-0.7-4.9,5.7-3.7,8-1.5c0,0,0.1,0,0.1,0.1
			c0,0.4,0.1,0.7,0.2,1.1C6.7,6.8,1.6,4.4,2.3,8c0.4,1.4,1.2,2.8,2.1,3.9c1,1.5,2,3,2.9,4.5c0,0.1,0,0.1,0,0.2l0,0l0,0
			c-0.8,0-2-0.3-2.8,0.1C3.3,15.6,2.7,13.9,2,12.3z M18.5,18.4c-2.7,0.4-5.4,0.3-8.1,0.6c-1.2,0.1-2.5,0.1-3.8,0
			c-0.5-0.1-1.1-0.1-1.6,0l0,0c0-0.1-0.1-0.2-0.2-0.2c-0.3-0.6-0.3-1.6,0.6-1.6H7c1.4,0,2.9-0.2,4.3-0.3s3-0.1,4.5-0.1h0.8
			C16.7,17,16.8,17,17,17c0.1,0,0.1-0.1,0.1-0.1l0,0h0.7c0.4-0.1,0.8,0,1,0.4C19,17.6,19.2,18.3,18.5,18.4L18.5,18.4z M18.8,15.9
			c-0.2,0-0.4,0.2-0.3,0.4l0,0h-1.2c0.6-1.4,1-2.8,1.3-4.3s0.8-3,0.4-4.5c-0.9-3.2-4.5-0.4-5.9,0.6c-0.1-0.5-0.2-0.9-0.4-1.3
			c0.6-0.5,1.2-1.1,1.8-1.6c1.2-1,2.8-1.4,4.4-1.3c2,0,2.5,1.7,2.4,3.4c-0.2,1.3-0.5,2.6-1,3.9C19.7,12.8,19.3,14.4,18.8,15.9
			L18.8,15.9z"/>
	</g>
</g>
</svg>
