<?xml version="1.0" encoding="utf-8"?>
<!-- Generator: Adobe Illustrator 22.0.1, SVG Export Plug-In . SVG Version: 6.00 Build 0)  -->
<svg version="1.1" id="Layer_1" xmlns="http://www.w3.org/2000/svg" xmlns:xlink="http://www.w3.org/1999/xlink" x="0px" y="0px"
	 viewBox="0 0 23.5 24.5" style="enable-background:new 0 0 23.5 24.5;" xml:space="preserve">
<style type="text/css">
	.st0{fill:#FF4500;}
</style>
<title>Asset 2</title>
<g id="Layer_2_1_">
	<g id="Layer_1-2">
		<path class="st0" d="M13.6,6c-2.8-0.3-6.1,0.9-7.1,3.8c-0.5,1.3-0.4,2.7,0.2,3.9c0.8,1.6,2.7,2.6,2.6,4.5l0,0
			C9,18.6,9,19,9.2,19.2c-0.3,0.3-0.3,0.8-0.1,1.2c-0.3,0.1-0.4,0.6-0.3,1c0.1,0.3,0.3,0.6,0.6,0.8c-0.5,1.1,0.7,2,1.7,2.1
			S14,24,14,22.7c0-0.2-0.2-0.3-0.3-0.3s-0.2,0.1-0.2,0.1c-0.4,0.7-1.2,1.2-2.1,1.1c-0.4,0-0.8-0.1-1.2-0.3c-0.2-0.1-0.6-0.7-0.6-1
			c0.4,0.3,0.9,0.5,1.3,0.6c1,0.3,2.1,0,2.7-0.8c0.4-0.4,0.9-1.2,0.7-1.8c0.1-0.1,0.1-0.1,0.2-0.2c0.4-0.5,0.5-1.2,0-1.5
			c0-0.1,0-0.1,0-0.2c0.2,0.1,0.4,0,0.5-0.2c0-0.1,0-0.1,0-0.2c-0.1-1.6,1.3-2.5,2.3-3.5c0.9-0.8,1.4-1.8,1.6-2.9
			C18.9,8.7,16.3,6.3,13.6,6z M11.7,22.5c-0.6,0-1.1-0.2-1.6-0.5c-0.2-0.1-0.3-0.2-0.5-0.2c-0.1-0.1-0.9-0.9-0.7-1.1v0.1
			c0.6,0.9,1.7,0.8,2.5,0.8c0.6,0,1.3-0.1,1.9-0.4C13.2,21.8,12.5,22.4,11.7,22.5z M11.6,20.7c-0.5,0-1,0-1.5,0
			c-0.3,0-1-0.8-0.9-1.2l0,0C10,20,11,20.2,12,20c0.7-0.1,1.4-0.3,2-0.8C14.4,20.2,12.1,20.7,11.6,20.7z M10.5,14.7
			c-0.2-0.8-0.6-1.5-0.9-2.2c0.3,0.1,0.7,0,1-0.1l0.1,0.1c0.5,0.3,1.1,0.2,1.5-0.2c0.1,0.2,0.3,0.2,0.5,0.2s0.4-0.1,0.6-0.1
			c0.4-0.2,0.8-0.2,1.1-0.1c-1.2,1.9-2.4,3.8-2.5,6h-0.2h-0.4v-0.1C11.2,16.9,11,15.8,10.5,14.7z M12.3,18.9c0.5,0,1-0.1,1.4-0.3
			c-0.4,1.1-4.4,1.4-4.3-0.1l0,0c0.3,0.1,0.7,0.2,1,0.2C11,18.8,11.6,18.9,12.3,18.9z M17.2,13.5c-1.1,1.4-2.8,2.3-3,4.2
			C14,17.6,14,17.6,14,17.6c-0.3,0.1-0.5,0.4-0.8,0.5c-0.2,0.1-0.4,0.1-0.7,0.1c0.1-2.3,1.5-4.2,2.6-6.1c0.1-0.2,0-0.4-0.1-0.5
			c0,0,0,0-0.1,0c-0.3-0.1-0.7-0.2-1-0.2s-1.3,0.5-1.4,0.2c0-0.2-0.2-0.3-0.4-0.2c-0.1,0-0.1,0-0.1,0.1c-0.3,0.4-0.6,0.5-0.9,0.2
			c0-0.1,0-0.1,0-0.2c0-0.2-0.1-0.3-0.3-0.3c-0.1,0-0.2,0.1-0.3,0.2c-0.1,0.1-0.2,0.3-0.2,0.5c-0.4,0.2-1.3-0.1-1.4-0.3
			S8.3,11.7,8.6,12c0.7,1,1.2,2.1,1.5,3.2c0.4,1,0.7,2,0.9,2.9C10.6,18,10.2,18,9.8,18c0.2-2.2-2.3-3.6-2.9-5.6
			C6.4,10.8,7.3,9.1,8.5,8c1.4-1.1,3.1-1.7,4.8-1.5C16.3,6.8,19.6,10.5,17.2,13.5L17.2,13.5z"/>
		<path class="st0" d="M4.7,16.6c-0.3-0.1-0.8,0.3-1.1,0.4s-0.4,0.3-0.7,0.4c-0.1,0-0.2,0.1-0.3,0.1s-0.2,0,0,0.1
			c-0.1,0-0.2,0.1-0.2,0.2s0,0.2,0.1,0.2c0.3,0.1,0.8-0.2,1.1-0.3c0.3-0.1,1.1-0.4,1.2-0.9C4.8,16.7,4.7,16.7,4.7,16.6z"/>
		<path class="st0" d="M2.4,10.6c-0.4-0.2-0.8-0.3-1.3-0.3c-0.2,0-0.4,0-0.6,0c-0.1,0-0.2,0.1-0.3,0.1c-0.1,0.1,0,0.2,0.1,0.3h0.1
			l0,0h0.2l0.6,0.1c0.4,0.1,0.7,0.1,1.1,0C2.4,10.9,2.5,10.8,2.4,10.6C2.4,10.7,2.4,10.6,2.4,10.6z"/>
		<path class="st0" d="M6,4.2C5.8,3.8,5.3,3.6,5,3.3S4.4,2.6,4.1,2.2C4,2,3.6,2.2,3.8,2.4c0.3,0.5,0.6,0.9,1,1.3
			C5,4,5.5,4.5,5.9,4.4C5.9,4.4,6,4.4,6,4.2L6,4.2z"/>
		<path class="st0" d="M13,0.5c0-0.1-0.1-0.2-0.2-0.2c-0.1,0-0.2,0.1-0.2,0.2c0,1.1-0.8,2.2-0.4,3.1c0,0.1,0.2,0.2,0.3,0
			C12.8,2.6,13,1.5,13,0.5z"/>
		<path class="st0" d="M20.7,3.2c-1-0.5-2.2,0.8-3,1.2c-0.3,0.1-0.1,0.5,0.2,0.5c0.5-0.1,1-0.4,1.4-0.7c0.5-0.3,1-0.5,1.5-0.7
			C20.8,3.4,20.8,3.3,20.7,3.2L20.7,3.2z"/>
		<path class="st0" d="M23.3,9.6C23,8.7,21.9,9.2,21.2,9c-0.3-0.1-0.4,0.3-0.2,0.4c0.6,0.4,1.4,0.1,2.1,0.4
			C23.2,9.8,23.3,9.7,23.3,9.6z"/>
		<path class="st0" d="M21.2,18.4c-0.3-0.3-0.6-0.4-1-0.5l-0.7-0.3l-0.3-0.1c-0.2-0.1-0.1-0.1-0.1,0c0-0.3-0.5-0.4-0.5-0.1
			c-0.1,0.5,0.6,0.7,0.9,0.9c0.3,0.2,1.2,0.6,1.6,0.3C21.2,18.6,21.2,18.5,21.2,18.4L21.2,18.4z"/>
	</g>
</g>
</svg>
