<?xml version="1.0" encoding="utf-8"?>
<!-- Generator: Adobe Illustrator 22.0.1, SVG Export Plug-In . SVG Version: 6.00 Build 0)  -->
<svg version="1.1" id="Layer_1" xmlns="http://www.w3.org/2000/svg" xmlns:xlink="http://www.w3.org/1999/xlink" x="0px" y="0px"
	 viewBox="0 0 20.4 22.4" style="enable-background:new 0 0 20.4 22.4;" xml:space="preserve">
<style type="text/css">
	.st0{fill:#D4DE50;}
</style>
<title>Asset 23</title>
<g id="Layer_2_1_">
	<g id="Layer_1-2">
		<path class="st0" d="M3.7,19.4c2,4.4,6.2,3,9.8,1.8c1.1-0.3,2.2-0.6,3.4-0.7c0.9,0,1.8-0.3,2.6-0.7c0.8-0.6,1.6-2.3,0.3-2.8
			c-0.6-0.2-1.3-0.3-1.9-0.3c-0.4-1.6-3.3-0.8-4.3-0.6c-1.1,0.3-2.3,0.6-3.4,0.6c-1.1,0-1.8-1.2-2.3-2.4c0,0,0.1,0,0.1,0
			c0.3-0.2,0.7-0.4,0.7-0.9c-0.1-0.5-0.2-1-0.4-1.4c-0.2-0.8-0.6-1.3-1.3-1.2c0.2-0.3,0.6-0.4,1.3-0.5c0.7-0.1,1.3-0.2,2-0.4
			c1.5-0.4,2.9-1.1,4.1-2.1c0.4-0.3,0.7-0.7,0.9-1.1c0.1-0.4-0.5-1.1-0.2-1.4c0.2-0.2,0.2-0.4,0.3-0.7l0.1-0.1
			C15.7,4.1,16.5,4.1,17,4c0.5-0.1,0.9-0.3,1.2-0.6c0.2-0.2,0.2-0.6,0.1-0.9V2.4l0,0c0.4-0.1,0.7-0.3,1-0.6c0.4-0.1,0.7-0.3,0.9-0.6
			c0.1-0.2,0.1-0.5-0.1-0.7c-0.3-0.4-0.9-0.5-1.3-0.2c0,0,0,0,0,0c-0.5-0.2-1-0.2-1.4,0.1c0-0.1-0.1-0.2-0.2-0.3
			c-0.8-0.1-1.6,0.1-2.3,0.4c-1.3,0.3-2.6,0.6-3.8,1C7.7,2.6,4.4,4,1,4.9l0,0c0,0-0.1,0-0.1,0.1C0.4,5.3,0,5.7,0,6.4
			C0.2,7,0.4,7.6,0.6,8.1c0.3,0.8,0.5,1.6,0.6,2.5c0.3,1.6,0.6,3.1,1.1,4.6C2.7,16.6,3.2,18,3.7,19.4z M19.3,0.9
			c0-0.1-0.1-0.2-0.1-0.2l0,0c0,0,0.1,0,0.1,0h0.1h0.1l0,0l0,0l0,0l0,0l0,0l0,0l0,0l0,0l0,0C19.4,0.7,19.4,0.8,19.3,0.9
			C19.3,0.8,19.3,0.9,19.3,0.9z M17.6,0.9L17.6,0.9c0.5-0.3,1.1-0.2,1.2,0.4c0.1,0.4-0.6,0.5-0.8,0.6h0C17.8,1.5,17.7,1.2,17.6,0.9
			L17.6,0.9z M14,1.2l0.6-0.1c0.7-0.3,1.5-0.4,2.3-0.5c0,0,0,0.1,0,0.1c0.2,0.5,0.4,1.1,0.6,1.6c0.1,0.1,0.3,0.4,0.2,0.6
			c-0.2,0.2-0.4,0.3-0.6,0.4c-0.7,0.1-1.4,0.3-2,0.6c-0.1-0.3-0.3-0.7-0.4-1L14,1.2z M6.2,3.8L6.2,3.8c0.1,0.3,0.2,0.5-0.1,0.7
			C5.7,4.7,5.4,4.8,5,4.9C4.9,4.8,4.8,4.7,4.8,4.5c0-0.1,0-0.1,0-0.2L6.2,3.8z M11.2,2.7L9.5,3.2C9.4,3,9.4,2.8,9.3,2.7l0.8-0.3
			l0.8-0.3L11.2,2.7z M6.4,10.2c0-0.1-0.2-0.2-0.3-0.2c-2.2,0.1-2.5-2.6-0.5-3.4c1-0.4,2.1-0.8,3.1-1.2c1.7-0.7,4.5-2.6,5.4,0.1
			c0,0.1,0.1,0.2,0.2,0.2c0.3,1.1-0.2,1.6-1.2,2.3c-0.8,0.5-1.7,0.9-2.6,1.2C9.2,9.4,8,9.6,6.8,10C6.6,10.1,6.5,10.1,6.4,10.2z
			 M7.6,13.8C7.3,13.1,7.1,12.5,7,12c-0.1-0.2-0.1-0.4-0.2-0.6c0.7-0.3,0.6,0.3,0.8,0.9c0.1,0.2,0.2,0.5,0.3,0.8
			C8.1,13.5,7.8,13.6,7.6,13.8z M4.9,20.3c0.1,0,0.1,0,0.2,0c2.2-0.6,4.4-0.9,6.6-1.5c2-0.5,4-1.4,6-1.5c0.4-0.1,0.9-0.1,1.3,0
			c1,0.3,0.8,1.5,0,1.9c-0.8,0.4-1.7,0.6-2.6,0.7c-1.3,0.2-2.6,0.5-3.8,0.9c-1.4,0.6-2.9,1-4.5,1.2C6.8,22,5.6,21.4,4.9,20.3z
			 M3.8,17.9c-0.8-2.2-1.4-4.5-1.9-6.8c-0.1-0.9-0.3-1.8-0.5-2.7c-0.3-1-1.2-2.1-0.1-3l0,0c1-0.3,2-0.6,3-0.9c0,0.3,0.2,0.7,0.4,0.9
			C4.7,5.5,4.9,5.6,5,5.5c0.6-0.1,1.1-0.4,1.6-0.7C6.9,4.5,6.9,4,6.8,3.7l0,0l2-0.8C8.9,3.2,9,3.4,9.1,3.7c0.1,0.1,0.2,0.2,0.4,0.2
			c0.7-0.3,1.5-0.5,2.2-0.7c0.1-0.1,0.2-0.2,0.2-0.4l-0.3-0.9c0.6-0.2,1.3-0.4,1.9-0.5l0.6,1.8v0.2c0,0.1,0.1,0.2,0.1,0.2l0,0
			c0,0.1,0,0.1,0.1,0.1c0.2,0.3,0.2,0.8,0.1,1.1c-0.4-1.1-1.6-1.6-2.7-1.3C9.6,4.2,7.5,5.3,5.4,6.1C4.2,6.5,3.5,7.6,3.6,8.9
			c0.3,1.4,1.2,1.8,2.5,1.8c-0.1,0.2-0.1,0.4,0,0.7c0.4,1.4,1,2.9,1.6,4.2c0.9,2.2,2.3,2,4.4,1.5c0.9-0.2,4.5-1.4,5.1-0.3
			c-1,0.2-2.1,0.5-3.1,0.8c-3,0.9-6.1,1.3-9.2,2.1c-0.1,0-0.2,0.2-0.2,0.3C4.3,19.4,4,18.7,3.8,17.9z"/>
	</g>
</g>
</svg>
