<?xml version="1.0" encoding="utf-8"?>
<!-- Generator: Adobe Illustrator 22.0.1, SVG Export Plug-In . SVG Version: 6.00 Build 0)  -->
<svg version="1.1" id="Layer_1" xmlns="http://www.w3.org/2000/svg" xmlns:xlink="http://www.w3.org/1999/xlink" x="0px" y="0px"
	 viewBox="0 0 30.2 17.3" style="enable-background:new 0 0 30.2 17.3;" xml:space="preserve">
<style type="text/css">
	.st0{fill:#FF7A00;}
</style>
<title>Asset 27</title>
<g id="Layer_2_1_">
	<g id="Layer_1-2">
		<path class="st0" d="M29.7,8.8c-0.4-0.8-0.9-1.5-1.6-2l0,0c0.5-1,1.5-2.6,0.9-3.7c-0.5-0.9-1.4,0.5-1.7,1C27.2,4,27,3.9,26.9,4
			c-0.3,0.1-0.2-0.5-0.3-0.7S26.3,2.8,26,2.9c-0.4,0.1-0.9,0.2-1.3,0.5c-0.9,0.3-0.9-0.5-1.2-0.9c-0.4-0.7-2.3,0.7-2.4-0.2
			C21,1.7,21,1,20.2,1c-0.4,0.1-0.8,0.2-1.2,0.5c-0.7,0.4-1-0.5-1.4-1C17-0.3,16.1,0.4,15.5,1c-0.1,0.1-0.4,0.7-0.6,0.5
			S14.4,1.1,14,0.8c-0.2-0.2-0.5-0.2-0.8-0.2c-0.4,0.1-0.7,0.6-0.9,0.8c-0.7,0.8-1,0-1.5-0.6c-0.1-0.1-0.2-0.1-0.4-0.1
			c-0.7,0.5-1.3,1.9-2,1.7l0,0c-0.1,0.1-0.2,0-0.3-0.1S7.9,2.2,7.8,2.2c-1,0.5-1.1,1.7-1.7,2.4c0-0.3-0.1-0.5-0.3-0.7
			c0-0.3-0.1-0.5-0.4-0.5C4.3,3.4,4.8,4.8,4,5.2S2.7,5.7,2.5,6.6c-0.1,0.3-0.1,0.7-0.1,1C1.7,7.5,1.1,7.8,0.7,8.3
			c-0.7,0.8,0.1,2,0.4,2.6c0.4,0.6,0.9,1.3,1.2,1.9c0.2,0.4,0.1,1,0.5,1.3c0.5,0.5,1.3,0.6,1.9,0.3v0.1c0.1,0.8,0.7,1.4,1.5,1.4
			c0.6,0,1.4,1.3,2,1c0.3-0.2,0.5-0.5,0.6-0.8c0.2,0,0.3-0.1,0.3-0.3v-0.1v-0.1c-0.1-0.7-0.2-1.4-0.4-1.9c0.3,0.3,0.6,0.5,1,0.7
			c0.1,0.1,0.2,0.1,0.3,0c0.4-0.5,0.8-1.1,1.2-1.6s0.8,0.6,1.2,0.7c0.9,0.3,1.7-1.1,2.4-1.6c0.1,0.6,0.4,1.3,0.9,1.4
			c0.5,0.1,1.4-0.6,2-1.1c0.1,0.2,0.3,0.2,0.4,0.1l0,0c0.1,0.4,0.4,0.7,0.8,0.9c0.2,0.1,0.4,0.1,0.6,0c0.2,0.1,0.3,0,0.4-0.2l0,0
			c0,0,0,0,0-0.1c0.3-0.2,0.6-0.4,0.9-0.6c0,0.4,0.1,0.9,0.6,1c0.2,0,0.5,0,0.7-0.1c0.8-0.2,1.1-0.5,1.5,0.3l0,0
			c-0.2,0.5-0.2,1.1-0.1,1.7c-0.2-0.1-0.3,0.3-0.1,0.4c0.8,0.3,1.6-1.3,2-2.3c0.8-0.2,1.3,0.8,2.2,0.4c0.7-0.3,1.2-1.6,1.5-2.2
			C29.2,10.6,30,9.6,29.7,8.8z M2.8,12.8c-0.2-0.4-0.5-0.9-0.8-1.3c-0.3-0.5-0.6-1-0.9-1.4C0.9,9.8,0.7,8.9,1.4,8.4
			c0.3-0.3,0.8-0.3,1.2-0.2C2.7,9,2.9,9.8,3.2,10.5c0.4,1.2,0.9,2.2,1.3,3.4C3.7,14.9,2.9,13.5,2.8,12.8z M8.1,15.5
			c0.3,1.4-0.5,0.3-0.9,0.1c-0.3-0.2-0.7-0.3-1.1-0.2c-0.8,0.1-1-1.4-1.2-1.9c-0.2-0.8-0.7-1.6-1-2.3c-0.4-1.1-2-4.6-0.4-5.3
			c0.3-0.1,0.7-0.2,0.9-0.4c0,0,0.3-0.3,0.3-0.4c0,0.2,0.6-1.1,0.5-0.6c0,0.1,0.1,0.2,0.2,0.2l0,0c0,0.1,0,0.2,0,0.2
			c0.1,0.5,0.2,1,0.4,1.5c0.6,1.3,1,2.5,1.4,3.9s0.6,2.6,0.9,3.9c0.1,0.3,0.1,0.7,0.2,1C8.1,15.2,8.1,15.4,8.1,15.5z M9.6,13.8
			c-0.3-0.2-0.6-0.3-0.9-0.6c-0.1-0.1-0.2-0.1-0.3,0C8.3,12,8,10.9,7.6,9.8c-0.3-1.4-0.8-2.6-1.3-4c0-0.1-0.1-0.3-0.1-0.6
			C6.5,4.9,6.8,4.5,7,4.1c0.1-0.2,0.2-0.5,0.3-0.7c0.4-0.6,0.4-0.7,0.9-0.3l0.1,0.1c0.4,1.6,0.7,3,1,4.6c0.4,1.8,0.7,3.4,0.9,5.2
			C9.9,13.3,9.8,13.6,9.6,13.8z M11.8,6.7c0.1,1.8,0,3.5-0.2,5.2c-0.3,0-0.7,0.1-0.9,0.4c-0.1-1.5-0.6-2.8-0.9-4.2
			c-0.2-1.6-0.5-3.2-1-4.8C9.3,3.2,9.5,3,9.7,2.7C10.1,2.2,10.4,1.4,11,2c0.2,0.3,0.5,0.5,0.9,0.6c0,0.5,0,1,0,1.5
			C11.8,4.9,11.8,5.9,11.8,6.7z M14.6,11.2c-0.5,0.3-0.9,0.6-1.3,1c-0.2,0.2-0.6,0.9-1.1,0.5c-0.1-0.1-0.2-0.2-0.3-0.3
			c0.3-1.8,0.4-3.5,0.2-5.2c0-1.1,0-2.1,0-3.1c0.1-0.6,0-1.1-0.1-1.7c0.3-0.2,0.5-0.4,0.7-0.7c0.8-0.8,1.4,0,2.1,0.5
			C15,5.3,15.5,8.3,14.6,11.2z M17.6,11.2c-0.4,0.2-0.7,0.5-1,0.8c-0.3,0.2-0.6,0.4-0.9,0.6c-0.2-0.4-0.4-0.8-0.5-1.3v-0.1
			c0.7-2.9,0.5-6.1,0.4-9.2c0.2-0.3,0.5-0.6,0.7-0.9c0.9-1,1.6,0.6,1.9,1c0.1,0.1,0.1,0.1,0.2,0.1c0,1.9-0.1,3.6-0.3,5.5
			C18,8.9,17.7,10.1,17.6,11.2z M19.4,12.3c-0.6,0.2-0.8-0.6-1.1-1.1l-0.1-0.1c0.1-1.4,0.4-2.7,0.6-4.1C19,5.5,19,3.8,19,2.3
			c0.1-0.1,0.3-0.1,0.4-0.2c0.5-0.2,1.2-0.4,1.2,0.3c0,0.3,0.1,0.5,0.2,0.7C20.9,3.2,21,3.2,21,3.2c-0.1,1.6-0.5,3-0.7,4.6
			C20.1,9.3,19.8,10.8,19.4,12.3z M21.7,12.4L21.7,12.4c-0.3,0.1-0.4-0.1-0.5-0.7c0-0.2-0.1-0.3-0.3-0.3c0,0,0,0-0.1,0
			c-0.3,0-0.6,0.2-0.8,0.3c0.3-1.3,0.5-2.6,0.7-3.9c0.3-1.5,0.5-3,0.6-4.5c0.4,0,0.7-0.1,1.1-0.3c0.2-0.1,0.5-0.2,0.7-0.3
			c0.1,0.3,0.3,0.6,0.5,0.8c0.1,0.2,0.3,0.3,0.5,0.3l0,0c-0.3,1.4-0.7,2.7-1.1,4.1c-0.2,0.8-0.4,1.6-0.6,2.3
			C22.3,11.1,22.1,11.8,21.7,12.4z M23.8,12.6c-0.1-0.3-0.4-0.5-0.6-0.6c-0.2,0-0.4,0-0.6,0.1c0.4-1,0.6-1.9,0.9-2.9
			c0.3-1.7,1.2-3.3,1.1-5.1l0,0c0.2,0,0.5-0.1,0.7-0.2c0.2,0,1-0.6,1-0.2c0,0.2,0,0.5,0.1,0.7s0.4,0.3,0.6,0.3v0.1
			c-0.1,0.1,0,0.2,0,0.3c-0.3,0.6-0.5,1.3-0.8,1.9c-0.4,0.8-0.9,1.6-1.3,2.4l-1.2,2.9L23.8,12.6z M24,14.6c-0.2-1.4,0.9-3.1,1.4-4.4
			s1.3-2.6,1.9-4c0.3-0.8,0.6-1.5,1-2.2c0.3-0.7,0.5-0.7,0.6,0c-0.1,0.5-0.3,1-0.5,1.5c-0.3,0.6-0.6,1.2-0.8,1.9
			C26.3,9.9,25.2,12.3,24,14.6z M29.2,9.4c-0.2,0.9-0.7,1.7-1.2,2.4c-0.2,0.3-0.4,0.7-0.6,1c-0.4,0.4-1.1-0.1-1.5-0.2
			c-0.1-0.1-0.3-0.1-0.4-0.1l0.1-0.1l0.3-0.5c0,0,0,0,0,0.1c0.1,0.1,0.2,0.1,0.3,0.1l0,0l0,0l0,0l0,0l0,0c0.3-0.4,0.6-0.8,0.8-1.2
			c0.1-0.3-0.4-0.4-0.5-0.1c-0.1,0.3-0.3,0.5-0.5,0.8c0.6-1.4,1.2-2.6,1.8-4C28.5,7.9,29.3,8.5,29.2,9.4z"/>
		<path class="st0" d="M3.6,13.3L3.6,13.3C3.8,13.3,4,13.2,4,13c0-0.1-0.1-0.3-0.3-0.3H3.6c-0.2,0.1-0.3,0.2-0.3,0.3
			C3.3,13.2,3.4,13.3,3.6,13.3L3.6,13.3z"/>
		<path class="st0" d="M3,12c-0.1,0-0.3,0.1-0.3,0.3s0.1,0.3,0.3,0.3h0.1c0.1,0,0.3-0.1,0.3-0.3S3.3,12,3.2,12H3z"/>
		<path class="st0" d="M2.7,11l-0.3-0.9C2.3,9.9,1.8,10,1.9,10.4l0.4,1.1l0,0c0,0.1,0.1,0.1,0.1,0.1l0,0h0.1h0.1l0,0l0,0l0,0
			c0.1,0,0.1-0.1,0.1-0.2l0,0v-0.1C2.8,11.2,2.7,11.1,2.7,11z"/>
		<path class="st0" d="M1.5,9C1.4,9,1.3,9.2,1.4,9.3c0,0.1,0.1,0.2,0.2,0.2s0.2-0.2,0.2-0.3C1.7,9.1,1.6,9,1.5,9z"/>
		<path class="st0" d="M27.4,11.1c0,0.2-0.1,0.4-0.2,0.5c-0.1,0-0.2,0.1-0.2,0.2v0.1c0,0.1,0.1,0.2,0.2,0.2s0.2,0,0.3-0.1
			c0.2-0.3,0.3-0.6,0.4-1C27.9,10.8,27.4,10.8,27.4,11.1z"/>
		<path class="st0" d="M28.4,10.5c0.1,0,0.3-0.1,0.3-0.3c0-0.1-0.1-0.3-0.3-0.3c-0.1,0-0.3,0.1-0.3,0.3
			C28.2,10.4,28.3,10.5,28.4,10.5z"/>
		<path class="st0" d="M27.8,8.6c-0.1,0.1-0.2,0.4-0.4,0.5c-0.1,0.1-0.1,0.2,0,0.3h-0.1c-0.1,0-0.3,0.1-0.3,0.3
			c0,0.1,0.1,0.3,0.3,0.3c0.1,0,0.3-0.1,0.3-0.2c0-0.1,0-0.1,0-0.2c0.1,0,0.2,0,0.2-0.1C27.9,9.4,28,9.1,28.2,9
			c0.1-0.1,0.1-0.3,0-0.4C28.1,8.5,28,8.5,27.8,8.6L27.8,8.6z"/>
	</g>
</g>
</svg>
