<?xml version="1.0" encoding="utf-8"?>
<!-- Generator: Adobe Illustrator 22.0.1, SVG Export Plug-In . SVG Version: 6.00 Build 0)  -->
<svg version="1.1" id="Layer_1" xmlns="http://www.w3.org/2000/svg" xmlns:xlink="http://www.w3.org/1999/xlink" x="0px" y="0px"
	 viewBox="0 0 21.8 19.7" style="enable-background:new 0 0 21.8 19.7;" xml:space="preserve">
<style type="text/css">
	.st0{fill:#FF7A00;}
</style>
<title>Asset 8</title>
<g id="Layer_2_1_">
	<g id="Layer_1-2">
		<path class="st0" d="M20.7,10.4c0.6-1.4,0.8-3,0.6-4.6c-0.2-1.1-1.1-2-2.3-2.1c-1.3-0.1-2.6,0.1-3.8,0.6c-1.1,0.5-1.8,1.5-2.8,2.3
			h-0.1c-0.3-0.1-0.5-0.2-0.8-0.2c0.2-0.1,0.5-0.3,0.7-0.5c0.8-0.7,0.4-1.6-0.4-2.1c-0.2-0.2-0.5-0.3-0.8-0.3C11.8,3,12,2,11.5,1.1
			l0,0C10.8,0.4,9.7,0.3,8.9,1C8.6,1.2,8.4,1.8,8.5,2.2c0,0.3,0.1,0.5,0.3,0.7c0.1,0.2,0.7,0.4,0.7,0.7c0,0.1,0,0.1,0.1,0.2L9.5,3.9
			C8.6,4.5,9,5.5,9.7,6.2c0,0-0.1,0.1-0.1,0.2H9H8.9C6.8,4.5,1.1,3,0.6,7c-0.3,1.7,0.4,3.4,1,4.8c0.8,1.7,1.5,3.7,2.9,5.1
			c-0.3,0.7-0.2,1.5,0.3,2.2c0.1,0.1,0.1,0.1,0.2,0.1c0.1,0.1,0.2,0.1,0.3,0.1c0.9-0.4,2.1,0,3,0.1c1.1,0,2.3-0.1,3.4-0.3
			c2.5-0.3,4.9-0.2,7.3-0.7c0.1,0,0.2-0.1,0.2-0.3c-0.1-0.7-0.2-1.2-0.5-1.8l0.1-0.1C19.4,14.3,20,12.3,20.7,10.4z M9.2,2.7
			C8.9,2.5,9,2,9,1.7c0.1-0.8,1.4-0.9,1.9-0.6C12.1,1.7,10.6,4,9.7,3H9.6l0,0C9.5,2.9,9.4,2.8,9.2,2.7L9.2,2.7z M9.8,4.1
			c0.6-0.4,1.4-0.4,1.9,0.2c1.1,1-0.3,1.8-1.3,1.9l0,0C9.8,5.6,9,4.7,9.8,4.1L9.8,4.1z M9.7,6.8c0.5,0,1,0,1.3,0
			c1.2,0,1.4,0.8,1.6,1.8c0.2,0.8,0.3,1.5,0.4,2.3c0.2,1.5,0.3,3.2,0.4,4.7c-0.1,0.1-0.1,0.3,0.1,0.3h0.1h-0.4
			c-0.9,0-1.7,0.1-2.7,0.1c0-1.9-0.7-3.7-0.8-5.6c0-0.6-0.1-1.2-0.1-1.8c0.1,0,0.2-0.2,0.2-0.3S9.7,8.2,9.7,8.1L9.5,8.3
			c0-0.1-0.1-0.3-0.1-0.4C9.3,7.1,9,6.8,9.7,6.8z M13.2,8.7c0.1,0,0.1,0,0.2,0c0.7-0.5,1.3-1,2-1.4c0.5-0.4,1.1-0.6,1.8-0.5
			c1.2,0.1,1.3,1.7,1.2,2.6c-0.3,2.3-0.9,4.6-1.8,6.7h-2.8c0.1,0,0.2-0.1,0.2-0.3C13.7,13.4,13.6,11.1,13.2,8.7z M8.2,16.3
			C6.9,14,5.3,12,4,9.8c-0.4-0.6-1.6-2.6-0.5-3C4.4,6.6,5.6,7,6.4,7.3c1,0.4,1.8,0.9,2.7,1.2c0.1,1,0.2,1.9,0.2,3
			c0.1,1.6,0.8,3.1,0.8,4.7C9.5,16.3,8.8,16.3,8.2,16.3z M2.4,12.2C1.7,11,1.2,9.7,1,8.3C0.4,3.6,6.5,4.7,8.7,6.8c0,0,0.1,0,0.1,0.1
			C8.8,7.3,8.9,7.6,9,8C6.9,6.9,2,4.6,2.7,8.1c0.4,1.3,1.1,2.7,2,3.7c1,1.4,1.9,2.9,2.8,4.3c0,0.1,0,0.1,0,0.2l0,0l0,0
			c-0.8,0-1.9-0.3-2.7,0.1C3.6,15.4,3,13.7,2.4,12.2z M18.2,18c-2.6,0.4-5.2,0.3-7.8,0.6c-1.1,0.1-2.4,0.1-3.6,0
			c-0.5-0.1-1.1-0.1-1.5,0l0,0c0-0.1-0.1-0.2-0.2-0.2c-0.3-0.6-0.3-1.5,0.6-1.5h1.5c1.3,0,2.8-0.2,4.1-0.3s2.9-0.1,4.3-0.1h0.8
			c0.1,0.2,0.2,0.2,0.4,0.2c0.1,0,0.1-0.1,0.1-0.1l0,0h0.7c0.4-0.1,0.8,0,1,0.4C18.7,17.3,18.8,17.9,18.2,18L18.2,18z M18.5,15.6
			c-0.2,0-0.4,0.2-0.3,0.4l0,0H17c0.6-1.3,1-2.7,1.2-4.1c0.3-1.4,0.8-2.9,0.4-4.3c-0.9-3.1-4.3-0.4-5.6,0.6
			c-0.1-0.5-0.2-0.9-0.4-1.2c0.6-0.5,1.1-1.1,1.7-1.5c1.1-1,2.7-1.3,4.2-1.2c1.9,0,2.4,1.6,2.3,3.3c-0.2,1.2-0.5,2.5-1,3.7
			C19.3,12.7,18.9,14.2,18.5,15.6L18.5,15.6z"/>
	</g>
</g>
</svg>
