<?xml version="1.0" encoding="utf-8"?>
<!-- Generator: Adobe Illustrator 22.0.1, SVG Export Plug-In . SVG Version: 6.00 Build 0)  -->
<svg version="1.1" id="Layer_1" xmlns="http://www.w3.org/2000/svg" xmlns:xlink="http://www.w3.org/1999/xlink" x="0px" y="0px"
	 viewBox="0 0 15.1 24.5" style="enable-background:new 0 0 15.1 24.5;" xml:space="preserve">
<style type="text/css">
	.st0{fill:#FF7A00;}
</style>
<title>Asset 16</title>
<g id="Layer_2_1_">
	<g id="Layer_1-2">
		<path class="st0" d="M12.9,18.7c-0.7,0-1.5-0.2-2.1-0.6c-0.6-0.6-0.9-1.4-0.9-2.2c0.8-1,1.3-2.1,1.5-3.4c0.6,0,1.2-0.6,1.2-1.2
			c0,0,0,0,0-0.1c0.1-0.4,0-0.6-0.3-0.9c-0.1-0.1-0.2-0.1-0.3-0.2V10c-0.1-0.1-0.2-0.3-0.2-0.4c0-0.2,0-0.4,0-0.5c0,0,0,0.1-0.1,0.1
			l0,0l0,0l0,0l-0.1,0.1c0-0.1,0-0.3,0-0.4V8.6V8.5V8.1l0,0c0-0.1,0-0.3,0-0.4l0,0h0.1c0,0.2,0.1,0.3,0.1,0.5
			c0.1,0.1,0.3,0.2,0.4,0.3c0,0.1,0,0.2,0.1,0.2h0.1l0,0c0.1,0.1,0.2,0.1,0.3,0.1c0.2,0.1,0.4,0.1,0.6,0.1c0.1,0,0.2-0.1,0.2-0.3
			c0-1.9-0.1-4.3-1.2-6c-1-1.4-3-1.7-4.7-1.7c-2,0-3.9,0.8-5.3,2.3C1.6,3.9,1.2,4.7,1,5.7C0.9,6.2,0.9,6.9,1,7.4l0,0
			c0,0.1,0,0.1,0,0.2c0.1,0.6,0.1,1,0.2,1.6c0,0.3,0.3,0.3,0.5,0.1c0.1,0.1,0.3,0,0.4-0.2V9c0-0.1,0.1-0.2,0.3-0.3s0-0.4,0-0.5
			l0.2-0.1v0.1c0,0.1,0,0.2,0,0.4s0,0.3,0,0.4c0,0.1,0,0,0,0.1v0.4C2.3,9.3,2.3,9.3,2.3,9.3V9.2V9.1c0,0.1,0,0.3,0,0.4
			c0,0.1-0.1,0.3-0.1,0.4L2.3,10c-0.3,0-0.4,0.1-0.4,0.2l0,0c-0.3,0.3-0.4,0.6-0.4,1c0,0.7,0.6,1,1.1,1c0.1,0.6,0.3,1.3,0.6,1.9
			C3.5,15,4.1,15.8,5,16.2l0,0l0,0c0.3,0.9,0,1.8-0.6,2.5c-0.7,0.4-1.5,0.6-2.1,0.6C1.6,19.5,0.4,20,0.8,21c0.5,1,1.5,1.7,2.6,1.8
			c0.7,0.2,1.4,0.3,2.1,0.4c0.8,0.2,1.8,0.4,2.6,0.4c1.6-0.1,3-0.5,4.5-1.1c0.9-0.4,1.7-1.2,1.9-2.1C14.7,19.2,13.8,18.8,12.9,18.7z
			 M9.8,17.7c-0.1,0.1-0.1,0.1-0.1,0.2c-0.2,0-0.5,0.2-0.6,0.2c-0.3,0.1-0.6,0.1-0.8,0.1c-0.5,0-0.9-0.1-1.3-0.2
			c-0.6-0.2-1.1-0.3-1.7-0.3c0.1-0.4,0.1-0.8,0-1.2c0.5,0.2,1,0.3,1.6,0.4c0.6,0,1.2-0.1,1.8-0.3c0.1-0.1,0.2-0.1,0.3-0.2h0.1
			l0.2-0.1h0.1l0,0l0.1-0.1C9.4,16.7,9.5,17.3,9.8,17.7L9.8,17.7z M11.8,10.6c0.2,0.1,0.2,0.5,0.1,0.6c0,0.4-0.3,0.7-0.6,0.7
			c0.1-0.5,0.1-0.9,0.2-1.4C11.7,10.5,11.7,10.5,11.8,10.6L11.8,10.6z M11.9,3.4c0.4,0.7,0.6,1.5,0.6,2.3l0.1,0.6l-0.2-0.1
			C12.3,5.4,12,4.6,11.6,4C11.7,3.8,11.8,3.5,11.9,3.4L11.9,3.4z M8.7,5.2C8.5,5,8.4,4.8,8.2,4.6C8.6,3.9,9,3.2,9.5,2.5
			c0.6,0.5,1,0.9,1.4,1.5c-0.2,0.2-0.4,0.3-0.4,0.4C10.2,4.6,10,5.1,9.9,5.5C9.5,5.4,9.2,5.4,8.8,5.4C8.8,5.3,8.8,5.2,8.7,5.2
			L8.7,5.2z M10.5,5.6c0-0.5,0.5-0.8,0.8-1.2c0.4,0.5,0.6,1,0.7,1.7L11.7,6C11.3,5.8,10.8,5.7,10.5,5.6L10.5,5.6z M10.3,1.9
			L10.3,1.9c0.5,0.2,0.9,0.6,1.3,0.9c-0.1,0.1-0.2,0.2-0.1,0.3c0,0.2,0,0.4-0.2,0.5c-0.4-0.5-0.8-0.9-1.4-1.4
			C10.1,2.1,10.2,2,10.3,1.9z M9.8,1.7C9.7,1.8,9.6,1.8,9.6,1.9L9.1,1.5C9.4,1.6,9.6,1.6,9.8,1.7z M8.3,1.5L8.3,1.5
			C8.7,1.8,9,2,9.4,2.2C8.7,2.8,8.3,3.4,8,4.1c-0.2-0.4-0.4-0.6-0.6-1C7.2,3,7.1,2.8,7,2.7c0.1-0.2,0.3-0.3,0.4-0.4
			C7.7,2,8,1.8,8.3,1.5z M8.3,5.4H8c0-0.1,0.1-0.2,0.1-0.3C8.2,5.1,8.2,5.3,8.3,5.4L8.3,5.4z M7.8,4.6L7.5,5.2v0.1
			c-0.6,0-1.2,0-1.8,0.1c0-0.1,0-0.1,0-0.2C5.9,4.6,6.2,4,6.6,3.4C6.7,3.3,6.8,3.2,6.9,3l0.4,0.7C7.4,4,7.6,4.3,7.8,4.6L7.8,4.6z
			 M7.4,1.4h0.3L7.4,1.7C7.2,1.9,7,2.2,6.8,2.3C6.5,2.1,6.2,1.9,5.9,1.6C6.4,1.5,7,1.4,7.4,1.4z M6.4,2.7L6.2,3
			c-0.4,0.6-0.7,1.2-1,1.9c-0.3-0.4-0.6-0.7-1-1.1c0.2-0.4,0.5-0.7,0.7-1.1c0.2-0.3,0.5-0.5,0.7-0.6C5.9,2.3,6.2,2.4,6.4,2.7z
			 M5,5.4C5,5.5,5,5.5,5,5.4C4.4,5.6,3.8,5.8,3.2,5.9c0.2-0.6,0.5-1.2,0.7-1.8C4.4,4.6,4.7,5,5,5.4z M5.1,1.9
			C4.8,2.1,4.7,2.3,4.4,2.6C4.2,2.9,4,3.3,3.7,3.5C3.5,3.4,3.3,3.2,3,3.1C3.6,2.5,4.4,2.2,5.1,1.9z M1.4,6.5c0-1,0.4-2,1-2.8
			c0.1-0.1,0.2-0.2,0.3-0.3c0.4,0.1,0.6,0.2,0.9,0.5C3.2,4.6,2.9,5.4,2.7,6.1C2.3,6.2,1.8,6.5,1.4,6.8C1.4,6.7,1.4,6.6,1.4,6.5
			L1.4,6.5z M2,11.5c0-0.2,0-0.5,0.1-0.6c0-0.2,0.2-0.4,0.4-0.5c0,0.6,0.1,1,0.2,1.5C2.3,11.7,2,11.7,2,11.5L2,11.5z M1.6,8.7
			C1.5,8.2,1.5,7.8,1.4,7.4C1.6,7,2.3,6.8,2.8,6.6c0.1,0,0.1,0,0.2-0.1l0.7-0.3C4.8,5.9,6,5.8,7.1,5.8c1.2-0.1,2.3,0,3.5,0.3
			c0.5,0.1,0.9,0.2,1.4,0.4v0.1c0,0.1,0.2,0.2,0.3,0.2s0.1-0.1,0.2-0.1c0.1,0.1,0.2,0.1,0.3,0.2c0.1,0.6,0.1,1.1,0.1,1.7h-0.3
			C11.9,8,10.9,7.5,9.9,7.3C8.4,6.7,6.9,6.6,5.4,7C4.6,7.3,3.7,7.6,2.9,8C2.4,8.1,2,8.3,1.6,8.7L1.6,8.7z M3.4,13.5
			c-0.5-1.7-0.6-3.3-0.6-5.1c0.1,0,0.1-0.1,0.2-0.1C3.1,8.1,3.2,8,3.3,7.9c1-0.3,2.1-0.6,3.2-0.8h0.3c0,0.1,0,0.1,0.1,0.2
			c0,0,0.1,0,0.1,0l0,0C6.9,7.4,7,7.4,7,7.4l0,0l0.1,0.1l0,0c0.1,0,0.1,0,0.2,0.1l0,0h0.2h0.2h0.2l0,0h0.2c0.1,0,0.2-0.1,0.3-0.2
			l0.1-0.1l0,0l0.1-0.1c0.7,0.1,1.4,0.2,2,0.4c0.1,0.1,0.3,0.2,0.4,0.3c0,0,0,0,0,0.1v0.1l0,0l0,0l0,0l0,0l0,0v0c0,0.6,0,1.3,0,2
			c-0.1,0.1-0.2,0.2-0.1,0.4c0,0,0,0.1,0.1,0.1c0,0.1,0,0.2,0,0.3V11v0.1v0.1c0,0.1,0,0.2,0,0.3l0,0c0,0.1,0,0.2,0,0.3
			c0,0,0,0,0,0.1s0,0.2-0.1,0.3s0,0,0,0c0,0.2-0.1,0.5-0.1,0.6l0,0c-0.1,0.3-0.2,0.6-0.3,0.9l0,0c-0.2,0.6-0.6,1.1-1,1.6l0,0
			l-0.1,0.1l0,0l-0.3,0.4l0,0C9,15.9,8.7,16,8.4,16.1l0,0l-0.2,0.1l0,0L8,16.3H7.9H7.7H7.5H7.2C5.4,16.4,3.7,15.2,3.4,13.5z
			 M3.7,22.5c-0.6-0.1-1-0.3-1.5-0.5l0,0c0.1-0.4,0-0.7,0.6-0.7c0.5,0,0.9,0,1.4,0c0.8,0,1.5,0.6,1.5,1.5c0,0.1,0,0.1,0,0.2l0,0
			C4.9,22.7,4.3,22.6,3.7,22.5L3.7,22.5z M12.3,22c-0.6,0.3-1.3,0.6-1.9,0.7c0-0.2-0.1-0.4-0.2-0.6c-0.4-0.7,0.1-0.8,0.7-0.9
			c0.6-0.1,2-0.6,2,0.4c0,0,0,0,0,0.1C12.7,21.8,12.5,21.9,12.3,22L12.3,22z M13.3,21.2c-0.2-0.9-1.6-0.7-2.2-0.6
			c-0.6,0-1,0.2-1.5,0.5c-0.5,0.4,0.2,1.2,0.3,1.7c-0.6,0.2-1.4,0.3-2,0.3S6.6,23.1,6,23c0,0,0-0.1,0.1-0.1c0.1-1-0.6-1.9-1.7-2
			c-0.1,0-0.1,0-0.2,0c-0.6-0.2-1.4-0.1-2,0c-0.4,0.2-0.4,0.5-0.5,0.9c-0.2-0.2-0.4-0.4-0.6-0.6c-0.5-0.6,0.2-1,0.6-1.2
			c0.9-0.4,1.9-0.2,2.9-0.8c0.3-0.3,0.6-0.6,0.6-0.9c0.1,0,0.1,0,0.2,0c0.2-0.2,1.1,0.2,1.3,0.2c0.4,0.1,0.7,0.1,1.2,0.1
			c0.4,0,1.8,0.1,2.2-0.4l0,0c0.7,0.7,1.8,0.7,2.8,0.9C14.5,19.4,14.1,20.4,13.3,21.2z"/>
		<path class="st0" d="M7.9,7.6L7.9,7.6z"/>
		<path class="st0" d="M7.7,7.6L7.7,7.6z"/>
		<path class="st0" d="M11,8.1L11,8.1L11,8.1z"/>
		<path class="st0" d="M6.9,7.4L6.9,7.4z"/>
		<path class="st0" d="M11,11.7c0,0.1,0,0.2,0,0.3C10.9,11.8,11,11.7,11,11.7z"/>
		<path class="st0" d="M10.7,12.9c-0.1,0.3-0.2,0.6-0.3,0.9C10.6,13.6,10.6,13.2,10.7,12.9z"/>
		<path class="st0" d="M9.4,15.5l-0.2,0.2L9.4,15.5z"/>
		<path class="st0" d="M9.2,15.7C9,15.9,8.7,16,8.4,16.1C8.7,16,8.9,15.9,9.2,15.7z"/>
		<path class="st0" d="M11,8L11,8z"/>
		<path class="st0" d="M11.1,10.5c0,0.1,0,0.2,0,0.3C11,10.8,11.1,10.7,11.1,10.5z"/>
		<path class="st0" d="M10.8,12.3c0,0.2-0.1,0.5-0.1,0.6C10.8,12.8,10.8,12.5,10.8,12.3z"/>
		<path class="st0" d="M10.5,13.9c-0.2,0.6-0.6,1.1-1,1.6C9.9,15,10.2,14.4,10.5,13.9z"/>
		<path class="st0" d="M10.9,12c0,0.1,0,0.2-0.1,0.3C10.9,12.2,10.9,12.1,10.9,12z"/>
		<path class="st0" d="M3.6,8.1c0.6-0.2,1.1-0.4,1.7-0.6c0.5-0.1,0.9-0.3,1.5-0.3l0,0c0-0.1-0.1-0.1-0.1-0.2H6.5
			C5.4,7.3,4.4,7.6,3.3,7.9C3.2,8,3.1,8.1,3,8.3l0,0L3.6,8.1z"/>
		<path class="st0" d="M11,8L11,8C10.9,7.9,10.9,7.9,11,8c0-0.1,0-0.1,0-0.2c-0.1-0.1-0.3-0.2-0.4-0.3c-0.6-0.2-1.4-0.3-2-0.4
			L8.4,7.2c0.3,0,0.6,0.1,0.9,0.2C9.9,7.5,10.5,7.7,11,8z"/>
		<path class="st0" d="M8.2,16.3H8H8.2z"/>
		<path class="st0" d="M7.5,16.4H7.2H7.5z"/>
		<path class="st0" d="M7.4,7.6L7.4,7.6z"/>
		<path class="st0" d="M7,7.5L7,7.5z"/>
		<path class="st0" d="M7.8,16.4H7.6H7.8z"/>
		<path class="st0" d="M11,11v0.3V11z"/>
		<path class="st0" d="M8.4,16.2l-0.2,0.1L8.4,16.2z"/>
		<path class="st0" d="M11,11.3c0,0.1,0,0.2,0,0.3C11,11.5,11,11.4,11,11.3z"/>
		<path class="st0" d="M11.1,8.1L11.1,8.1L11.1,8.1z"/>
		<path class="st0" d="M7.1,7.5L7.1,7.5z"/>
		<path class="st0" d="M7.3,7.6"/>
		<path class="st0" d="M9.4,15.5L9.4,15.5L9.4,15.5z"/>
		<path class="st0" d="M2.3,9L2.3,9C2.3,9.1,2.3,9,2.3,9z"/>
		<path class="st0" d="M2.2,9.2L2.2,9.2L2.2,9.2z"/>
		<path class="st0" d="M2.3,8.6c0-0.1,0-0.3,0-0.4c0-0.1,0-0.1,0.1-0.1L2.3,8.2C2.3,8.4,2.2,8.5,2.3,8.6L2.3,8.6L2.3,8.6z"/>
		<path class="st0" d="M11.6,8.5L11.6,8.5z"/>
		<path class="st0" d="M11.7,9.3L11.7,9.3z"/>
		<path class="st0" d="M11.6,9c0,0.1,0,0.3,0,0.4C11.6,9.3,11.6,9.1,11.6,9z"/>
		<path class="st0" d="M11.6,8.9L11.6,8.9z"/>
		<path class="st0" d="M11.7,9.3C11.7,9.3,11.7,9.2,11.7,9.3L11.7,9.3C11.7,9.2,11.7,9.3,11.7,9.3z"/>
		<path class="st0" d="M11.6,7.9L11.6,7.9c0,0.1,0,0.3,0,0.4l0.2,0.1C11.7,8.1,11.7,8.1,11.6,7.9L11.6,7.9z"/>
		<path class="st0" d="M5.1,9.2c-0.2,0-0.4,0-0.6,0.1c-0.1,0-0.2,0.3-0.2,0.5c0,0.1,0.1,0.2,0.3,0.2c0.1,0,0.2,0.1,0.3,0.1
			c0.4,0,0.6-0.4,0.6-0.6l0,0C5.3,9.3,5.2,9.2,5.1,9.2z"/>
		<path class="st0" d="M8.7,9.9L8.7,9.9C8.8,10,8.9,10,9,10s0.3,0,0.4-0.1c0.2-0.2,0.3-0.4,0.3-0.6C9.5,9.1,9.3,8.9,9,8.9
			c0,0,0,0-0.1,0C8.5,9.1,8.6,9.4,8.6,9.7C8.6,9.8,8.6,9.8,8.7,9.9z"/>
		<path class="st0" d="M8.8,14c0-0.1-0.1-0.3-0.3-0.3c-0.1,0-0.2,0.1-0.2,0.2c-0.2,1-2,0.6-2.6,0.1c-0.2-0.2-0.6,0.2-0.3,0.4
			C6.2,15.2,8.4,15.4,8.8,14z"/>
		<path class="st0" d="M7.8,19.5c0.1,0,0.2-0.1,0.2-0.3C8,19.1,7.9,19,7.7,19l0,0c-0.1,0-0.3,0.1-0.3,0.3S7.6,19.5,7.8,19.5
			L7.8,19.5z"/>
		<path class="st0" d="M8.2,21v-0.2c0-0.1-0.1-0.2-0.3-0.2c-0.1,0-0.2,0.1-0.2,0.3v0.2c0,0.1,0.1,0.2,0.3,0.2
			C8.1,21.1,8.2,21.1,8.2,21z"/>
		<path class="st0" d="M8,22.2c-0.3,0-0.3,0.5,0,0.5S8.2,22.2,8,22.2z"/>
	</g>
</g>
</svg>
