<?xml version="1.0" encoding="utf-8"?>
<!-- Generator: Adobe Illustrator 22.0.1, SVG Export Plug-In . SVG Version: 6.00 Build 0)  -->
<svg version="1.1" id="Layer_1" xmlns="http://www.w3.org/2000/svg" xmlns:xlink="http://www.w3.org/1999/xlink" x="0px" y="0px"
	 viewBox="0 0 21.9 19.4" style="enable-background:new 0 0 21.9 19.4;" xml:space="preserve">
<style type="text/css">
	.st0{fill:#FF4500;}
</style>
<title>Asset 4</title>
<g id="Layer_2_1_">
	<g id="Layer_1-2">
		<path class="st0" d="M21.4,9.6c-0.7-1.1-3.2-0.3-4.3-0.2C16.3,9.5,9.5,9.8,9.5,9c0-0.1,0-0.2-0.1-0.2C9.6,6.5,10,4,9,1.9
			c-0.5-1-2.1-2.1-3.1-1.1C5.6,1.2,6,1.8,6.2,2.2C7.1,3.7,8.1,5,6.5,6.6c-1,0.7-1.7,1.7-2.1,2.8c-0.7,1.7-1.8,1.8-3.4,1.9
			c-0.1,0-0.2,0.1-0.2,0.2c-0.1-0.1-0.3-0.1-0.4,0c0,0-0.1,0.1-0.1,0.2c0,2.5-0.1,6.5,3.3,6.7c3.2,0.3,6.6,1.4,9.5-0.6
			c0.1,0,0.1-0.1,0.1-0.1c0.2,0,0.3-0.1,0.5-0.2c0.7-0.4,0.3-1-0.2-1.4V16c0.7,0,1.3-0.4,1.7-0.9s0.3-1.2-0.2-1.5
			c0.7-0.4,1.1-1,0.7-1.6C17.3,12,22.7,11.6,21.4,9.6z M13.2,17.1c-0.6,0.2-1.2,0.2-1.9,0.1c-0.3,0-1.3-0.2-1.2-0.7s0.9-0.5,1.2-0.6
			h0.4l0,0l0.7,0.1c0,0.1,0.1,0.1,0.1,0.1C12.9,16.3,13.8,16.9,13.2,17.1z M13.9,15.3c-0.4,0.1-0.8,0.2-1.2,0.2
			c-0.4-0.1-0.8-0.1-1.2-0.1c-0.4,0-0.8-0.1-1.2-0.3c-0.1,0-0.6-0.2-0.5-0.4c0.3-0.5,1.1-0.4,1.6-0.4c0.1,0,0.1,0,0.2-0.1
			c0.9,0,1.8-0.2,2.7-0.6C15.2,14.1,14.6,15,13.9,15.3z M14.3,13.2L14.3,13.2h-0.2c-0.1,0-0.2,0-0.3,0.2l0,0
			c-0.7,0.2-1.4,0.3-2.1,0.4c-0.4,0-2.6-0.8-2.1-1.2c0.1,0,0.1-0.1,0.1-0.2c1.2-0.4,2.3-0.6,3.5-0.8c0.7-0.1,1.4,0.1,1.9,0.6
			C15.6,12.7,14.7,13,14.3,13.2z M20.8,10.6c-0.3,0.2-0.6,0.3-1,0.4c-0.5,0.1-1.1,0.2-1.6,0.2c-0.9,0.2-1.9,0.3-2.9,0.1
			c-0.1,0-0.2,0-0.2,0.1c-1.5-1-4.1,0.1-5.6,0.5c-0.1,0-0.2,0.1-0.2,0.3l0,0c-0.8,0.7,0.3,1.4,1.1,1.8c-0.6,0.1-1.3,0.4-1,1.1
			c0.2,0.4,0.6,0.6,1,0.7c-0.2,0.1-0.4,0.3-0.6,0.5c-0.5,0.8,0.6,1.3,1.2,1.4c0.4,0.1,0.7,0.1,1.1,0.2c-2.3,1.1-4.9,0.5-7.4,0.2
			c-0.7,0-1.3-0.1-2-0.3c-0.7-0.4-1.3-1.1-1.5-1.9c-0.3-1.3-0.4-2.7-0.3-4C1,11.9,1,12,1.1,12c1.5-0.1,2.6-0.1,3.5-1.4
			c0.6-1.2,0.7-2.3,1.7-3.2c0.6-0.5,1.1-1.1,1.4-1.8C7.9,4.8,7.8,4,7.5,3.2C7.3,2.9,7.1,2.7,6.9,2.4C6.8,2.2,6.7,2.1,6.6,1.9
			C6.6,1,7,0.7,7.5,1.1C10,2.2,9,7,8.8,9c0,0.1,0.1,0.3,0.2,0.3c0.3,0.7,1.4,0.6,2,0.6c2.1,0.1,4.2,0.1,6.3-0.1
			c0.7-0.1,1.4-0.2,2.1-0.3c0.3,0,0.5,0,0.8,0C20.8,9.7,21,10,20.8,10.6L20.8,10.6z"/>
	</g>
</g>
</svg>
