<?xml version="1.0" encoding="utf-8"?>
<!-- Generator: Adobe Illustrator 22.0.1, SVG Export Plug-In . SVG Version: 6.00 Build 0)  -->
<svg version="1.1" id="Layer_1" xmlns="http://www.w3.org/2000/svg" xmlns:xlink="http://www.w3.org/1999/xlink" x="0px" y="0px"
	 viewBox="0 0 21.9 22" style="enable-background:new 0 0 21.9 22;" xml:space="preserve">
<style type="text/css">
	.st0{fill:#FF4500;}
</style>
<title>Asset 18</title>
<g id="Layer_2_1_">
	<g id="Layer_1-2">
		<path class="st0" d="M21.2,18.9L21.2,18.9c0.1-0.4,0.1-0.9,0-1.3c-0.1-1.2,0-2.4,0-3.6s0-2.5,0-3.8s-0.3-2.6-0.3-3.9h0.5
			c0.4,0,0.4-0.6,0-0.6h-0.1c-0.8-1.1-1.7-3.2-3.2-3.5c-0.6-0.1-1.2-0.1-1.7,0c0.1-0.6,0-1.2-0.1-1.7c0-0.1-0.2-0.2-0.3-0.2
			c-1.1,0-2.5-0.6-3.5-0.1C11.9,0.6,12,1.4,12,2.1L10.7,2C9.3,1.9,7.9,1.9,6.6,2C5.7,1.9,4.8,2,3.9,2.3c-0.8,0.5-1.5,1.2-2,1.9
			C1.5,4.7,0,5.4,0,6.2c0,0,0,0,0,0.1c0,0.2,0.1,0.3,0.2,0.4c0.1,0,0.2,0,0.2,0c0.1-0.1,0.3-0.1,0.5-0.1c0.7,4.3,0.2,8.7,0.3,13l0,0
			c-0.2,0-0.3,0.1-0.3,0.3V20C1,20.4,1,21.1,1,21.7C1,21.9,1.1,22,1.3,22h0.1c0.1,0.1,0.3,0,0.3-0.1l0,0c0.2-0.5,2.6-0.3,3-0.4
			L8,21.4c2.3-0.1,4.6,0.1,6.9,0.1c1.1,0.1,2.2,0.1,3.3,0c0.7,0,1.4-0.2,2.1-0.2c0.5,0,0.9,0,1.4-0.1c0.1,0,0.2-0.2,0.2-0.3
			C21.9,20.3,22,19.1,21.2,18.9z M20.5,5.8h-1.6c-0.3-1.1-0.9-2.1-1.7-3C18.9,2.8,19.7,4.5,20.5,5.8z M16.5,2.8
			c0,0.1,0.1,0.1,0.1,0.2c0.4,0.3,0.8,0.8,1,1.3c0.3,0.5,0.5,1,0.7,1.5h-2l0,0c-0.3-0.9-0.5-1.9-0.6-2.9L16.5,2.8z M14.8,2.3
			c-0.7,0-1.5-0.1-2.2-0.2c0-0.1,0-0.3,0-0.5c1.1-0.1,2.2,0,3.2,0.1c0,0.2,0,0.4-0.1,0.5C15.4,2.3,15.1,2.3,14.8,2.3z M15.7,5.8
			h-1.9v-3c0.4,0,0.9,0.1,1.3,0.1C15.2,3.9,15.4,4.9,15.7,5.8z M13.1,0.6c0.9,0,1.7,0.1,2.6,0.2c0,0.1,0,0.2,0,0.2
			c-1-0.1-2.1-0.1-3.1-0.1C12.6,0.8,12.9,0.6,13.1,0.6z M11.9,4.9c0-0.8,0-1.5,0.1-2.3l1.1,0.1v3.1h-1.4C11.9,5.5,11.9,5.2,11.9,4.9
			z M10.1,2.5h0.6l0.8,0.1c-0.1,0.5-0.1,1.1-0.1,1.6s0.1,1.2-0.2,1.6c0,0,0,0,0,0.1H9.4c0.1-0.6,0.2-1.1,0.4-1.7
			C10,3.6,10.1,3.1,10.1,2.5z M7.7,2.5c0.6,0,1.2,0,1.8,0c0,0.6-0.1,1.2-0.3,1.8c0,0.5-0.2,0.9-0.3,1.4v0.1v0.1h-2
			C7,5.4,7.2,5,7.3,4.6C7.5,3.9,7.7,3.2,7.7,2.5C7.8,2.5,7.7,2.5,7.7,2.5L7.7,2.5z M5.7,2.6c0.5,0,0.9-0.1,1.4-0.1
			C7,3.1,6.9,3.7,6.7,4.3c-0.1,0.5-0.3,1-0.5,1.5c0,0.1,0,0.1,0,0.2L4,5.9c0.2-0.6,0.6-1.2,1-1.8C5.4,3.7,5.6,3.2,5.7,2.6L5.7,2.6z
			 M1.1,5.8l0.2-0.2c0.4-0.3,0.7-0.7,1.1-1c0.8-0.9,1.1-1.8,2.5-2h0.3C4.9,3.2,4.6,3.7,4.3,4.2C3.9,4.7,3.6,5.3,3.4,5.9l0,0
			C2.9,5.9,1.9,5.8,1.1,5.8z M1.8,6.5h2.1c2.1,0,4.2-0.1,6.3-0.1c3.4,0,6.8-0.1,10.2-0.1c0,2,0.2,4,0.2,6v3.3c0.2,1,0.2,2.1,0,3.2
			c-0.3,0-0.7,0-1,0c-1.3,0.1-2.7,0-4,0h-2.3v-0.1l0,0c0-0.9-0.1-1.7-0.3-2.5c-0.1-0.7,0-1.3-0.1-2c-0.2-1.1-1-1.1-2-1.1
			c-0.8,0-2.1,0-2.4,0.9c-0.2,0.7-0.2,1.4-0.1,2.1c0.1,1,0.1,1.9,0,2.9c-2.2,0.1-4.5,0.2-6.7,0.4c0-4.3,0.4-8.7-0.3-12.9H1.8z
			 M9,15.7c-0.1-0.6-0.2-1.5,0.5-1.8c0.5-0.1,0.9-0.2,1.4-0.1c0.4,0,1.1-0.2,1.3,0.5c0.1,0.5,0.1,0.9,0.1,1.4c0,1.1,0.3,2.2,0.3,3.3
			c-1.2,0-2.4,0-3.5,0.1C9.1,17.9,9.1,16.8,9,15.7z M21.3,20.4c0,0.4-0.4,0.4-0.7,0.3c0,0-0.1-0.1-0.2-0.1h-0.3H20
			c-0.6,0-1.2,0.2-1.8,0.2c-1.3,0.1-2.6,0.1-3.9,0c-2.5-0.2-5-0.2-7.6-0.1c-1.2,0.1-2.4,0-3.5,0.1c-0.5,0-1.1,0.1-1.6,0.2
			c0-0.4,0-0.8-0.1-1.2c3.7-0.3,7.4-0.4,11.1-0.5c1.9,0,3.8,0,5.7,0c0.7,0,1.4,0,2.1,0C21.1,19.6,21.3,19.9,21.3,20.4z"/>
		<path class="st0" d="M12.5,10.3c0-0.7,0-1.3-0.2-2c-0.2-0.6-1-0.6-1.5-0.5s-1.1,0-1.7,0.1C9,7.9,9,8,8.9,8.1
			c-1,0.1-0.8,2.1-0.7,2.8c0.3,1.4,2.8,0.6,3.6,0.6c0.1,0,0.2-0.1,0.2-0.1C12.6,11.3,12.5,10.6,12.5,10.3z M9.2,11
			c-0.5-0.1-0.5-0.6-0.5-1c0-0.2-0.1-1.4,0.3-1.3c0.1,0,0.3,0,0.3-0.2H10c0.5-0.1,1-0.1,1.5-0.1c0.4,0.1,0.3,1.1,0.3,1.4
			c0.1,0.3,0.1,0.7,0.1,1c0,0,0,0-0.1,0.1C11,11,10.1,11.1,9.2,11z"/>
	</g>
</g>
</svg>
