<?xml version="1.0" encoding="utf-8"?>
<!-- Generator: Adobe Illustrator 22.0.1, SVG Export Plug-In . SVG Version: 6.00 Build 0)  -->
<svg version="1.1" id="Layer_1" xmlns="http://www.w3.org/2000/svg" xmlns:xlink="http://www.w3.org/1999/xlink" x="0px" y="0px"
	 viewBox="0 0 15.1 24.5" style="enable-background:new 0 0 15.1 24.5;" xml:space="preserve">
<style type="text/css">
	.st0{fill:#FF7A00;}
</style>
<title>Asset 16</title>
<g id="Layer_2_1_">
	<g id="Layer_1-2">
		<path class="st0" d="M13.3,19.2c-0.8,0-1.6-0.2-2.3-0.6c-0.7-0.6-1-1.5-1-2.4c0.9-1.1,1.4-2.3,1.6-3.7c0.7,0,1.3-0.6,1.3-1.3
			c0,0,0,0,0-0.1c0.1-0.4,0-0.7-0.3-1c-0.1-0.1-0.2-0.1-0.3-0.2V9.8c-0.1-0.1-0.2-0.3-0.2-0.4c0-0.2,0-0.4,0-0.5c0,0,0,0.1-0.1,0.1
			l0,0l0,0v0l-0.1,0.1c0-0.1,0-0.3,0-0.4V8.3V8.2V7.8l0,0c0-0.1,0-0.3,0-0.4l0,0H12c0,0.2,0.1,0.3,0.1,0.5c0.1,0.1,0.3,0.2,0.4,0.3
			c0,0.1,0,0.2,0.1,0.2h0.1l0,0c0.1,0.1,0.2,0.1,0.3,0.1c0.2,0.1,0.4,0.1,0.6,0.1c0.1,0,0.2-0.1,0.2-0.3c0-2.1-0.1-4.7-1.3-6.5
			C11.4,0.3,9.2,0,7.4,0C5.2,0,3.2,0.9,1.7,2.5C1.1,3.2,0.6,4.1,0.4,5.1C0.3,5.7,0.3,6.4,0.4,7l0,0c0,0.1,0,0.1,0,0.2
			c0.1,0.6,0.1,1.1,0.2,1.7c0,0.3,0.3,0.3,0.5,0.1c0.1,0.1,0.3,0,0.4-0.2V8.7c0-0.1,0.1-0.2,0.3-0.3s0-0.4,0-0.5L2,7.8v0.1
			C2,8,2,8.1,2,8.3s0,0.3,0,0.4s0,0,0,0.1v0.4C1.9,9.1,1.8,9.1,1.8,9V8.9V8.8c0,0.1,0,0.3,0,0.4c0,0.1-0.1,0.3-0.1,0.4l0.1,0.1
			C1.5,9.8,1.4,9.9,1.4,10l0,0C1.1,10.3,1,10.7,1,11.1c0,0.8,0.6,1.1,1.2,1.1c0.1,0.7,0.3,1.4,0.6,2.1c0.3,1,1,1.8,1.9,2.3l0,0h0.1
			c0.3,1,0,2-0.7,2.7C3.3,19.7,2.5,20,1.8,20c-0.7,0.1-2,0.7-1.6,1.7c0.5,1.1,1.6,1.8,2.8,2c0.8,0.2,1.5,0.3,2.3,0.4
			c0.9,0.2,1.9,0.4,2.8,0.4c1.7-0.1,3.3-0.5,4.9-1.2c1-0.4,1.8-1.3,2.1-2.3C15.3,19.8,14.3,19.4,13.3,19.2z M10,18.2
			c-0.1,0.1-0.1,0.1-0.1,0.2c-0.2,0-0.5,0.2-0.6,0.2c-0.3,0.1-0.6,0.1-0.9,0.1c-0.5,0-1-0.1-1.4-0.2c-0.6-0.2-1.2-0.3-1.8-0.3
			c0.1-0.4,0.1-0.9,0-1.3c0.5,0.2,1.1,0.3,1.7,0.4c0.6,0,1.3-0.1,1.9-0.3c0.1-0.1,0.2-0.1,0.3-0.2h0.1l0.2-0.1h0.1l0,0l0.1-0.1
			C9.6,17.1,9.7,17.7,10,18.2L10,18.2z M12.2,10.5c0.2,0.1,0.2,0.5,0.1,0.7c0,0.4-0.3,0.8-0.7,0.8c0.1-0.5,0.1-1,0.2-1.5
			C12,10.4,12.1,10.4,12.2,10.5L12.2,10.5z M12.3,2.6c0.4,0.8,0.6,1.6,0.7,2.5l0.1,0.6l-0.2-0.1c-0.2-0.8-0.5-1.6-1-2.3
			C12.1,3.1,12.2,2.8,12.3,2.6L12.3,2.6z M8.8,4.6C8.6,4.4,8.5,4.2,8.3,4c0.4-0.8,0.8-1.6,1.4-2.3c0.6,0.5,1.1,1,1.5,1.6
			c-0.2,0.2-0.4,0.3-0.4,0.4c-0.4,0.3-0.6,0.8-0.7,1.2C9.7,4.8,9.3,4.8,8.9,4.8C8.9,4.7,8.9,4.6,8.8,4.6L8.8,4.6z M10.7,5
			c0-0.5,0.5-0.9,0.9-1.3c0.4,0.5,0.6,1.1,0.8,1.8l-0.3-0.1C11.6,5.2,11.1,5.1,10.7,5L10.7,5z M10.5,1L10.5,1c0.5,0.2,1,0.6,1.4,1
			c-0.1,0.1-0.2,0.2-0.1,0.3c0,0.2,0,0.4-0.2,0.5c-0.4-0.5-0.9-1-1.5-1.5C10.3,1.2,10.4,1.1,10.5,1z M10,0.8C9.9,0.9,9.8,0.9,9.8,1
			L9.2,0.6C9.5,0.7,9.8,0.7,10,0.8z M8.4,0.6L8.4,0.6c0.4,0.3,0.7,0.5,1.1,0.7C8.8,2,8.4,2.7,8,3.4C7.8,3,7.6,2.7,7.3,2.3
			C7.2,2.2,7.1,2,7,1.9c0.1-0.2,0.3-0.3,0.4-0.4C7.7,1.1,8,0.9,8.4,0.6z M8.4,4.8H8c0-0.1,0.1-0.2,0.1-0.3C8.2,4.5,8.3,4.7,8.4,4.8
			L8.4,4.8z M7.8,3.9L7.5,4.6v0.1c-0.7,0-1.3,0-2,0.1c0-0.1,0-0.1,0-0.2c0.3-0.7,0.6-1.3,1-1.9c0.1-0.2,0.2-0.3,0.3-0.5L7.2,3
			C7.4,3.3,7.6,3.6,7.8,3.9L7.8,3.9z M7.4,0.5h0.3L7.4,0.8C7.2,1,6.9,1.3,6.7,1.5C6.4,1.2,6.1,1,5.7,0.7C6.3,0.6,6.9,0.5,7.4,0.5z
			 M6.3,1.9L6.1,2.2C5.7,2.9,5.3,3.5,5,4.3C4.7,3.9,4.3,3.5,3.9,3.1c0.2-0.4,0.5-0.8,0.8-1.2c0.2-0.3,0.5-0.5,0.8-0.7
			C5.8,1.4,6.1,1.6,6.3,1.9z M4.8,4.8C4.8,4.9,4.8,4.9,4.8,4.8C4.1,5,3.5,5.2,2.8,5.4C3,4.7,3.3,4.1,3.6,3.5C4.1,4,4.4,4.4,4.8,4.8z
			 M4.9,1C4.6,1.2,4.4,1.5,4.1,1.8c-0.2,0.3-0.4,0.7-0.7,1C3.2,2.6,2.9,2.4,2.6,2.3C3.3,1.7,4.1,1.3,4.9,1z M0.9,6
			c0-1.1,0.4-2.2,1.1-3c0.1-0.1,0.2-0.2,0.3-0.3c0.4,0.1,0.7,0.2,1,0.5c-0.5,0.7-0.8,1.6-1,2.4C1.8,5.7,1.3,6,0.9,6.3
			C0.9,6.2,0.9,6.1,0.9,6L0.9,6z M1.5,11.4c0-0.2,0-0.5,0.1-0.7c0-0.2,0.2-0.4,0.4-0.5c0,0.6,0.1,1.1,0.2,1.6
			C1.8,11.7,1.5,11.6,1.5,11.4L1.5,11.4z M1.1,8.4C1,7.9,1,7.4,0.9,7c0.2-0.4,0.9-0.7,1.5-0.9c0.1,0,0.1,0,0.2-0.1l0.8-0.3
			c1.2-0.3,2.5-0.5,3.7-0.5c1.3-0.1,2.5,0,3.8,0.3c0.5,0.1,1,0.2,1.5,0.4V6c0,0.1,0.2,0.2,0.3,0.2s0.1-0.1,0.2-0.1
			c0.1,0.1,0.2,0.1,0.3,0.2c0.1,0.6,0.1,1.2,0.1,1.8l-0.3,0c-0.8-0.7-1.8-1.2-2.9-1.4C8.5,6.2,6.8,6.1,5.2,6.6
			c-0.9,0.3-1.8,0.6-2.7,1C2,7.7,1.5,8,1.1,8.4L1.1,8.4z M3,13.6C2.5,11.8,2.3,10,2.4,8.1C2.5,8.1,2.5,8,2.6,8
			c0.1-0.2,0.2-0.4,0.3-0.5C4,7.2,5.2,6.9,6.4,6.6h0.3c0,0.1,0,0.1,0.1,0.2c0,0.1,0.1,0.1,0.1,0.1l0,0C6.8,7,6.9,7,6.9,7H7l0.1,0.1
			l0,0c0.1,0,0.1,0,0.2,0.1l0,0h0.2h0.2h0.2l0,0h0.2c0.1,0,0.2-0.1,0.3-0.2l0.1-0.1l0,0l0.1-0.1c0.8,0.1,1.5,0.2,2.2,0.4
			c0.1,0.1,0.3,0.2,0.4,0.3c0,0,0,0,0,0.1v0.1l0,0l0,0l0,0l0,0l0,0l0.1,0.1c0,0.7,0,1.4,0,2.2c-0.1,0.1-0.2,0.2-0.1,0.4
			c0,0,0,0.1,0.1,0.1c0,0.1,0,0.2,0,0.3v0.1V11v0.1c0,0.1,0,0.2,0,0.3l0,0c0,0.1,0,0.2,0,0.3c0,0,0,0,0,0.1s0,0.2-0.1,0.3s0,0,0,0
			c0,0.2-0.1,0.5-0.1,0.7l0,0c-0.1,0.3-0.2,0.7-0.3,1l0,0c-0.2,0.6-0.6,1.2-1.1,1.7l0,0l-0.1,0.1l0,0L9.3,16l0,0
			c-0.2,0.2-0.5,0.3-0.8,0.4l0,0l-0.2,0.1H8.2L8,16.6H7.9H7.7H7.5H7.2C5.2,16.8,3.4,15.5,3,13.6z M3.4,23.4
			c-0.6-0.1-1.1-0.3-1.6-0.5l0,0c0.1-0.4,0-0.8,0.6-0.8c0.5,0,1,0,1.5,0c0.9,0,1.6,0.7,1.6,1.6c0,0.1,0,0.1,0,0.2l0,0
			C4.7,23.6,4,23.5,3.4,23.4L3.4,23.4z M12.7,22.8c-0.7,0.3-1.4,0.6-2.1,0.8c0-0.2-0.1-0.4-0.2-0.6c-0.4-0.8,0.1-0.9,0.8-1
			s2.2-0.7,2.2,0.4c0,0,0,0,0,0.1C13.1,22.6,12.9,22.7,12.7,22.8L12.7,22.8z M13.8,22c-0.2-1-1.7-0.8-2.4-0.6
			c-0.6,0-1.1,0.2-1.6,0.5c-0.5,0.4,0.2,1.3,0.3,1.8C9.4,23.9,8.6,24,7.9,24s-1.4,0-2.1-0.1c0,0,0-0.1,0.1-0.1
			c0.1-1.1-0.7-2.1-1.8-2.2c-0.1,0-0.1,0-0.2,0c-0.7-0.2-1.5-0.1-2.2,0c-0.4,0.2-0.4,0.5-0.5,1C1,22.4,0.8,22.2,0.6,22
			c-0.5-0.7,0.2-1.1,0.7-1.3c1-0.4,2.1-0.2,3.1-0.9c0.3-0.3,0.6-0.6,0.7-1c0.1,0,0.1,0,0.2,0C5.5,18.6,6.5,19,6.7,19
			c0.4,0.1,0.8,0.1,1.3,0.1c0.4,0,1.9,0.1,2.4-0.4l0,0c0.8,0.8,2,0.8,3,1C15.1,20,14.6,21.1,13.8,22z"/>
		<path class="st0" d="M7.9,7.2L7.9,7.2z"/>
		<path class="st0" d="M7.7,7.2L7.7,7.2z"/>
		<path class="st0" d="M11.3,7.7L11.3,7.7L11.3,7.7z"/>
		<path class="st0" d="M6.8,7L6.8,7z"/>
		<path class="st0" d="M11.3,11.6c0,0.1,0,0.2,0,0.3C11.2,11.8,11.3,11.7,11.3,11.6z"/>
		<path class="st0" d="M11,13c-0.1,0.3-0.2,0.7-0.3,1C10.8,13.7,10.9,13.3,11,13z"/>
		<path class="st0" d="M9.5,15.8L9.3,16L9.5,15.8z"/>
		<path class="st0" d="M9.3,16c-0.2,0.2-0.5,0.3-0.8,0.4C8.8,16.3,9,16.2,9.3,16z"/>
		<path class="st0" d="M11.3,7.6L11.3,7.6z"/>
		<path class="st0" d="M11.4,10.4c0,0.1,0,0.2,0,0.3C11.3,10.7,11.4,10.6,11.4,10.4z"/>
		<path class="st0" d="M11.1,12.3c0,0.2-0.1,0.5-0.1,0.7C11.1,12.8,11.1,12.5,11.1,12.3z"/>
		<path class="st0" d="M10.7,14c-0.2,0.6-0.6,1.2-1.1,1.7C10.1,15.2,10.4,14.6,10.7,14z"/>
		<path class="st0" d="M11.2,12c0,0.1,0,0.2-0.1,0.3C11.2,12.2,11.2,12.1,11.2,12z"/>
		<path class="st0" d="M3.3,7.7c0.6-0.2,1.2-0.4,1.8-0.6c0.5-0.1,1-0.3,1.6-0.3l0,0c0-0.1-0.1-0.1-0.1-0.2H6.4
			C5.2,6.9,4.1,7.2,2.9,7.5C2.8,7.6,2.7,7.8,2.6,8l0,0L3.3,7.7z"/>
		<path class="st0" d="M11.3,7.6L11.3,7.6C11.2,7.5,11.2,7.5,11.3,7.6c0-0.1,0-0.1,0-0.2c-0.1-0.1-0.3-0.2-0.4-0.3
			c-0.7-0.2-1.5-0.3-2.2-0.4L8.5,6.8c0.3,0,0.7,0.1,1,0.2C10.1,7.1,10.7,7.3,11.3,7.6z"/>
		<path class="st0" d="M8.2,16.6H8H8.2z"/>
		<path class="st0" d="M7.5,16.7H7.2H7.5z"/>
		<path class="st0" d="M7.4,7.2L7.4,7.2z"/>
		<path class="st0" d="M6.9,7.1L6.9,7.1z"/>
		<path class="st0" d="M7.8,16.7H7.6H7.8z"/>
		<path class="st0" d="M11.3,10.9v0.3V10.9z"/>
		<path class="st0" d="M8.5,16.5l-0.2,0.1L8.5,16.5z"/>
		<path class="st0" d="M11.3,11.2c0,0.1,0,0.2,0,0.3C11.3,11.4,11.3,11.3,11.3,11.2z"/>
		<path class="st0" d="M11.4,7.8L11.4,7.8L11.4,7.8z"/>
		<path class="st0" d="M7.1,7.1L7.1,7.1z"/>
		<path class="st0" d="M7.3,7.2"/>
		<path class="st0" d="M9.5,15.8l0.1-0.1L9.5,15.8z"/>
		<path class="st0" d="M1.9,8.7L1.9,8.7C1.9,8.8,1.9,8.7,1.9,8.7z"/>
		<path class="st0" d="M1.7,8.9L1.7,8.9L1.7,8.9z"/>
		<path class="st0" d="M1.9,8.3c0-0.1,0-0.3,0-0.4c0-0.1,0-0.1,0.1-0.1L1.8,7.9c0,0.2-0.1,0.3-0.1,0.5L1.9,8.3L1.9,8.3z"/>
		<path class="st0" d="M11.9,8.2L11.9,8.2z"/>
		<path class="st0" d="M12.1,9L12.1,9z"/>
		<path class="st0" d="M11.9,8.7c0,0.1,0,0.3,0,0.4C11.9,9,11.9,8.8,11.9,8.7z"/>
		<path class="st0" d="M11.9,8.6L11.9,8.6z"/>
		<path class="st0" d="M12.1,9C12.1,9,12.1,8.9,12.1,9L12.1,9C12.1,8.9,12.1,9,12.1,9z"/>
		<path class="st0" d="M11.9,7.5L11.9,7.5c0,0.1,0,0.3,0,0.4L12.1,8C12.1,7.8,12,7.7,11.9,7.5L11.9,7.5z"/>
		<path class="st0" d="M4.9,8.9c-0.2,0-0.4,0-0.6,0.1C4.1,9.1,4,9.4,4,9.6c0,0.1,0.1,0.2,0.3,0.2c0.1,0,0.2,0.1,0.3,0.1
			c0.4,0,0.6-0.4,0.6-0.7l0,0C5.1,9,5,8.9,4.9,8.9z"/>
		<path class="st0" d="M8.8,9.7L8.8,9.7C8.9,9.8,9,9.8,9.1,9.8s0.3,0,0.4-0.1C9.7,9.5,9.8,9.3,9.8,9C9.7,8.8,9.4,8.6,9.1,8.6
			c0,0,0,0-0.1,0C8.6,8.8,8.7,9.2,8.7,9.5C8.7,9.6,8.7,9.6,8.8,9.7z"/>
		<path class="st0" d="M8.9,14.2c0-0.1-0.1-0.3-0.3-0.3c-0.1,0-0.2,0.1-0.2,0.2c-0.2,1.1-2.2,0.6-2.8,0.1C5.4,14,5,14.4,5.3,14.6
			C6.1,15.4,8.5,15.7,8.9,14.2z"/>
		<path class="st0" d="M7.8,20.1C7.9,20.1,8,20,8,19.8c0-0.1-0.1-0.2-0.3-0.2l0,0c-0.1,0-0.3,0.1-0.3,0.3S7.6,20.1,7.8,20.1
			L7.8,20.1z"/>
		<path class="st0" d="M8.2,21.7v-0.2c0-0.1-0.1-0.2-0.3-0.2c-0.1,0-0.2,0.1-0.2,0.3v0.2C7.7,21.9,7.8,22,8,22
			C8.1,21.9,8.2,21.8,8.2,21.7z"/>
		<path class="st0" d="M8,23.1c-0.3,0-0.3,0.5,0,0.5S8.3,23.1,8,23.1z"/>
	</g>
</g>
</svg>
