<?xml version="1.0" encoding="utf-8"?>
<!-- Generator: Adobe Illustrator 22.0.1, SVG Export Plug-In . SVG Version: 6.00 Build 0)  -->
<svg version="1.1" id="Layer_1" xmlns="http://www.w3.org/2000/svg" xmlns:xlink="http://www.w3.org/1999/xlink" x="0px" y="0px"
	 viewBox="0 0 23.5 24.5" style="enable-background:new 0 0 23.5 24.5;" xml:space="preserve">
<style type="text/css">
	.st0{fill:#F47A20;}
</style>
<title>Asset 2</title>
<g id="Layer_2_1_">
	<g id="Layer_1-2">
		<path class="st0" d="M13.6,5.9c-2.9-0.3-6.2,0.9-7.3,3.9c-0.5,1.3-0.4,2.8,0.2,4c0.8,1.6,2.8,2.7,2.7,4.6l0,0
			c-0.3,0.3-0.3,0.7-0.1,1c-0.3,0.3-0.3,0.8-0.1,1.2c-0.3,0.1-0.4,0.6-0.3,1c0.1,0.3,0.3,0.6,0.6,0.8c-0.5,1.1,0.7,2,1.7,2.1
			s3-0.3,3-1.6c0-0.2-0.2-0.3-0.3-0.3c-0.1,0-0.2,0.1-0.2,0.1c-0.4,0.7-1.2,1.2-2.1,1.1c-0.4,0-0.8-0.1-1.2-0.3
			c-0.2-0.1-0.6-0.7-0.6-1c0.4,0.3,0.9,0.5,1.3,0.6c1,0.3,2.1,0,2.8-0.8c0.4-0.4,0.9-1.2,0.7-1.8c0.1-0.1,0.1-0.1,0.2-0.2
			c0.4-0.5,0.5-1.2,0-1.5c0-0.1,0-0.1,0-0.2c0.2,0.1,0.4,0,0.5-0.2c0-0.1,0-0.1,0-0.2c-0.1-1.6,1.3-2.6,2.3-3.6
			c0.9-0.8,1.4-1.8,1.6-3C19.1,8.6,16.4,6.2,13.6,5.9z M11.7,22.7c-0.6,0-1.1-0.2-1.6-0.5c-0.2-0.1-0.3-0.2-0.5-0.2
			c-0.1-0.1-0.9-0.9-0.7-1.1v0.1c0.6,0.9,1.7,0.8,2.6,0.8c0.6,0,1.3-0.1,1.9-0.4C13.2,22,12.5,22.6,11.7,22.7z M11.6,20.9
			c-0.5,0-1,0-1.5,0c-0.3,0-1-0.8-0.9-1.2l0,0c0.8,0.5,1.8,0.7,2.8,0.5c0.7-0.1,1.4-0.3,2-0.8C14.5,20.4,12.1,20.9,11.6,20.9z
			 M10.5,14.8c-0.2-0.8-0.6-1.5-0.9-2.2c0.3,0.1,0.7,0,1-0.1l0.1,0.1c0.5,0.3,1.1,0.2,1.5-0.2c0.1,0.2,0.3,0.2,0.5,0.2
			c0.2,0,0.4-0.1,0.6-0.1c0.4-0.2,0.8-0.2,1.1-0.1c-1.2,1.9-2.5,3.9-2.6,6.1h-0.2l-0.4,0c0,0,0-0.1,0-0.1C11.2,17,11,15.9,10.5,14.8
			z M12.3,19c0.5,0,1-0.1,1.4-0.3c-0.4,1.1-4.5,1.4-4.4-0.1l0,0c0.3,0.1,0.7,0.2,1,0.2C11,18.9,11.6,19,12.3,19z M17.3,13.5
			c-1.1,1.4-2.9,2.4-3.1,4.3c-0.1-0.1-0.1-0.1-0.2-0.1c-0.3,0.1-0.5,0.4-0.8,0.5c-0.2,0.1-0.4,0.1-0.7,0.1c0.1-2.3,1.5-4.3,2.7-6.2
			c0.1-0.2,0-0.4-0.1-0.5c0,0,0,0-0.1,0c-0.3-0.1-0.7-0.2-1-0.2c-0.3,0-1.3,0.5-1.4,0.2c0-0.2-0.2-0.3-0.4-0.2c-0.1,0-0.1,0-0.1,0.1
			c-0.3,0.4-0.6,0.5-0.9,0.2c0-0.1,0-0.1,0-0.2c0-0.2-0.1-0.3-0.3-0.3c-0.1,0-0.2,0.1-0.3,0.2c-0.1,0.1-0.2,0.3-0.2,0.5
			c-0.4,0.2-1.3-0.1-1.4-0.3S8.2,11.7,8.5,12c0.7,1,1.2,2.1,1.5,3.3c0.4,1,0.7,2,0.9,3c-0.4-0.1-0.8-0.1-1.2-0.1
			c0.2-2.2-2.4-3.7-3-5.7c-0.5-1.6,0.4-3.4,1.6-4.5c1.4-1.1,3.2-1.7,4.9-1.5C16.4,6.7,19.8,10.5,17.3,13.5L17.3,13.5z"/>
		<path class="st0" d="M4.5,16.7c-0.3-0.1-0.8,0.3-1.1,0.4s-0.4,0.3-0.7,0.4c-0.1,0-0.2,0.1-0.3,0.1c-0.1,0-0.2,0,0,0.1
			c-0.1,0-0.2,0.1-0.2,0.2c0,0.1,0,0.2,0.1,0.2c0.3,0.1,0.8-0.2,1.1-0.3s1.1-0.4,1.2-0.9C4.6,16.8,4.5,16.8,4.5,16.7z"/>
		<path class="st0" d="M2.2,10.6c-0.4-0.2-0.8-0.3-1.3-0.3c-0.2,0-0.4,0-0.6,0c-0.1,0-0.2,0.1-0.3,0.1c-0.1,0.1,0,0.2,0.1,0.3
			c0,0,0.1,0,0.1,0l0,0h0.2l0.6,0.1c0.4,0.1,0.7,0.1,1.1,0C2.2,10.9,2.3,10.8,2.2,10.6C2.2,10.7,2.2,10.6,2.2,10.6z"/>
		<path class="st0" d="M5.9,4c-0.2-0.4-0.7-0.6-1-0.9C4.5,2.8,4.2,2.4,3.9,2C3.8,1.8,3.4,2,3.6,2.2c0.3,0.5,0.6,0.9,1,1.3
			c0.3,0.3,0.8,0.8,1.2,0.7C5.8,4.2,5.9,4.2,5.9,4C5.9,4,5.9,4,5.9,4z"/>
		<path class="st0" d="M13,0.2C13,0.1,12.9,0,12.8,0c-0.1,0-0.2,0.1-0.2,0.2c0,1.1-0.8,2.2-0.4,3.2c0,0.1,0.2,0.2,0.3,0
			C12.8,2.4,13,1.3,13,0.2z"/>
		<path class="st0" d="M20.9,3c-1-0.5-2.2,0.8-3.1,1.2c-0.3,0.1-0.1,0.5,0.2,0.5c0.5-0.1,1-0.4,1.4-0.7c0.5-0.3,1-0.5,1.5-0.7
			C21,3.2,21,3.1,20.9,3C20.9,3,20.9,3,20.9,3z"/>
		<path class="st0" d="M23.5,9.5c-0.3-0.9-1.4-0.4-2.1-0.6c-0.3-0.1-0.4,0.3-0.2,0.4c0.6,0.4,1.4,0.1,2.1,0.4
			C23.4,9.7,23.5,9.6,23.5,9.5z"/>
		<path class="st0" d="M21.4,18.5c-0.3-0.3-0.6-0.4-1-0.5l-0.7-0.3l-0.3-0.1c-0.2-0.1-0.1-0.1-0.1,0c0-0.3-0.5-0.4-0.5-0.1
			c-0.1,0.5,0.6,0.7,0.9,0.9s1.2,0.6,1.6,0.3C21.4,18.7,21.4,18.6,21.4,18.5C21.4,18.5,21.4,18.5,21.4,18.5z"/>
	</g>
</g>
</svg>
