<?xml version="1.0" encoding="utf-8"?>
<!-- Generator: Adobe Illustrator 22.0.1, SVG Export Plug-In . SVG Version: 6.00 Build 0)  -->
<svg version="1.1" id="Layer_1" xmlns="http://www.w3.org/2000/svg" xmlns:xlink="http://www.w3.org/1999/xlink" x="0px" y="0px"
	 viewBox="0 0 23.3 21.9" style="enable-background:new 0 0 23.3 21.9;" xml:space="preserve">
<style type="text/css">
	.st0{fill:#FF7A00;}
</style>
<title>Asset 9</title>
<g id="Layer_2_1_">
	<g id="Layer_1-2">
		<path class="st0" d="M15.5,4.4c0.1,0,0.2,0,0.2-0.1c0.2,0,0.4-0.4,0.1-0.5c-1-0.5-2.1-1-3.2-1.2c-0.9-0.2-2.3-0.2-2.8-0.9
			c-0.1-0.1-0.2-0.1-0.3,0C8.7,2.2,7.9,2.6,7.1,3.1C6.7,3.4,6.2,3.6,5.7,3.8C5.6,3.8,5.3,4.1,5,4.3l0,0c-0.1,0-0.1,0-0.2,0.1H4.7
			c-0.2,0.2,0,0.4,0.2,0.5c0.1,0,0.2,0,0.3-0.1l0,0c1.8,0,3.4-0.3,5.2-0.4S13.9,4.4,15.5,4.4z M6.1,4.3c0.3-0.2,0.7-0.4,1-0.6
			c0.6-0.3,2-1.7,2.6-1.3C10.4,2.8,11.2,3,12,3c1,0.2,1.9,0.4,2.8,0.8c-1.5,0-2.8,0-4.3,0S7.5,4.2,6.1,4.3z"/>
		<path class="st0" d="M23.1,19.8c-0.1-0.1-0.2-0.2-0.3-0.2c0-0.6-0.5-1.2-1.2-1.2h-0.1c0-0.1,0-0.1,0-0.2c-0.1-0.4-0.4-0.7-0.8-0.8
			v-0.1l0,0v-0.1c0-0.1,0-0.2,0-0.3c0-0.1,0.1-0.5-0.1-0.6l0,0c-0.1-0.1-0.2-0.2-0.3-0.1l-1.1,0.2c0-0.1,0-0.1,0-0.2
			c-0.3-1.7-0.5-3.2-0.5-4.9c-0.2-1.7-0.4-3.3-0.4-5.1v0c0.1-0.2,0.3-0.4,0.3-0.6c0.4-0.1,0.8-0.2,1.2-0.4C20,5.1,20,5,20,4.9
			l-0.1-0.1c0.3,0,0.4-0.4,0.1-0.5c-1.6-0.8-3.4-1.3-5.1-2s-3.3-2.1-5.2-2.2c-1.1,0-0.9,0.2-1.8,0.8S6.3,2.1,5.5,2.5
			C3.8,3.6,2.1,4.7,0.3,5.9c-0.1,0-0.2,0.2-0.1,0.3s0.2,0.2,0.3,0.1l0,0c0,0.1,0.1,0.1,0.2,0.1h0.5v0.1l0,0l0,0
			c0,0.1,0.2,0.2,0.2,0.3c0.1,0.1,0.2,0.3,0.4,0.4C1.9,7.3,2,7.4,2.2,7.4l0,0c0.4,3.3,0.6,6.8,0.4,10.1c-0.1,0-0.1,0.1-0.2,0.2
			c0,0.1,0,0.2,0,0.3c0,0.2,0.1,0.5,0.3,0.6l0,0c-0.4,0.1-0.6,0.5-0.6,0.9c0,0.1,0.1,0.2,0.2,0.3c-0.6,0.1-0.9,0.7-0.8,1.3v0.1
			c0,0.1,0.1,0.2,0.2,0.2c0,0.1,0.1,0.3,0.3,0.3l0,0c0.6-0.1,1.3-0.2,1.9-0.3c1-0.1,2-0.1,2.9-0.2c2.3-0.1,4.4-0.2,6.7-0.4
			c2.1-0.2,4-0.2,6.1-0.5c0.4-0.1,2.9-0.4,2.9-0.3c0,0.2,0.2,0.2,0.4,0.2C23,20.1,23.1,20,23.1,19.8z M20.2,16.8V17
			c0,0.1,0,0.3-0.1,0.4l0,0c-0.7,0.1-1.4,0.2-2.1,0.4c-2.7,0.3-5.3,0.4-8,0.4c-2,0-4,0.1-6.1,0.3c-0.3,0-0.7,0.1-1,0.1
			c0-0.1,0-0.2,0-0.3c0.1,0.1,0,0,0,0l0,0l0,0L3,18.1l0,0c2.9,0,5.9-0.5,8.7-0.5c1.7,0,3.3-0.1,5-0.3c0,0.1,0.2,0.2,0.3,0.2
			c0.1,0,0.2-0.1,0.2-0.2l0,0C18.4,17.1,19.4,17,20.2,16.8L20.2,16.8z M11.6,5.7c1.3,0,2.7,0,3.9,0c0,0.3,0.8,0.7,1.1,0.8
			c0,3.4,0.2,6.8,0.3,10.2c-1.7,0.2-3.3,0.3-5,0.3h-0.3v-0.1c0-2,0.1-3.9-0.1-5.9c-0.1-0.9-0.1-1.7-0.1-2.6c0-0.5-0.4-1.4-0.1-1.9
			c0,0,0.1-0.1,0.1-0.2c0.2-0.1,0.4-0.4,0.5-0.6C11.7,5.9,11.7,5.8,11.6,5.7z M16.1,5.7L16.1,5.7l0.7-0.1c0.4,0,0.9,0,1.3,0
			c-0.2,0.4-0.6,0.6-1,0.6c-0.2,0-0.4-0.1-0.5-0.2l-0.3-0.1C16.3,5.9,16.2,5.9,16.1,5.7L16.1,5.7z M11.2,5.8c-0.3,0.8-1.8,0.6-2.3,0
			l0,0C9.7,5.8,10.5,5.8,11.2,5.8L11.2,5.8z M10,12.1c0-1.8-0.2-3.4-0.1-5.2c0,0,0,0,0-0.1l0,0c0.2,0,0.4,0,0.6,0c0,1,0,2,0.2,2.8
			c0.1,2.5,0.2,4.8,0.2,7.3V17h-1C10,15.4,10,13.7,10,12.1z M9.4,6.8c-0.1,1.7,0,3.2,0.1,4.9c0.1,1.9,0,3.7,0,5.5
			c-1.6,0.1-3.1,0.3-4.7,0.4l0,0c-0.1-1.7-0.2-3.4-0.3-5.1c0-0.8-0.1-1.7-0.2-2.5C3.9,9,3.8,8.1,3.6,7.3l0,0C4,7.1,4.2,6.6,4.2,6.2
			l1.2-0.1c1-0.1,1.9-0.2,2.8-0.2l0,0c0.1,0,0.1,0.2,0.2,0.2C8.8,6.4,9,6.6,9.4,6.8z M3.9,11.9c0.1,1.9,0.3,3.7,0.3,5.6l0,0
			l-1.1,0.1c0.1-3.3,0-6.6-0.4-9.9V7.6l0,0h0.1c0.1,0,0.2,0,0.3,0c0,0.4,0.2,0.9,0.3,1.3C3.6,9.8,3.8,10.8,3.9,11.9z M18.8,16.4
			L18.8,16.4c-0.5,0.1-1,0.2-1.5,0.3c0-3.3-0.2-6.7-0.3-10c0.3,0,0.6,0,0.8-0.2c0,1.5,0.1,2.9,0.3,4.4
			C18.5,12.8,18.4,14.6,18.8,16.4z M1.2,5.9c1.3-0.8,2.6-1.7,3.9-2.5c0.8-0.5,1.5-1,2.2-1.5c0.4-0.3,1.4-1.3,2-1.3
			c1.8-0.1,3.5,1.4,5.2,2.1s3.6,1.2,5.3,2.1h-0.1c-0.3,0.1-0.6,0.2-0.9,0.3c-0.1-0.1-0.4-0.2-0.4,0c-0.8,0.1-1.6,0-2.2,0.1
			c-1.9,0.1-3.7,0-5.6,0.1c-1.8-0.2-3.4,0-5.1,0.1C4.1,5.6,2.7,5.9,1.2,5.9z M2.5,7C2.2,6.9,2.1,6.7,1.9,6.4c0.6,0,1.3-0.1,2-0.2
			C3.7,6.8,3.1,7.1,2.5,7z M2.7,19.5c-0.1-1,7.5-0.9,8.1-0.9c1.9,0,3.6-0.1,5.5-0.2c0.8-0.1,1.7-0.2,2.5-0.3
			c0.6-0.1,2.1-0.7,2.4,0.2l0,0l-0.6,0.1c-2.8,0.4-5.7,0.6-8.5,0.6c-1.5,0-2.8,0.3-4.3,0.4c-1.3,0.1-2.7,0.1-3.9,0.2
			c-0.3,0-0.6,0.1-0.9,0.1C2.7,19.6,2.7,19.6,2.7,19.5z M20.7,19.6c-1.8,0.1-3.4,0.4-5.2,0.5c-2.4,0.2-4.8,0.5-7.3,0.5
			c-1.2,0-2.4,0.1-3.5,0.1c-0.9,0-1.8,0.4-2.7,0.4V21c-0.3-1.3,3.8-1.1,4.3-1.1c1.8,0,3.5-0.3,5.4-0.4s3.5-0.1,5.3-0.3
			c0.7,0,4.5-1,5,0.2C21.6,19.5,21,19.6,20.7,19.6z"/>
	</g>
</g>
</svg>
