<?xml version="1.0" encoding="utf-8"?>
<!-- Generator: Adobe Illustrator 22.0.1, SVG Export Plug-In . SVG Version: 6.00 Build 0)  -->
<svg version="1.1" id="Layer_1" xmlns="http://www.w3.org/2000/svg" xmlns:xlink="http://www.w3.org/1999/xlink" x="0px" y="0px"
	 viewBox="0 0 14.5 29.1" style="enable-background:new 0 0 14.5 29.1;" xml:space="preserve">
<style type="text/css">
	.st0{fill:#FF4500;}
</style>
<title>Asset 7</title>
<g id="Layer_2_1_">
	<g id="Layer_1-2">
		<path class="st0" d="M13.9,5.7c-0.6-2.6-2.2-5.4-5.1-5.5c-2.8,0-4,2.9-3.9,5.3C4.6,5.4,4.3,5.3,4.1,5.3c-6.3-0.7-4.3,11.1,1.3,11
			c0,0.2-0.1,0.4-0.1,0.6c0,0.1,0,0.3,0.2,0.3h0.1c0.4,0,0.7-0.2,1-0.4c0.4,1-0.2,2.1-0.4,3.1c0,0.3,0,0.6,0.1,0.9
			c0.5,0.6,0.7,1.4,0.7,2.2c-0.2,0.9-0.3,1.9-0.3,2.9c0,0.9,0.1,1.8,0.3,2.8C7,29,7.5,28.9,7.4,28.6c-0.2-0.9-0.3-1.8-0.3-2.8
			c-0.1-1.4,0.5-2.6,0.3-3.9c-0.1-0.3-0.2-0.5-0.4-0.7c-0.8-1.1-0.2-1.7,0-2.8c0.2-0.7,0.1-1.4-0.2-2.1C7,16.3,7,16.1,7,15.8
			l0.2-0.1c0.5,1,1.4,1.6,2.5,1.6c-0.1,0.2-0.1,0.4-0.2,0.6c-0.1,0.1,0,0.3,0.2,0.3c0,0,0,0,0.1,0c0.5,0,1,0,1.4-0.2l0.1-0.1
			c0.9,1.4-0.8,3.2-0.7,4.7c0.1,1.1,0.7,2,0.7,3.1c0,0.9-0.1,1.8-0.1,2.7c0.2,0,0.4,0,0.5,0c0-0.4,0-0.8,0-1.2
			c0.2-1.1,0.1-2.2-0.2-3.2c-0.4-1-0.4-2.2,0.1-3.1c0.5-1.2,0.7-2.5-0.1-3.3c0-0.1-0.1-0.3-0.2-0.4c0.9-0.5,1.6-1.2,2-2.1
			C14.5,12,14.8,8.8,13.9,5.7z M5.7,16.7c0-0.2,0-0.4,0.1-0.5v-0.1H6c0,0.1,0,0.2,0,0.3l0.1,0.1C6,16.6,5.9,16.7,5.7,16.7z
			 M6.7,15.4c-0.2,0-0.3,0-0.4,0.1c-0.2,0.1-0.5,0.1-0.7,0.1c-0.1,0-0.3,0.1-0.3,0.2c0,0,0,0,0,0.1c-3.1,0-5.1-4.3-4.6-7.3
			c0.1,0,0.2-0.1,0.2-0.2V8.2c0,0,0-0.1-0.1-0.1c0.3-1.4,1.6-2.3,3-2.3c0.4,0,0.8,0.1,1.2,0.2C4.9,6.1,5,6.2,5,6.3s0.2,0.2,0.3,0.2
			c0.1,0,0.2-0.1,0.2-0.2C8.3,8.2,9.3,14.2,6.7,15.4z M10.7,17.6c-0.2,0.1-0.5,0.1-0.7,0.1l0.2-0.4c0.1,0,0.2,0,0.3-0.1
			C10.5,17.3,10.5,17.4,10.7,17.6L10.7,17.6L10.7,17.6z M13.6,12.2c-0.3,1.4-1,2.7-1.9,3.7c-1,1-2.6,1-3.5,0
			c-0.2-0.2-0.4-0.4-0.5-0.7l0,0c0.9-1.2,1.2-2.7,1-4.1C8.5,9.1,7.4,6.6,5.4,5.7c-0.3-2.4,1-5,3.6-4.9s3.8,3,4.3,5.1
			C14,7.9,14.1,10.2,13.6,12.2z"/>
		<path class="st0" d="M3.4,7.9C3.2,7.8,2.8,7.7,2.5,7.8c0-0.1-0.1-0.2-0.3-0.2H2.1c-0.7,0.5-0.6,1.8-0.4,2.5c0,0.1,0.2,0.2,0.3,0.2
			c0.2,0,0.4-0.1,0.6-0.1c0.2-0.1,0.2-0.3,0.3-0.5c0.1-0.5,0.6-1,0.7-1.5C3.7,8.1,3.6,7.9,3.4,7.9z M2.5,9.2
			C2.4,9.3,2.4,9.5,2.3,9.7c0,0-0.1,0-0.2,0C2,9.2,2,8.7,2.3,8.2c0.1,0.1,0.2,0.1,0.2,0.1c0.2,0,0.3,0,0.5,0
			C2.9,8.6,2.7,8.9,2.5,9.2z"/>
		<path class="st0" d="M8,2.4C7.5,2.4,7.1,2.6,6.8,3C6.7,3,6.6,3,6.6,3.1C6.2,3.7,6.1,4.5,6.2,5.3c0,0.1,0.1,0.3,0.3,0.3
			c0.1,0,0.2,0,0.2-0.1C6.9,5.2,7.3,5,7.6,5.1c0.2,0,0.3-0.2,0.3-0.3C7.8,4.1,8,3.4,8.2,2.8C8.3,2.6,8.2,2.5,8,2.4L8,2.4z M6.7,4.7
			c0-0.4,0-0.8,0.2-1.2c0.1,0,0.2-0.1,0.3-0.2c0-0.1,0.2-0.2,0.4-0.3C7.4,3.5,7.4,4,7.4,4.6C7.1,4.6,6.9,4.6,6.7,4.7z"/>
	</g>
</g>
</svg>
