<?xml version="1.0" encoding="utf-8"?>
<!-- Generator: Adobe Illustrator 22.0.1, SVG Export Plug-In . SVG Version: 6.00 Build 0)  -->
<svg version="1.1" id="Layer_1" xmlns="http://www.w3.org/2000/svg" xmlns:xlink="http://www.w3.org/1999/xlink" x="0px" y="0px"
	 viewBox="0 0 20.9 18.9" style="enable-background:new 0 0 20.9 18.9;" xml:space="preserve">
<style type="text/css">
	.st0{fill:#F47A20;}
</style>
<title>Asset 3</title>
<g id="Layer_2_1_">
	<g id="Layer_1-2">
		<path class="st0" d="M20.4,5c-1.2,1.7-3.1,2.7-4.8,3.8c-0.9-1.5-1.6-3.1-2.3-4.7c-0.5-1.4-1.2-2.7-1.9-4C11.3,0,11.2,0,11,0
			c0,0-0.1,0.1-0.1,0.1C10.1,1.5,9.6,3,9.2,4.6C8.6,6.6,7.3,8.1,6.4,9.9c-2-1.1-4-2.3-6-3.3C0.3,6.4,0.1,6.5,0,6.6c0,0,0,0.1,0,0.1
			c0.1,1.6,0.5,3.2,1.2,4.6c0.2,0.7,0.5,1.4,0.8,2.1c0.5,1,1.3,2.1,1.3,3.3c0,0.1,0,0.1,0.1,0.2l0,0c-0.3,0.2-0.1,1-0.1,1.3
			c0,0,0,0.1,0,0.1c0,0.1,0.1,0.3,0.2,0.3c0,0,0,0,0.1,0c2.6-0.1,5.1,0.1,7.7,0.2c1.3,0,2.5-0.2,3.8-0.4c1-0.1,2,0.2,2.9-0.1
			c0.1,0,0.1-0.1,0.2-0.2l0.1,0c0.2,0.1,0.4-0.1,0.4-0.2c0-0.6,0.2-1.5-0.2-1.9c0.5-1.7,0.9-3.5,1.3-5.3c0.2-0.9,0.4-1.9,0.5-2.8
			s0.6-1.9,0.8-2.9c0-0.1-0.1-0.3-0.2-0.3C20.5,4.8,20.4,4.9,20.4,5z M18,17.6c-0.2,0-0.3,0.1-0.3,0.3l0,0c-0.9,0.2-1.9,0.2-2.8,0.1
			c-1.3,0.1-2.5,0.4-3.8,0.4c-2.5,0-4.9-0.2-7.4-0.2c0-0.7,0-0.9,0.9-1c0.8,0,1.5,0,2.3,0c1.6,0,3.1,0,4.7-0.1
			c1.5-0.1,2.9-0.4,4.4-0.5c0.5,0,1-0.1,1.5-0.1c0.1,0,0.1,0,0.2,0l0.1,0.1C18,16.8,18,17.3,18,17.6z M19.2,10.3
			c-0.3,1.9-0.8,3.8-1.3,5.6c-0.1,0-0.1,0-0.2,0.1c-1.9,0.1-3.7,0.3-5.6,0.6c-2.3,0.2-4.6,0.1-7,0.1c-0.4,0-0.8,0-1.3,0.1
			c0-1.6-1.3-3.2-1.9-4.7c-0.7-1.5-1.2-3.2-1.4-4.9c2,1,3.9,2.1,5.8,3.3c0.1,0.1,0.3,0,0.3-0.1c0,0,0,0,0,0c0.8-1.6,2.1-3,2.7-4.8
			c0.4-1.6,1-3.3,1.7-4.8c0.8,1.4,1.3,2.9,1.9,4.3s1.4,2.9,2.2,4.3c0.1,0.1,0.2,0.2,0.3,0.1c0,0,0,0,0,0c1.6-0.9,3.1-2.1,4.5-3.3
			C19.9,7.5,19.4,8.9,19.2,10.3L19.2,10.3z"/>
		<path class="st0" d="M11,9.2c-1.4,0.6-2.3,2.1-2,3.6C9,13,9.3,13,9.4,12.9c0.1,1.3,1.2,2.4,2.5,2.4c1.6,0,2.3-2.2,2.3-3.5
			C14,10.2,12.6,9,11,9.2C11,9.2,11,9.2,11,9.2z M11.9,14.8c-1.5,0.2-2-1.4-2.1-2.6c0-0.1-0.1-0.2-0.2-0.2c-0.1,0-0.1,0-0.2,0.1
			c0.1-0.9,0.6-1.7,1.3-2.1c0.6-0.4,1.5,0,2,0.4c0.6,0.4,0.9,1.1,0.9,1.8C13.6,13.1,13,14.6,11.9,14.8L11.9,14.8z"/>
	</g>
</g>
</svg>
