<?xml version="1.0" encoding="utf-8"?>
<!-- Generator: Adobe Illustrator 22.0.1, SVG Export Plug-In . SVG Version: 6.00 Build 0)  -->
<svg version="1.1" id="Layer_1" xmlns="http://www.w3.org/2000/svg" xmlns:xlink="http://www.w3.org/1999/xlink" x="0px" y="0px"
	 viewBox="0 0 16.4 28.1" style="enable-background:new 0 0 16.4 28.1;" xml:space="preserve">
<style type="text/css">
	.st0{fill:#FF7A00;}
</style>
<title>Asset 17</title>
<g id="Layer_2_1_">
	<g id="Layer_1-2">
		<path class="st0" d="M14.5,22.5c-0.9,0-1.7-0.2-2.5-0.7c-0.7-0.7-1-1.6-1-2.5c0.9-1.1,1.5-2.4,1.7-3.8c0.7,0,1.3-0.6,1.3-1.3l0,0
			c0-0.4-0.1-0.7-0.3-1c-0.1-0.1-0.2-0.1-0.3-0.2c0-0.1-0.4-0.1-0.4-0.1v-1c0,0,0,0,0-0.1s0-0.2,0-0.3c0.2-0.8,0.2-1.6,0-2.3
			c0-0.3-0.1-0.6-0.2-1c1-0.6,2.3-0.5,2.6-1.9c0.2-1,0.2-1.8-0.7-2.3c0.1-0.7-0.3-1.4-1-1.6c-0.5-0.2-0.9-0.4-1.4-0.5
			c-0.8-0.1-1.2-1.1-1.9-1.6C9.6-0.1,8.6-0.1,7.7,0.2C7,0.4,6.3,0.5,5.5,0.6c-0.7,0-1.4,0-2.1,0c-1.2,0-2.2,0.5-3,1.4
			c-0.8,1,0.4,2-0.1,3c-0.5,0.7-0.5,1.7,0.2,2.3c0.6,0.6,1.4,1,2.2,1v0.2c-0.1,0.9-0.1,1.8,0,2.7c-0.1,0.1-0.1,0.3-0.1,0.4l0,0
			c0,0.4,0,0.8,0,1c-0.1-0.1-0.3,0-0.3,0c-0.1,0.1-0.2,0.1-0.3,0.2l0,0c-0.2,0.4-0.4,0.8-0.4,1.2c0,0.8,0.6,1.1,1.3,1.2
			c0.1,0.7,0.3,1.5,0.6,2.2c0.4,1,1.1,1.8,2,2.4c0,0,0,0,0,0.1h0.1c0.1,1,0.2,2.1-0.8,2.8c-0.7,0.4-1.5,0.6-2.3,0.6
			c-0.8,0.1-2,0.7-1.7,1.7c0.4,1.2,1.7,1.8,2.9,2.1c0.8,0.2,1.6,0.3,2.4,0.4c1,0.2,2,0.3,2.9,0.4c1.7-0.1,3.4-0.4,5-1.1
			c1.1-0.4,1.9-1.3,2.3-2.4C16.6,23.2,15.6,22.7,14.5,22.5z M13,13.4c0.1,0,0.3,0,0.4,0.1c0.2,0.1,0.2,0.5,0.1,0.7
			c0,0.4-0.3,0.8-0.7,0.8C12.9,14.5,12.9,14,13,13.4z M2.2,14.4c0-0.2,0-0.5,0.1-0.7c0-0.2,0.2-0.4,0.4-0.5c0,0.6,0.1,1.2,0.2,1.7
			C2.5,14.8,2.3,14.7,2.2,14.4L2.2,14.4z M3.2,6.3c0-0.5,0-0.9-0.2-1.4c0.1,0,0.1-0.1,0.1-0.2c0.2-0.6,1.5-0.8,2-0.8
			c0.8-0.1,1.7-0.2,2.5-0.1c0,0,0.1,0.1,0.2,0.1h0.1c0.1,0,0.3-0.1,0.2-0.3V3.5c0-0.1-0.1-0.3-0.3-0.3l0,0c-1.2-0.1-2.4,0-3.5,0.3
			C3.7,3.6,3.1,3.9,2.7,4.4c-0.1,0-0.3,0.1-0.3,0.3v0.1C2.6,5.3,2.6,6,2.6,6.6c0,0.4,0,0.8,0.1,1.2c-0.8,0-1.4-0.4-1.9-1
			C0.1,6,1,5.4,1,4.6c0-0.3-0.1-0.7-0.2-1C0.5,3,0.7,2.2,1.3,1.8c0.9-0.6,2-0.9,3.2-0.8c0.9,0,1.8,0,2.7-0.2
			c1.1-0.2,2.2-0.6,3.2,0.1c0.4,0.3,0.5,0.8,0.9,1.1c0.3,0.3,0.6,0.5,1,0.5c0.9,0.2,2.4,0.4,2.1,1.6c0,0.1,0,0.2,0.1,0.3
			c0.7,0.5,0.9,1.4,0.5,2.1c0,0.1-0.1,0.1-0.2,0.2c-0.4,0.6-1.3,0.7-2,1c-0.2-1-0.3-1.9-0.3-2.9c0-0.3-0.5-0.3-0.5,0
			c0,1.2,0.2,2.4,0.4,3.5c0.1,0.5,0.2,1,0.3,1.5c0,0.4,0,0.8,0,1.2l0,0l0,0l0,0l0,0c-0.2-0.1-0.5-0.2-0.8-0.3
			C10.5,10.2,9,9.9,7.6,9.9c-0.9,0-3.2,0.1-4.2,0.9c-0.1-0.9-0.1-1.7,0-2.6C3.2,7.5,3.1,6.9,3.2,6.3L3.2,6.3z M3.8,16.7
			c-0.5-1.6-0.7-3.3-0.6-5v-0.1c0-1.1,3.2-1.2,3.9-1.2c1.3-0.1,2.6,0.1,3.8,0.6c0.1,0.1,1.2,0.4,1.6,0.6v0.1c0,0.4,0,0.9,0,1.4
			c-0.1,0.1-0.2,0.3-0.1,0.4c0,0,0,0.1,0.1,0.1c-0.1,2-0.5,4.2-1.8,5.4c-0.1,0-0.1,0.1-0.1,0.1c-0.7,0.6-1.5,0.9-2.4,1
			C5.9,20.3,4.4,18.7,3.8,16.7L3.8,16.7z M6.1,20.2c0.6,0.2,1.1,0.4,1.7,0.4c0.7,0,1.3-0.1,1.9-0.3c0.1-0.1,0.2-0.1,0.3-0.2l0.1-0.1
			l0.2-0.1h0.1l0,0l0.1-0.1c0,0.5,0.2,1.1,0.4,1.6c-0.1,0-0.1,0-0.2,0c-0.8,0.1-1.5,0.6-2,1.2c-0.1,0.4-0.2,0.9-0.2,1.3
			c0-0.4-0.2-0.9-0.4-1.3c-0.4-0.7-1.2-1-2-0.9c-0.1-0.1-0.2-0.1-0.2-0.1C6.1,21.3,6.1,20.7,6.1,20.2L6.1,20.2z M13.9,26.4
			c-1.6,0.7-3.3,1.1-5,1.2c-1.6,0-3.2-0.2-4.7-0.7c-0.6-0.1-1.2-0.3-1.8-0.6c-0.4-0.2-0.7-0.5-1-0.9c-0.5-0.7,0.2-1.1,0.7-1.3
			c1.1-0.4,2.2-0.2,3.2-0.9C5.6,23,5.8,22.7,6,22.3c0,0,0.1,0,0.2,0c1,0,1.7,0.1,2,1.2c0.2,0.9,0.2,1.8,0.1,2.8
			c0,0.1,0.1,0.3,0.3,0.2c0.7,0,0.6-1.5,0.7-1.9c0.1-0.6-0.1-1.5,0.4-2c0.4-0.4,1-0.6,1.5-0.7c0.1,0,0.2-0.1,0.2-0.2
			c0.1,0.1,0.2,0.3,0.3,0.4c0.8,0.9,2.1,0.8,3.2,1C17.1,23.6,15,25.8,13.9,26.4L13.9,26.4z"/>
		<path class="st0" d="M5.8,11.9c-0.2-0.1-0.5,0-0.7,0.1c-0.2,0.2-0.3,0.4-0.3,0.7c0,0.1,0.1,0.2,0.3,0.2l0,0c0.1,0,0.2,0.1,0.3,0.1
			C5.8,13,6,12.6,6,12.3l0,0C6,12,5.9,11.9,5.8,11.9z"/>
		<path class="st0" d="M9.8,12.7L9.8,12.7c0.1,0.1,0.2,0.1,0.2,0.2c0.1,0,0.3,0,0.4-0.1c0.2-0.2,0.3-0.4,0.3-0.7
			c-0.1-0.3-0.4-0.5-0.7-0.5l0,0c-0.4,0.1-0.3,0.6-0.3,0.9C9.7,12.6,9.7,12.6,9.8,12.7z"/>
		<path class="st0" d="M9.9,17.4c0.1-0.3-0.4-0.4-0.5-0.1c-0.2,1.1-2.3,0.6-2.9,0.1c-0.3-0.2-0.6,0.2-0.3,0.4
			C7.1,18.6,9.6,18.9,9.9,17.4z"/>
	</g>
</g>
</svg>
