<?xml version="1.0" encoding="utf-8"?>
<!-- Generator: Adobe Illustrator 22.0.1, SVG Export Plug-In . SVG Version: 6.00 Build 0)  -->
<svg version="1.1" id="Layer_1" xmlns="http://www.w3.org/2000/svg" xmlns:xlink="http://www.w3.org/1999/xlink" x="0px" y="0px"
	 viewBox="0 0 30 30" style="enable-background:new 0 0 30 30;" xml:space="preserve">
<style type="text/css">
	.st0{fill:#010101;}
</style>
<title>Asset 11</title>
<g id="Layer_2_1_">
	<g id="Layer_1-2">
		<path class="st0" d="M25.5,20.6c-0.7-1.1-3.2-0.3-4.3-0.2c-0.8,0.1-7.6,0.4-7.6-0.4c0-0.1,0-0.2-0.1-0.2c0.2-2.3,0.6-4.8-0.4-6.9
			c-0.5-1-2.1-2.1-3.1-1.1c-0.3,0.4,0.1,1,0.3,1.4c0.9,1.5,1.9,2.8,0.3,4.4c-1,0.7-1.7,1.7-2.1,2.8c-0.7,1.7-1.8,1.8-3.4,1.9
			c-0.1,0-0.2,0.1-0.2,0.2c-0.1-0.1-0.3-0.1-0.4,0c0,0-0.1,0.1-0.1,0.2c0,2.5-0.1,6.5,3.3,6.7c3.2,0.3,6.6,1.4,9.5-0.6
			c0.1,0,0.1-0.1,0.1-0.1c0.2,0,0.3-0.1,0.5-0.2c0.7-0.4,0.3-1-0.2-1.4V27c0.7,0,1.3-0.4,1.7-0.9s0.3-1.2-0.2-1.5
			c0.7-0.4,1.1-1,0.7-1.6C21.4,23,26.8,22.6,25.5,20.6z M17.3,28.1c-0.6,0.2-1.2,0.2-1.9,0.1c-0.3,0-1.3-0.2-1.2-0.7
			s0.9-0.5,1.2-0.6h0.4l0,0l0.7,0.1c0,0.1,0.1,0.1,0.1,0.1C17,27.3,17.9,27.9,17.3,28.1z M18,26.3c-0.4,0.1-0.8,0.2-1.2,0.2
			c-0.4-0.1-0.8-0.1-1.2-0.1c-0.4,0-0.8-0.1-1.2-0.3c-0.1,0-0.6-0.2-0.5-0.4c0.3-0.5,1.1-0.4,1.6-0.4c0.1,0,0.1,0,0.2-0.1
			c0.9,0,1.8-0.2,2.7-0.6C19.3,25.1,18.7,26,18,26.3z M18.4,24.2L18.4,24.2h-0.2c-0.1,0-0.2,0-0.3,0.2l0,0c-0.7,0.2-1.4,0.3-2.1,0.4
			c-0.4,0-2.6-0.8-2.1-1.2c0.1,0,0.1-0.1,0.1-0.2c1.2-0.4,2.3-0.6,3.5-0.8c0.7-0.1,1.4,0.1,1.9,0.6C19.7,23.7,18.8,24,18.4,24.2z
			 M24.9,21.6c-0.3,0.2-0.6,0.3-1,0.4c-0.5,0.1-1.1,0.2-1.6,0.2c-0.9,0.2-1.9,0.3-2.9,0.1c-0.1,0-0.2,0-0.2,0.1
			c-1.5-1-4.1,0.1-5.6,0.5c-0.1,0-0.2,0.1-0.2,0.3l0,0c-0.8,0.7,0.3,1.4,1.1,1.8c-0.6,0.1-1.3,0.4-1,1.1c0.2,0.4,0.6,0.6,1,0.7
			c-0.2,0.1-0.4,0.3-0.6,0.5c-0.5,0.8,0.6,1.3,1.2,1.4c0.4,0.1,0.7,0.1,1.1,0.2c-2.3,1.1-4.9,0.5-7.4,0.2c-0.7,0-1.3-0.1-2-0.3
			c-0.7-0.4-1.3-1.1-1.5-1.9c-0.3-1.3-0.4-2.7-0.3-4c0.1,0,0.1,0.1,0.2,0.1c1.5-0.1,2.6-0.1,3.5-1.4c0.6-1.2,0.7-2.3,1.7-3.2
			c0.6-0.5,1.1-1.1,1.4-1.8c0.2-0.8,0.1-1.6-0.2-2.4c-0.2-0.3-0.4-0.5-0.6-0.8c-0.1-0.2-0.2-0.3-0.3-0.5c0-0.9,0.4-1.2,0.9-0.8
			c2.5,1.1,1.5,5.9,1.3,7.9c0,0.1,0.1,0.3,0.2,0.3c0.3,0.7,1.4,0.6,2,0.6c2.1,0.1,4.2,0.1,6.3-0.1c0.7-0.1,1.4-0.2,2.1-0.3
			c0.3,0,0.5,0,0.8,0C24.9,20.7,25.1,21,24.9,21.6L24.9,21.6z"/>
	</g>
</g>
</svg>
