<?xml version="1.0" encoding="utf-8"?>
<!-- Generator: Adobe Illustrator 22.0.1, SVG Export Plug-In . SVG Version: 6.00 Build 0)  -->
<svg version="1.1" id="Layer_1" xmlns="http://www.w3.org/2000/svg" xmlns:xlink="http://www.w3.org/1999/xlink" x="0px" y="0px"
	 viewBox="0 0 25.3 20.7" style="enable-background:new 0 0 25.3 20.7;" xml:space="preserve">
<style type="text/css">
	.st0{fill:#F47A20;}
</style>
<title>Asset 21</title>
<g id="Layer_2_1_">
	<g id="Layer_1-2">
		<path class="st0" d="M25,8.8c-0.2-2-0.5-4-1-6c-0.2-0.7-0.1-1.8-1-2v0c0,0,0-0.1,0-0.1c0-0.1-0.1-0.1-0.2-0.1c0,0,0,0,0,0
			c-0.2,0-0.3,0.2-0.3,0.4c0,0,0,0,0,0c0,0.2-1.4,0.5-1.5,0.5c-0.8,0.1-1.6,0-2.3-0.4c-1.4-0.5-2.8-1.3-4.4-1
			c-1.1,0.2-2.2,0.7-3,1.5C11.1,1.7,11,1.9,11,2h-0.1c-0.7-0.9-2.3-1-3.4-0.8C6.6,1.3,5.8,1.6,5,2.1C4.6,2.4,4.1,2.7,3.8,3
			C3.3,3.4,2.9,3.6,2.4,3.8C1.7,4,1.1,3.5,0.6,3.2c-0.2-0.1-0.4,0-0.5,0.1c0,0,0,0,0,0.1c-0.2,0.6,0.2,1.3,0.3,1.9
			c0.4,1.5,0.8,3,1,4.6c0.4,3,0.5,6,0.6,9c0,0.1,0.1,0.2,0.2,0.3c0,0.3,0,0.6,0.1,0.9c0,0.1,0.1,0.2,0.2,0.1c0,0,0,0,0.1,0
			c1.2-0.6,2.5,0.2,3.7,0.3c0.8,0.1,1.6,0.1,2.4,0c1.3-0.3,2.5-1.4,3.8-2c0.4,0,1,0,1.3-0.4c0.1-0.1,0.1-0.2,0.1-0.4
			c1.1-0.6,5.5,0.1,5.7,0.2c1.2,0.3,2.4,0.1,3.4-0.7h0.1c0.6-0.3,1-0.7,1.4-1.2c0.5-0.4,0.7-1,0.8-1.7C25.4,12.5,25.3,10.6,25,8.8z
			 M23,1.1c0.7,0.2,0.7,2.2,0.8,2.8c0.3,1.5,0.5,2.9,0.7,4.4c-0.2-1.1-0.5-2.3-0.9-3.4c-0.3-0.8-0.4-1.7-0.5-2.5
			C23.2,1.9,23.1,1.5,23,1.1L23,1.1z M2.1,10.8C2,9.6,1.8,8.4,1.6,7.2c-0.1-0.7-0.3-1.3-0.5-2C0.9,4.8,0.8,4.4,0.7,4.1
			c0.5,0.4,1.2,0.5,1.8,0.4C3.4,4.2,4.1,3.7,4.8,3c1.2-1,5.2-2.5,6-0.2c0,0.9,0.2,1.8,0.2,2.7c0.1,1.2,0.2,2.3,0.3,3.4
			c0.2,2.5,0.4,4.9,0.4,7.4c0,0.1,0,0.2,0.1,0.2c-0.9,1.9-4.2,1.6-5.8,1.1c-1.3-0.4-2.5-0.6-3.4,0.3C2.5,15.6,2.4,13.2,2.1,10.8z
			 M7.5,20.3c-1.3-0.1-2.6-0.3-3.8-0.7c-0.3,0-0.6,0-0.9,0.1c-0.1,0-0.2,0.1-0.2,0.1c-0.1-0.2-0.1-0.4-0.1-0.6
			c0.1,0,0.1-0.1,0.1-0.1l0,0h0c1.8-0.9,3.9,0.7,5.8,0.4c0.8-0.1,1.5-0.3,2.2-0.6C9.8,19.7,8.6,20.2,7.5,20.3z M6.2,18.9
			C5,18.6,4,18.2,2.9,18.6c0.7-0.9,1.8-0.6,2.9-0.3c0.8,0.3,1.7,0.4,2.5,0.4c0.9,0,1.9-0.2,2.7-0.6C9.8,19.2,7.6,19.3,6.2,18.9z
			 M11.9,18.2c-0.2,0.1-0.5,0.2-0.7,0.3c0.3-0.2,0.5-0.5,0.6-0.9c0,0,0-0.1,0-0.1c0.1-0.1,0.1-0.1,0.2-0.2
			C11.9,17.7,11.9,17.9,11.9,18.2z M13.1,17.9L13.1,17.9C13.1,18,12.9,18,12.6,18c0,0-0.1,0-0.1,0h-0.1v-0.5c0-0.2,0-0.4,0-0.7
			c0.1,0.2,0.2,0.3,0.4,0.5C13,17.4,13.2,17.6,13.1,17.9z M13.3,17.1c-0.2-0.2-0.3-0.4-0.4-0.5c-0.1-0.1-0.2-0.2-0.3-0.1
			c0.6-0.7,1.8-0.8,2.6-0.8c1.2,0.1,2.4,0.4,3.5,0.9c-0.3,0-0.5,0-0.8-0.1c-0.4-0.1-0.7-0.3-1-0.5c-0.6-0.2-1.2-0.3-1.7-0.2
			C14.5,15.8,13.2,16.2,13.3,17.1z M13.6,17.5c0-0.1-0.1-0.1-0.1-0.2c0.1,0,0.1-0.1,0.1-0.1c0,0,0,0,0,0c-0.2-0.7,1.2-0.9,1.6-0.9
			c0.7,0,1.5,0.1,2.1,0.5l0.6,0.3h-0.1c-1.3-0.3-2.7-0.2-4,0.3c0,0-0.1,0.1,0,0.2c0,0,0,0,0,0l0,0L13.6,17.5z M15.4,17.1H15
			c0.2-0.1,0.4-0.1,0.7-0.1c0.6,0,1.1,0,1.6,0.1c0.9,0.1,1.8,0.2,2.7,0.2c1.2,0,2.4-0.5,3.3-1.3C22,18.8,17.9,16.9,15.4,17.1z
			 M19,17.1c0.2,0,0.5-0.1,0.7-0.3c0.5,0.1,1.1,0.1,1.6,0l-0.1,0.1C20.4,17.1,19.7,17.2,19,17.1z M23.5,15.5c0,0-0.1,0-0.1,0
			l-0.2,0.1c0.1-0.1,0.2-0.2,0.2-0.4c0,0,0.1,0,0.1,0l0,0C23.6,15.3,23.6,15.4,23.5,15.5L23.5,15.5z M23.4,14.6L23.4,14.6
			c-0.3,0.1-0.5,0.2-0.6,0.5c-0.7,1-2,1.5-3.1,1.1c-1.4-0.3-2.6-1-4-1.1c-1-0.1-2.6,0.1-3.3,0.9c0-2.2-0.2-4.4-0.4-6.6
			c-0.1-1.1-0.2-2.3-0.3-3.4s-0.4-2.2-0.4-3.3c0,0,0.1,0,0.1,0c0.1,0,0.1,0,0.1-0.1c0,0,0-0.1,0-0.1C10.9,2.2,12.7,1,12.7,1
			c0.9-0.4,1.9-0.6,2.9-0.4c1.6,0.3,2.9,1.2,4.5,1.5c0.8,0.1,1.6-0.1,2.3-0.4c0,0.3,0,0.6,0.1,0.9c0.1,1.2,0.3,2.5,0.4,3.7
			s0.3,2.7,0.5,4S24,13.3,23.4,14.6L23.4,14.6z M24.4,14.8c-0.1,0.1-0.1,0.3-0.2,0.4l0,0c0-0.1-0.1-0.2-0.2-0.3
			c0.4-0.5,0.5-1.1,0.3-1.7c-0.2-1.3-0.3-2.6-0.5-3.9c-0.2-1-0.3-2-0.4-3c0.2,0.7,0.4,1.3,0.5,2C24.4,10,25,12.7,24.4,14.8
			L24.4,14.8z"/>
		<path class="st0" d="M16,3.3C16,3.3,16.1,3.3,16,3.3c0-0.1,0-0.1,0-0.1c-0.6-0.3-1.3-0.3-2-0.1c-0.1,0.1-0.1,0.3,0,0.3
			C14.7,3.3,15.4,3.5,16,3.3z"/>
		<path class="st0" d="M18.6,4c0,0,0-0.1,0-0.1c0,0,0,0,0,0c-0.2-0.1-0.4-0.2-0.6-0.3c-0.2-0.1-0.4-0.2-0.7-0.2
			c-0.1,0-0.1,0.1-0.1,0.1c0,0,0,0.1,0,0.1C17.7,3.7,18.2,4.5,18.6,4z"/>
		<path class="st0" d="M19.6,3.9c0.2-0.1,0.7-0.2,0.6-0.5c0,0,0-0.1-0.1-0.1s-0.3,0.1-0.4,0.1l-0.3,0.2c-0.1,0-0.1,0.2-0.1,0.2
			C19.4,3.9,19.5,4,19.6,3.9z"/>
		<path class="st0" d="M15.9,5.7c0.1,0,0.1-0.1,0-0.2c-0.6-0.4-1.4,0-2,0.3c-0.2,0.1,0,0.4,0.2,0.3c0.3-0.2,0.6-0.3,0.9-0.3
			C15.3,5.7,15.6,5.7,15.9,5.7z"/>
		<path class="st0" d="M17.6,6.4c0.3,0.3,1,0.7,1.5,0.4c0,0,0-0.1,0-0.1c0,0,0,0,0,0c-0.4-0.3-0.9-0.2-1.3-0.5
			C17.7,6.1,17.5,6.3,17.6,6.4z"/>
		<path class="st0" d="M20.3,6.3c0.1-0.1,0.3-0.2,0.4-0.3s0-0.1,0-0.1c-0.2,0-0.4,0-0.6,0.2c-0.1,0.1-0.1,0.2,0,0.2
			C20.1,6.4,20.2,6.4,20.3,6.3L20.3,6.3z"/>
		<path class="st0" d="M15.9,8.3c-0.6,0.1-1.1,0.4-1.1,1c0,0.1,0.2,0.1,0.2,0C15,8.4,17.2,9,17.7,8.9c0.1,0,0.1-0.1,0.1-0.2
			c0,0,0,0,0,0C17.5,8.2,16.4,8.3,15.9,8.3z"/>
		<path class="st0" d="M19.4,9.2c-0.1,0-0.2,0-0.2,0.1c0,0.1,0,0.2,0.1,0.2c0.3,0.1,0.7,0.2,1,0.1c0,0,0.1-0.1,0-0.1c0,0,0,0,0,0
			C20.1,9.3,19.7,9.2,19.4,9.2z"/>
		<path class="st0" d="M21.1,9.4c-0.2,0.1,0.1,0.4,0.2,0.2s0.2-0.1,0.2-0.1c0,0,0-0.1,0-0.1C21.4,9.2,21.2,9.3,21.1,9.4z"/>
		<path class="st0" d="M17.7,12c-0.6-0.2-3-0.1-2.4,1c0.1,0.1,0.3,0,0.2-0.1c-0.1-0.3,0.7-0.4,1-0.5c0.4,0,0.8-0.1,1.2-0.3
			C17.8,12.1,17.8,12.1,17.7,12C17.7,12,17.7,12,17.7,12z"/>
		<path class="st0" d="M18.7,12.1C18.6,12.2,18.6,12.2,18.7,12.1c-0.1,0.1,0,0.2,0,0.2c0.3,0,0.6,0.4,1,0.4c0,0,0.1,0,0.1-0.1
			c0,0,0,0,0,0C19.4,12.2,19.1,12.1,18.7,12.1z"/>
		<path class="st0" d="M21.4,12.5c-0.2,0-0.3,0.1-0.5,0s-0.4,0.2-0.2,0.3S21.4,12.9,21.4,12.5C21.4,12.5,21.4,12.5,21.4,12.5z"/>
		<path class="st0" d="M3.2,6.3c0.7,0.3,1.4,0.2,2-0.3c0,0,0-0.1,0-0.1c0,0-0.1,0-0.1,0C4.5,6.1,3.9,6.1,3.3,6
			C3.2,6,3.1,6.1,3.2,6.3C3.2,6.2,3.2,6.2,3.2,6.3z"/>
		<path class="st0" d="M6.3,4.7c0.3-0.3,0.7-0.4,1.1-0.4c0.4,0,0.8,0.1,1.1,0.2c0.1,0,0.2-0.1,0.1-0.2C8.2,4,7.8,3.8,7.3,3.8
			C6.8,3.9,6.4,4.2,6.1,4.6C6,4.7,6.1,4.8,6.3,4.7z"/>
		<path class="st0" d="M3.8,8.4c-0.1,0-0.2,0.1-0.1,0.2C4.5,9.1,5.6,8.8,6.1,8c0-0.1,0-0.1-0.1-0.1C5.2,8.2,4.7,8.7,3.8,8.4z"/>
		<path class="st0" d="M7.2,6.6C7.6,6.5,8,6.3,8.3,6c0,0,0-0.1,0-0.1c0,0,0,0,0,0C7.8,5.9,7.4,6.1,7,6.5c0,0-0.1,0.1,0,0.2
			C7.1,6.7,7.1,6.7,7.2,6.6z"/>
		<path class="st0" d="M9.1,5.6c0.1,0,0.2,0,0.3,0 M9.4,5.5c-0.1,0-0.1-0.1-0.2-0.1S9,5.6,9.1,5.6L9.4,5.5z"/>
		<path class="st0" d="M6.9,10.6c0-0.1,0-0.2-0.1-0.1c-0.3,0.1-0.5,0.2-0.7,0.4C6,11,5.5,11.4,5.3,11.2s-0.3,0-0.2,0.1
			C5.6,12.3,6.6,11.1,6.9,10.6z"/>
		<path class="st0" d="M7.4,9.9c-0.1,0.1,0,0.3,0.1,0.2C7.8,9.9,8,9.8,8.3,9.7c0.2-0.1,0.5-0.1,0.7,0c0,0,0.1,0,0.1-0.1l0,0
			c0-0.4-0.4-0.4-0.7-0.3C8,9.4,7.7,9.6,7.4,9.9z"/>
		<path class="st0" d="M4.8,13.5c-0.1,0-0.2,0.1-0.2,0.3c0,0,0,0.1,0,0.1c0,0.1,0.1,0.2,0.2,0.1c0,0,0.1,0,0.1-0.1
			c0.4,0,0.9,0,1.3,0.1c0.5,0.1,0.9,0.5,1.4,0.6c0.1,0,0.2,0,0.2-0.1c0,0,0-0.1,0-0.1C7.3,13.4,5.8,13.3,4.8,13.5z"/>
		<path class="st0" d="M9,15c0.1-0.3,0.3-0.6,0.5-0.9c0.2-0.3,0.4-0.6,0.5-0.9c0-0.1-0.1-0.1-0.1-0.1c-0.6,0.3-0.8,1.2-1,1.8
			C8.8,15,9,15.1,9,15z"/>
	</g>
</g>
</svg>
