<?xml version="1.0" encoding="utf-8"?>
<!-- Generator: Adobe Illustrator 22.0.1, SVG Export Plug-In . SVG Version: 6.00 Build 0)  -->
<svg version="1.1" id="Layer_1" xmlns="http://www.w3.org/2000/svg" xmlns:xlink="http://www.w3.org/1999/xlink" x="0px" y="0px"
	 viewBox="0 0 25.3 20.7" style="enable-background:new 0 0 25.3 20.7;" xml:space="preserve">
<style type="text/css">
	.st0{fill:#FF7A00;}
</style>
<title>Asset 21</title>
<g id="Layer_2_1_">
	<g id="Layer_1-2">
		<path class="st0" d="M24.3,8.9c-0.2-1.9-0.5-3.8-0.9-5.7c-0.2-0.7-0.1-1.7-0.9-1.9l0,0V1.2c0-0.1-0.1-0.1-0.2-0.1l0,0
			c-0.2,0-0.3,0.2-0.3,0.4l0,0C22,1.7,20.6,2,20.5,2c-0.8,0.1-1.5,0-2.2-0.4c-1.3-0.5-2.6-1.2-4.2-0.9c-1,0.2-2.1,0.7-2.8,1.4
			C11.1,2.2,11,2.4,11,2.5h0c-0.7-0.9-2.2-0.9-3.2-0.8C6.9,1.8,6.2,2.1,5.4,2.5C5,2.8,4.6,3.1,4.3,3.4C3.8,3.8,3.4,4,3,4.2
			C2.3,4.3,1.7,3.9,1.3,3.6c-0.2-0.1-0.4,0-0.5,0.1c0,0,0,0,0,0.1C0.6,4.3,1,5,1.1,5.6C1.4,7,1.8,8.4,2,9.9c0.4,2.8,0.5,5.7,0.6,8.5
			c0,0.1,0.1,0.2,0.2,0.3c0,0.3,0,0.6,0.1,0.9c0,0.1,0.1,0.2,0.2,0.1c0,0,0,0,0.1,0c1.1-0.6,2.4,0.2,3.5,0.3c0.8,0.1,1.5,0.1,2.3,0
			c1.2-0.3,2.4-1.3,3.6-1.9c0.4,0,0.9,0,1.2-0.4c0.1-0.1,0.1-0.2,0.1-0.4c1-0.6,5.2,0.1,5.4,0.2c1.1,0.3,2.3,0.1,3.2-0.7h0.1
			c0.6-0.3,0.9-0.7,1.3-1.1c0.5-0.4,0.7-0.9,0.8-1.6C24.7,12.4,24.6,10.6,24.3,8.9z M22.4,1.6c0.7,0.2,0.7,2.1,0.8,2.6
			c0.3,1.4,0.5,2.7,0.7,4.2c-0.2-1-0.5-2.2-0.9-3.2c-0.3-0.8-0.4-1.6-0.5-2.4C22.6,2.4,22.5,2,22.4,1.6L22.4,1.6z M2.7,10.8
			C2.6,9.6,2.4,8.5,2.2,7.4C2.1,6.7,1.9,6.1,1.7,5.5c-0.2-0.4-0.3-0.8-0.4-1C1.8,4.9,2.4,5,3,4.9c0.9-0.3,1.5-0.8,2.2-1.4
			c1.1-0.9,4.9-2.4,5.7-0.2c0,0.9,0.2,1.7,0.2,2.6c0.1,1.1,0.2,2.2,0.3,3.2c0.2,2.4,0.4,4.6,0.4,7c0,0.1,0,0.2,0.1,0.2
			c-0.9,1.8-4,1.5-5.5,1c-1.2-0.4-2.4-0.6-3.2,0.3C3.1,15.3,3,13,2.7,10.8z M7.8,19.8c-1.2-0.1-2.5-0.3-3.6-0.7
			c-0.3,0-0.6,0-0.9,0.1c-0.1,0-0.2,0.1-0.2,0.1C3,19.1,3,18.9,3,18.7c0.1,0,0.1-0.1,0.1-0.1l0,0l0,0c1.7-0.9,3.7,0.7,5.5,0.4
			c0.8-0.1,1.4-0.3,2.1-0.6C10,19.2,8.8,19.7,7.8,19.8z M6.6,18.4c-1.1-0.3-2.1-0.7-3.1-0.3c0.7-0.9,1.7-0.6,2.7-0.3
			c0.8,0.3,1.6,0.4,2.4,0.4c0.9,0,1.8-0.2,2.6-0.6C10,18.7,7.9,18.8,6.6,18.4z M11.9,17.8c-0.2,0.1-0.5,0.2-0.7,0.3
			c0.3-0.2,0.5-0.5,0.6-0.9v-0.1c0.1-0.1,0.1-0.1,0.2-0.2C11.9,17.3,11.9,17.5,11.9,17.8z M13.1,17.5L13.1,17.5
			c0,0.1-0.2,0.1-0.5,0.1h-0.1h-0.1v-0.5c0-0.2,0-0.4,0-0.7c0.1,0.2,0.2,0.3,0.4,0.5C13,17,13.2,17.2,13.1,17.5z M13.3,16.7
			c-0.2-0.2-0.3-0.4-0.4-0.5c-0.1-0.1-0.2-0.2-0.3-0.1c0.6-0.7,1.7-0.8,2.5-0.8c1.1,0.1,2.3,0.4,3.3,0.9c-0.3,0-0.5,0-0.8-0.1
			c-0.4-0.1-0.7-0.3-0.9-0.5c-0.6-0.2-1.1-0.3-1.6-0.2C14.4,15.5,13.2,15.9,13.3,16.7z M13.6,17.1c0-0.1-0.1-0.1-0.1-0.2
			c0.1,0,0.1-0.1,0.1-0.1l0,0c-0.2-0.7,1.1-0.9,1.5-0.9c0.7,0,1.4,0.1,2,0.5l0.6,0.3h-0.1c-1.2-0.3-2.6-0.2-3.8,0.3
			c0,0-0.1,0.1,0,0.2l0,0l0,0L13.6,17.1z M15.3,16.7h-0.4c0.2-0.1,0.4-0.1,0.7-0.1c0.6,0,1,0,1.5,0.1c0.9,0.1,1.7,0.2,2.6,0.2
			c1.1,0,2.3-0.5,3.1-1.2C21.5,18.3,17.6,16.5,15.3,16.7z M18.7,16.7c0.2,0,0.5-0.1,0.7-0.3c0.5,0.1,1,0.1,1.5,0l-0.1,0.1
			C20,16.7,19.3,16.8,18.7,16.7z M22.9,15.2L22.9,15.2l-0.3,0.1c0.1-0.1,0.2-0.2,0.2-0.4h0.1l0,0C23,15,23,15.1,22.9,15.2L22.9,15.2
			z M22.8,14.4L22.8,14.4c-0.3,0.1-0.5,0.2-0.6,0.5c-0.7,0.9-1.9,1.4-2.9,1c-1.3-0.3-2.5-0.9-3.8-1c-0.9-0.1-2.5,0.1-3.1,0.9
			c0-2.1-0.2-4.2-0.4-6.2c-0.1-1-0.2-2.2-0.3-3.2s-0.4-2.1-0.4-3.1h0.1c0.1,0,0.1,0,0.1-0.1V2.9c-0.6-0.3,1.1-1.4,1.1-1.4
			c0.9-0.4,1.8-0.6,2.7-0.4c1.5,0.3,2.7,1.1,4.3,1.4c0.8,0.1,1.5-0.1,2.2-0.4c0,0.3,0,0.6,0.1,0.9c0.1,1.1,0.3,2.4,0.4,3.5
			s0.3,2.6,0.5,3.8C23,11.5,23.4,13.1,22.8,14.4L22.8,14.4z M23.8,14.6c-0.1,0.1-0.1,0.3-0.2,0.4l0,0c0-0.1-0.1-0.2-0.2-0.3
			c0.4-0.5,0.5-1,0.3-1.6c-0.2-1.2-0.3-2.5-0.5-3.7c-0.2-0.9-0.3-1.9-0.4-2.8c0.2,0.7,0.4,1.2,0.5,1.9C23.8,10,24.3,12.6,23.8,14.6
			L23.8,14.6z"/>
		<path class="st0" d="M15.8,3.7C15.8,3.7,15.9,3.7,15.8,3.7C15.8,3.6,15.8,3.6,15.8,3.7c-0.6-0.4-1.2-0.4-1.9-0.2
			c-0.1,0.1-0.1,0.3,0,0.3C14.6,3.7,15.3,3.9,15.8,3.7z"/>
		<path class="st0" d="M18.3,4.3L18.3,4.3L18.3,4.3c-0.2-0.2-0.4-0.3-0.6-0.4S17.3,3.7,17,3.7c0,0.1,0,0.2,0,0.2V4
			C17.4,4.1,17.9,4.8,18.3,4.3z"/>
		<path class="st0" d="M19.2,4.2c0.2-0.1,0.7-0.2,0.6-0.5c0,0,0-0.1-0.1-0.1s-0.3,0.1-0.4,0.1L19,4c-0.1,0-0.1,0.2-0.1,0.2
			C19,4.2,19.1,4.3,19.2,4.2z"/>
		<path class="st0" d="M15.7,5.9c0.1,0,0.1-0.1,0-0.2c-0.6-0.4-1.3,0-1.9,0.3c-0.2,0.1,0,0.4,0.2,0.3C14.3,6.1,14.6,6,14.9,6
			C15.2,5.9,15.4,5.9,15.7,5.9z"/>
		<path class="st0" d="M17.3,6.6c0.3,0.3,0.9,0.7,1.4,0.4V6.9l0,0c-0.4-0.3-0.9-0.2-1.2-0.5C17.4,6.3,17.2,6.5,17.3,6.6z"/>
		<path class="st0" d="M19.9,6.5c0.1-0.1,0.3-0.2,0.4-0.3c0.1-0.1,0-0.1,0-0.1c-0.2,0-0.4,0-0.6,0.2c-0.1,0.1-0.1,0.2,0,0.2
			C19.7,6.6,19.8,6.6,19.9,6.5L19.9,6.5z"/>
		<path class="st0" d="M15.7,8.4c-0.6,0.1-1,0.4-1,0.9c0,0.1,0.2,0.1,0.2,0c0-0.9,2.1-0.3,2.6-0.4c0.1,0,0.1-0.1,0.1-0.2l0,0
			C17.2,8.3,16.2,8.4,15.7,8.4z"/>
		<path class="st0" d="M19,9.3c-0.1,0-0.2,0-0.2,0.1s0,0.2,0.1,0.2c0.3,0.1,0.7,0.2,0.9,0.1c0,0,0.1-0.1,0-0.1l0,0
			C19.7,9.4,19.3,9.3,19,9.3z"/>
		<path class="st0" d="M20.6,9.4c-0.2,0.1,0.1,0.4,0.2,0.2C20.9,9.4,21,9.5,21,9.5V9.4C20.9,9.3,20.7,9.4,20.6,9.4z"/>
		<path class="st0" d="M17.4,11.9c-0.6-0.2-2.8-0.1-2.3,0.9c0.1,0.1,0.3,0,0.2-0.1c-0.1-0.3,0.7-0.4,0.9-0.5
			C16.7,12.3,17,12.2,17.4,11.9C17.5,12,17.5,12,17.4,11.9L17.4,11.9z"/>
		<path class="st0" d="M18.4,12C18.3,12.1,18.3,12.1,18.4,12c-0.1,0.1,0,0.2,0,0.2c0.3,0,0.6,0.4,0.9,0.4c0,0,0.1,0,0.1-0.1l0,0
			C19,12.1,18.8,12,18.4,12z"/>
		<path class="st0" d="M20.9,12.4c-0.2,0-0.3,0.1-0.5,0s-0.4,0.2-0.2,0.3C20.5,12.8,20.9,12.8,20.9,12.4L20.9,12.4z"/>
		<path class="st0" d="M3.7,6.5C4.4,6.8,5,6.7,5.6,6.2V6.1H5.5C4.9,6.3,4.4,6.3,3.8,6.2C3.7,6.2,3.6,6.3,3.7,6.5
			C3.7,6.4,3.7,6.4,3.7,6.5z"/>
		<path class="st0" d="M6.6,5c0.3-0.3,0.7-0.4,1-0.4s0.8,0.1,1,0.2c0.1,0,0.2-0.1,0.1-0.2C8.4,4.3,8.1,4.2,7.6,4.2S6.7,4.5,6.6,5
			C6.4,5,6.5,5.1,6.6,5z"/>
		<path class="st0" d="M4.3,8.5c-0.1,0-0.2,0.1-0.1,0.2C4.9,9.2,6,8.9,6.5,8.1C6.5,8,6.5,8,6.4,8C5.6,8.3,5.1,8.8,4.3,8.5z"/>
		<path class="st0" d="M7.5,6.8c0.4-0.1,0.8-0.3,1-0.6V6.1l0,0C8,6.1,7.6,6.3,7.3,6.7c0,0-0.1,0.1,0,0.2C7.4,6.9,7.4,6.9,7.5,6.8z"
			/>
		<path class="st0" d="M9.3,5.9c0.1,0,0.2,0,0.3,0 M9.6,5.8c-0.1,0-0.1-0.1-0.2-0.1S9.2,5.9,9.3,5.9L9.6,5.8z"/>
		<path class="st0" d="M7.2,10.6C7.2,10.5,7.2,10.4,7.2,10.6c-0.4,0-0.6,0.1-0.8,0.3c-0.1,0.1-0.6,0.5-0.8,0.3
			c-0.2-0.2-0.3,0-0.2,0.1C6,12.2,6.9,11.1,7.2,10.6z"/>
		<path class="st0" d="M7.7,9.9c-0.1,0.1,0,0.3,0.1,0.2c0.3-0.2,0.5-0.3,0.8-0.4c0.2-0.1,0.5-0.1,0.7,0c0,0,0.1,0,0.1-0.1l0,0
			c0-0.4-0.4-0.4-0.7-0.3C8.3,9.4,8,9.6,7.7,9.9z"/>
		<path class="st0" d="M5.2,13.3c-0.1,0-0.2,0.1-0.2,0.3v0.1c0,0.1,0.1,0.2,0.2,0.1c0,0,0.1,0,0.1-0.1c0.4,0,0.9,0,1.2,0.1
			c0.5,0.1,0.9,0.5,1.3,0.6c0.1,0,0.2,0,0.2-0.1v-0.1C7.6,13.2,6.2,13.1,5.2,13.3z"/>
		<path class="st0" d="M9.2,14.7c0.1-0.3,0.3-0.6,0.5-0.9c0.2-0.3,0.4-0.6,0.5-0.9c0-0.1-0.1-0.1-0.1-0.1
			C9.5,13.2,9.3,14.1,9.2,14.7C9,14.7,9.2,14.8,9.2,14.7z"/>
	</g>
</g>
</svg>
