<svg xmlns="http://www.w3.org/2000/svg" viewBox="0 0 28.07 20.99"><defs><style>.cls-1{fill:#f47a20;}</style></defs><title>Asset 27</title><g id="Layer_2" data-name="Layer 2"><g id="Layer_1-2" data-name="Layer 1"><path class="cls-1" d="M17.17,12.83c-1.1.9-2-.34-3.13-.45a1.71,1.71,0,0,0-.75.11c-.33-1-1.33-2.28,0-2.75,1-.38,2.09,1,3.19.8A1.82,1.82,0,0,0,18,8.6c0-.24-.35-.23-.37,0-.14,1.52-1.38,1.71-2.56,1.14a3.56,3.56,0,0,0-1.44-.51,1.39,1.39,0,0,0-1.52,1.62,9.73,9.73,0,0,0,.7,1.59,1.55,1.55,0,0,1,.09.29,1.11,1.11,0,0,0-.24.41.16.16,0,0,0,0,.15c-.23.14-.61.16-.92.33-.74.4-.34,1.27.41,1.15.25,0,.15-.38-.06-.4-.56-.06.52-.47.56-.47a.78.78,0,0,0,.36-.13,1,1,0,0,0,.32-.79,1.49,1.49,0,0,0,0-.21c.65-.31,1.91.61,2.38.76a1.67,1.67,0,0,0,1.75-.38C17.74,13,17.41,12.64,17.17,12.83Z"/><path class="cls-1" d="M16.14,14.8c-.14,0-.3.1-.43,0s-.25-.31-.33-.46a2.37,2.37,0,0,0-.48-.73c-.43-.38-1.24-.65-1.43.1a.19.19,0,0,0,.36.09c.14-.49.77.07.9.28s.27.55.44.8.8.59,1.13.17A.19.19,0,0,0,16.14,14.8Z"/><path class="cls-1" d="M23.5,13.79c-.06.63-.36.71-.92.66a2,2,0,0,0-1.13.16c-.6.32-1.11,1.42-.27,1.75.2.08.29-.23.14-.34-.47-.32.11-1,.47-1.11a2.57,2.57,0,0,1,1.07,0c.73,0,1-.46,1.08-1.12C24,13.5,23.52,13.51,23.5,13.79Z"/><path class="cls-1" d="M17.61,19.1c.13.16.37,0,.28-.21-.19-.36-.18-1.36.31-1.49a.23.23,0,0,0-.12-.44C17.26,17.13,17.16,18.55,17.61,19.1Z"/><path class="cls-1" d="M7,5.68c.38-.14.54,0,.64.32a2.71,2.71,0,0,0-1,.8c-.87,1.21-1.06,3.56.26,4.55.16.12.36-.14.22-.28A3.34,3.34,0,0,1,6.51,8,2.56,2.56,0,0,1,8.83,6.11c.77-.09,2.32.39,2.87-.36a1.27,1.27,0,0,0,0-1.29c-.15-.38-1.16-2.36.36-2,.37.08.74.27,1.11.38a1.1,1.1,0,0,0,1.18-.15c.13-.13.45-1.48.3-1.55.27.13.5-.27.23-.39-.43-.2-.62.1-.7.5s.14,1.35-.67,1.21C13,2.35,12.47,2.07,12,2a.85.85,0,0,0-.93.41,1.34,1.34,0,0,0-1-.6,7.29,7.29,0,0,0-2.28.18.2.2,0,0,0-.14.14.5.5,0,0,1,0,.12.18.18,0,0,0,.12.21l.15,0a.12.12,0,0,0,.13,0H8A.1.1,0,0,0,8,2.26a10.16,10.16,0,0,1,1.24-.09,3.27,3.27,0,0,1,.88.07c.36.09.42.31.53.63a.2.2,0,0,0,.06.09c-.21.77,1.37,2.41.23,2.69a19.88,19.88,0,0,1-2.32,0,3.12,3.12,0,0,0-.73.18c-.09-1.68-2.94.52-3.41,1-.21.2.11.52.32.32a8.61,8.61,0,0,1,1.24-1A4.21,4.21,0,0,1,7,5.68Z"/><path class="cls-1" d="M14.47,4.55c-.08-.17-.15-.33-.21-.49s-.52-.16-.43.12.36.77.49,1.17a1,1,0,0,1,.06.62c-.1.25-.53.16-.73.14a.18.18,0,0,0-.19.15h-.11c-.17,0-.2.27,0,.29s.27.06.39,0c.56.07,1.12-.06,1.14-.73a2.35,2.35,0,0,0-.24-1A2.58,2.58,0,0,0,16,3.25c.12-.25.23-.54.37-.83a2.58,2.58,0,0,1,1.48.2,3.76,3.76,0,0,1,1.19,1.06c.19.22.52-.1.33-.32a3.68,3.68,0,0,0-1.79-1.3,3,3,0,0,0-1-.07,1.22,1.22,0,0,1,1.11-.65c.27,0,.27-.41,0-.43C15.71.78,16,3.9,14.47,4.55Z"/><path class="cls-1" d="M19.77,5.2c-1,.34-2.27-.77-2.6-1.62a.14.14,0,0,0-.26.08c.2,1.26,2,2.48,3.23,1.88a1.15,1.15,0,0,0,.69-1.34,2.41,2.41,0,0,0-.42-.92c-.07-.11-.15-.21-.22-.3a1.76,1.76,0,0,0-.26-.28c-.33-.23-.33-.56,0-1,.16.07.4-.1.27-.27a.51.51,0,0,0-.87.12A1,1,0,0,0,19.6,3C20.21,3.6,20.94,4.79,19.77,5.2Z"/><path class="cls-1" d="M26.4,4.07A13.54,13.54,0,0,0,20.11.73,21.27,21.27,0,0,0,16.2.31c-1.52-.08-3-.25-4.56-.3A9.68,9.68,0,0,0,7,.93a.23.23,0,0,0-.26,0,1.47,1.47,0,0,0-.26.23A10.15,10.15,0,0,0,4.91,2.27,18.1,18.1,0,0,0,2.42,5a11.93,11.93,0,0,0-2,3.21,5.75,5.75,0,0,0,1.41,6.13,4.44,4.44,0,0,0,.44.43.49.49,0,0,0,.06.3l.54.18h0a.05.05,0,0,0,0,0c.24.1.47.21.71.33a.29.29,0,0,1,.15.14c1.89.83,4.09.65,6.25.73a2.49,2.49,0,0,0,2.65,1.7,1.72,1.72,0,0,0,1.12-.61c.55.67,2,.31,2.39,1.3.24.62-.54,2.05.51,2.17a3.82,3.82,0,0,0,2.55-.63c.45-.36.29-1.64,0-2.26.34-.65,1.32-.89,2-1.11A11.31,11.31,0,0,0,24,15.57a8.11,8.11,0,0,0,.73-.54.09.09,0,0,0,.08,0l.11-.13a10.11,10.11,0,0,0,2.78-4.51A6,6,0,0,0,26.4,4.07ZM6,15.86c.53-.27.8-.95,1.14-1.52.1-.16.46-.69.71-.58s.29.48.35.68c.14.46.18.94.3,1.4a.19.19,0,0,0,0,.09A19.54,19.54,0,0,1,6,15.86ZM10,15a2.74,2.74,0,0,0-.1.93h-1A.21.21,0,0,0,9,15.72c-.14-.66-.21-2.26-1.08-2.42-.48-.08-.88.48-1.1.82s-.33.63-.51.93a1.35,1.35,0,0,1-.38.44,1,1,0,0,1-.47.12c0,.11,0,.09,0-.06a.14.14,0,0,0-.27,0l0,.16A6.42,6.42,0,0,1,2.7,14.48a8.57,8.57,0,0,1,.39-1,1.86,1.86,0,0,0-.15-1.39c-.19-.36-.64-.44-1-.5-1.2-.22-1.09-2-.83-2.82,0-.17-.21-.23-.26-.07C.44,9.85.42,11.48,1.84,12s.81,1.36.51,2.22L2.12,14a5.73,5.73,0,0,1-1.7-3.84A7.14,7.14,0,0,1,2.17,6,17.11,17.11,0,0,1,6.05,2a1.9,1.9,0,0,0,0,.34c0,.62,1.67,1.42.83,2S4.6,4.59,3.72,5.49C2.39,6.86,2.94,10,5.18,9.78a.18.18,0,0,0,0-.36C3.84,9.4,3.34,8.22,3.5,7S4.58,5.35,5.73,5.14c.69-.13,1.56-.26,1.84-1C8,3,5.77,2.63,6.78,1.53l0,0c.07.17.32.1.34-.09a.38.38,0,0,0,0-.1A8,8,0,0,1,8.33.84,11.9,11.9,0,0,1,12.7.54c1.53.09,3.05.21,4.58.3a14.74,14.74,0,0,1,6.47,1.9.18.18,0,0,0-.13.23c.22.56-1.78.1-1.88.81a18.17,18.17,0,0,1-.08,2.08c-.28,1.14-.55,1.83-1.81,1.88a2.13,2.13,0,0,0-.16-.25,1.75,1.75,0,0,0-2-.55,2.89,2.89,0,0,0-.71.34,4.66,4.66,0,0,0,.22-1.16c0-.23-.11-1.27-.57-.83a.17.17,0,0,0,0,.21,1.28,1.28,0,0,1,.15.91,3.73,3.73,0,0,1-.29,1.26L16.06,8a1.59,1.59,0,0,1-.34.3c-.35.41-.76.4-1.22,0l0,0h0a.14.14,0,0,0-.17-.18c-1-.92-2.63-.32-3.72.46a.14.14,0,0,0,0-.09c-.17-.57-.81-2-1.66-1.65-1.21.47-1.15,1.75-.84,2.77.64,2.12-1,4-3.14,3-1.45-.66-2.2-2.39-3-3.66a.17.17,0,1,0-.29.17c1.06,2,2.56,4.72,5.27,4.14a2.47,2.47,0,0,0,1.74-2.12,4.47,4.47,0,0,0-.21-1.92,3.06,3.06,0,0,1-.15-.73c0-.7.41-1.05,1.21-1a2.4,2.4,0,0,1,.64,1.14.24.24,0,0,0,.21.16,5.06,5.06,0,0,0-.41.37A2.93,2.93,0,0,0,9,11.37a3.26,3.26,0,0,0,.53,1.26A2.67,2.67,0,0,1,10,15Zm15.35-1.24c-.16.18-.33.34-.5.5a6,6,0,0,0,.38-1.13c.1-.26-.31-.35-.41-.1s-.14.44-.21.66a1.28,1.28,0,0,1-.43.63c-.18.16,0,.39.2.36a11.44,11.44,0,0,1-2.58,1.58c-.46.21-1.08.37-1.65.59a.23.23,0,0,0-.27-.3c-1,.08-1.33-.45-1.11-1.57a2.26,2.26,0,0,1,.94-.87,8.45,8.45,0,0,1,1.39-.57,3.18,3.18,0,0,0,1.56-1.24,2,2,0,0,1,2.69-.68C26.2,12.06,25.83,13,25.34,13.77Zm1.59-2.61a8,8,0,0,1-.71,1.44,1.51,1.51,0,0,0-.35-1.06,2.4,2.4,0,0,0-3.21,0c-.27.27-.44.64-.69.93a3.35,3.35,0,0,1-1.49.84,3.8,3.8,0,0,0-2,1.21,1.63,1.63,0,0,0-.21,1.83,1.48,1.48,0,0,0,1.39.72,2.14,2.14,0,0,0-.89.72.22.22,0,0,0-.16.31,0,0,0,0,1,0,0,1.48,1.48,0,0,0,0,.67.23.23,0,0,0,.29.2c0,.13,0,.26,0,.4,0,.63-.3.78-.81.94a5.06,5.06,0,0,1-1.16.22c-.64,0-.34-.8-.3-1.18A1.58,1.58,0,0,0,16,17.93a3,3,0,0,0-.81-.33c-.16,0-.91-.33-1.15-.39a1.59,1.59,0,0,1,1-.51c.76-.06,1.46.33,1.83-.56.11-.27-.34-.39-.45-.12-.2.49-1.45.2-1.88.29a1.61,1.61,0,0,0-.84.6.17.17,0,0,0-.14.15l-.1.12a1.87,1.87,0,0,1-2.61-.12,1.28,1.28,0,0,1-.49-.75.26.26,0,0,0,0-.29,12.12,12.12,0,0,1,.24-1.47c.19-1.65-1.58-2.68-.88-4.32.56-1.29,3-3,4.39-1.82,0,.41.77.69,1.17.62s.94-.59,1.28-.89c.81-.73,2.44-1.54,3,0a1.89,1.89,0,0,1-.79,2.1,1.23,1.23,0,0,0-.53,1.08c.07.69,1.12.65,1.54.37.18-.12.08-.46-.15-.37-.75.28-.88-.45-.36-.89l.19-.18a1.9,1.9,0,0,0,1.68.7c.77,0,1.12-.73,1.27-1.38a10.89,10.89,0,0,1,.25-1.29A2.52,2.52,0,0,1,23,7.43c.16-.21.27.74.27.78a3.91,3.91,0,0,1,0,.46.21.21,0,0,0,0,.2c-.06.59-.12,1.22.3,1.59.23.2.56-.13.34-.32A2.74,2.74,0,0,1,23.76,9a2,2,0,0,0,1.48-2.18c0-.29-.48-.29-.45,0a1.64,1.64,0,0,1-1,1.77c0-1-.15-2.08-.89-1.6A2.75,2.75,0,0,0,22,8.68a5.48,5.48,0,0,1-.3,1.39c-.36.77-1.66.47-2.08-.12a1.88,1.88,0,0,0,.21-.37A2.46,2.46,0,0,0,20,8.08c1.73,0,2.44-1.79,2.24-3.42-.08-.64,0-.82.61-.88a3.39,3.39,0,0,0,1-.18.44.44,0,0,0,.24-.68c.31.18.62.38.92.59l.13.09a4,4,0,0,0-1,1.24c-.25.44-.21,1,.32,1a.19.19,0,0,0,.36-.13,1.29,1.29,0,0,1,.38-.12.78.78,0,0,1,.91.29,1.64,1.64,0,0,1,.11,1.52c-.27.69-.93,1.12-1.14,1.84-.31,1.07,1.31,1.39,2,1.12a.22.22,0,0,0,0-.42.65.65,0,0,0-.21-.05.19.19,0,0,0-.19.1c-.67,0-1.5-.22-.93-1.14.25-.39.57-.7.8-1.11a2.09,2.09,0,0,0,0-1.87,1.13,1.13,0,0,0-1.29-.71,1.29,1.29,0,0,0-.79.33c-.09,0-.16-.06-.13-.19a1.9,1.9,0,0,1,.33-.63,3.36,3.36,0,0,1,.81-.83,5.63,5.63,0,0,1,2,2.91A7.31,7.31,0,0,1,26.93,11.16Z"/></g></g></svg>