<?xml version="1.0" encoding="utf-8"?>
<!-- Generator: Adobe Illustrator 22.0.1, SVG Export Plug-In . SVG Version: 6.00 Build 0)  -->
<svg version="1.1" id="Layer_1" xmlns="http://www.w3.org/2000/svg" xmlns:xlink="http://www.w3.org/1999/xlink" x="0px" y="0px"
	 viewBox="0 0 28.1 21" style="enable-background:new 0 0 28.1 21;" xml:space="preserve">
<style type="text/css">
	.st0{fill:#FF4500;}
</style>
<title>Asset 27</title>
<g id="Layer_2_1_">
	<g id="Layer_1-2">
		<path class="st0" d="M17,12.7c-1,0.9-1.9-0.3-3-0.4c-0.2,0-0.5,0-0.7,0.1c-0.3-0.9-1.3-2.2,0-2.6c0.9-0.4,2,0.9,3,0.8
			c0.9-0.1,1.5-0.9,1.4-1.8c0-0.2-0.3-0.2-0.4,0c-0.1,1.4-1.3,1.6-2.4,1.1c-0.4-0.3-0.9-0.4-1.4-0.5c-0.7-0.1-1.4,0.4-1.5,1.2
			c0,0.1,0,0.2,0,0.4c0.2,0.5,0.4,1,0.7,1.5c0,0.1,0.1,0.2,0.1,0.3c-0.1,0.1-0.2,0.2-0.2,0.4c0,0,0,0.1,0,0.1
			c-0.2,0.1-0.6,0.2-0.9,0.3c-0.7,0.4-0.3,1.2,0.4,1.1c0.2,0,0.1-0.4-0.1-0.4c-0.5-0.1,0.5-0.4,0.5-0.4c0.1,0,0.2-0.1,0.3-0.1
			c0.2-0.2,0.3-0.5,0.3-0.7c0-0.1,0-0.1,0-0.2c0.6-0.3,1.8,0.6,2.3,0.7c0.6,0.2,1.2,0.1,1.7-0.4C17.6,12.9,17.2,12.5,17,12.7z"/>
		<path class="st0" d="M16,14.6c-0.1,0-0.3,0.1-0.4,0c-0.1-0.1-0.2-0.3-0.3-0.4c-0.1-0.3-0.3-0.5-0.5-0.7c-0.4-0.4-1.2-0.6-1.4,0.1
			c0,0.1,0.1,0.2,0.2,0.2c0.1,0,0.1,0,0.2-0.1c0.1-0.5,0.7,0.1,0.9,0.3s0.3,0.5,0.4,0.8s0.8,0.6,1.1,0.2
			C16.2,14.7,16.2,14.6,16,14.6C16.1,14.6,16,14.6,16,14.6z"/>
		<path class="st0" d="M23,13.6c-0.1,0.6-0.3,0.7-0.9,0.6c-0.4-0.1-0.7,0-1.1,0.2c-0.6,0.3-1.1,1.3-0.3,1.7c0.2,0.1,0.3-0.2,0.1-0.3
			c-0.4-0.3,0.1-0.9,0.4-1.1c0.3-0.1,0.7-0.1,1,0c0.7,0,0.9-0.4,1-1.1C23.5,13.3,23,13.4,23,13.6z"/>
		<path class="st0" d="M17.4,18.7c0.1,0.2,0.4,0,0.3-0.2c-0.2-0.3-0.2-1.3,0.3-1.4c0.1,0,0.2-0.2,0.1-0.3c0-0.1-0.1-0.1-0.2-0.1
			C17.1,16.8,17,18.1,17.4,18.7z"/>
		<path class="st0" d="M7.4,5.9c0.4-0.1,0.5,0,0.6,0.3C7.6,6.4,7.3,6.7,7,7c-0.8,1.1-1,3.4,0.2,4.3c0.2,0.1,0.3-0.1,0.2-0.3
			c-0.7-0.8-0.9-1.9-0.6-2.9c0.3-1,1.2-1.7,2.2-1.8c0.7-0.1,2.2,0.4,2.7-0.3c0.2-0.4,0.2-0.8,0-1.2c-0.1-0.4-1.1-2.2,0.3-1.9
			c0.4,0.1,0.7,0.3,1.1,0.4c0.4,0.2,0.8,0.1,1.1-0.1c0.1-0.1,0.4-1.4,0.3-1.5c0.3,0.1,0.5-0.3,0.2-0.4c-0.4-0.2-0.6,0.1-0.7,0.5
			s0.1,1.3-0.6,1.1c-0.5-0.1-1-0.4-1.4-0.4c-0.3-0.1-0.7,0.1-0.9,0.4c-0.2-0.3-0.6-0.5-0.9-0.6c-0.7-0.1-1.5,0-2.2,0.2
			C8,2.4,8,2.5,8,2.6c0,0,0,0.1,0,0.1c0,0.1,0,0.2,0.1,0.2h0.1c0,0,0.1,0,0.1,0h0c0.1,0,0.1,0,0.1-0.1c0-0.1,0-0.1-0.1-0.1
			c0.4-0.1,0.8-0.1,1.2-0.1c0.3,0,0.6,0,0.8,0.1c0.3,0.1,0.4,0.3,0.5,0.6c0,0,0,0.1,0.1,0.1c-0.2,0.7,1.3,2.3,0.2,2.6
			c-0.7,0-1.5,0-2.2,0C8.7,5.9,8.4,6,8.2,6.1C8.1,4.5,5.4,6.6,5,7C4.8,7.2,5.1,7.5,5.3,7.3C5.6,7,6,6.7,6.5,6.4C6.7,6.2,7,6,7.4,5.9
			z"/>
		<path class="st0" d="M14.4,4.9c-0.1-0.2-0.1-0.3-0.2-0.5c-0.1-0.2-0.5-0.2-0.4,0.1s0.3,0.7,0.5,1.1c0.1,0.2,0.1,0.4,0.1,0.6
			c-0.1,0.2-0.5,0.2-0.7,0.1c-0.1,0-0.2,0.1-0.2,0.1h-0.1c-0.2,0-0.2,0.3,0,0.3s0.3,0.1,0.4,0c0.5,0.1,1.1-0.1,1.1-0.7
			c0-0.3-0.1-0.7-0.2-0.9c0.6-0.3,1.1-0.8,1.3-1.5c0.1-0.2,0.2-0.5,0.4-0.8c0.5-0.1,1,0,1.4,0.2c0.4,0.3,0.8,0.6,1.1,1
			c0.2,0.2,0.5-0.1,0.3-0.3c-0.4-0.6-1-1-1.7-1.2c-0.3-0.1-0.6-0.1-0.9-0.1c0.2-0.4,0.6-0.6,1.1-0.6c0.3,0,0.3-0.4,0-0.4
			C15.6,1.3,15.9,4.2,14.4,4.9z"/>
		<path class="st0" d="M19.5,5.5c-0.9,0.3-2.2-0.7-2.5-1.5c0-0.1-0.1-0.1-0.2,0c0,0-0.1,0.1-0.1,0.1c0.2,1.2,1.9,2.4,3.1,1.8
			c0.5-0.2,0.8-0.7,0.7-1.3c-0.1-0.3-0.2-0.6-0.4-0.9c-0.1-0.1-0.1-0.2-0.2-0.3c-0.1-0.1-0.2-0.2-0.2-0.3c-0.3-0.2-0.3-0.5,0-0.9
			c0.2,0.1,0.4-0.1,0.3-0.3c-0.2-0.2-0.5-0.2-0.7-0.1c-0.1,0.1-0.1,0.1-0.1,0.2c-0.3,0.4-0.2,1,0.2,1.3c0,0,0,0,0.1,0
			C19.9,4,20.6,5.1,19.5,5.5z"/>
		<path class="st0" d="M25.8,4.4c-1.7-1.6-3.7-2.7-6-3.2c-1.2-0.2-2.5-0.4-3.7-0.4c-1.4-0.1-2.8-0.2-4.3-0.3c-1.5-0.1-3,0.2-4.4,0.9
			c-0.1-0.1-0.2-0.1-0.2,0C7,1.5,6.9,1.6,6.9,1.6c-0.5,0.3-1,0.7-1.5,1.1C4.5,3.5,3.7,4.3,3,5.3c-0.8,0.9-1.4,1.9-1.9,3
			c-0.7,2-0.2,4.3,1.3,5.8c0.1,0.1,0.3,0.3,0.4,0.4c0,0.1,0,0.2,0.1,0.3L3.4,15l0,0l0,0c0.2,0.1,0.4,0.2,0.7,0.3
			c0.1,0,0.1,0.1,0.1,0.1c1.8,0.8,3.9,0.6,5.9,0.7c0.3,1.1,1.4,1.7,2.5,1.6c0.4,0,0.8-0.3,1.1-0.6c0.5,0.6,1.9,0.3,2.3,1.2
			c0.2,0.6-0.5,1.9,0.5,2.1c0.9,0.1,1.7-0.1,2.4-0.6c0.4-0.3,0.3-1.6,0-2.1c0.3-0.6,1.3-0.8,1.9-1.1c0.9-0.3,1.8-0.8,2.7-1.4
			c0.2-0.2,0.5-0.3,0.7-0.5c0,0,0.1,0,0.1,0l0.1-0.1c1.2-1.2,2.2-2.6,2.6-4.3C27.8,8.3,27.3,6,25.8,4.4z M6.4,15.6
			c0.5-0.3,0.8-0.9,1.1-1.4c0.1-0.2,0.4-0.7,0.7-0.6c0.2,0.1,0.3,0.5,0.3,0.6c0.1,0.4,0.2,0.9,0.3,1.3c0,0,0,0.1,0,0.1
			C8,15.7,7.2,15.7,6.4,15.6z M10.2,14.8c-0.1,0.3-0.1,0.6-0.1,0.9H9.2c0.1,0,0.1-0.1,0.1-0.2c-0.1-0.6-0.2-2.1-1-2.3
			c-0.5-0.1-0.8,0.5-1,0.8c-0.2,0.3-0.3,0.6-0.5,0.9c-0.1,0.2-0.2,0.3-0.4,0.4c-0.1,0.1-0.3,0.1-0.4,0.1c0,0.1,0,0.1,0-0.1
			c0-0.1-0.1-0.1-0.2-0.1c0,0-0.1,0-0.1,0.1v0.2c-0.9-0.2-1.7-0.6-2.4-1.2c0.1-0.3,0.2-0.6,0.4-0.9c0.1-0.4,0.1-0.9-0.1-1.3
			c-0.2-0.3-0.6-0.4-0.9-0.5c-1.1-0.2-1-1.9-0.8-2.7c0-0.2-0.2-0.2-0.2-0.1c-0.4,1.1-0.4,2.6,0.9,3.1S3.2,13.2,3,14l-0.2-0.2
			c-1-1-1.6-2.3-1.6-3.6c0.1-1.5,0.7-2.8,1.7-3.9c1-1.5,2.3-2.7,3.7-3.8c0,0.1,0,0.2,0,0.3c0,0.6,1.6,1.3,0.8,1.9s-2.2,0.2-3,1.1
			C3,7,3.5,10,5.6,9.8c0.1,0,0.2-0.1,0.2-0.2c0-0.1-0.1-0.2-0.2-0.2C4.4,9.5,3.9,8.3,4,7.2c0.2-1.2,1-1.6,2.1-1.8
			c0.7-0.1,1.5-0.2,1.7-0.9C8.3,3.4,6.2,3,7.2,2l0,0c0.1,0.2,0.3,0.1,0.3-0.1c0,0,0-0.1,0-0.1c0.4-0.2,0.8-0.3,1.1-0.5
			C10,1,11.4,0.9,12.8,1.1c1.5,0.1,2.9,0.2,4.3,0.3c2.2,0.1,4.3,0.7,6.1,1.8c-0.1,0-0.1,0.1-0.1,0.2c0,0,0,0,0,0
			c0.2,0.5-1.7,0.1-1.8,0.8c0,0.7,0,1.3-0.1,2c-0.3,1.1-0.5,1.7-1.7,1.8c0-0.1-0.1-0.2-0.2-0.2c-0.5-0.6-1.2-0.8-1.9-0.5
			c-0.2,0.1-0.5,0.2-0.7,0.3C16.9,7.1,17,6.7,17,6.3c0-0.2-0.1-1.2-0.5-0.8c0,0.1,0,0.1,0,0.2c0.2,0.3,0.2,0.6,0.1,0.9
			c0,0.4-0.1,0.8-0.3,1.2L16,8.1c-0.1,0.1-0.2,0.2-0.3,0.3c-0.3,0.4-0.7,0.4-1.2,0l0,0l0,0c0-0.1,0-0.1-0.1-0.2c0,0-0.1,0-0.1,0
			c-0.9-0.9-2.5-0.3-3.5,0.4c0,0,0-0.1,0-0.1C10.6,8.1,10,6.7,9.2,7C8.1,7.5,8.1,8.7,8.4,9.7c0.6,2-0.9,3.8-3,2.8
			C4.1,11.9,3.4,10.2,2.6,9c0-0.1-0.1-0.1-0.2-0.1C2.3,9,2.3,9.1,2.3,9.1c0,0,0,0,0,0c1,1.9,2.4,4.5,5,3.9c0.9-0.3,1.6-1.1,1.7-2
			C9,10.5,9,9.9,8.8,9.3C8.7,9.1,8.6,8.8,8.6,8.6c0-0.7,0.4-1,1.1-0.9c0.3,0.3,0.5,0.7,0.6,1.1c0,0.1,0.1,0.1,0.2,0.2
			c-0.1,0.1-0.3,0.2-0.4,0.4c-0.6,0.5-0.9,1.3-0.9,2.1c0.1,0.4,0.3,0.8,0.5,1.2C10.3,13.2,10.4,14,10.2,14.8z M24.8,13.6
			c-0.2,0.2-0.3,0.3-0.5,0.5c0.2-0.3,0.3-0.7,0.4-1.1c0.1-0.2-0.3-0.3-0.4-0.1c-0.1,0.2-0.1,0.4-0.2,0.6c-0.1,0.2-0.2,0.4-0.4,0.6
			c-0.2,0.2,0,0.4,0.2,0.3c-0.7,0.6-1.6,1.1-2.4,1.5c-0.4,0.2-1,0.4-1.6,0.6c0-0.1,0-0.2-0.1-0.3c0,0-0.1,0-0.1,0
			c-0.9,0.1-1.3-0.4-1.1-1.5c0.2-0.4,0.5-0.6,0.9-0.8c0.4-0.2,0.9-0.4,1.3-0.5c0.6-0.2,1.1-0.6,1.5-1.2c0.5-0.9,1.7-1.2,2.6-0.6
			C25.6,12,25.2,12.9,24.8,13.6L24.8,13.6z M26.3,11.1c-0.2,0.5-0.4,0.9-0.7,1.4c0-0.4-0.1-0.7-0.3-1c-0.9-0.8-2.2-0.8-3,0
			c-0.3,0.3-0.4,0.6-0.7,0.9c-0.4,0.4-0.9,0.7-1.4,0.8c-0.7,0.2-1.4,0.6-1.9,1.1c-0.4,0.5-0.5,1.2-0.2,1.7c0.3,0.5,0.8,0.7,1.3,0.7
			c-0.3,0.1-0.6,0.4-0.8,0.7c-0.1,0-0.2,0.1-0.2,0.2c0,0,0,0,0,0.1l0,0c0,0.2,0,0.4,0,0.6c0,0.1,0.1,0.2,0.2,0.2c0,0,0,0,0,0
			c0,0.1,0,0.2,0,0.4c0,0.6-0.3,0.7-0.8,0.9c-0.4,0.1-0.7,0.2-1.1,0.2c-0.6,0-0.3-0.8-0.3-1.1c0-0.5-0.2-1-0.6-1.3
			c-0.2-0.1-0.5-0.2-0.8-0.3c-0.2,0-0.9-0.3-1.1-0.4c0.2-0.3,0.6-0.4,0.9-0.5c0.7-0.1,1.4,0.3,1.7-0.5c0.1-0.3-0.3-0.4-0.4-0.1
			c-0.2,0.5-1.4,0.2-1.8,0.3c-0.3,0.1-0.6,0.3-0.8,0.6c-0.1,0-0.1,0.1-0.1,0.1l-0.1,0.1c-0.7,0.6-1.8,0.6-2.5-0.1
			c-0.2-0.2-0.4-0.4-0.5-0.7c0.1-0.1,0.1-0.2,0-0.3c0-0.5,0.1-0.9,0.2-1.4c0.2-1.6-1.5-2.5-0.8-4.1c0.5-1.2,2.8-2.8,4.2-1.7
			c0,0.4,0.7,0.7,1.1,0.6c0.4-0.1,0.9-0.6,1.2-0.8c0.8-0.7,2.3-1.5,2.8,0c0.2,0.8-0.1,1.6-0.7,2c-0.3,0.2-0.5,0.6-0.5,1
			c0.1,0.7,1.1,0.6,1.5,0.4c0.2-0.1,0.1-0.4-0.1-0.4c-0.7,0.3-0.8-0.4-0.3-0.8l0.2-0.2c0.4,0.5,1,0.7,1.6,0.7c0.7,0,1.1-0.7,1.2-1.3
			c0.1-0.4,0.1-0.8,0.2-1.2c0.1-0.3,0.2-0.6,0.3-0.8c0.2-0.2,0.3,0.7,0.3,0.7c0,0.1,0,0.3,0,0.4c0,0.1,0,0.1,0,0.2
			c-0.1,0.6-0.1,1.2,0.3,1.5c0.2,0.2,0.5-0.1,0.3-0.3c-0.1-0.3-0.2-0.7-0.1-1.1C24.2,8.8,24.8,8,24.7,7c0-0.3-0.5-0.3-0.4,0
			c0.1,0.7-0.3,1.4-0.9,1.7c0-0.9-0.1-2-0.8-1.5c-0.5,0.4-0.8,1-0.9,1.6c0,0.5-0.1,0.9-0.3,1.3c-0.3,0.7-1.6,0.4-2-0.1
			c0.1-0.1,0.1-0.2,0.2-0.4c0.2-0.4,0.3-0.9,0.2-1.4c1.6,0,2.3-1.7,2.1-3.2c-0.1-0.6,0-0.8,0.6-0.8c0.3,0,0.6-0.1,0.9-0.2
			c0.2-0.1,0.4-0.3,0.3-0.5c0,0,0-0.1-0.1-0.1c0.3,0.2,0.6,0.4,0.9,0.6L24.6,4c-0.4,0.3-0.7,0.7-0.9,1.2c-0.2,0.4-0.2,0.9,0.3,0.9
			c0,0.1,0.1,0.1,0.2,0.1s0.1-0.1,0.1-0.2l0,0c0.1-0.1,0.2-0.1,0.4-0.1c0.3-0.1,0.7,0,0.9,0.3c0.3,0.4,0.3,1,0.1,1.4
			c-0.3,0.7-0.9,1.1-1.1,1.7c-0.3,1,1.2,1.3,1.9,1.1c0.1,0,0.2-0.2,0.1-0.3c0-0.1-0.1-0.1-0.1-0.1c-0.1,0-0.1,0-0.2,0
			c-0.1,0-0.1,0-0.2,0.1c-0.6,0-1.4-0.2-0.9-1.1c0.2-0.4,0.5-0.7,0.8-1.1c0.3-0.6,0.3-1.2,0-1.8c-0.2-0.5-0.7-0.8-1.2-0.7
			c-0.3,0-0.5,0.1-0.7,0.3c-0.1,0-0.2-0.1-0.1-0.2C23.9,5.4,24,5.1,24.1,5c0.2-0.3,0.5-0.6,0.8-0.8c0.9,0.7,1.6,1.7,1.9,2.8
			C27.1,8.4,26.9,9.8,26.3,11.1L26.3,11.1z"/>
	</g>
</g>
</svg>
