<?xml version="1.0" encoding="utf-8"?>
<!-- Generator: Adobe Illustrator 22.0.1, SVG Export Plug-In . SVG Version: 6.00 Build 0)  -->
<svg version="1.1" id="Layer_1" xmlns="http://www.w3.org/2000/svg" xmlns:xlink="http://www.w3.org/1999/xlink" x="0px" y="0px"
	 viewBox="0 0 30 30" style="enable-background:new 0 0 30 30;" xml:space="preserve">
<style type="text/css">
	.st0{fill:#010101;}
</style>
<title>Asset 14</title>
<g id="Layer_2_1_">
	<g id="Layer_1-2">
		<path class="st0" d="M18.2,14.6c-2.5-1.2-5.6-1.3-7.6,0.9c-0.8,0.9-1.3,2.2-1.1,3.5c0.2,1.5,1.5,3.2,0.7,4.8l0,0
			C10,24,9.9,24.4,10,24.7c-0.4,0.2-0.5,0.5-0.5,0.9c-0.3,0-0.5,0.4-0.5,0.7c0,0.4,0.1,0.6,0.3,0.9c-0.8,0.8,0,1.9,0.7,2.4
			c0.7,0.5,2.6,0.8,3.1-0.4c0.1-0.2,0-0.3-0.2-0.4c-0.1,0-0.2,0-0.3,0c-0.5,0.5-1.5,0.6-2.1,0.3c-0.4-0.2-0.6-0.4-0.9-0.6
			c-0.1-0.2-0.4-0.8-0.2-1c0.3,0.4,0.5,0.6,0.9,0.9c0.7,0.6,1.8,0.7,2.6,0.3c0.5-0.2,1.2-0.7,1.2-1.3l0.3-0.1
			c0.5-0.3,0.8-0.9,0.5-1.3c0-0.1,0.1-0.1,0.1-0.2c0.1,0.1,0.4,0.1,0.5,0l0.1-0.1c0.5-1.4,1.9-1.8,3.1-2.3c1-0.4,1.8-1.1,2.3-2
			C22.1,18.7,20.5,15.7,18.2,14.6z M11.2,28.3c-0.5-0.2-0.9-0.5-1.3-1c-0.1-0.1-0.2-0.3-0.3-0.4s-0.5-1-0.2-1.2c0,0,0,0,0,0.1
			c0.2,0.9,1.2,1.2,1.9,1.5c0.5,0.2,1.1,0.3,1.7,0.3C12.7,28.2,11.9,28.5,11.2,28.3L11.2,28.3z M11.7,26.7c-0.5-0.1-0.9-0.3-1.3-0.5
			c-0.3-0.1-0.6-0.9-0.3-1.3l0,0c0.5,0.7,1.4,1.2,2.2,1.4c0.6,0.2,1.3,0.2,1.9-0.1C14.2,27.2,12,26.8,11.7,26.7L11.7,26.7z
			 M12.7,21.1c0-0.7,0-1.5-0.1-2.2c0.3,0.2,0.5,0.3,0.9,0.3v0.1c0.4,0.5,0.9,0.5,1.4,0.4c0.1,0.2,0.2,0.3,0.4,0.4
			c0.2,0.1,0.4,0.1,0.5,0.1c0.4,0,0.7,0.1,1,0.3c-1.6,1.2-3.4,2.5-4.2,4.4l-0.2-0.1c-0.1-0.1-0.3-0.1-0.4-0.2h0.1
			C12.6,23.4,12.8,22.2,12.7,21.1z M12.9,25.4c0.4,0.2,0.8,0.3,1.3,0.3c-0.6,0.8-4.3-0.3-3.7-1.5l0,0c0.3,0.2,0.5,0.4,0.8,0.5
			C11.8,24.8,12.3,25.1,12.9,25.4z M18.9,22.4c-1.5,0.8-3.3,1.1-4,2.6c0-0.1-0.1-0.1-0.2-0.1c-0.3,0-0.5,0.2-0.8,0.2
			c-0.2,0-0.4,0-0.6-0.1c0.8-1.9,2.6-3.2,4.3-4.4c0.1-0.1,0.2-0.3,0.1-0.5c0,0,0,0-0.1-0.1c-0.3-0.3-0.5-0.5-0.8-0.5
			c-0.3-0.1-1.3,0-1.2-0.3c0-0.2-0.1-0.4-0.3-0.4c-0.1,0-0.1,0-0.2,0c-0.4,0.3-0.6,0.3-0.8-0.2c0-0.1,0.1-0.1,0.1-0.2
			c0.1-0.2,0-0.4-0.2-0.4c-0.1,0-0.2,0-0.3,0c-0.2,0.1-0.3,0.2-0.4,0.4c-0.4,0.1-1-0.5-1.2-0.7c-0.2-0.3-0.5-0.1-0.5,0.3
			c0.3,1.1,0.4,2.2,0.3,3.3c0,0.9-0.1,1.9-0.3,2.8c-0.3-0.2-0.6-0.4-1-0.5c0.9-1.8-0.8-3.9-0.7-5.8c0.1-1.5,1.5-2.7,2.8-3.3
			c1.5-0.5,3.3-0.4,4.7,0.4C20.4,16.2,22,20.6,18.9,22.4z"/>
		<path class="st0" d="M6.9,20.8c-0.3-0.2-0.7-0.1-1.1,0l-0.6,0.1H4.9c-0.1,0-0.2,0-0.1,0c-0.1-0.1-0.2,0-0.3,0.1c0,0.1,0,0.2,0,0.3
			c0.3,0.2,0.7,0.1,1,0.1c0.3,0,1.1,0,1.3-0.4C6.9,20.9,6.9,20.8,6.9,20.8z"/>
		<path class="st0" d="M7,14.9c-0.3-0.3-0.6-0.5-1-0.6c-0.2-0.1-0.4-0.2-0.5-0.3c-0.1-0.1-0.2-0.1-0.3,0c-0.1,0.1-0.1,0.2,0,0.3
			c0,0.1,0,0.1,0.1,0.1l0,0l0.2,0.2c0.2,0.1,0.4,0.2,0.5,0.3c0.3,0.2,0.5,0.3,0.9,0.4C6.9,15.1,7,15,7,14.9L7,14.9z"/>
		<path class="st0" d="M12.2,10.6c0-0.4-0.4-0.7-0.5-1.1c-0.1-0.5-0.3-0.8-0.4-1.3c-0.1-0.3-0.5-0.2-0.5,0.1
			c0.1,0.5,0.3,0.9,0.4,1.4c0.2,0.4,0.4,0.9,0.8,1C12.1,10.6,12.2,10.6,12.2,10.6C12.3,10.6,12.3,10.6,12.2,10.6z"/>
		<path class="st0" d="M19.6,9.6c0-0.1,0-0.3-0.1-0.3s-0.3,0-0.3,0.1c-0.4,0.9-1.4,1.6-1.5,2.6c0,0.1,0.1,0.3,0.3,0.1
			C18.7,11.5,19.2,10.6,19.6,9.6z"/>
		<path class="st0" d="M25.3,14.6c-0.7-0.7-2.2,0-3.1,0c-0.3,0-0.3,0.5,0,0.5c0.5,0.1,1,0,1.5-0.1c0.5-0.1,1-0.1,1.5-0.1
			C25.3,14.8,25.4,14.7,25.3,14.6C25.4,14.6,25.4,14.6,25.3,14.6z"/>
		<path class="st0" d="M25.4,20.9c0-0.9-1.1-0.8-1.5-1.2c-0.2-0.2-0.5,0.1-0.3,0.4c0.5,0.5,1.2,0.5,1.6,1C25.2,21,25.3,21,25.4,20.9
			L25.4,20.9z"/>
		<path class="st0" d="M20.7,27.8c-0.1-0.3-0.5-0.5-0.6-0.7s-0.4-0.3-0.5-0.5l-0.2-0.2c-0.1-0.1,0-0.1-0.1,0
			c0.1-0.3-0.3-0.5-0.5-0.3c-0.2,0.4,0.3,0.8,0.5,1c0.3,0.2,0.8,0.9,1.3,0.8C20.7,28,20.8,27.9,20.7,27.8L20.7,27.8z"/>
	</g>
</g>
</svg>
