<?xml version="1.0" encoding="utf-8"?>
<!-- Generator: Adobe Illustrator 22.0.1, SVG Export Plug-In . SVG Version: 6.00 Build 0)  -->
<svg version="1.1" id="Layer_1" xmlns="http://www.w3.org/2000/svg" xmlns:xlink="http://www.w3.org/1999/xlink" x="0px" y="0px"
	 viewBox="0 0 22 22" style="enable-background:new 0 0 22 22;" xml:space="preserve">
<style type="text/css">
	.st0{fill:#010101;}
</style>
<title>Asset 14</title>
<g id="Layer_2_1_">
	<g id="Layer_1-2">
		<path class="st0" d="M14.6,6.3c-2.7-1.3-6.2-1.4-8.3,1c-0.9,1-1.4,2.4-1.2,3.8c0.2,1.7,1.7,3.5,0.8,5.3l0,0
			c-0.4,0.2-0.5,0.6-0.4,0.9c-0.4,0.2-0.6,0.6-0.5,1c-0.3,0-0.6,0.4-0.6,0.8c0,0.4,0.1,0.7,0.3,1c-0.9,0.9,0,2.1,0.8,2.6
			s2.9,0.9,3.4-0.4C9,22,8.9,22,8.7,21.9c-0.1,0-0.2,0-0.3,0c-0.6,0.5-1.6,0.7-2.3,0.3c-0.4-0.2-0.7-0.4-1-0.7
			c-0.1-0.2-0.4-0.9-0.2-1.1c0.3,0.4,0.6,0.7,1,1c0.8,0.7,2,0.8,2.9,0.3c0.5-0.2,1.3-0.8,1.3-1.4l0.3-0.1c0.5-0.3,0.9-1,0.5-1.4
			c0-0.1,0.1-0.1,0.1-0.2c0.1,0.1,0.4,0.1,0.5,0l0.1-0.1c0.5-1.5,2.1-2,3.4-2.5c1.1-0.4,2-1.2,2.5-2.2C18.8,10.8,17,7.4,14.6,6.3z
			 M6.9,21.3c-0.5-0.2-1-0.6-1.4-1.1c-0.1-0.1-0.2-0.3-0.3-0.4c-0.1-0.1-0.5-1.1-0.2-1.3c0,0,0,0,0,0.1c0.2,1,1.3,1.3,2.1,1.6
			c0.6,0.2,1.2,0.3,1.9,0.3C8.4,21.2,7.6,21.5,6.9,21.3L6.9,21.3z M7.4,19.5c-0.5-0.1-1-0.3-1.4-0.6c-0.3-0.1-0.7-1-0.3-1.4l0,0
			c0.6,0.8,1.5,1.3,2.4,1.5c0.7,0.2,1.4,0.2,2.1-0.1C10.2,20,7.8,19.7,7.4,19.5L7.4,19.5z M8.4,13.3c0-0.8,0-1.6-0.1-2.4
			c0.3,0.2,0.6,0.3,1,0.3v0.1c0.4,0.5,1,0.6,1.5,0.4c0.1,0.2,0.2,0.3,0.4,0.4c0.2,0.1,0.4,0.1,0.6,0.1c0.4,0,0.8,0.1,1.1,0.3
			c-1.8,1.3-3.7,2.7-4.6,4.8l-0.2-0.1C8,17.2,7.8,17.2,7.8,17h0.1C8.4,15.8,8.6,14.6,8.4,13.3z M8.7,18c0.4,0.2,0.9,0.3,1.4,0.3
			C9.4,19.3,5.4,18,6,16.6l0,0c0.3,0.2,0.6,0.4,0.9,0.5C7.5,17.5,8.1,17.8,8.7,18z M15.3,14.8c-1.6,0.9-3.6,1.2-4.4,2.9
			c0-0.1-0.1-0.1-0.2-0.1c-0.3,0-0.6,0.2-0.9,0.2c-0.2,0-0.4,0-0.7-0.1c0.9-2.1,2.9-3.5,4.7-4.8c0.1-0.1,0.2-0.3,0.1-0.5
			c0,0,0,0-0.1-0.1c-0.3-0.3-0.6-0.5-0.9-0.6c-0.3-0.1-1.4,0-1.3-0.3c0-0.2-0.1-0.4-0.3-0.4c-0.1,0-0.1,0-0.2,0
			c-0.4,0.3-0.7,0.3-0.9-0.2c0-0.1,0.1-0.1,0.1-0.2c0.1-0.2,0-0.4-0.2-0.4c-0.1,0-0.2,0-0.3,0c-0.2,0.1-0.3,0.2-0.4,0.4
			C9,10.7,8.3,10.1,8.1,9.8s-0.6-0.1-0.5,0.3c0.3,1.2,0.4,2.4,0.3,3.6c0,1-0.1,2.1-0.3,3.1c-0.3-0.2-0.7-0.4-1.1-0.5
			c1-2-0.9-4.3-0.8-6.4c0.1-1.7,1.6-3,3.1-3.6c1.7-0.6,3.6-0.4,5.2,0.4C17,7.9,18.7,12.8,15.3,14.8z"/>
		<path class="st0" d="M2.2,13.1c-0.3-0.2-0.8-0.1-1.2,0l-0.7,0.1H0c-0.1,0-0.2,0-0.1,0c-0.1-0.1-0.2,0-0.3,0.1c0,0.1,0,0.2,0,0.3
			c0.3,0.2,0.8,0.1,1.1,0.1s1.2,0,1.4-0.4C2.2,13.1,2.2,13.1,2.2,13.1z"/>
		<path class="st0" d="M2.3,6.5C2,6.3,1.6,5.9,1.2,5.8C1,5.8,0.8,5.6,0.6,5.5c-0.1-0.1-0.2-0.1-0.3,0s-0.1,0.2,0,0.3
			c0,0.1,0,0.1,0.1,0.1l0,0l0.2,0.2C0.8,6.2,1,6.3,1.1,6.4c0.3,0.2,0.6,0.3,1,0.4C2.2,6.8,2.3,6.6,2.3,6.5L2.3,6.5z"/>
		<path class="st0" d="M7.9,1.7c0-0.4-0.4-0.8-0.6-1.2C7.3,0,7.1-0.4,7-0.9C6.9-1.2,6.5-1.1,6.5-0.8c0.1,0.5,0.3,1,0.4,1.5
			c0.2,0.4,0.4,1,0.9,1.1C7.9,1.8,7.9,1.8,7.9,1.7C8.1,1.7,8.1,1.7,7.9,1.7z"/>
		<path class="st0" d="M16,0.7c0-0.1,0-0.3-0.1-0.3c-0.1,0-0.3,0-0.3,0.1c-0.4,1-1.5,1.8-1.6,2.9c0,0.1,0.1,0.3,0.3,0.1
			C15.1,2.7,15.7,1.7,16,0.7z"/>
		<path class="st0" d="M22.3,6.1c-0.8-0.8-2.4,0-3.4,0c-0.3,0-0.3,0.5,0,0.5c0.5,0.1,1.1,0,1.6-0.1c0.6-0.1,1.1-0.1,1.7-0.1
			C22.3,6.4,22.5,6.3,22.3,6.1C22.5,6.3,22.5,6.1,22.3,6.1z"/>
		<path class="st0" d="M22.5,13.1c0-1-1.2-0.9-1.7-1.3c-0.2-0.2-0.5,0.1-0.3,0.4c0.5,0.6,1.3,0.6,1.8,1.1
			C22.3,13.3,22.3,13.3,22.5,13.1L22.5,13.1z"/>
		<path class="st0" d="M17.3,20.8c-0.1-0.3-0.5-0.6-0.7-0.8c-0.2-0.2-0.4-0.3-0.6-0.5l-0.2-0.2c-0.1-0.1,0-0.1-0.1,0
			c0.1-0.3-0.3-0.5-0.5-0.3c-0.2,0.4,0.3,0.9,0.6,1.1s0.9,1,1.4,0.9C17.3,21,17.3,20.8,17.3,20.8L17.3,20.8z"/>
	</g>
</g>
</svg>
