<?xml version="1.0" encoding="utf-8"?>
<!-- Generator: Adobe Illustrator 22.0.1, SVG Export Plug-In . SVG Version: 6.00 Build 0)  -->
<svg version="1.1" id="Layer_1" xmlns="http://www.w3.org/2000/svg" xmlns:xlink="http://www.w3.org/1999/xlink" x="0px" y="0px"
	 viewBox="0 0 22 22" style="enable-background:new 0 0 22 22;" xml:space="preserve">
<style type="text/css">
	.st0{fill:#010101;}
</style>
<title>Asset 8</title>
<g id="Layer_2_1_">
	<g id="Layer_1-2">
		<path class="st0" d="M19.9,17.9l-0.1-0.1c2.3-3,2.9-7,1.3-10.4s-5-5.7-8.7-5.9C8,1.2,4.3,3.7,1.8,7c-2.6,3.5-1.9,8.1,0.3,11.7
			C2,18.8,2,18.9,2,18.9V19c0.1,1.2,1,1.4,2,1.5c2.3,0.1,4.7,0,7-0.1c2.5-0.1,4.9-0.3,7.3-0.7c0.7-0.1,1.9-0.6,1.2-1.5
			C19.9,18.1,19.9,18.1,19.9,17.9L19.9,17.9z M2,7.6c2.1-3.3,5.6-5.4,9.5-5.7c3.6,0,7,1.9,8.8,5.1c1.8,3.4,1.4,7.6-1.1,10.6
			c0,0.1,0,0.2,0,0.2c-2.5,0-5.1,0.6-7.7,0.7c-2.2,0.1-4.4,0.1-6.6,0.1c0.1-0.2,0.2-0.4,0.4-0.5c0.1-0.1,0.1-0.2,0.1-0.3l-0.1-0.1
			c0.1-0.1,0.1-0.1,0.2-0.2s0-0.3-0.1-0.4s-0.2-0.1-0.3,0l-0.2,0.3c-0.2,0.2-0.4,0.4-0.5,0.6c-0.1,0.1-0.1,0.2,0,0.3
			c0,0.1-0.1,0.2-0.1,0.3c0,0,0,0,0,0.1H2.6v-0.1C0.5,15.2-0.2,11,2,7.6z M17.6,19.3l-2.3,0.2c-1.6,0.2-3.2,0.3-4.8,0.4
			c-1.4,0.1-2.9,0.2-4.4,0.2c-0.9,0-3.5,0.3-3.7-1c2.8,0,5.6,0,8.4-0.1s5.6-0.8,8.3-0.7c-0.1,0.1-0.1,0.2,0,0.3
			C19.8,19.1,17.8,19.3,17.6,19.3z"/>
		<path class="st0" d="M9.4,12c0.2,0.8,1,1.2,1.8,1c0.3-0.1,0.6-0.2,0.7-0.5c0.1,0.1,0.3,0.1,0.4,0l0,0c0.8-1.4,1.9-2.7,2.2-4.3
			c0-0.2-0.1-0.4-0.3-0.3c-0.8,0.3-1.5,0.8-2.1,1.4c-0.5,0.3-1.1,0.6-1.7,0.9c-0.5-0.1-1,0.1-1.3,0.4c-0.4,0.4-0.4,1-0.1,1.4
			C9.1,12.1,9.3,12.1,9.4,12L9.4,12z M12.3,9.8c0.5-0.4,1-0.8,1.6-1.1c-0.4,1.2-1,2.3-1.8,3.3c-0.1-0.7-0.5-1.2-1.1-1.5
			C11.4,10.2,11.9,10,12.3,9.8z M9.8,10.8c0.1,0,0.1-0.1,0.2-0.1c0,0.1,0.2,0.2,0.4,0.2c0,0,0.1,0,0.1-0.1l0.1-0.1
			c0.2,0.1,0.3,0.1,0.5,0.2c0.4,0.2,0.8,0.9,0.6,1.3s-1.6,0.3-1.6-0.4c0-0.1-0.1-0.3-0.3-0.2c-0.1,0-0.1,0-0.2,0.1l0,0
			C9.3,11.4,9.3,11,9.8,10.8C9.6,10.8,9.6,10.8,9.8,10.8L9.8,10.8z"/>
		<path class="st0" d="M9.9,4.9c0.2-0.2,0.3-0.5,0.3-0.8c0-0.3,0-0.7-0.1-1c0-0.1-0.1-0.3-0.3-0.2C9.7,2.9,9.6,3,9.6,3
			C9.5,3.1,9.5,3.3,9.5,3.5v0.1c0,0.4,0,0.7,0.1,1.1C9.6,4.9,9.8,4.9,9.9,4.9L9.9,4.9z"/>
		<path class="st0" d="M4.5,13c-1,0-1.9,0.2-2.9,0.2c-0.1,0-0.2,0.2-0.2,0.3s0.1,0.2,0.2,0.2h0.5c0,0.2,0.1,0.4,0.3,0.4
			c0.8-0.1,1.5-0.3,2.2-0.5c0.1,0,0.3-0.1,0.2-0.3C4.8,13.1,4.6,13,4.5,13z"/>
		<path class="st0" d="M17.6,17.3c-0.2-0.1-0.5-0.2-0.7-0.3c-0.2-0.2-0.6,0.1-0.4,0.4c0.3,0.2,0.6,0.4,0.9,0.5
			C17.9,17.9,17.9,17.4,17.6,17.3z"/>
		<path class="st0" d="M4.4,7.1l0.2,0.2c0.2,0.3,0.5,0.5,0.8,0.8C5.8,8.4,6,8,5.8,7.7L5.7,7.6c0.1-0.1,0.1-0.2,0-0.3l0,0
			C5.3,6.9,5,6.5,4.5,6.2c-0.1-0.1-0.2-0.1-0.3,0C4.1,6.2,3.9,6.3,4,6.5C4.1,6.7,4.2,6.9,4.4,7.1z"/>
		<path class="st0" d="M15.9,6.6L15.9,6.6L15.9,6.6c0.2,0.1,0.3,0.2,0.4,0.2h0.1c0.6,0,1.1-0.4,1.1-1c0.1-0.2,0.1-0.5,0.1-0.8V4.9
			c0-0.3-0.1-0.5-0.3-0.7c-0.4-0.3-1,0-1.3,0.3c-0.1,0.1-0.2,0.3-0.2,0.4c-0.3,0.3-0.4,0.8-0.2,1.2C15.6,6.3,15.8,6.4,15.9,6.6z"/>
		<path class="st0" d="M2.6,11.4c0.4,0,0.8,0.1,1.2,0.1c0.3,0.1,0.4-0.4,0.1-0.5c-0.5-0.1-0.9-0.1-1.4-0.1
			C2.2,10.8,2.2,11.4,2.6,11.4z"/>
		<path class="st0" d="M3.1,9.7h0.7c0.3,0,0.3-0.5,0-0.5H3.1C2.8,9.2,2.8,9.7,3.1,9.7z"/>
		<path class="st0" d="M7.3,6c0.1,0,0.3-0.1,0.3-0.2S7.5,5.5,7.4,5.5l0,0C7.1,5.4,6.9,5.2,6.7,4.9c-0.1-0.3-0.6,0-0.4,0.3
			C6.5,5.6,6.9,5.9,7.3,6z"/>
		<path class="st0" d="M8,5.2c0.2,0.3,0.6,0,0.4-0.3C8.3,4.7,8.1,4.4,7.9,4.2c-0.1-0.3-0.5,0-0.4,0.2C7.7,4.7,7.8,5,8,5.2z"/>
		<path class="st0" d="M12.5,4.3c-0.1-0.3-0.1-0.6,0-0.8c0-0.1-0.1-0.3-0.2-0.3c-0.1,0-0.2,0.1-0.3,0.2c-0.1,0.4-0.1,0.7,0,1.1
			C12.1,4.7,12.6,4.6,12.5,4.3z"/>
		<path class="st0" d="M14.3,4.5c0.1-0.2,0.1-0.5,0.3-0.7c0.1-0.1,0.1-0.3,0-0.4c-0.1-0.1-0.3-0.1-0.4,0l0,0
			c-0.2,0.2-0.2,0.5-0.4,0.8C13.7,4.5,14.1,4.8,14.3,4.5z"/>
		<path class="st0" d="M17.9,7.7c0.2-0.1,0.3-0.1,0.5-0.1c0.1,0,0.3-0.1,0.3-0.3c0-0.1-0.1-0.3-0.3-0.3c-0.2,0-0.4,0.1-0.6,0.1
			C17.4,7.3,17.6,7.8,17.9,7.7z"/>
		<path class="st0" d="M18.4,9.5c0.2,0,0.5-0.1,0.7-0.1s0.3-0.5,0-0.5S18.6,9,18.4,9c-0.1,0-0.3,0.1-0.3,0.3
			C18.1,9.4,18.3,9.5,18.4,9.5z"/>
		<path class="st0" d="M18.3,15.1c-0.2,0-0.4,0-0.6,0c-0.1,0-0.3,0.1-0.3,0.3s0.1,0.3,0.3,0.3l0,0c0.3,0,0.5,0,0.8-0.1
			c0.1-0.1,0.1-0.3,0-0.4C18.4,15.2,18.3,15.1,18.3,15.1z"/>
		<path class="st0" d="M19,13.5h-0.9c-0.1,0-0.2,0.2-0.2,0.3S18,14,18.1,14h0.8c0.1,0,0.2-0.2,0.2-0.3S19.1,13.5,19,13.5z"/>
		<path class="st0" d="M4.1,15.5c-0.4,0.1-0.7,0.2-1,0.4c-0.3,0.2,0,0.6,0.3,0.4s0.6-0.3,0.8-0.4C4.5,15.8,4.4,15.3,4.1,15.5z"/>
	</g>
</g>
</svg>
