<?xml version="1.0" encoding="utf-8"?>
<!-- Generator: Adobe Illustrator 22.0.1, SVG Export Plug-In . SVG Version: 6.00 Build 0)  -->
<svg version="1.1" id="Layer_1" xmlns="http://www.w3.org/2000/svg" xmlns:xlink="http://www.w3.org/1999/xlink" x="0px" y="0px"
	 viewBox="0 0 22 22" style="enable-background:new 0 0 22 22;" xml:space="preserve">
<style type="text/css">
	.st0{fill:#010101;}
</style>
<title>Asset 6</title>
<g id="Layer_2_1_">
	<g id="Layer_1-2">
		<path class="st0" d="M19.2,8.7c-0.2-2-0.7-4-0.8-6c0.1-0.2,0.1-0.3,0-0.4c0-0.1,0-0.1,0-0.2c0-0.5-0.1-1.1-0.1-1.7
			c0-0.1-0.1-0.3-0.3-0.3c-2.4-0.1-4.8,0-7.2,0.3c-2.5,0.2-5,0.3-7.5,0.3C3.2,0.7,3,0.8,3,0.9V1c0-0.1-0.1,0-0.2,0.1c0,0,0,0,0,0.1
			c0,0.9,0.1,1.8,0.1,2.7V4c0,0,0,0,0,0.1C2.8,5.3,3.1,6.4,3.1,7.6s0.1,2.5,0,3.8c0,0.1,0.1,0.2,0.2,0.3c1.8,0.2,3.7,0.2,5.6,0
			c0.1,0.4-2.3,4-2.4,4.2c-0.3,0.4-2.8,3-1.8,3.7s1.9-0.8,2.3-1.5C7.5,17,8.3,16,9,15c0.5-0.9,1-1.8,1.5-2.7c0.1,3.2-0.1,6.3,0,9.5
			c0,0.1,0.1,0.3,0.3,0.3c0.6,0,1.2,0.1,1.5-0.4c0.2-0.7,0.2-1.5,0.1-2.3c0-2.6-0.3-5.2-0.4-7.8h0.2c0,0.1,0,0.1,0,0.2
			c0.9,2.2,1.9,4.4,2.6,6.6c0.2,0.6,0.3,2.5,1.4,2.1c0.7-0.3,0.4-1.7,0.3-2.1c-0.5-1.1-1-2.1-1.6-3.2c-0.5-1.2-0.8-2.4-1.1-3.7h0.6
			c1.2-0.1,2.4,0,3.6-0.1C19.2,11.3,19.3,9.6,19.2,8.7z M3.3,1.2L3.3,1.2c3.3,0,6.4-0.2,9.5-0.4c1.4-0.2,2.9-0.2,4.3-0.2
			c0.8,0,0.6-0.1,0.7,0.7c0,0.2,0,0.5,0.1,0.7c-0.1,0-0.1,0.2-0.1,0.3l0,0c-1,0-2,0.1-3,0.3L10.5,3C9.1,3.1,7.7,3.2,6.3,3.2
			c-1,0-2,0-2.9,0.2C3.4,2.7,3.3,2,3.3,1.2L3.3,1.2z M7.5,16.3c-0.5,0.7-0.9,1.3-1.3,2c-0.3,0.5-1.4,1.3-0.9,0
			c0.3-0.6,0.7-1.1,1.1-1.5c0.9-1.2,1.6-2.4,2.3-3.7c0.2-0.3,0.8-1.1,0.7-1.6h0.8C9.3,13.1,8.5,14.8,7.5,16.3z M11.3,21.5
			c-0.5,0-0.4-0.4-0.4-0.8c0-1,0-2.1,0.1-3.1c0.1-2,0.1-4,0-6h0.4c0,3,0.3,6,0.4,9C11.9,20.9,11.7,21.3,11.3,21.5L11.3,21.5z
			 M14.5,15.6c0.5,1.2,1.4,2.3,1.5,3.5c0.1,0.6-0.1,0.5-0.6-0.1c-0.1-0.2-0.1-0.8-0.2-1c-0.2-0.6-0.4-1.1-0.6-1.6
			c-0.7-1.6-1.2-3.2-1.9-4.8v-0.1c0-0.1,0-0.1-0.1-0.1h0.6C13.5,12.9,14,14.3,14.5,15.6z M18.5,10.2c-0.3,0.8-1.8,0.5-2.4,0.5
			c-1.2,0-2.5,0.1-3.7,0.3h-1.7c-0.1,0-0.1,0-0.2,0c-2.1,0.2-4.1,0.2-6.2,0.2c-1,0-0.7-1.1-0.7-1.8s0-1.3,0-1.9
			c0-1.2-0.2-2.3-0.2-3.5c0,0,0,0,0-0.1h0.1c1-0.2,2.1-0.3,3.2-0.2c1.3,0,2.6-0.2,3.8-0.2l3.8-0.2C15.5,3.2,16.7,3,17.9,3
			c0.1,1.9,0.5,3.8,0.7,5.7C18.7,9.2,18.7,9.7,18.5,10.2L18.5,10.2z"/>
		<path class="st0" d="M17.9,8.9h-0.1c0-0.1,0-0.2,0-0.4c0-0.1-0.2-0.2-0.3-0.2s-0.2,0.1-0.2,0.2v0.4l-0.9,0.2l-1,0.1
			c0-0.1-0.1-0.2-0.3-0.2c-0.1,0-0.2,0.1-0.2,0.3l-2.1,0.1l-1.2,0.2c0-0.1,0-0.1,0-0.1c0-0.1-0.2-0.2-0.3-0.2s-0.2,0.1-0.2,0.2v0.2
			L9.2,9.8V9.6c0-0.4-0.5-0.3-0.5,0v0.2C7.6,9.9,6.5,10,5.4,10L5.3,8.6h0.3c0.1,0,0.3-0.1,0.3-0.3C5.9,8.2,5.8,8,5.6,8H5.3
			c0-0.5,0-1-0.1-1.5c0.2,0,0.3,0,0.5,0.1C6,6.7,6.3,6.3,6,6.1c-0.3,0-0.6,0-0.8,0c0-0.4,0-0.7,0-1.1c0.1,0,0.2-0.1,0.2-0.3V4.6l0,0
			c0.2,0,0.3,0.1,0.5,0.1c0.3,0.1,0.6-0.4,0.3-0.5c-0.4,0-0.7-0.1-0.9-0.1S4.9,4,4.7,3.9C4.4,3.7,4.1,4.2,4.4,4.4
			c0.1,0,0.2,0.1,0.2,0.1v0.1c0,0.5,0,1,0,1.5H4.5c-0.1,0-0.2,0.2-0.2,0.3c0,0.1,0.1,0.2,0.2,0.2h0.2l0.1,1.5H4.6
			c-0.3,0-0.3,0.5,0,0.5h0.2c0,0.5,0,1,0.1,1.4c-0.1,0.1-0.2,0.2-0.1,0.4c0,0.1,0.1,0.1,0.1,0.1l0,0c0,0.1,0.1,0.3,0.3,0.3
			c0.1,0,0.3-0.1,0.3-0.3l0,0c1.1,0,2.2-0.1,3.3-0.2c0,0.1,0,0.2,0.1,0.2c0.1,0.3,0.6,0.2,0.5-0.2v-0.1l1.9-0.2v0.1
			c0.1,0.1,0.2,0.2,0.4,0.1c0.1-0.1,0.2-0.2,0.1-0.3h0.6c0.9-0.1,1.8-0.1,2.7-0.3c0.1,0.1,0.3,0.1,0.4,0c0,0,0-0.1,0.1-0.1h0.2
			c0.4-0.1,1-0.2,1.5-0.3c0,0.1,0,0.3,0.1,0.4c0.1,0.3,0.6,0.2,0.5-0.1V9.4H18c0.2,0,0.3-0.1,0.3-0.3C18.2,9,18.1,8.9,17.9,8.9
			L17.9,8.9z"/>
		<path class="st0" d="M5.8,9.2C5.6,9.5,6,9.9,6.2,9.6c0.5-0.5,1.1-1,1.7-1.4L8,8.1c0.1,0.1,0.1,0.1,0.2,0.1c0.1,0,0.1,0,0.2,0
			c0.2,0,0.3-0.3,0.4-0.6C9,7.4,9.2,7.3,9.4,7.2c0,0.8,0.3,1.6,1.2,1.2l0.2-0.1c0.1,0.1,0.3,0.2,0.5,0.1c0.1,0,0.2-0.1,0.3-0.2
			c0.4-0.1,0.7-0.4,0.7-0.8c0-0.1,0-0.1-0.1-0.2c0.6-0.5,1.1-1,1.7-1.5c0.1,0.1,0.3,0.1,0.4,0l0,0c0.1-0.1,0.1-0.2,0.2-0.3l0.1-0.1
			C14.8,5.1,15,5,15.3,4.9c0.1,0.4,0.3,0.7,0.5,1.1c0,0,0.1,0,0.2-0.1l0,0c0.6-0.5,1-1,1.4-1.7c0.1-0.1,0-0.3-0.1-0.4
			c-0.1-0.1-0.2-0.1-0.3,0h-0.1c-0.1,0-0.3,0.1-0.3,0.3c0,0.1,0,0.1,0.1,0.1c-0.2,0.3-0.5,0.6-0.8,0.9c-0.1-0.3-0.3-0.7-0.3-1
			c0-0.1-0.2-0.2-0.4-0.2l0,0C15,4,14.7,4.2,14.5,4.3c-0.1-0.1-0.1-0.1-0.2-0.1c-0.1,0-0.1,0-0.2,0.1l0,0c-0.1,0-0.2,0.1-0.2,0.3
			v0.1c0,0.1,0,0.1-0.1,0.2c-0.5,0.4-0.9,0.8-1.4,1.2c-0.2,0.4-0.5,0.7-0.9,0.9c0,0-0.1,0-0.2,0c-0.3,0.2-0.5,0.4-0.6,0.6
			c-0.6,0.4-0.8-0.4-0.8-1c0-0.2-0.2-0.3-0.3-0.3H9.5c-0.4,0.3-0.7,0.5-1,0.8H8.3C8.3,7,8.1,6.9,8,6.9S7.8,7.1,7.8,7.2s0,0.1,0,0.2
			S7.7,7.6,7.7,7.7L7.6,7.8C7,8.2,6.3,8.7,5.8,9.2z"/>
	</g>
</g>
</svg>
