<?xml version="1.0" encoding="utf-8"?>
<!-- Generator: Adobe Illustrator 22.0.1, SVG Export Plug-In . SVG Version: 6.00 Build 0)  -->
<svg version="1.1" id="Layer_1" xmlns="http://www.w3.org/2000/svg" xmlns:xlink="http://www.w3.org/1999/xlink" x="0px" y="0px"
	 viewBox="0 0 22 22" style="enable-background:new 0 0 22 22;" xml:space="preserve">
<style type="text/css">
	.st0{fill:#010101;}
</style>
<title>Asset 7</title>
<g id="Layer_2_1_">
	<g id="Layer_1-2">
		<path class="st0" d="M21.5,17c0-1.3-0.1-2.4-0.4-3.7c0-0.1-0.1-0.2-0.3-0.2c-1.3,0-2.5,0.1-3.7,0.1C17,12,17.5,10,16.1,9.6
			c-1-0.1-2-0.1-2.9,0h-1.8c-0.8,0-0.7-0.4-0.8-1.1h0.5c0.7-0.1,1.4-0.1,2.2,0c0.1,0.1,0.2,0.1,0.3,0h0.1l0,0c0.1,0,0.2,0,0.3,0
			c0.4-0.2,0.2-1.1,0.2-1.3c0-1.3-0.2-2.4-0.4-3.7c0-0.1-0.1-0.2-0.3-0.2c-1.9,0-3.8,0.1-5.6,0.1c-0.3,0-0.4,0.1-0.4,0.3v0.1l0,0
			c-0.1,0-0.3,0.1-0.3,0.3l0,0c0,1.3,0.2,2.8,0.3,4.1c-0.1,0.1-0.1,0.3,0,0.4c0.1,0,0.1,0.1,0.2,0.1h1.7c-0.1,0.3-0.1,0.6,0,0.9
			C7.5,9.6,5.6,9.6,3.7,9.7c-0.1,0-0.3,0.1-0.3,0.3c0,1.2,0.2,2.3,0.3,3.5c-0.9,0-1.8,0.1-2.7,0.1c-0.1,0-0.3,0.1-0.3,0.2v0.1h0
			c-0.2,0-0.3,0.2-0.3,0.3c0,1.4,0.2,2.8,0.3,4.1c-0.1,0.1-0.1,0.3,0.1,0.4c0,0,0.1,0.1,0.2,0.1c1.1,0,2.2-0.1,3.3-0.1
			c0.7-0.1,1.4-0.1,2.2,0c0.1,0.1,0.2,0.1,0.3,0.1H7l0,0c0.1,0,0.2,0,0.3,0c0.4-0.2,0.2-1.1,0.2-1.3c0-1.3-0.2-2.4-0.4-3.7
			c0-0.1-0.1-0.2-0.3-0.2H5.4c0-0.1,0-0.2-0.1-0.2c-0.2-0.1-0.1-0.7,0-0.9c-0.1-0.4,0-0.6,0.3-0.9c0.3-0.1,0.6-0.1,0.9-0.1
			c1,0,2,0,3-0.2c0,0.7,0.1,1.4,0.1,2.1H8.1c-0.1,0-0.3,0.1-0.3,0.2v0.1H7.8c-0.1,0-0.3,0.1-0.3,0.3c0,1.4,0.2,2.8,0.3,4.1
			c-0.1,0.2-0.1,0.4,0.1,0.4c0,0,0.1,0.1,0.2,0.1c1.2,0,2.3-0.1,3.4-0.1c0.7-0.1,1.4-0.1,2.2,0c0.1,0.1,0.2,0.1,0.3,0l0,0l0,0
			c0.1,0,0.2,0,0.3,0c0.4-0.2,0.2-1.1,0.2-1.3c0-1.3-0.2-2.4-0.4-3.7c0-0.1-0.1-0.2-0.3-0.2c-0.9,0-1.8,0-2.7,0.1v-0.1
			c-0.1-0.4-0.4-2.1,0.4-2.2c0.5,0,1.2,0,1.7,0c0.5,0,1.2,0,1.8,0c0.9-0.1,0.8,1.6,0.7,2.2h-0.4c-0.1,0-0.3,0.1-0.3,0.3
			c0,0,0,0,0,0.1H15c-0.1,0-0.3,0.1-0.3,0.3l0,0c0,1.4,0.2,2.8,0.3,4.1c-0.1,0.1-0.1,0.3,0.1,0.4c0,0,0.1,0.1,0.2,0.1
			c1.2,0,2.2-0.1,3.4-0.1c0.7-0.1,1.5-0.1,2.2,0c0.1,0.1,0.2,0.1,0.3,0.1h-0.1l0,0c0.1,0,0.2,0,0.3,0C21.7,18.1,21.5,17.2,21.5,17z
			 M8,8.1c0-0.4-0.1-0.8-0.1-1.3V6.7V6.7V6.6C7.8,5.8,7.7,5,7.7,4.3C7.8,4.2,7.9,4.1,7.8,4l0,0l0,0c0.6,0,5.4-0.4,5.5,0.1
			c0.1,0.3,0.5,3.6,0.4,4l0,0c-0.7-0.1-1.3-0.1-2.1,0C10.3,8,9.1,8.1,8,8.1z M6.5,14.1c0.1,0.3,0.5,3.6,0.4,4l0,0
			c-0.7-0.1-1.3-0.1-2.1,0c-1.2,0-2.3,0-3.6,0.1C1.2,17,1,15.7,1,14.5c0.1-0.1,0.1-0.2,0.1-0.3v-0.1l0,0c0.4,0,1.5-0.1,2.8-0.2
			c0.1,0.1,0.3,0.1,0.4,0l0,0C5.4,13.8,6.5,13.8,6.5,14.1z M13.6,13.9c0.1,0.3,0.5,3.6,0.4,4l0,0c-0.7-0.1-1.3-0.1-2.1,0
			c-1.2,0-2.3,0-3.6,0.1c0-1.3-0.3-2.5-0.3-3.8c0.1-0.1,0.2-0.2,0.1-0.4v-0.1l0,0C8.8,13.8,13.4,13.4,13.6,13.9L13.6,13.9z
			 M13.5,10.6c-0.6,0-1.3,0-1.9,0c-0.3-0.1-0.6,0-0.9,0.2c-0.6,0.5-0.4,1.8-0.2,2.5H10c0-0.8-0.1-1.6-0.1-2.4c0-0.1-0.1-0.3-0.3-0.3
			c0,0,0,0-0.1,0c-0.9,0.2-1.8,0.2-2.8,0.2c-0.4,0-1.4-0.2-1.8,0.2s-0.3,0.9-0.3,1.4c-0.1,0.4,0,0.6,0.1,1H4.2
			c0-1.1-0.2-2.2-0.2-3.2c1.9,0,3.7-0.1,5.6-0.2c0.1,0,0.3-0.1,0.3-0.3c0-0.4-0.2-0.8,0-1.2l0,0h0.3c0,0.4,0.1,0.9,0.2,1.3
			c0,0.1,0.1,0.3,0.3,0.3c1.4,0,2.8,0,4.2,0c0.8,0,1.7-0.1,1.7,1c0,0.7,0.1,1.4,0.3,2.2h-0.5c0.2-0.7,0.1-1.5-0.3-2.2
			C15.5,10.3,14.1,10.7,13.5,10.6L13.5,10.6z M21,17.8L21,17.8c-0.7-0.1-1.3-0.1-2.1,0c-1.2,0-2.3,0-3.6,0.1c0-1.3-0.3-2.5-0.3-3.8
			c0.1-0.1,0.2-0.2,0.1-0.4v-0.1l0,0c0.6,0,5.4-0.4,5.5,0.1C20.8,14.1,21.3,17.4,21,17.8L21,17.8z"/>
	</g>
</g>
</svg>
