<?xml version="1.0" encoding="utf-8"?>
<!-- Generator: Adobe Illustrator 22.0.1, SVG Export Plug-In . SVG Version: 6.00 Build 0)  -->
<svg version="1.1" id="Layer_1" xmlns="http://www.w3.org/2000/svg" xmlns:xlink="http://www.w3.org/1999/xlink" x="0px" y="0px"
	 viewBox="0 0 22 22" style="enable-background:new 0 0 22 22;" xml:space="preserve">
<style type="text/css">
	.st0{fill:#010101;}
</style>
<title>Asset 5</title>
<g id="Layer_2_1_">
	<g id="Layer_1-2">
		<path class="st0" d="M21.6,10.5c-0.7-0.8-1.7-1-2.6-0.5c-0.1-1.3-0.8-2.1-2.2-2.1c-0.4,0-0.7,0.1-0.9,0.3c-1-1.1-2.3-1.9-3.8-2.3
			c-1.5-0.4-3.1-0.3-4.5,0.3c-2.7,1-4.6,3.6-4.7,6.5c-0.4-0.3-0.8-0.4-1.3-0.1C1,12.9,0.8,13.7,1,14.3c-0.4,0-0.9,0.1-1,0.4
			c-0.2,0.5,0.2,0.9,0.7,1l0.1,0.1c0.5,0.2,1,0.4,1.5,0.2c0.9-0.1,1.8-0.1,2.6,0c1.5,0.1,3.3,0.3,4.8-0.3c0.9-0.4,0.8-1.6,0.2-2.1
			c-0.7-0.7-1.7-0.7-2.6-0.4c0.5-2.5,5.1-4.4,6.6-1.9c-0.2,0.1-0.5,0.3-0.7,0.5c-0.4,0.4-0.4,1-0.1,1.5c0,0.1,0.1,0.2,0.1,0.2
			c1.4,0.4,2.9,0.2,4.4,0.4c1.2,0.1,2.6,0.1,3.5-0.7C22.1,12.5,22.2,11.3,21.6,10.5z M13.1,8.9c-1.3-0.3-2.7-0.4-4-0.2
			C7,9,5.5,10.3,5.6,12.4c-0.2-0.1-0.4-0.1-0.6-0.1c0-0.4,0.1-0.8,0.2-1.1c0.1-0.5,0.4-1.1,0.7-1.6c0.6-0.8,1.8-1.2,2.7-1.4
			c1.1-0.2,2.3-0.2,3.5-0.1c1.1,0.2,2,0.7,2.7,1.4c-0.1,0.1-0.1,0.2-0.2,0.3C14.5,9.2,13.7,9.1,13.1,8.9z M14.7,10.2
			c0,0.1,0,0.1-0.1,0.2c-1.4-1.3-3.7-1.3-5.4-0.8c-1.6,0.4-2.9,1.7-3,3.3c-0.1-0.1-0.2-0.2-0.4-0.4c0-0.8,0.2-1.6,0.7-2.2
			c0.7-0.7,1.5-1.1,2.4-1.3c1.1-0.2,2.3-0.2,3.4,0.1c0.7,0.1,2,0.2,2.3,0.9C14.5,10.1,14.6,10.2,14.7,10.2z M12.1,7.7
			C10.7,7.6,9.3,7.6,8,8c-1.2,0.2-2.1,1-2.7,2c-0.2,0.5-0.4,1-0.5,1.6c-0.1,0.2-0.1,0.4-0.1,0.7c-0.3,0.1-0.5,0.1-0.7,0.2
			c0.3-2.4,1.9-4.8,4.4-5.4c1.4-0.2,2.7-0.2,4.1,0.2c1.1,0.2,2.7,0.7,3.3,1.7c-0.1,0-0.3,0.1-0.4,0.2C14.4,8.4,13.3,7.9,12.1,7.7z
			 M7.6,6.7c1.3-0.5,2.7-0.7,4.1-0.4c1.5,0.3,2.8,1,3.9,2.1c-0.8-0.6-1.7-1-2.6-1.2C11.5,6.8,10,6.7,8.5,6.8
			c-2.8,0.4-4.7,3.2-4.8,5.9c-0.2,0.2-0.3,0.3-0.4,0.5L3.2,13C3.3,10.2,5,7.7,7.6,6.7z M9.7,13.8c0.4,0.4,0.5,1,0.1,1.4
			c-0.1,0.1-0.2,0.2-0.3,0.2c-0.7,0.2-1.3,0.4-2,0.3c-1.1,0-2.2,0-3.3-0.1c-0.4-0.1-0.9-0.1-1.4-0.1c-0.6,0.2-1.2,0.2-1.8,0L1,15.6
			H0.9H0.9c-0.4-0.2-0.5-0.8,0-0.9c0.1,0,0.3,0,0.4,0c0.1,0,0.2-0.1,0.2-0.1v-0.1c-0.3-0.7-0.2-1.3,0.6-1.6c0.5-0.2,0.9,0.3,1.3,0.6
			c0.1,0.1,0.2,0.1,0.2,0c0,0,0,0,0-0.1c0.2-0.7,1-1.1,1.7-0.8c0.5,0.2,0.8,0.6,0.9,1.1c0,0.1,0.1,0.1,0.2,0.1
			c0.2-0.1,0.5-0.2,0.7-0.3c0.1,0.1,0.1,0,0.2-0.1l0,0C8.1,13.2,9.1,13.3,9.7,13.8L9.7,13.8z M10.3,10.1c-1.3,0.4-3.2,1.7-3.2,3.2
			c-0.2,0.1-0.4,0.2-0.6,0.2c0-0.1,0-0.1-0.1-0.2c0-1.7,1.2-3.2,2.9-3.5c1.6-0.4,3.9-0.4,5.2,0.9c0,0,0.1,0.1,0.1,0.1
			c0,0.1,0,0.2,0,0.4c-0.1,0-0.2,0-0.3,0.1v-0.1C13.5,9.8,11.7,9.6,10.3,10.1L10.3,10.1z M19.9,13.5c-1,0.1-1.9,0.1-2.8,0
			c-1.2-0.1-2.3,0-3.5-0.3h-0.1c-0.2-0.4,0-0.8,0.2-1.2c0.2-0.4,0.8-0.5,1.2-0.5c0.1,0,0.2-0.1,0.2-0.2l0,0v-0.1
			c-0.1-0.2-0.1-0.4-0.1-0.7c0-0.4,0.2-0.9,0.5-1.2c0.3-0.3,0.7-0.5,1.1-0.5l-0.1-0.5c0.2-0.1,0.4-0.1,0.6-0.1c0.3,0,0.7,0,1,0.2
			c0.7,0.3,0.9,1.2,0.9,1.9c0,0.1,0.1,0.2,0.2,0.2H19c1-0.6,2.3-0.4,2.6,0.8C22,12.5,20.8,13.3,19.9,13.5L19.9,13.5z"/>
	</g>
</g>
</svg>
