<?xml version="1.0" encoding="utf-8"?>
<!-- Generator: Adobe Illustrator 22.0.1, SVG Export Plug-In . SVG Version: 6.00 Build 0)  -->
<svg version="1.1" id="Layer_1" xmlns="http://www.w3.org/2000/svg" xmlns:xlink="http://www.w3.org/1999/xlink" x="0px" y="0px"
	 viewBox="0 0 30 22" style="enable-background:new 0 0 30 22;" xml:space="preserve">
<style type="text/css">
	.st0{fill:#010101;}
</style>
<title>Asset 5</title>
<g id="Layer_2_1_">
	<g id="Layer_1-2">
		<path class="st0" d="M29.5,14.4c-1-1.1-2.3-1.4-3.5-0.7c-0.1-1.8-1.1-2.9-3-2.9c-0.5,0-1,0.1-1.2,0.4c-1.4-1.5-3.1-2.6-5.2-3.1
			s-4.2-0.4-6.1,0.4C6.7,9.9,4.2,13.4,4,17.3c-0.5-0.4-1.1-0.5-1.8-0.1c-0.8,0.4-1.1,1.5-0.8,2.3c-0.5,0-1.2,0.1-1.4,0.5
			c-0.3,0.7,0.3,1.2,1,1.4l0.1,0.1c0.7,0.3,1.4,0.5,2,0.3c1.2-0.1,2.5-0.1,3.5,0c2,0.1,4.5,0.4,6.5-0.4c1.2-0.5,1.1-2.2,0.3-2.9
			c-1-1-2.3-1-3.5-0.5c0.7-3.4,6.9-6,9-2.6c-0.3,0.1-0.7,0.4-1,0.7c-0.5,0.5-0.5,1.4-0.1,2c0,0.1,0.1,0.3,0.1,0.3
			c1.9,0.5,4,0.3,6,0.5c1.6,0.1,3.5,0.1,4.8-1C30.2,17.1,30.3,15.4,29.5,14.4z M17.9,12.2c-1.8-0.4-3.7-0.5-5.4-0.3
			c-2.9,0.4-4.9,2.2-4.8,5c-0.3-0.1-0.5-0.1-0.8-0.1c0-0.5,0.1-1.1,0.3-1.5c0.1-0.7,0.5-1.5,1-2.2c0.8-1.1,2.5-1.6,3.7-1.9
			c1.5-0.3,3.1-0.3,4.8-0.1c1.5,0.3,2.7,1,3.7,1.9c-0.1,0.1-0.1,0.3-0.3,0.4C19.8,12.6,18.7,12.4,17.9,12.2z M20.1,13.9
			c0,0.1,0,0.1-0.1,0.3c-1.9-1.8-5-1.8-7.4-1.1c-2.2,0.5-4,2.3-4.1,4.5c-0.1-0.1-0.3-0.3-0.5-0.5c0-1.1,0.3-2.2,1-3
			c1-1,2-1.5,3.3-1.8c1.5-0.3,3.1-0.3,4.6,0.1c1,0.1,2.7,0.3,3.1,1.2C19.8,13.8,20,13.9,20.1,13.9z M16.6,10.5
			c-1.9-0.1-3.8-0.1-5.6,0.4c-1.6,0.3-2.9,1.4-3.7,2.7C7,14.4,6.7,15,6.6,15.9c-0.1,0.3-0.1,0.5-0.1,1c-0.4,0.1-0.7,0.1-1,0.3
			c0.4-3.3,2.6-6.5,6-7.4c1.9-0.3,3.7-0.3,5.6,0.3c1.5,0.3,3.7,1,4.5,2.3c-0.1,0-0.4,0.1-0.5,0.3C19.7,11.5,18.2,10.8,16.6,10.5z
			 M10.4,9.2c1.8-0.7,3.7-1,5.6-0.5c2,0.4,3.8,1.4,5.3,2.9c-1.1-0.8-2.3-1.4-3.5-1.6c-2-0.5-4.1-0.7-6.1-0.5c-3.8,0.5-6.4,4.4-6.5,8
			c-0.3,0.3-0.4,0.4-0.5,0.7l-0.1-0.3C4.6,13.9,6.9,10.5,10.4,9.2z M13.3,18.8c0.5,0.5,0.7,1.4,0.1,1.9C13.3,20.9,13.1,21,13,21
			c-1,0.3-1.8,0.5-2.7,0.4c-1.5,0-3,0-4.5-0.1c-0.5-0.1-1.2-0.1-1.9-0.1c-0.8,0.3-1.6,0.3-2.5,0l0,0.1H1.3l0,0
			c-0.5-0.3-0.7-1.1,0-1.2c0.1,0,0.4,0,0.5,0s0.3-0.1,0.3-0.1v-0.1c-0.4-1-0.3-1.8,0.8-2.2c0.7-0.3,1.2,0.4,1.8,0.8
			c0.1,0.1,0.3,0.1,0.3,0c0,0,0,0,0-0.1c0.3-1,1.4-1.5,2.3-1.1C8,17.5,8.4,18,8.5,18.7c0,0.1,0.1,0.1,0.3,0.1c0.3-0.1,0.7-0.3,1-0.4
			c0.1,0.1,0.1,0,0.3-0.1l0,0C11.1,18,12.5,18.2,13.3,18.8L13.3,18.8z M14.1,13.8c-1.8,0.5-4.4,2.3-4.4,4.4
			c-0.3,0.1-0.5,0.3-0.8,0.3c0-0.1,0-0.1-0.1-0.3c0-2.3,1.6-4.4,4-4.8c2.2-0.5,5.3-0.5,7.1,1.2l0.1,0.1c0,0.1,0,0.3,0,0.5
			c-0.1,0-0.3,0-0.4,0.1v-0.1C18.5,13.4,16,13.1,14.1,13.8L14.1,13.8z M27.2,18.4c-1.4,0.1-2.6,0.1-3.8,0c-1.6-0.1-3.1,0-4.8-0.4
			h-0.1c-0.3-0.5,0-1.1,0.3-1.6c0.3-0.5,1.1-0.7,1.6-0.7c0.1,0,0.3-0.1,0.3-0.3l0,0v-0.1c-0.1-0.3-0.1-0.5-0.1-1
			c0-0.5,0.3-1.2,0.7-1.6c0.4-0.4,1-0.7,1.5-0.7l-0.1-0.7c0.3-0.1,0.5-0.1,0.8-0.1c0.4,0,1,0,1.4,0.3c1,0.4,1.2,1.6,1.2,2.6
			c0,0.1,0.1,0.3,0.3,0.3H26c1.4-0.8,3.1-0.5,3.5,1.1C30,17.1,28.4,18.2,27.2,18.4L27.2,18.4z"/>
	</g>
</g>
</svg>
