<?xml version="1.0" encoding="utf-8"?>
<!-- Generator: Adobe Illustrator 22.0.1, SVG Export Plug-In . SVG Version: 6.00 Build 0)  -->
<svg version="1.1" id="Layer_1" xmlns="http://www.w3.org/2000/svg" xmlns:xlink="http://www.w3.org/1999/xlink" x="0px" y="0px"
	 viewBox="0 0 23.2 20.8" style="enable-background:new 0 0 23.2 20.8;" xml:space="preserve">
<style type="text/css">
	.st0{fill:#3BC6F3;}
</style>
<title>Asset 32</title>
<g id="Layer_2_1_">
	<g id="Layer_1-2">
		<path class="st0" d="M17.9,0.6C13-1.3,6.2,1.6,2.7,5.1C0.8,7-0.2,9.7,0.1,12.4c0.3,2.5,2.3,4.4,4.5,5.5c-0.5,0.8-1,1.4-1.6,2.1
			c0,0.1,0,0.2,0,0.2c-0.1,0.1-0.1,0.3,0,0.4c0.1,0.1,0.2,0.1,0.3,0.1c2-0.7,4.1-1.2,6.2-1.4c1.8-0.1,3.6-0.4,5.4-0.8
			c2.7-0.8,5.1-2.5,6.8-4.8C24.7,9.2,23.3,2.7,17.9,0.6z M19.9,14.9c-2,1.9-4.5,3.2-7.3,3.5c-1.6,0.2-3.2,0.3-4.8,0.5
			c-1.4,0.2-2.8,0.6-4.1,1c0.5-0.7,1-1.4,1.5-2.2c0.1-0.1,0-0.3-0.1-0.4c0,0,0,0,0,0c-2.4-1.2-4.3-3-4.5-5.9s1.6-5.4,3.7-7.1
			c3.6-3.1,9.9-5.1,14.4-2.9C23.9,4.2,23.6,11.2,19.9,14.9L19.9,14.9z"/>
		<path class="st0" d="M19.9,4.2c-0.9,0.2-1.8,0.4-2.7,0.6s-2,0-3,0.1c-0.1,0-0.2,0.2-0.2,0.3v0.3c-0.7-0.1-1.4,0-2.1,0.3
			c-0.3,0.2-0.5,0.5-0.6,0.9C10.9,6,9.7,6.2,9.1,6.2C9,6.2,8.9,6.3,8.8,6.5C8.7,7.4,9.2,8,9.4,8.9c0,0.3,0,0.6,0,0.9
			C9.2,10.2,9,10.3,8.5,10c0-0.5-0.1-1-0.2-1.5C8.2,8,8.2,7.1,7.8,6.8S6.6,6.6,6,6.6C5.8,6.6,5.7,6.8,5.7,7c0,0,0,0,0,0
			C5.9,7.2,5.9,7.3,6,7.5H5.9C4.5,7.3,3.6,7.2,2.6,8.4S1.8,11.2,2,12.5c0.5,2.5,2.8,3.5,4.3,1.7c0,0.1,0.1,0.2,0.2,0.2
			c0.6,0.1,1.2,0.1,1.8-0.1c0.2,0,0.3-0.1,0.3-0.3c0,0,0,0,0,0c-0.1-0.9,0-1.5,0.9-1.6c0,0.6,0.2,1.2,0.6,1.7
			c0.4,0.4,1.7-0.4,2.1-0.5c0,0,0.1,0,0.1-0.1c0,0.1,0.1,0.1,0.1,0.2c0.4,0.2,0.7,0,0.9-0.4c0.1-0.3,0.2-0.6,0.2-0.9
			c0-0.3,0.1-2,0.8-0.9c0.4,0.6,0.6,1.6,1.5,1.5c0.4,0,0.8-0.2,1-0.5c0.1,0.1,0.1,0.1,0.3,0.1c0.9,0,2.7-0.3,2.3-1.7
			c-0.2-0.9-0.6-1.8-0.8-2.7c-0.2-1.1,1.1-1,1.8-1.1c0.1,0,0.2-0.2,0.2-0.3c0-0.8-0.1-1.5-0.2-2.3C20.3,4.3,20.1,4.2,19.9,4.2
			C19.9,4.2,19.9,4.2,19.9,4.2z M3.1,13.7c-0.4-0.7-0.6-1.5-0.6-2.3C2.4,10.6,2.6,9.8,2.9,9c0.5-1.1,1.6-1.1,2.6-1
			c0,0.1,0.1,0.1,0.2,0.1c0.8,0.1,0.5,0.8,0.1,1.3c0,0-0.1,0.1-0.1,0.1v0.1C5.4,9.2,4.7,9.1,4.3,9.4C4.1,9.5,3.9,9.8,3.8,10
			c-0.1,0.8,0,1.7,0.3,2.4c0.3,0.9,1.3,0.8,2,1.1C5.3,14.6,4,15,3.1,13.7z M5.7,12.9H5.4c-0.6-0.3-1-0.8-1-1.4c0-0.1,0-0.2-0.1-0.3
			c-0.1-0.5,0.2-0.8,0.9-0.9c0,0.2,0.2,0.3,0.3,0.3c0,0,0,0,0.1,0C5.6,11.3,5.6,12.1,5.7,12.9z M10.7,13.5c-0.7,0.3-0.7-0.9-0.7-1.4
			c0-0.2-0.2-0.3-0.3-0.3c-1.6-0.1-1.8,0.6-1.7,2c-0.4,0.1-0.9,0.1-1.4,0.1l0,0c0-0.1,0.1-0.2,0.2-0.3c0.1-0.1,0-0.3-0.1-0.4L6.4,13
			c-0.2-1.1-0.3-2.1-0.2-3.2c0.5-0.6,0.8-1.5,0.3-2c0.1-0.1,0.1-0.2,0.1-0.3c0-0.1-0.1-0.3-0.1-0.4c1.5,0.2,1.4,2,1.5,3.4
			c0,0.1,0.1,0.2,0.2,0.3c0.5,0,1.1,0,1.6-0.2c0.1,0,0.2-0.2,0.2-0.3C10,9.5,9.9,8.7,9.7,8c0-0.1-0.6-1.2-0.3-1.2
			c0.7-0.1,1.4,0.2,1.4,1c0.1,1.8,0.4,3.6,0.8,5.4C11.4,13.3,11.1,13.4,10.7,13.5z M14.9,11.4c-1.5-3.3-2.2,1.7-2.2,1.8
			c-0.1-0.1-0.3,0-0.3,0.1l0,0c-0.3-1.2-0.6-2.3-0.8-3.5c0-0.2-0.1-0.5-0.1-0.7c0.1,0,0.1-0.1,0.1-0.2c0.1-0.5,0.2-2.4,0.7-2.6
			c1.2-0.5,1.7,0,2,0.9c0,0-0.1,0-0.1,0.1c-0.3,0.2,0,0.7,0.3,0.5l0,0C14.7,8.4,15,9,15.4,9.6c0.2,0.3,0.4,0.6,0.6,0.9l0.1,0.3
			c0,0.1,0,0.2,0.1,0.2c0.1,0.1,0.1,0.2,0.1,0.3C15.5,12,15.1,12,14.9,11.4z M15.1,7.5c0.3,0,0.6,0,0.8,0c0,0.6,0.1,1.3,0.1,1.9
			c-0.2-0.3-0.4-0.5-0.5-0.8C15.3,8.3,15.2,7.9,15.1,7.5z M19.9,6.3c0,0.3-1,0.3-1.2,0.3c-0.3,0-0.5,0.2-0.7,0.5
			c-0.1,0.6-0.1,1.3,0.1,1.9c0.3,1.2,1.2,2.9-1.2,2.9c0-0.1,0-0.3,0-0.4c0-0.4-0.1-0.7-0.3-1c0-1.1-0.2-2.1-0.2-3.2
			c0-0.2-0.1-0.3-0.3-0.3c-0.4,0-0.8,0-1.2,0c-0.1-0.3-0.2-0.7-0.4-1c0,0,0-0.1,0-0.1V5.5c0.9,0,1.8,0,2.7-0.1
			c0.9-0.1,1.7-0.3,2.5-0.5C19.9,5.3,19.9,5.8,19.9,6.3z"/>
		<path class="st0" d="M12.4,7.9c-0.1,0.1-0.1,0.3,0,0.4c-0.1,0.4-0.1,0.8,0,1.3c0.2,0.7,0.7,0.8,1.3,0.4s0.4-1.3,0.1-1.8
			c-0.2-0.4-0.6-0.7-1.1-0.5C12.6,7.7,12.5,7.7,12.4,7.9z M13.2,9.6C13,9.7,13,8.6,13,8.1c0.2-0.1,0.4,0.2,0.5,0.5
			S13.6,9.5,13.2,9.6z"/>
	</g>
</g>
</svg>
