<?xml version="1.0" encoding="utf-8"?>
<!-- Generator: Adobe Illustrator 22.0.1, SVG Export Plug-In . SVG Version: 6.00 Build 0)  -->
<svg version="1.1" id="Layer_1" xmlns="http://www.w3.org/2000/svg" xmlns:xlink="http://www.w3.org/1999/xlink" x="0px" y="0px"
	 viewBox="0 0 24.9 17.3" style="enable-background:new 0 0 24.9 17.3;" xml:space="preserve">
<style type="text/css">
	.st0{fill:#3BC6F3;}
</style>
<title>Asset 44</title>
<g id="Layer_2_1_">
	<g id="Layer_1-2">
		<path class="st0" d="M24.9,8.7c-0.1-0.8-0.3-1.5-0.5-2.3c-0.2-0.8-0.2-1.7-0.5-2.5c-0.1-0.8-0.5-1.4-1.1-1.9
			c-1.4-1.1-3.4-1.5-5.1-1.8c-2.3-0.3-4.6-0.3-6.8-0.1c-2,0.1-3.9,0.5-5.8,1.2c-2.4,0.9-5.7,3.6-5,6.4c0.1,1.6,0.2,3.1,0.3,4.7
			c0.1,1.3,0.2,2.8,1.6,3.4c0.7,0.3,1.4,0.4,2.1,0.5c1,0.2,2,0.4,3,0.6c2,0.3,3.9,0.4,5.9,0.3h0.1c0.1,0.1,0.2,0.1,0.3,0.1
			c0,0,0.1,0,0.1-0.1c0.4-0.8,0.8-1.6,1.2-2.5c0.2-0.8,0.6-1.7,1.1-2.4c0,0,0-0.1,0.1-0.1c0.5,0.2,1,0.2,1.5,0.2
			c1.4,0,2.8,0.3,4.2,0.4c1.1,0.1,2.2,0.1,2.3-0.6C24.7,11.2,25.1,9.9,24.9,8.7z M2,4.1c1.1-1.2,2.5-2,4-2.5c3-0.9,6.1-1.2,9.2-1
			c2.4,0.1,9.8,0.9,7.5,4.9c-1.7-0.1-3.4,0-5-0.3c-1.2-0.1-2.3-0.2-3.4-0.5c0,0-0.1,0-0.2,0c-0.1,0-0.1,0.1-0.1,0.1
			c-0.3,1-0.8,1.9-1.1,2.9c-0.3,0.8-0.1,1.9-0.6,2.6C8.9,10.1,5,10.8,2,9.2C-0.3,8,0.7,5.6,2,4.1z M22.8,7.5c-0.2,0-0.5-0.2-0.6-0.4
			c-0.1-0.4,0.2-0.3,0.5-0.4l0,0C22.7,6.9,22.8,7.2,22.8,7.5z M12.6,14.5c0,0.8,0.1,1.5,0.3,2.3C11.2,17,9.4,17,7.6,16.7
			c-1.5-0.3-3.1-0.7-4.6-1c-2-0.3-2-2.6-2.1-4.1c0-0.9-0.1-1.8-0.2-2.7c0.9,1.2,2.8,1.6,4.1,1.7c2.4,0.2,4.9,0.3,7.3,0.2l0,0
			c0,0.2,0,0.5,0.1,0.7c0,0.3,0.1,0.7,0.1,1c0,0.2,0,0.4,0.1,0.6c0,0.1,0.1,0.1,0.2,0.1l0,0c0.1,0,0.1,0,0.2-0.1
			c0.3-0.1,0.4,0,0.5,0.3c0.1,0.2-0.1,0.5-0.3,0.6c0,0,0,0,0,0c-0.1-0.1-0.2,0-0.3,0.1c0,0,0,0,0,0C12.5,14.2,12.5,14.4,12.6,14.5
			L12.6,14.5z M14.6,13.7c-0.1-0.3,0-0.7,0.3-0.8c0,0,0,0,0,0C14.8,13.1,14.7,13.4,14.6,13.7L14.6,13.7z M15.2,12.3
			c-0.6,0-1.1,0.5-1.1,1.1c0,0.2,0,0.3,0.1,0.4c0.1,0.1,0.2,0.2,0.3,0.1c-0.4,0.9-0.7,1.7-1.1,2.5l0,0c0-0.1-0.1-0.1-0.1-0.2
			c0-0.2-0.1-0.4-0.1-0.6s-0.1-0.7-0.1-1.1c0.5-0.2,0.8-0.7,0.7-1.2c-0.1-0.4-0.5-0.7-0.9-0.6c0,0,0,0-0.1,0c0-0.6-0.1-1.2-0.2-1.9
			h0.1c0.4-0.6,0.6-1.4,0.7-2.2c0.3-1.2,0.6-2.3,1-3.4c0,1.1,0.1,2.1,0.3,3.2C14.7,9.8,14.9,11,15.2,12.3
			C15.2,12.3,15.2,12.3,15.2,12.3L15.2,12.3z M15,7.1c0,0,0.1,0,0.1,0c0.2-0.1,0.4-0.1,0.4,0.2c0,0.3-0.2,0.5-0.5,0.7
			c0,0,0-0.1,0-0.1C15,7.7,15,7.4,15,7.1z M23,12.4h-1c-0.8-0.1-1.6-0.2-2.4-0.3S18.1,12,17.3,12c-0.5,0-1,0-1.4-0.1
			c0,0-0.1,0-0.1,0c-0.2-1.1-0.5-2.3-0.6-3.4c0.1,0,0.1,0,0.2,0c0.4-0.3,0.7-0.8,0.6-1.3c0-0.3-0.3-0.6-0.7-0.6
			c-0.1,0-0.2,0.1-0.3,0.1c0-0.5-0.1-1-0.3-1.5c0.9,0.3,2.1,0.2,2.9,0.4c1.7,0.2,3.3,0.3,5,0.4l0.1,0.3h0c-0.2,0-0.5,0.1-0.7,0.2
			c-0.2,0.2-0.3,0.5-0.2,0.8c0.2,0.4,0.6,0.7,1,0.7c-0.1,1.1,0,2.2,0.4,3.3l0,0c0,0.1,0,0.1,0.1,0.2C23.1,11.8,23.1,12.1,23,12.4z
			 M23.7,11.5c0-0.1-0.1-0.2-0.1-0.3c0,0,0-0.1,0-0.1c-0.2-1-0.3-2.1-0.3-3.1c0.1-0.1,0.1-0.3,0-0.4c0-0.5-0.1-1.1-0.3-1.6
			c0.1,0,0.1-0.1,0.2-0.1c0.2-0.3,0.4-0.7,0.5-1c0.1,0.8,0.2,1.5,0.4,2.3C24.4,8.8,24.6,10.2,23.7,11.5L23.7,11.5z"/>
		<path class="st0" d="M21.5,9c0-0.2-0.1-0.5-0.3-0.6c-0.2-0.2-0.6-0.2-0.9-0.1c-0.3,0.1-0.5,0.3-0.7,0.6c-0.1,0.3-0.2,0.7,0.1,0.8
			c0.1,0,0.1,0,0.2,0c0.6,0.3,1.3,0,1.5-0.6C21.4,9.1,21.4,9.1,21.5,9z M20.1,9.3C20.1,9.2,20,9.2,20.1,9.3L20.1,9.3
			c0-0.3,0.2-0.4,0.3-0.5c0.1-0.1,0.3-0.1,0.5,0c0.1,0.1,0.2,0.1,0.2,0.3C21,9.4,20.1,9.7,20.1,9.3L20.1,9.3z"/>
		<path class="st0" d="M19.1,7.4c-0.1-0.3-0.5-0.4-0.7-0.2c-0.1,0-0.1,0.1-0.2,0.2C18.1,7.5,18,7.6,18,7.8c0,0.1-0.1,0.3,0,0.5
			c0.1,0.1,0.1,0.1,0.2,0.1c0.2,0.1,0.4,0.1,0.5,0C19.1,8.2,19.2,7.8,19.1,7.4z M18.7,7.7c0,0.1-0.1,0.1-0.1,0.2
			c0,0-0.1,0.1-0.1,0.1l0,0c0-0.1,0-0.1,0-0.2c0-0.1,0-0.1,0.1-0.2c0,0,0.1,0,0.1,0S18.7,7.7,18.7,7.7z"/>
		<path class="st0" d="M16.9,9.5c-0.4,0.1-0.7,0.4-0.7,0.8c-0.1,0-0.2,0.1-0.2,0.1c0,0,0,0,0,0c0,0.5,0.5,0.8,0.9,0.7
			c0.1,0,0.1,0,0.2,0c0.5-0.1,0.9-0.6,0.8-1.1C17.7,9.6,17.3,9.3,16.9,9.5C16.9,9.4,16.9,9.4,16.9,9.5z M17.1,10.7
			c-0.2,0.1-0.3,0.1-0.5,0c0,0,0,0,0-0.1c0-0.3,0-0.5,0.3-0.6c0.2-0.1,0.4,0,0.5,0.1C17.5,10.3,17.3,10.6,17.1,10.7z"/>
		<path class="st0" d="M14,9.5c-0.2,0-0.3,0-0.4,0.1c-0.1,0.1-0.2,0.3-0.1,0.5c-0.1,0-0.1,0.1-0.1,0.2c0,0.3,0.2,0.8,0.5,0.9
			s0.7-0.6,0.7-0.9C14.6,9.9,14.3,9.6,14,9.5z M14,10.7L14,10.7c-0.1-0.1-0.2-0.3-0.2-0.4l0.1-0.1c0.1-0.1,0.1-0.3,0.1-0.4l0,0l0,0
			c0.1,0.1,0.1,0.2,0.1,0.4C14.1,10.4,14,10.6,14,10.7L14,10.7z"/>
		<path class="st0" d="M18.6,11.1C18.6,11.1,18.6,11.1,18.6,11.1c0,0.2,0.1,0.3,0.3,0.3s0.3-0.1,0.3-0.3v-0.1
			C19.2,10.7,18.6,10.7,18.6,11.1z"/>
		<path class="st0" d="M21.3,11.2c-0.1,0-0.2,0.1-0.2,0.2c0,0.1,0.1,0.2,0.2,0.2c0.1,0,0.2-0.1,0.2-0.2
			C21.5,11.3,21.4,11.2,21.3,11.2z"/>
		<path class="st0" d="M21.5,9.7c-0.1,0-0.2,0.1-0.2,0.2c0,0.1,0.1,0.2,0.2,0.2s0.2-0.1,0.2-0.2C21.7,9.7,21.7,9.7,21.5,9.7z"/>
		<path class="st0" d="M20.1,14.4c-0.4-0.2-0.8-0.2-1.2,0c-0.4,0.1-0.7,0.6-0.4,0.9c0,0,0.1,0.1,0.1,0.1c0,0.1,0.1,0.3,0.3,0.2
			c0.4-0.2,0.8-0.2,1.2-0.3c0.3-0.1,0.4-0.4,0.3-0.7C20.2,14.5,20.1,14.4,20.1,14.4z M19.4,15.1l-0.5,0.1c0,0,0-0.1,0-0.1
			c-0.1-0.2,0.8-0.5,1-0.3S19.5,15,19.4,15.1z"/>
		<path class="st0" d="M17,16c0,0-0.1,0-0.1,0c-0.2,0.1-0.3,0.2-0.3,0.4c0,0.2,0,0.4,0.2,0.5C17,17,17.3,17,17.7,17
			c0.1,0,0.2-0.1,0.2-0.2c0-0.3,0-0.5-0.2-0.7C17.5,16,17.2,15.9,17,16z M17.1,16.5L17.1,16.5L17.1,16.5
			C17.1,16.5,17.1,16.5,17.1,16.5c0.1-0.1,0.1-0.1,0.2-0.1h0.1l0,0c0,0,0,0,0,0.1c0,0,0,0.1,0,0.1C17.3,16.6,17.2,16.6,17.1,16.5
			L17.1,16.5z"/>
		<path class="st0" d="M16.8,15.2L16.8,15.2l0.1,0.1c0.1,0.1,0.2,0.1,0.3,0.2c0.1,0.1,0.2,0.1,0.3,0c0,0,0.1-0.1,0.1-0.1
			c0-0.3,0-0.5,0-0.8c-0.2-0.4-0.7-0.5-1.1-0.3c-0.2,0.1-0.3,0.2-0.3,0.4C16.1,15,16.5,15.2,16.8,15.2z M16.7,14.7
			c0.1-0.1,0.3-0.1,0.4-0.1s0.1,0.2,0.1,0.4c-0.1,0-0.2-0.1-0.2-0.2c-0.1-0.1-0.2-0.1-0.2,0c0,0,0,0,0,0L16.7,14.7L16.7,14.7z"/>
	</g>
</g>
</svg>
