<?xml version="1.0" encoding="utf-8"?>
<!-- Generator: Adobe Illustrator 22.0.1, SVG Export Plug-In . SVG Version: 6.00 Build 0)  -->
<svg version="1.1" id="Layer_1" xmlns="http://www.w3.org/2000/svg" xmlns:xlink="http://www.w3.org/1999/xlink" x="0px" y="0px"
	 viewBox="0 0 23.3 19.5" style="enable-background:new 0 0 23.3 19.5;" xml:space="preserve">
<style type="text/css">
	.st0{fill:#3BC6F3;}
</style>
<title>Asset 30</title>
<g id="Layer_2_1_">
	<g id="Layer_1-2">
		<path class="st0" d="M11.6,12.5c-0.9-0.2-1.8,0.2-2.3,0.9c-0.6,0.6-1.1,1-2,0.4c-0.7-0.5-1.4-1.2-1.9-1.9C4.9,11,2.8,7.9,4.4,7.1
			C5.2,6.8,6,6.4,6.6,5.8C8,4.2,6.2,1.6,4.8,0.6c-2-1.4-4.1-0.1-4.4,2.2c-0.4,3.1-0.7,6.8,0.8,9.6c0.8,1.5,2,2.9,3.3,4
			c0.5,0.4,1.1,0.7,1.7,1c0.2,0.2,0.4,0.4,0.7,0.5c0.2,0.2,0.5,0.3,0.7,0.3c0.4,0.2,0.8,0.4,1.2,0.5l0.1,0.1
			c1.9,0.9,4.2,1.1,5.5-1.1c0.9-1.9,0.1-4.1-1.7-5C12.3,12.6,12,12.5,11.6,12.5z M11.9,18.7c-0.8,0.2-1.7,0.1-2.4-0.3H9.4
			c-0.6-0.1-1.2-0.4-1.8-0.6c-0.3-0.2-0.7-0.5-1-0.6l-0.1-0.1l-0.3-0.2C5,16.3,3.9,15.3,3,14.2c-2.2-2.8-2.4-5.7-2.2-9.1
			c0.1-1.2-0.1-3.1,1-4c1.4-1.2,3.1,0.1,3.8,1.4c0.7,1.1,1.3,2.7-0.2,3.4C4.9,6.1,4.3,6.4,3.8,6.7C2.5,7.8,3.5,10,4.2,11.2
			c0.8,1.4,2.2,3.5,4,3.6c0.6,0,1.2-0.5,1.6-0.9c1-1,2.4-0.8,3.3,0.3c1.1,1,1.1,2.7,0,3.8C12.9,18.3,12.4,18.6,11.9,18.7z"/>
		<path class="st0" d="M19.6,0.8c-3-0.7-6.7,1-7.7,4c-0.5,1.3-0.3,2.7,0.6,3.8c0.3,0.4,0.6,0.7,1,1c0.2,0.2-0.2,0.5-0.4,0.7
			c-0.4,0.4-0.8,1-1,1.6c-0.1,0.3,0.4,0.4,0.5,0.1l0,0c0.1,0,0.2,0,0.2,0c3.3-1.6,7.7-1.4,9.8-4.9C24.3,4.3,22.4,1.5,19.6,0.8z
			 M19.8,9c-2.1,1.2-4.6,1.4-6.9,2.3c0.4-0.6,0.9-1.1,1.3-1.6c0.1-0.1,0.1-0.3,0-0.4c-1.1-0.7-1.9-1.9-2.1-3.2
			c-0.1-1.5,1.1-3,2.2-3.8c2.2-1.6,5.1-1.6,7.3,0C24.2,4.5,21.9,7.8,19.8,9z"/>
		<path class="st0" d="M15.4,6.1c-0.4-0.1-0.8,0-0.9,0.4c0,0.1,0.1,0.3,0.3,0.3c0,0,0.1,0,0.1,0c0.1,0.1,0.3,0.1,0.4,0.1
			c0.1,0,0.3-0.1,0.3-0.3V6.4C15.6,6.2,15.5,6.1,15.4,6.1z"/>
		<path class="st0" d="M17.7,5.3c-0.2,0-0.3,0.1-0.5,0.3c0,0.1,0,0.1,0,0.2c0,0,0,0.1,0,0.2c0,0.2,0.2,0.4,0.4,0.4c0,0,0,0,0,0
			c0.1,0,0.2-0.1,0.2-0.1C18,6,18.1,5.8,18.1,5.6c0-0.2-0.1-0.3-0.3-0.3C17.8,5.3,17.7,5.3,17.7,5.3z"/>
		<path class="st0" d="M20,4.9L20,4.9C19.9,5,19.8,5,20,4.9c-0.2,0.1-0.3,0.2-0.3,0.4c0,0.1,0.1,0.3,0.3,0.3c0,0,0,0,0,0
			c0.2,0,0.3-0.1,0.5-0.3C20.6,5.1,20.2,4.7,20,4.9z"/>
	</g>
</g>
</svg>
