<?xml version="1.0" encoding="utf-8"?>
<!-- Generator: Adobe Illustrator 22.0.1, SVG Export Plug-In . SVG Version: 6.00 Build 0)  -->
<svg version="1.1" id="Layer_1" xmlns="http://www.w3.org/2000/svg" xmlns:xlink="http://www.w3.org/1999/xlink" x="0px" y="0px"
	 viewBox="0 0 21.2 23.2" style="enable-background:new 0 0 21.2 23.2;" xml:space="preserve">
<style type="text/css">
	.st0{fill:#FFFFFF;}
</style>
<title>Asset 50</title>
<g id="Layer_2_1_">
	<g id="Layer_1-2">
		<path class="st0" d="M21.1,6c0.5-1.1-0.2-2.3-0.8-3.3c-1.2-1.6-3.1-2.6-5.1-2.7c-1.9-0.3-3.9,0.2-5.5,1.3C7.9,2.5,7.6,4.6,7.6,6.5
			c0,0,0,0,0,0.1C7.5,7.1,7.6,7.7,8,8.1c1.3,1.4,4.3,3,6.3,2.1c-0.4,1.3-0.9,2.5-1.2,3.7c-0.3,1.5-0.8,3-1.4,4.4
			c-0.3,0.6-0.7,1.2-1,1.9c-0.1-1.3-0.3-2.6-0.6-3.9c0-0.2-0.1-0.4-0.1-0.6c1.9-0.2,3.4-2.1,1.9-3.8l-0.3-0.3
			C8.5,6.6-0.8,9,0.1,15.3c0,0.8,0.4,1.5,1,1.9C2.3,18.3,4.4,18,5.9,18c0.2,0,0.3-0.1,0.3-0.3c0.4,1.2,0.5,2.4,0.9,3.5
			c0,0.1,0.1,0.2,0.3,0.2c0.4,0.8,2,0.6,3,0.2c0,0,0,0.1,0,0.1c0,0.1,0,0.3,0.2,0.3c0,0,0,0,0,0c1.5,0.3,2.8,1.1,4.4,1.2
			s1.2-1.9,1.4-2.8c0.4-2.2,1.3-4.3,1.7-6.5c0.3-1.3,0.4-2.7,0.5-4.1c0.1,0.1,0.3,0.1,0.4,0.1c0,0,0,0,0.1-0.1
			c0.5-0.6,1.4-0.9,1.9-1.7c0.3-0.6,0.4-1.2,0.3-1.9C21.2,6.2,21.2,6.1,21.1,6z M10.5,11.2c-1.6-0.2-3.2-0.1-4.7,0.3
			c-1.7,0.4-4.1,0.9-5.2,2.4C1.1,9.5,7.5,8.1,10.5,11.2z M5.8,17.4c-1.3,0.1-2.6,0-3.8-0.3c-1-0.4-1.5-1.4-1.1-2.4
			c0.2-0.4,0.4-0.8,0.8-1c1.1-0.6,2.2-1.1,3.5-1.3c1.5-0.5,3.2-0.7,4.8-0.6c2.5,0.3,2.6,3.2,0,3.4c-0.1-0.4-0.2-0.9-0.4-1.3
			c0-0.1,0-0.2-0.1-0.3c-0.3-0.3-0.6-0.4-1-0.4c0-0.3-0.1-0.5-0.2-0.7c-0.1-0.2-0.2-0.2-0.4-0.2c-0.1,0.1-0.2,0.2-0.2,0.3
			c0.1,0.2,0.1,0.4,0.2,0.6c-0.4,0.1-0.8,0.2-1.2,0.4c-0.2-0.4-0.6-0.7-1-0.9c-0.2,0-0.3,0.1-0.3,0.3c0,0.1,0.1,0.3,0.2,0.3
			c0.3,0.1,0.5,0.3,0.7,0.6l-0.4,0.3c0-0.1-0.1-0.2-0.3-0.2c-0.8,0-1.6-0.4-2.5-0.4c-0.4,0-0.4,0.6,0,0.6c0.8,0,1.6,0.3,2.4,0.4
			c0,0,0,0.1,0,0.1c0,0.2,0.1,0.4,0.1,0.6l0,0c-0.8-0.1-1.6,0-2.3,0.3C3.1,15.8,3,16,3.1,16.1c0.1,0.1,0.2,0.2,0.4,0.1
			c0.6-0.3,1.3-0.3,2-0.3c0,0,0.1,0,0.1,0c0.1,0.5,0.3,1,0.5,1.5l0,0C6.1,17.4,6,17.3,5.8,17.4z M7.8,21c0-0.1-0.1-0.2-0.2-0.2
			c0-0.1-0.1-0.1-0.1-0.2C7.2,19.8,7,19,6.8,18.1C6.6,17,6.2,15.9,6,14.8c0.2-0.2,0.4-0.3,0.7-0.4h0.1c0.4-0.2,0.8-0.4,1.3-0.5
			c0.1,0,0.2,0,0.3,0c0.2,0,0.4,0,0.6,0.1c0,0,0,0.1,0.1,0.1c0.6,0.6,0.6,2.1,0.8,2.9c0.3,1.3,0.5,2.6,0.5,3.9
			C9.4,21.3,8,21.6,7.8,21L7.8,21z M18,9.8c0,1-0.2,2-0.4,3c-0.3,1.7-0.7,3.4-1.2,5c-0.3,0.8-0.5,1.6-0.7,2.5
			c-0.1,0.5,0,2.2-0.8,2.3c-1.4,0.2-2.7-0.8-4-1.1c0-0.1,0.1-0.3,0.1-0.4l0.1-0.1c0-0.1,0-0.2,0-0.3c0.4-1.2,1.2-2.3,1.6-3.4
			c0.6-1.8,0.9-3.6,1.5-5.4c0.6-1.4,0.9-3,1-4.5c0-0.6-0.4-1.1,0.4-1.2s2.3,0.3,2,1.5c0,0,0,0.1,0,0.1C17.7,7.9,17.8,8,18,8
			c0.1,0,0.1,0,0.2,0C17.8,8.3,18,9.4,18,9.8z M18.8,9.2c-0.1,0-0.2,0.1-0.2,0.2l0,0c0-0.6,0.1-1.2,0.1-1.8c0-0.1-0.1-0.3-0.3-0.3
			c0.1-1.7-2.5-2.2-3.8-1.5c-0.1,0.1-0.2,0.2-0.1,0.3c0.3,1.1,0.3,2.3-0.1,3.4c-0.1,0-0.2,0-0.3,0c-0.8,0.3-1.8,0.3-2.6-0.1
			c0.8-0.3,1.5-0.6,2.2-1c0.3-0.2,0-0.7-0.3-0.5c-0.7,0.4-1.4,0.6-2.1,1c-0.2,0.1-0.2,0.2-0.2,0.4c-0.4-0.2-0.9-0.4-1.3-0.6
			C9.3,8.5,8.7,8,8.4,7.4h0.1c1.4,0,2.7-0.1,4.1-0.1c0.4,0,0.4-0.6,0-0.6c-1.4,0-2.7,0.1-4.1,0.1c-0.1,0-0.1,0-0.2,0.1
			c-0.1-0.5,0.1-1,0.3-1.4c0.2-0.4,0.5-0.7,0.8-0.9c0,0.1,0.1,0.2,0.3,0.2c1.1,0.1,2.1,0.5,2.9,1.2C12.7,6,12.9,6,12.9,5.9
			c0.1-0.1,0.1-0.3,0-0.4c-0.8-0.7-1.8-1.2-2.8-1.3c0.6-0.3,1.3-0.4,2-0.5c0.3,0,0.6-0.1,1-0.1c0,0,0,0.1,0,0.1
			c0.3,0.8,1.1,1.1,1.4,1.9c0.1,0.4,0.7,0.2,0.6-0.2c-0.2-0.4-0.4-0.7-0.7-1c-0.3-0.2-0.5-0.5-0.7-0.9c1.4-0.1,2.8,0,4.1,0.3
			C18.5,4,19.2,4.4,19.7,5h-0.1c-0.4,0.2-0.7,0.5-1,0.8c-0.3,0.3,0.2,0.7,0.4,0.4c0.2-0.3,0.5-0.5,0.8-0.7c0,0,0.1-0.1,0.1-0.1
			c0.1,0.2,0.3,0.5,0.4,0.8c-0.3,0.2-0.7,0.4-1.1,0.6c-0.4,0.1-0.2,0.7,0.2,0.6c0.4-0.1,0.7-0.3,1-0.5C20.5,7.9,19.8,8.9,18.8,9.2
			L18.8,9.2z M20.4,4.8c-1.7-2.5-6.3-2-8.8-1.7c-1.3,0.1-2.5,0.7-3.4,1.7l0,0c0.2-1.2,0.8-2.3,1.7-3c1.3-0.9,2.8-1.3,4.3-1.3
			c1.6,0,3.2,0.5,4.5,1.4c1,0.8,1.7,1.9,1.9,3.2C20.6,5.1,20.5,4.9,20.4,4.8z"/>
	</g>
</g>
</svg>
