<?xml version="1.0" encoding="utf-8"?>
<!-- Generator: Adobe Illustrator 22.0.1, SVG Export Plug-In . SVG Version: 6.00 Build 0)  -->
<svg version="1.1" id="Layer_1" xmlns="http://www.w3.org/2000/svg" xmlns:xlink="http://www.w3.org/1999/xlink" x="0px" y="0px"
	 viewBox="0 0 21.2 23.2" style="enable-background:new 0 0 21.2 23.2;" xml:space="preserve">
<style type="text/css">
	.st0{fill:#FF4500;}
</style>
<title>Asset 50</title>
<g id="Layer_2_1_">
	<g id="Layer_1-2">
		<path class="st0" d="M20.6,6.2c0.5-1.1-0.2-2.2-0.8-3.2c-1.1-1.5-3-2.5-4.9-2.6c-1.8-0.3-3.7,0.2-5.3,1.2c-1.7,1.1-2,3.2-2,5
			c0,0,0,0,0,0.1c-0.1,0.5,0,1.1,0.4,1.4c1.2,1.3,4.1,2.9,6,2c-0.4,1.2-0.9,2.4-1.1,3.5c-0.3,1.4-0.8,2.9-1.3,4.2
			c-0.3,0.6-0.7,1.1-1,1.8c-0.1-1.2-0.3-2.5-0.6-3.7c0-0.2-0.1-0.4-0.1-0.6c1.8-0.2,3.3-2,1.8-3.6l-0.3-0.3c-3-4.8-11.9-2.5-11,3.5
			c0,0.8,0.4,1.4,1,1.8c1.1,1.1,3.2,0.8,4.6,0.8c0.2,0,0.3-0.1,0.3-0.3c0.4,1.1,0.5,2.3,0.9,3.3c0,0.1,0.1,0.2,0.3,0.2
			c0.4,0.8,1.9,0.6,2.9,0.2v0.1c0,0.1,0,0.3,0.2,0.3l0,0c1.4,0.3,2.7,1.1,4.2,1.1s1.1-1.8,1.3-2.7c0.4-2.1,1.2-4.1,1.6-6.2
			c0.3-1.2,0.4-2.6,0.5-3.9c0.1,0.1,0.3,0.1,0.4,0.1c0,0,0,0,0.1-0.1c0.5-0.6,1.3-0.9,1.8-1.6c0.3-0.6,0.4-1.1,0.3-1.8
			C20.7,6.4,20.7,6.3,20.6,6.2z M10.5,11.2C9,11,7.4,11.1,6,11.5c-1.6,0.4-3.9,0.9-5,2.3C1.5,9.6,7.6,8.3,10.5,11.2z M6,17.1
			c-1.2,0.1-2.5,0-3.6-0.3c-1-0.4-1.4-1.3-1.1-2.3c0.2-0.4,0.4-0.8,0.8-1c1.1-0.6,2.1-1.1,3.3-1.2c1.4-0.5,3.1-0.7,4.6-0.6
			c2.4,0.3,2.5,3.1,0,3.3c-0.1-0.4-0.2-0.9-0.4-1.2c0-0.1,0-0.2-0.1-0.3c-0.3-0.3-0.6-0.4-1-0.4c0-0.3-0.1-0.5-0.2-0.7
			c-0.1-0.2-0.2-0.2-0.4-0.2c-0.1,0.1-0.2,0.2-0.2,0.3c0.1,0.2,0.1,0.4,0.2,0.6c-0.4,0.1-0.8,0.2-1.1,0.4c-0.2-0.4-0.6-0.7-1-0.9
			c-0.2,0-0.3,0.1-0.3,0.3c0,0.1,0.1,0.3,0.2,0.3c0.3,0.1,0.5,0.3,0.7,0.6l-0.4,0.3c0-0.1-0.1-0.2-0.3-0.2c-0.8,0-1.5-0.4-2.4-0.4
			c-0.4,0-0.4,0.6,0,0.6c0.8,0,1.5,0.3,2.3,0.4v0.1c0,0.2,0.1,0.4,0.1,0.6l0,0c-0.8-0.1-1.5,0-2.2,0.3c-0.2,0.2-0.3,0.4-0.2,0.5
			s0.2,0.2,0.4,0.1c0.6-0.3,1.2-0.3,1.9-0.3h0.1c0.1,0.5,0.3,1,0.5,1.4l0,0C6.3,17.1,6.2,17.1,6,17.1z M7.9,20.6
			c0-0.1-0.1-0.2-0.2-0.2c0-0.1-0.1-0.1-0.1-0.2c-0.3-0.8-0.5-1.5-0.7-2.4c-0.2-1.1-0.6-2.1-0.8-3.2c0.2-0.2,0.4-0.3,0.7-0.4H7
			c0.4-0.2,0.8-0.4,1.2-0.5c0.1,0,0.2,0,0.3,0c0.2,0,0.4,0,0.6,0.1c0,0,0,0.1,0.1,0.1c0.6,0.6,0.6,2,0.8,2.8
			c0.3,1.2,0.5,2.5,0.5,3.7C9.5,20.9,8.1,21.2,7.9,20.6L7.9,20.6z M17.7,9.9c0,1-0.2,1.9-0.4,2.9c-0.3,1.6-0.7,3.3-1.1,4.8
			c-0.3,0.8-0.5,1.5-0.7,2.4c-0.1,0.5,0,2.1-0.8,2.2c-1.3,0.2-2.6-0.8-3.8-1.1c0-0.1,0.1-0.3,0.1-0.4l0.1-0.1c0-0.1,0-0.2,0-0.3
			c0.4-1.1,1.1-2.2,1.5-3.3c0.6-1.7,0.9-3.4,1.4-5.2c0.6-1.3,0.9-2.9,1-4.3c0-0.6-0.4-1.1,0.4-1.1c0.8-0.1,2.2,0.3,1.9,1.4V8
			c0.1,0.1,0.2,0.2,0.4,0.2c0.1,0,0.1,0,0.2,0C17.5,8.4,17.7,9.5,17.7,9.9z M18.4,9.3c-0.1,0-0.2,0.1-0.2,0.2l0,0
			c0-0.6,0.1-1.1,0.1-1.7c0-0.1-0.1-0.3-0.3-0.3c0.1-1.6-2.4-2.1-3.6-1.4c-0.1,0.1-0.2,0.2-0.1,0.3c0.3,1.1,0.3,2.2-0.1,3.3
			c-0.1,0-0.2,0-0.3,0c-0.8,0.3-1.7,0.3-2.5-0.1c0.8-0.3,1.4-0.6,2.1-1c0.3-0.2,0-0.7-0.3-0.5c-0.7,0.4-1.3,0.6-2,1
			c-0.2,0.1-0.2,0.2-0.2,0.4C10.7,9.2,10.2,9,9.8,8.8C9.4,8.6,8.8,8.2,8.5,7.6h0.1c1.3,0,2.6-0.1,3.9-0.1c0.4,0,0.4-0.6,0-0.6
			C11.2,6.9,9.9,7,8.6,7C8.5,7,8.5,7,8.4,7.1c-0.1-0.5,0.1-1,0.3-1.3s0.5-0.7,0.8-0.9c0,0.1,0.1,0.2,0.3,0.2c1.1,0.1,2,0.5,2.8,1.1
			c0.1,0,0.3,0,0.3-0.1c0.1-0.1,0.1-0.3,0-0.4c-0.8-0.7-1.7-1.1-2.7-1.2C10.7,4.2,11.4,4.1,12,4c0.3,0,0.6-0.1,1-0.1V4
			c0.3,0.8,1.1,1.1,1.3,1.8c0.1,0.4,0.7,0.2,0.6-0.2c-0.2-0.4-0.4-0.7-0.7-1c-0.3-0.2-0.5-0.5-0.7-0.9c1.3-0.1,2.7,0,3.9,0.3
			c0.7,0.2,1.3,0.6,1.8,1.1h-0.1c-0.4,0.2-0.7,0.5-1,0.8s0.2,0.7,0.4,0.4c0.2-0.3,0.5-0.5,0.8-0.7l0.1-0.1c0.1,0.2,0.3,0.5,0.4,0.8
			c-0.3,0.2-0.7,0.4-1.1,0.6c-0.4,0.1-0.2,0.7,0.2,0.6c0.4-0.1,0.7-0.3,1-0.5C20.1,8.1,19.4,9,18.4,9.3L18.4,9.3z M20,5.1
			c-1.6-2.4-6-1.9-8.4-1.6c-1.2,0.1-2.4,0.7-3.3,1.6l0,0c0.2-1.1,0.8-2.2,1.6-2.9C11.2,1.4,12.6,1,14,1c1.5,0,3.1,0.5,4.3,1.3
			c1,0.8,1.6,1.8,1.8,3.1C20.2,5.4,20.1,5.2,20,5.1z"/>
	</g>
</g>
</svg>
