<?xml version="1.0" encoding="utf-8"?>
<!-- Generator: Adobe Illustrator 22.0.1, SVG Export Plug-In . SVG Version: 6.00 Build 0)  -->
<svg version="1.1" id="Layer_1" xmlns="http://www.w3.org/2000/svg" xmlns:xlink="http://www.w3.org/1999/xlink" x="0px" y="0px"
	 viewBox="0 0 29.8 22.1" style="enable-background:new 0 0 29.8 22.1;" xml:space="preserve">
<style type="text/css">
	.st0{fill:#FFFFFF;}
</style>
<title>Asset 51</title>
<g id="Layer_2_1_">
	<g id="Layer_1-2">
		<path class="st0" d="M29.8,0.2c0-0.1-0.1-0.2-0.2-0.2c0,0,0,0,0,0c-1,0-2,0.2-2.9,0.6c-1.2,0.3-2.4,0.3-3.5,0.8
			c-0.1,0-0.1,0.1-0.1,0.2l0,0c-0.3,0-0.2,0.4,0,0.4c0.3,0.1,0.6,0.3,0.8,0.6c-0.4,0.3-1,0.6-1.2,0.8c-0.7,0.6-1.4,1.3-2,2
			c-0.9,1-1.8,1.9-2.8,2.7c-1,0.9-2,1.8-3,2.7c-0.4,0.4-1.1,1-0.9,1.6c0,0,0,0.1,0.1,0.1c0,0.1,0,0.1,0,0.2c0.5,0.6,1.1,1.2,1.8,1.7
			c0.1,0.1,0.2,0.2,0.3,0.3l0,0.1c0,0.1,0.1,0.1,0.2,0.1c0.2,0.1,0.3,0.3,0.4,0.5c0.1,0.3,0.3,0.5,0.6,0.7c-1.2,1.2-2.4,2.5-3.5,3.8
			l0,0c0,0-0.1,0-0.1,0c-0.7,0.5-1.3,1.2-1.8,1.9c-0.2,0.3,0.3,0.6,0.5,0.3c0.4-0.7,1-1.3,1.6-1.8c0,0,0,0,0.1-0.1
			c0.1,0,0.1,0,0.1-0.1c2.2-2.3,4.5-4.6,6.6-6.9c1-1.2,2.2-2.2,3.4-3.2c0.5-0.4,0.9-0.7,1.4-1.1c0.1,0,0.1-0.1,0.2-0.1
			c0.7-0.6,1.4-1.3,2-2l0,0l0.6,0.5c0.2,0.2,0.6-0.1,0.4-0.3l0,0C29,6,29.2,5,29.2,4C29.3,2.8,29.9,1.6,29.8,0.2z M14.4,12.5
			l0.2-0.1c0.1-0.1,0-0.4-0.2-0.2c0.5-0.4,0.9-0.9,1.3-1.5c0.2,0.8,0.3,1.6,0.3,2.4c0,0.3,0,0.6,0,0.9C15.5,13.3,14.9,13,14.4,12.5z
			 M17.8,15.6l-0.1-0.1c-0.4-0.1-0.5-0.6-0.7-0.8l-0.4-0.3c-0.2-0.6-0.2-1.3-0.2-1.9c0-0.8-0.2-1.5-0.5-2.2l0.1-0.1l1.1-1
			c0,0.8,0.1,1.5,0.3,2.3c0.2,1.3,0.2,2.7,0.2,4.1C17.8,15.5,17.8,15.6,17.8,15.6L17.8,15.6z M18.4,15.1c0-1.1-0.1-2.2-0.2-3.2
			s-0.4-2-0.5-2.9c0,0,0-0.1,0-0.1l0.9-0.8L19,7.7c0,0.6,0.1,1.1,0.2,1.7c0.2,1.5,0.4,2.9,0.4,4.4c0,0,0,0.1,0,0.1L18.4,15.1z
			 M20.8,12.5c-0.3,0.3-0.5,0.6-0.8,0.8c-0.1-1.3-0.2-2.6-0.4-3.9c0-0.7-0.1-1.4-0.4-2C19.7,7,20,6.6,20.4,6.2
			C20.5,7,20.9,7.8,21,8.6c0.1,1.1,0.2,2.3,0.2,3.4C21.1,12.2,21,12.3,20.8,12.5z M21.8,11.5c0-1.9-0.3-3.9-1-5.7l0,0
			c0.4-0.4,0.8-0.9,1.2-1.3c0.2,1,0.5,2,0.7,3c0,1,0.2,1.9,0.4,2.8C22.6,10.8,22.2,11.1,21.8,11.5L21.8,11.5z M23.5,10
			c-0.2-0.8-0.3-1.5-0.3-2.3c-0.2-1.2-0.6-2.3-0.9-3.5c0.5-0.5,1.1-0.9,1.6-1.3c0.1,0.7,0.2,1.5,0.5,2.2c0.2,1.2,0.4,2.4,0.8,3.5
			C24.7,9.1,24.1,9.5,23.5,10z M25.7,8.2c-0.3-0.9-0.5-1.8-0.7-2.8c-0.1-0.6-0.3-1.2-0.4-1.9c0,0,0-0.1,0-0.3c0.4,0.3,0.8,0.7,1.2,1
			C26,4.5,26.2,4.7,26.4,5c-0.1,0-0.2,0.1-0.2,0.2c0,0.8,0,1.6,0.2,2.4C26.1,7.8,25.9,8,25.7,8.2L25.7,8.2z M26.8,7.2
			c-0.1-0.5-0.1-1.1-0.1-1.6C26.8,5.7,26.9,5.9,27,6c0.1,0.2,0.3,0.3,0.5,0.4C27.2,6.7,27,6.9,26.8,7.2L26.8,7.2z M28.7,4
			c-0.1,0.8-0.1,1.8-0.3,2.6c-0.5-0.4-0.9-0.9-1.3-1.4c-0.4-0.6-0.8-1.1-1.3-1.6c-0.4-0.3-0.8-0.6-1.2-1l0,0l0,0
			c0.1,0,0.1-0.1,0.1-0.2V2.2c0-0.1-0.2-0.2-0.3-0.2c-0.1,0-0.2,0.1-0.2,0.2l0,0l-0.1-0.1c-0.2-0.2-0.4-0.4-0.6-0.6
			c1-0.3,2-0.4,3-0.6c0.4-0.1,2.9-1,2.9-0.5C29.5,1.7,28.8,2.8,28.7,4L28.7,4z"/>
		<path class="st0" d="M12.7,12.9c0.3,0,0.3-0.4,0.1-0.4c-0.4-0.1-0.9-0.2-1.3-0.2c-0.5-0.1-0.9-0.1-1.4-0.1c-0.1,0-0.3,0.1-0.2,0.3
			c0,0.1,0.1,0.2,0.2,0.2c0.4,0.1,0.8,0.1,1.2,0.1L12.7,12.9z"/>
		<path class="st0" d="M12.4,13.6c-0.7,0.8-1.3,1.6-1.9,2.4c-0.2,0.3,0.1,0.6,0.4,0.4c0.7-0.8,1.3-1.6,1.9-2.5
			C12.8,13.7,12.5,13.4,12.4,13.6z"/>
		<path class="st0" d="M13.9,16.5c0.2-0.6,0.3-1.3,0.5-1.9c0.1-0.3-0.3-0.4-0.4-0.2c-0.3,0.6-0.5,1.2-0.6,1.9
			C13.2,16.6,13.8,17,13.9,16.5z"/>
		<path class="st0" d="M9.1,13.9c-0.6,0.1-1.9,0.7-2.3-0.2c-0.2-0.4-0.2-0.8-0.4-1.2c-0.1-0.1-0.2-0.1-0.3-0.1c0,0-0.1,0-0.1,0.1
			c-0.4,0.5-0.7,1.1-0.8,1.8c-0.5,0.2-2,0.5-1.8,1.3c0.1,0.4,0.7,0.7,1,0.9c0.8,0.7,0.5,1.8,0.7,2.8c0,0.1,0.2,0.2,0.3,0.2
			c0,0,0,0,0.1,0c0.4-0.2,0.7-0.5,1-0.8C7,17.7,7.9,18,8.7,18C8.9,18,9,17.9,9,17.7c-0.1-0.7-0.9-1.7-0.4-2.3
			c0.4-0.4,0.6-0.8,0.8-1.3c0-0.1,0-0.3-0.1-0.3C9.2,13.9,9.1,13.9,9.1,13.9z M7.8,15.6c0,0.5,0.1,0.9,0.4,1.3
			c0.5,1.1-1,0.2-1.5,0.6s-0.8,0.9-1.2,1.2c0.1-0.7,0-1.5-0.3-2.2c-0.2-0.3-0.5-0.5-0.7-0.7c-0.8-0.7,0.4-1,0.9-1.1
			c0,0,0.1,0,0.1-0.1c0,0,0.1-0.1,0.1-0.1c0.1-0.5,0.3-1,0.6-1.5c0.2,0.6,0.3,1.3,0.8,1.6c0.6,0.2,1.2,0.1,1.8-0.1
			C8.4,14.9,8,15.1,7.8,15.6z"/>
		<path class="st0" d="M9.7,9.9C9.3,9.7,9,9.6,8.7,9.6v-1c0-0.1-0.1-0.2-0.2-0.2c-0.1,0-0.1,0-0.1,0.1C8,8.7,7.8,9,7.6,9.4H7.6
			C7.2,9.3,6.7,9.2,6.3,9.1C6.1,9.1,6,9.4,6.1,9.5c0.3,0.4,0.7,0.8,0.6,1.4c-0.1,0.3-0.2,0.6-0.2,0.9c0,0.1,0.2,0.3,0.3,0.2
			s0.5-0.4,0.8-0.6s0.5,0.5,0.7,0.7c0.1,0.1,0.2,0.1,0.3,0c0,0,0-0.1,0-0.1c0.1-0.4,0.2-0.8,0.2-1.2l0.7-0.3c0.1,0,0.2-0.1,0.2-0.2
			v-0.1C9.8,10,9.8,9.9,9.7,9.9z M8.7,10.3c-0.1,0-0.2,0.1-0.2,0.2c0,0.3,0,0.5,0,0.8c-0.1-0.3-0.3-0.6-0.6-0.6
			c-0.3,0-0.6,0.2-0.8,0.4c0.1-0.3,0.2-0.6,0.1-0.9C7.2,10,7,9.8,6.9,9.6l0.6,0.2h0.1c0.1,0.1,0.2,0.1,0.3,0C8,9.5,8.1,9.3,8.3,9.1
			v0.7c0,0.1,0.1,0.2,0.1,0.2C8.6,10,8.8,10,9,10.1h0.2L8.7,10.3z"/>
		<path class="st0" d="M3.6,11.9c-0.2-0.1-0.8-0.1-0.8-0.4s0.3-0.9,0.4-1.4C3.2,10,3,9.8,2.9,10c-0.3,0.4-0.7,0.7-1,1.1l0,0
			c-0.6-0.1-1-0.6-1.6-0.5c-0.1,0-0.3,0-0.3,0.2c0,0.1,0,0.2,0.1,0.2c0.3,0.5,0.6,0.9,0.9,1.3c-0.4,0.2-0.7,0.5-0.8,0.9
			c0,0.1,0.1,0.3,0.2,0.3c0,0,0.1,0,0.1,0c0.4-0.1,0.8-0.2,1.2-0.3c0.1,0,0.3,1.2,0.4,1.4c0.1,0.1,0.2,0.2,0.3,0.1
			c0.1,0,0.1-0.1,0.1-0.2c0-0.6,0.2-1.2,0.2-1.8c0.3-0.1,0.6-0.2,0.9-0.4c0.1,0,0.2-0.1,0.2-0.2C3.8,12,3.7,11.9,3.6,11.9z
			 M2.4,12.3c-0.1,0-0.2,0.1-0.2,0.2c0,0.2,0,0.4-0.1,0.5c0-0.2-0.2-0.3-0.3-0.3c-0.3,0-0.6,0-0.9,0.1c0.1-0.1,0.3-0.1,0.4-0.2
			c0.1-0.1,0.1-0.2,0.1-0.3c-0.2-0.4-0.4-0.7-0.6-1.1c0.3,0.1,0.5,0.3,0.9,0.4c0,0.1,0.1,0.2,0.2,0.1c0,0,0.1,0,0.1-0.1
			c0.1-0.2,0.3-0.4,0.5-0.6c-0.1,0.3-0.2,0.6-0.1,0.9c0.1,0.2,0.2,0.3,0.4,0.3L2.4,12.3z"/>
	</g>
</g>
</svg>
