<?xml version="1.0" encoding="utf-8"?>
<!-- Generator: Adobe Illustrator 22.0.1, SVG Export Plug-In . SVG Version: 6.00 Build 0)  -->
<svg version="1.1" id="Layer_1" xmlns="http://www.w3.org/2000/svg" xmlns:xlink="http://www.w3.org/1999/xlink" x="0px" y="0px"
	 viewBox="0 0 17.7 17.4" style="enable-background:new 0 0 17.7 17.4;" xml:space="preserve">
<style type="text/css">
	.st0{fill:#FFFFFF;}
</style>
<title>Asset 49</title>
<g id="Layer_2_1_">
	<g id="Layer_1-2">
		<path class="st0" d="M17,8.7c0.7-0.8,0.9-2,0.4-2.9c-0.2-0.3-1-1.5-1.5-1.2c-0.1-0.9-0.3-1.8-0.4-2.6c-0.1-0.7-0.5-2-1.4-2
			c-1.3,0-2.2,1.2-3,2.1C9.9,3.7,7.7,3.9,5.8,4.4C4.7,3.6,2.5,4.5,1.5,5.3c-1.9,1.5-1.9,4-0.8,6c0.3,0.4,0.6,0.7,1,1
			c0.1,0.6,0.5,0.8,0.9,1.3c1,0.9,0.5,2.5,0.6,3.6c0,0.2,0.1,0.3,0.3,0.3c0.5,0,0.9,0,1.4-0.1c0.2,0,0.3-0.1,0.3-0.3
			c0.1-0.8,0-1.6,0.1-2.3c-0.1-0.6,0-1.2,0.2-1.8c0,0,0-0.1,0-0.1l0.3-0.1c0.4,0.2,0.9,0.2,1.4,0.2c1-0.1,2-0.1,3,0
			c0.9,0.1,1.8,0.2,2.6,0.2c1,0,2,0.3,2.8,0.8c2.1,1.1,1.3-3.4,0.9-5.2c0,0.2,0.2,0.2,0.4,0.2C16.9,8.8,17,8.8,17,8.7z M16,5.2
			c0.4-0.3,0.9,1,1,1.2c0.2,0.7,0,1.4-0.5,1.9c-0.1,0-0.1,0.1-0.1,0.2c-0.1-0.3-0.1-0.5-0.1-0.6L16,5.2L16,5.2z M4.7,14.2
			c0,0.9,0,1.7-0.1,2.6c-0.3,0-0.6,0.1-0.8,0.1c0.1-0.9,0-1.7-0.1-2.6c-0.1-0.3-0.2-0.6-0.5-0.9c-0.3-0.3-0.6-0.5-0.9-0.8
			c0.8,0.3,1.6,0.4,2.5,0.3C4.7,13.3,4.7,13.8,4.7,14.2L4.7,14.2z M6.1,11.9L6.1,11.9L5.8,12l0,0c-0.1,0-0.3,0-0.3,0.1
			c-1.5,0.6-3.3,0.1-4.3-1.2C0.1,9.3,0.3,7.2,1.7,5.8c0.7-0.6,1.5-1,2.4-1.1C5.8,4.4,5.8,5.8,5.8,7C5.8,8.4,7,10.7,6.1,11.9
			L6.1,11.9z M15.6,13.1c-0.5-0.3-1-0.5-1.5-0.6c-1.3-0.3-2.9-0.1-4.2-0.3C9.3,12,8.8,12,8.2,12c-0.5,0.1-1.1,0.1-1.6,0.1
			C6.9,11.5,7,10.7,6.9,10C6.8,9.4,6.6,8.8,6.5,8.1C6.3,7.3,6.4,6.4,6.3,5.5c0-0.3-0.1-0.5-0.2-0.7c2.3-0.1,4.4-1.2,5.9-2.8
			c0.4-0.5,0.9-0.9,1.4-1.3C14.6,0,14.9,1.6,15,2.2c0.4,1.7,0.6,3.5,0.8,5.3c0.2,1.3,0.3,2.6,0.6,3.9C16.4,11.6,16.9,13.8,15.6,13.1
			L15.6,13.1z"/>
	</g>
</g>
</svg>
