<?xml version="1.0" encoding="utf-8"?>
<!-- Generator: Adobe Illustrator 22.0.1, SVG Export Plug-In . SVG Version: 6.00 Build 0)  -->
<svg version="1.1" id="Layer_1" xmlns="http://www.w3.org/2000/svg" xmlns:xlink="http://www.w3.org/1999/xlink" x="0px" y="0px"
	 viewBox="0 0 500 500" style="enable-background:new 0 0 500 500;" xml:space="preserve">
<style type="text/css">
	.st0{fill:none;stroke:#191919;stroke-width:1.432;stroke-miterlimit:10;}
</style>
<g>
	<path class="st0" d="M497.8,250c0,136.9-111,247.8-247.8,247.8S2.2,386.9,2.2,250S113.1,2.2,250,2.2S497.8,113.1,497.8,250"/>
	<path class="st0" d="M102.3,126.4h-5l1.4-7.5H90l-3.7,21c-0.2,1.2-0.4,2.3-0.4,3.4c0,3,1.3,5.7,6.8,5.7c2.6,0,5.4-0.8,7-1.6l-1-5.4
		c-0.7,0.4-1.4,0.6-2,0.6c-1,0-1.9-0.3-1.9-1.6c0-0.3,0-0.8,0.1-1.2l1.2-6.8h5L102.3,126.4z M123.4,134.1c0.2-1.2,0.3-2.2,0.3-3
		c0-3.5-2-5.3-5.8-5.3c-1.7,0-3.2,0.5-4.3,1l1.4-7.9h-8.5l-5.2,29.4h8.6l2.5-13.9c0.3-1.4,0.8-2.1,1.9-2.1c0.6,0,0.8,0.4,0.8,1.2
		c0,0.3-0.1,0.6-0.1,1l-2.4,13.9h8.6L123.4,134.1z M120.6,278.8c4.6,0,6.4,4.8,6.4,11.6c0,11-5.2,31.3-14,31.3c-0.8,0-2.2,0-4.1-0.5
		l6.7-38C116.1,280.3,118.2,278.8,120.6,278.8 M162.7,309.6c0-11.3,4.6-31.3,14.6-31.3c1.1,0,2.2,0.2,3.4,0.6l-6.7,37.7
		c-1.1,2.2-3.1,4.1-5.8,4.1C164.3,320.7,162.7,316.1,162.7,309.6 M204.9,327.3l0.1-1.7c2.7-8.1,8.4-14,13.1-14
		c2.2,0,3.7,1.4,3.7,3.7C221.7,321.1,214.2,325.9,204.9,327.3 M343.5,402.2c0-6,3.8-11.4,7.9-15.6c2.4-2.4,4.8-4.3,6.7-5.6
		l-2.9,15.9c-1.3,7-3.2,9.9-7.5,9.9C345,406.8,343.5,405.5,343.5,402.2 M274,287.3c1.9-8.8,5.9-13.2,9.7-14.5
		c0.8-0.3,1.4-0.3,2.2-0.3c2.2,0,3.5,1.4,3.5,3.5C289.4,280.7,283.4,286.5,274,287.3 M119.8,259.6l5.1-28.9H92.8L73.9,337.3
		c6.8,3.3,20.8,6.4,33.4,6.4c11.9,0,21.9-2.9,29.8-8.1c3.9,4.9,9.9,8.1,18.8,8.1c2.7,0,5.2-0.3,7.6-1.1c2.4-0.7,4.5-1.7,6.5-3.1
		l-6,34.1h32.3l5.7-32.4l1-0.2h1l8.1,32.6h35.3L235,334c4-2,8-4.8,11.5-8.2c4.5,6.1,11.6,10.3,21.9,11.5l-8.8,49.9h32.2l8.8-49.4
		c1.1-6.2,5.3-8.4,10.8-8.4c3.6,0,6.7,0,12.9,3.7l-3.8,21.9c-0.3,1.9-0.5,3.7-0.6,5.4c-0.6,10.5,3.7,17.1,15.1,19.7
		c-16.1,10.5-20,19.1-20,29.4c0,11.8,9.2,20.2,27.3,20.2c24.8,0,40.2-14.8,46.4-43.5c1-4.5,3.5-18.9,4.1-22.2l10.3-58.6h-32.3
		l-8.7,49.6c-0.9,5.1-3.2,7.8-6.4,7.8c-2.9,0-3.7-1.6-3.5-4.4c0-1.1,0.2-2.4,0.5-3.8l8.6-49.1h-30c-3.5-2.2-8.6-3-12.7-3
		c-3,0-6.9,1-10.9,3.5v-0.1c-8.8,5.7-17.5,8.6-24.1,8.6c-6.9,0-10.7-3-11.2-7.8c18.2-1.7,45.1-7.7,45.1-33.8
		c0-15-10.2-22.3-26.8-22.3c-26.2,0-43,18.2-48.4,39.4c-1.5-0.3-3-0.8-4.5-0.8c-12.7,0-22.3,6.2-28.9,16.9l-0.5-0.2l7.6-42.4h-0.2
		l0,0c-12.9-5.2-25.3-6.8-32.1-6.8c-12,0-22.2,3.2-30.3,8.7c-4.3-5.6-10.8-8.5-19.1-8.5C127.9,256.4,123,258,119.8,259.6
		 M138.1,132.6c0,1.3-1.6,2.8-4.1,3c0.5-2.3,1.6-3.5,2.6-3.9c0.2-0.1,0.4-0.1,0.6-0.1C137.8,131.7,138.1,132.1,138.1,132.6
		 M145.5,131.7c0-4-2.7-5.9-7.1-5.9c-8.6,0-13.4,7.3-13.4,14.4c0,5,2.6,8.9,9.1,8.9c5.3,0,8.7-2.1,9.3-2.5L142,141
		c-1.8,1-3.8,1.7-5.5,1.7c-1.8,0-2.8-0.8-3-2.1C138.4,140.2,145.5,138.6,145.5,131.7 M435.9,210.9c0,4.8-6,10.5-15.4,11.3
		c1.9-8.7,5.9-13.2,9.7-14.5c0.8-0.3,1.4-0.3,2.2-0.3C434.6,207.4,435.9,208.8,435.9,210.9 M463.7,207.4c0-14.9-10.2-22.2-26.7-22.2
		c-19.7,0-34.2,10.4-42.4,24.5c-2-0.4-4-0.6-5.8-0.6c-5.6,0-14,2.7-20.5,13.5l-0.6-11h-12l9.8-55.9h-32.1l-9.2,52.4
		c-0.8,4.3-3.2,7.6-6.5,7.6c-3,0-3.7-1.9-3.3-5.2c0.2-1.1,0.3-2.4,0.5-3.7l9.1-51.2h-30.4l0,0h-27l5.1-28.3h-1.8l0.1-0.3h-32.1
		l-9.2,52.4c-0.8,4.3-3.2,7.6-6.5,7.6c-3,0-3.7-1.9-3.3-5.2c0.2-1.1,0.3-2.4,0.5-3.7l9.1-51.2h-21.8H196h-10.3l1.1-6.5
		c1.1-5.6,4-6.5,7.2-6.5c2.5,0,8.1,1.4,13.4,4.5l10.3-20.2c-6.8-4.3-18-7.5-28-7.5c-26.5,0-32.6,17.3-35.4,33.4l-20.8,118.4h31.9
		l15.9-90.6h10.4l-5.2,29.7c-0.5,3-0.8,5.9-0.8,8.4c-0.2,14.2,7.5,21.2,23.2,21.2c6.3,0,11.8-2.3,16.7-5.9l-0.2,1
		c-0.8,4.5-1.4,8.6-1.4,12.7c0,11.1,4.8,21.3,25.7,21.3c9.9,0,20.3-2.9,26.1-6l-3.7-20.2c-2.7,1.4-5.4,2.2-7.6,2.2c-3.8,0-7-1-7.3-6
		c0-1.1,0.2-3,0.3-4.5l4.6-25.4h25.3l-5.2,29.9c-0.5,3-0.8,5.9-0.8,8.4c-0.2,14.1,7.5,21.1,23.2,21.1c7.9,0,14.9-2.9,20.5-8.6h1v6.5
		h13.8l-9.8,55.9h32.1l8.7-49.3c1.1-6.2,5.2-8.4,10.8-8.4c1.8,0,3.6,0.3,5.2,0.7c0,0.8-0.2,1.5-0.2,2.3c0,18.9,9.9,33.2,34.2,33.2
		c19.7,0,32.6-7.8,34.9-9.4l-5.2-20.7c-6.7,3.8-14.1,6.5-20.7,6.5c-6.8,0-10.6-3-11.1-7.8C436.9,239.3,463.7,233.5,463.7,207.4"/>
</g>
</svg>
