<?xml version="1.0" encoding="utf-8"?>
<!-- Generator: Adobe Illustrator 22.0.1, SVG Export Plug-In . SVG Version: 6.00 Build 0)  -->
<svg version="1.1" id="Layer_1" xmlns="http://www.w3.org/2000/svg" xmlns:xlink="http://www.w3.org/1999/xlink" x="0px" y="0px"
	 viewBox="0 0 500 500" style="enable-background:new 0 0 500 500;" xml:space="preserve">
<style type="text/css">
	.st0{fill:none;stroke:#191919;stroke-width:1.4324;}
</style>
<g>
	<path class="st0" d="M497.8,250c0,136.9-111,247.8-247.8,247.8S2.2,386.9,2.2,250S113.1,2.2,250,2.2S497.8,113.1,497.8,250"/>
	<g>
		<path class="st0" d="M135.9,134.1c5,0,8.3-2,8.9-2.4l-1.3-5.2c-1.7,1-3.6,1.6-5.2,1.6c-1.7,0-2.7-0.8-2.8-2
			c4.6-0.4,11.4-1.9,11.4-8.5c0-3.8-2.6-5.6-6.8-5.6c-8.1,0-12.8,6.9-12.8,13.7C127.3,130.5,129.8,134.1,135.9,134.1z M138.3,117.7
			c0.2-0.1,0.4-0.1,0.6-0.1c0.6,0,0.9,0.4,0.9,0.9c0,1.2-1.5,2.7-3.9,2.9C136.3,119.2,137.4,118,138.3,117.7z"/>
		<path class="st0" d="M96.7,134.1c2.5,0,5.2-0.7,6.6-1.5l-0.9-5.1c-0.7,0.4-1.4,0.6-1.9,0.6c-1,0-1.8-0.2-1.8-1.5
			c0-0.3,0-0.8,0.1-1.1l1.2-6.4h4.8l1.1-6.3h-4.8l1.3-7.2H94l-3.5,20c-0.2,1.1-0.4,2.2-0.4,3.2C90.2,131.5,91.4,134.1,96.7,134.1z"
			/>
		<path class="st0" d="M112.9,133.5l2.3-13.2c0.2-1.3,0.8-2,1.8-2c0.6,0,0.8,0.4,0.7,1.1c0,0.2-0.1,0.6-0.1,0.9l-2.3,13.2h8.1
			l2.4-13.6c0.2-1.1,0.3-2.1,0.3-2.9c0-3.3-1.9-5-5.5-5c-1.7,0-3.1,0.4-4.1,1l1.3-7.5h-8.1l-5,28H112.9z"/>
		<path class="st0" d="M434.3,348.5c-7.5-3.3-12.3-4.4-12.3-8.4c0-1.6,1.2-3.8,4.9-3.8c3.6,0,8.9,2.4,15.2,7.4l15.4-16.1
			c-6.7-7.2-19.4-12.3-31.7-12.3c-11.4,0-21,3.6-27.1,10.2l2.2-12.2c1-5.8,4.9-7.8,10.1-7.8c3.9,0,7.4,1.2,10.4,2.7l8.1-25
			c-3.3-2.1-8-2.8-11.8-2.8c-5.2,0-13,2.5-19.1,12.6l-0.6-10.2h-23.8l-0.6,16l-2.1,12.2c-4.1-5.4-11.4-8.1-21.1-8.1
			c-14.8,0-26.4,6.3-34.4,15.6l8.3-46.5h28.6l8.3-46.8c1-5.9,5-8,10.3-8c1.7,0,3.4,0.3,5,0.7c0,0.7-0.2,1.5-0.2,2.2
			c0,18,9.4,31.6,32.5,31.6c18.7,0,31-7.4,33.2-8.9l-5-19.7c-6.3,3.6-13.4,6.2-19.7,6.2c-6.5,0-10.1-2.9-10.6-7.4
			c17.2-1.7,42.8-7.3,42.8-32c0-14.2-9.7-21.2-25.4-21.2c-18.8,0-32.5,9.9-40.4,23.3c-1.9-0.3-3.8-0.6-5.5-0.6
			c-5.3,0-13.3,2.6-19.5,12.8l-0.6-10.4h-11.4l9.3-53.2h-30.5l-8.8,49.9c-0.7,4.1-3,7.3-6.2,7.3c-2.9,0-3.5-1.8-3.2-5
			c0.1-1.1,0.3-2.3,0.5-3.5l8.6-48.7h-28.9l0,0h-25.7l4.8-26.9h-1.7l0.1-0.3h-30.5l-8.8,49.9c-0.8,4.1-3,7.2-6.2,7.2
			c-2.9,0-3.5-1.8-3.2-5c0.2-1.1,0.3-2.3,0.5-3.5l8.6-48.7h-20.7h-9.8H185l1-6.2c1.1-5.3,3.8-6.2,6.8-6.2c2.4,0,7.7,1.4,12.7,4.2
			l9.8-19.2c-6.5-4.1-17.1-7.1-26.6-7.1c-25.2,0-31,16.5-33.7,31.7l-19.8,112.6h30.4l15.1-86.1h9.9l-4.9,28.2
			c-0.5,2.9-0.8,5.6-0.8,8c-0.2,13.5,7.1,20.1,22.1,20.1c6,0,11.2-2.2,15.8-5.7l-0.2,0.9c-0.8,4.2-1.4,8.2-1.4,12.1
			c0,10.6,4.5,20.3,24.5,20.3c9.4,0,19.3-2.7,24.8-5.7L267,196c-2.6,1.4-5.1,2.1-7.3,2.1c-3.6,0-6.6-0.9-6.9-5.7
			c0-1.1,0.1-2.9,0.3-4.2l4.4-24.2h24l-5,28.4c-0.4,2.9-0.7,5.6-0.7,8c-0.1,13.4,7.1,20.1,22.1,20.1c7.6,0,14.2-2.7,19.5-8.2h0.9
			v6.2h13.1L326,250h-27.5l-4.3,24.1c-0.6,0-2.7-0.1-4.7-0.1c-13.9,0-25,5.2-32.9,13.9c0.2-3.3,0.5-6.4,0.5-10
			c0-4.1-0.3-12.1-0.6-15.4H227c0.3,3.3,0.3,11.2,0.3,14.9c0,23.5-4.6,40.8-11.5,40.8c-2.1,0-2.5-1-2.5-2.7c0-0.7,0.3-2.5,0.4-3.6
			l8.9-49.6H193l-8.7,49.7c-0.7,4-2.2,6.1-4.9,6.1c-1.6,0-2.5-0.6-2.7-2.1c-0.1-0.7,0-1.8,0.3-3l8.9-50.7H156l-3.1,17.5
			c-6.2-9.7-17.8-12.1-25.9-12.1c-11.2,0-24.3,3.4-33.6,14.2l2.5-13.9c1-5.8,4.9-7.8,10.1-7.8c3.8,0,7.4,1.2,10.4,2.7l8.1-25
			c-3.3-2.1-8-2.8-11.8-2.8c-5.2,0-13,2.5-19.1,12.6L93,237.5H69.1l-0.4,9.6c-6.5,3.9-10.4,5.5-15.2,5.5c-6.2,0-9.6-4.4-9.6-12.7
			c0-10.8,4-22,13.3-22c4.9,0,7.3,4.1,9.5,8.3L86.5,213c-5.5-12.9-17-18.4-29.7-18.5C35,194.2,13.4,209.6,13.4,243
			c0,21.3,12,32.9,31.4,32.9c7.6,0,14.3-1.3,20.4-3.6L57.8,314h23.8c-0.2,2-0.5,4.2-0.5,6c0,18.8,11,29,30.2,29
			c14.8,0,28.3-5.7,36.9-19.1c3.2,7.2,10.8,10.8,22.2,10.8c9.3,0,16.9-2.8,23.8-8.6c3.4,4.7,9.3,8.6,20.1,8.6
			c12.2,0,21.7-4.1,28.7-11.9c0.4,12.3,5.6,26.4,24.5,26.4c8.7,0,15.7-4.9,18.2-8.9c0.3,0,0.6,0,0.9,0l0.4,6.4h16.4
			c0,0.1,0,0.1,0,0.2c0,17.6,9.2,30.9,31.8,30.9c18.4,0,30.3-7.2,32.6-8.7l-4.1-16.1h29.1l1-5.4c2.9,6.7,8.8,9.4,14.1,11.4
			c5.6,2.1,10.7,3.8,10.7,6.8c0,1.9-1.3,3.1-4.4,3.1c-6.2,0-16.3-4.4-21.8-8L381.7,387c4.6,3.6,16.4,9.3,31.4,9.3
			c21.3,0,35.8-9.6,35.8-27.2C448.8,357.1,441.8,351.8,434.3,348.5z M417.5,189.9c0.8-0.3,1.4-0.3,2.1-0.3c2.1,0,3.3,1.4,3.3,3.3
			c0,4.5-5.7,10-14.7,10.7C410.1,195.4,413.9,191.1,417.5,189.9z M125.2,309.6c-2.4,14.4-5,18.1-9.5,18.1c-3.3,0-4.3-2.4-4.3-7.3
			c0-3.7,0.9-9.8,1.8-15.2c1.9-10.8,4.7-16.1,9-16.1c3,0,4.3,2.2,4.3,7.3C126.6,299.4,126.1,304.2,125.2,309.6z M284.7,328.9
			c-0.4,2.5-2.5,5.2-6.2,5.2c-3.8,0-5.3-3.3-5.3-9.8c0-8.7,2.5-20,7.4-25.3c2.7-2.8,5.8-4.7,10.1-4L284.7,328.9z M343.9,323.7
			c0.7-0.3,1.3-0.3,2.1-0.3c2.1,0,3.3,1.3,3.3,3.3c0,4.4-5.6,9.8-14.3,10.5C336.7,329,340.4,324.9,343.9,323.7z M362.9,355.9
			c-6.2,3.6-13.2,6.1-19.2,6.1c-6.4,0-9.9-2.8-10.4-7.3c10.2-1,23.4-3.4,32.2-10.5l-2.3,13L362.9,355.9z"/>
	</g>
</g>
</svg>
