<?xml version="1.0" encoding="utf-8"?>
<!-- Generator: Adobe Illustrator 22.0.1, SVG Export Plug-In . SVG Version: 6.00 Build 0)  -->
<svg version="1.1" id="Layer_1" xmlns="http://www.w3.org/2000/svg" xmlns:xlink="http://www.w3.org/1999/xlink" x="0px" y="0px"
	 viewBox="0 0 30 30" style="enable-background:new 0 0 30 30;" xml:space="preserve">
<style type="text/css">
	.st0{fill:#010101;}
</style>
<title>Asset 8</title>
<g id="Layer_2_1_">
	<g id="Layer_1-2">
		<path class="st0" d="M23.8,27.3l-0.1-0.1c2.3-3,2.9-7,1.3-10.4s-5-5.7-8.7-5.9c-4.3-0.3-8,2.2-10.5,5.5c-2.6,3.5-1.9,8.1,0.3,11.7
			C6,28.2,6,28.3,6,28.4v0.1c0.1,1.2,1,1.4,2,1.5c2.3,0.1,4.7,0,7-0.1c2.5-0.1,4.9-0.3,7.3-0.7c0.7-0.1,1.9-0.6,1.2-1.5
			C23.8,27.6,23.8,27.5,23.8,27.3L23.8,27.3z M6,17c2.1-3.3,5.6-5.4,9.5-5.7c3.6,0,7,1.9,8.8,5.1c1.8,3.4,1.4,7.6-1.1,10.6
			c0,0.1,0,0.2,0,0.2c-2.5,0-5.1,0.6-7.7,0.7C13.3,28,11.1,28,8.9,28c0.1-0.2,0.2-0.4,0.4-0.5c0.1-0.1,0.1-0.2,0.1-0.3l-0.1-0.1
			C9.4,27,9.4,27,9.5,26.9c0.1-0.1,0-0.3-0.1-0.4c-0.1-0.1-0.2-0.1-0.3,0l-0.2,0.3c-0.2,0.2-0.4,0.4-0.5,0.6c-0.1,0.1-0.1,0.2,0,0.3
			c0,0.1-0.1,0.2-0.1,0.3c0,0,0,0,0,0.1H6.6V28C4.5,24.6,3.8,20.4,6,17z M21.6,28.7l-2.3,0.2c-1.6,0.2-3.2,0.3-4.8,0.4
			c-1.4,0.1-2.9,0.2-4.4,0.2c-0.9,0-3.5,0.3-3.7-1c2.8,0,5.6,0,8.4-0.1s5.6-0.8,8.3-0.7c-0.1,0.1-0.1,0.2,0,0.3
			C23.7,28.5,21.7,28.7,21.6,28.7z"/>
		<path class="st0" d="M13.4,21.4c0.2,0.8,1,1.2,1.8,1c0.3-0.1,0.6-0.2,0.7-0.5c0.1,0.1,0.3,0.1,0.4,0l0,0c0.8-1.4,1.9-2.7,2.2-4.3
			c0-0.2-0.1-0.4-0.3-0.3c-0.8,0.3-1.5,0.8-2.1,1.4c-0.5,0.3-1.1,0.6-1.7,0.9c-0.5-0.1-1,0.1-1.3,0.4c-0.4,0.4-0.4,1-0.1,1.4
			C13.1,21.5,13.2,21.5,13.4,21.4L13.4,21.4z M16.3,19.2c0.5-0.4,1-0.8,1.6-1.1c-0.4,1.2-1,2.3-1.8,3.3c-0.1-0.7-0.5-1.2-1.1-1.5
			C15.4,19.6,15.9,19.4,16.3,19.2z M13.7,20.2c0.1,0,0.1-0.1,0.2-0.1c0,0.1,0.2,0.2,0.4,0.2c0,0,0.1,0,0.1-0.1l0.1-0.1
			c0.2,0.1,0.3,0.1,0.5,0.2c0.4,0.2,0.8,0.9,0.6,1.3C15.4,22,14,21.9,14,21.2c0-0.1-0.1-0.3-0.3-0.2c-0.1,0-0.1,0-0.2,0.1l0,0
			C13.2,20.8,13.3,20.4,13.7,20.2C13.6,20.2,13.6,20.2,13.7,20.2L13.7,20.2z"/>
		<path class="st0" d="M13.9,14.3c0.2-0.2,0.3-0.5,0.3-0.8c0-0.3,0-0.7-0.1-1c0-0.1-0.1-0.3-0.3-0.2c-0.1,0-0.2,0.1-0.2,0.1
			c-0.1,0.1-0.1,0.3-0.1,0.5V13c0,0.4,0,0.7,0.1,1.1C13.6,14.3,13.7,14.3,13.9,14.3L13.9,14.3z"/>
		<path class="st0" d="M8.5,22.4c-1,0-1.9,0.2-2.9,0.2c-0.1,0-0.2,0.2-0.2,0.3s0.1,0.2,0.2,0.2h0.5c0,0.2,0.1,0.4,0.3,0.4
			c0.8-0.1,1.5-0.3,2.2-0.5c0.1,0,0.3-0.1,0.2-0.3C8.8,22.5,8.6,22.4,8.5,22.4z"/>
		<path class="st0" d="M21.6,26.7c-0.2-0.1-0.5-0.2-0.7-0.3c-0.2-0.2-0.6,0.1-0.4,0.4c0.3,0.2,0.6,0.4,0.9,0.5
			C21.8,27.3,21.9,26.8,21.6,26.7z"/>
		<path class="st0" d="M8.4,16.5l0.2,0.2c0.2,0.3,0.5,0.5,0.8,0.8c0.3,0.3,0.6-0.1,0.4-0.4L9.7,17c0.1-0.1,0.1-0.2,0-0.3l0,0
			c-0.4-0.4-0.7-0.8-1.2-1.1c-0.1-0.1-0.2-0.1-0.3,0c-0.1,0-0.3,0.1-0.2,0.3C8.1,16.1,8.2,16.3,8.4,16.5z"/>
		<path class="st0" d="M19.9,16L19.9,16L19.9,16c0.2,0.1,0.3,0.2,0.4,0.2h0.1c0.6,0,1.1-0.4,1.1-1c0.1-0.2,0.1-0.5,0.1-0.8v-0.1
			c0-0.3-0.1-0.5-0.3-0.7c-0.4-0.3-1,0-1.3,0.3c-0.1,0.1-0.2,0.3-0.2,0.4c-0.3,0.3-0.4,0.8-0.2,1.2C19.6,15.7,19.8,15.8,19.9,16z"/>
		<path class="st0" d="M6.6,20.8c0.4,0,0.8,0.1,1.2,0.1c0.3,0.1,0.4-0.4,0.1-0.5c-0.5-0.1-0.9-0.1-1.4-0.1
			C6.2,20.2,6.2,20.8,6.6,20.8z"/>
		<path class="st0" d="M7.1,19.1h0.7c0.3,0,0.3-0.5,0-0.5H7.1C6.8,18.6,6.8,19.1,7.1,19.1z"/>
		<path class="st0" d="M11.3,15.4c0.1,0,0.3-0.1,0.3-0.2c0-0.1-0.1-0.3-0.2-0.3l0,0c-0.3-0.1-0.5-0.3-0.7-0.6
			c-0.1-0.3-0.6,0-0.4,0.3C10.5,15,10.9,15.3,11.3,15.4z"/>
		<path class="st0" d="M12,14.6c0.2,0.3,0.6,0,0.4-0.3c-0.1-0.2-0.3-0.5-0.5-0.7c-0.1-0.3-0.5,0-0.4,0.2
			C11.7,14.1,11.8,14.4,12,14.6z"/>
		<path class="st0" d="M16.5,13.7c-0.1-0.3-0.1-0.6,0-0.8c0-0.1-0.1-0.3-0.2-0.3c-0.1,0-0.2,0.1-0.3,0.2c-0.1,0.4-0.1,0.7,0,1.1
			C16.1,14.1,16.6,14,16.5,13.7z"/>
		<path class="st0" d="M18.3,13.9c0.1-0.2,0.1-0.5,0.3-0.7c0.1-0.1,0.1-0.3,0-0.4c-0.1-0.1-0.3-0.1-0.4,0l0,0
			C18,13,18,13.3,17.8,13.6C17.6,13.9,18.1,14.2,18.3,13.9z"/>
		<path class="st0" d="M21.9,17.1c0.2-0.1,0.3-0.1,0.5-0.1c0.1,0,0.3-0.1,0.3-0.3c0-0.1-0.1-0.3-0.3-0.3c-0.2,0-0.4,0.1-0.6,0.1
			C21.4,16.7,21.6,17.2,21.9,17.1z"/>
		<path class="st0" d="M22.3,18.9c0.2,0,0.5-0.1,0.7-0.1s0.3-0.5,0-0.5s-0.5,0.1-0.7,0.1c-0.1,0-0.3,0.1-0.3,0.3
			C22.1,18.8,22.2,18.9,22.3,18.9z"/>
		<path class="st0" d="M22.2,24.5c-0.2,0-0.4,0-0.6,0c-0.1,0-0.3,0.1-0.3,0.3c0,0.2,0.1,0.3,0.3,0.3l0,0c0.3,0,0.5,0,0.8-0.1
			c0.1-0.1,0.1-0.3,0-0.4C22.3,24.6,22.2,24.5,22.2,24.5z"/>
		<path class="st0" d="M23,22.9h-0.9c-0.1,0-0.2,0.2-0.2,0.3s0.1,0.2,0.2,0.2h0.8c0.1,0,0.2-0.2,0.2-0.3S23.1,22.9,23,22.9z"/>
		<path class="st0" d="M8.1,24.9c-0.4,0.1-0.7,0.2-1,0.4c-0.3,0.2,0,0.6,0.3,0.4c0.3-0.2,0.6-0.3,0.8-0.4
			C8.5,25.2,8.4,24.7,8.1,24.9z"/>
	</g>
</g>
</svg>
