<?xml version="1.0" encoding="utf-8"?>
<!-- Generator: Adobe Illustrator 22.0.1, SVG Export Plug-In . SVG Version: 6.00 Build 0)  -->
<svg version="1.1" id="Layer_1" xmlns="http://www.w3.org/2000/svg" xmlns:xlink="http://www.w3.org/1999/xlink" x="0px" y="0px"
	 viewBox="0 0 36.9 17.4" style="enable-background:new 0 0 36.9 17.4;" xml:space="preserve">
<style type="text/css">
	.st0{fill:#D4DE50;}
</style>
<g>
	<title>Asset 1</title>
	<g id="Layer_2_1_">
		<g id="Layer_1-2">
			<path class="st0" d="M36,8.1c-1.1-1.3-2.9-1.6-4.2-0.8c-0.2-2.1-1.4-3.5-3.6-3.4c-0.6,0-1.1,0.2-1.5,0.5c-1.7-1.8-3.8-3-6.2-3.7
				c-2.5-0.7-5.1-0.5-7.5,0.5C8.5,2.8,5.5,7,5.3,11.8c-0.6-0.5-1.4-0.6-2.1-0.2c-1,0.5-1.5,1.8-1,2.8c-0.6,0-1.5,0.1-1.7,0.7
				c-0.3,0.9,0.4,1.5,1.2,1.6l0.1,0.1c0.8,0.4,1.7,0.6,2.5,0.4c1.5-0.2,2.9-0.2,4.3,0c2.5,0.2,5.5,0.5,7.9-0.5
				c1.5-0.6,1.3-2.6,0.4-3.5c-1.1-1.2-2.8-1.1-4.2-0.7c0.8-4.1,8.5-7.3,10.8-3c-0.4,0.2-0.8,0.5-1.1,0.9c-0.6,0.7-0.6,1.7-0.1,2.5
				c0,0.1,0.1,0.3,0.2,0.3c2.4,0.6,4.8,0.4,7.3,0.6c2,0.1,4.2,0.2,5.8-1.2C36.8,11.3,37,9.4,36,8.1z M22,5.5
				c-2.2-0.5-4.4-0.7-6.6-0.4c-3.3,0.5-5.8,2.7-5.7,6.1C9.4,11.1,9,11,8.7,11c0-0.6,0.2-1.3,0.4-1.9c0.2-0.9,0.6-1.8,1.2-2.6
				c1-1.4,2.9-2,4.5-2.4c1.9-0.4,3.8-0.4,5.8-0.1c1.8,0.3,3.3,1.1,4.5,2.4C25,6.7,24.9,6.8,24.8,7C24.3,5.9,23.1,5.8,22,5.5z
				 M24.6,7.6c0,0.1,0,0.2-0.1,0.4c-2.3-2.2-6.1-2.1-8.9-1.4c-2.7,0.6-4.7,2.8-5,5.5c-0.2-0.2-0.4-0.4-0.6-0.6
				c0-1.3,0.4-2.6,1.1-3.6C12.2,6.8,13.5,6,15,5.8c1.9-0.4,3.8-0.3,5.6,0.1c1.1,0.2,3.2,0.3,3.7,1.5C24.4,7.5,24.5,7.6,24.6,7.6z
				 M20.4,3.5c-2.3-0.3-4.5-0.2-6.8,0.5c-2,0.4-3.5,1.7-4.5,3.3C8.7,8.2,8.5,9,8.3,9.9c-0.1,0.3-0.2,0.7-0.1,1.1
				c-0.5,0.1-0.9,0.2-1.2,0.4c0.5-4,3-7.9,7.2-8.8c2.3-0.4,4.5-0.3,6.7,0.4c1.9,0.4,4.4,1.1,5.4,2.9c-0.2,0-0.5,0.1-0.7,0.3
				C24.2,4.6,22.4,3.7,20.4,3.5z M12.9,1.8c2.2-0.9,4.5-1.2,6.8-0.7c2.5,0.5,4.6,1.7,6.4,3.5c-1.3-1-2.8-1.7-4.3-2
				C19.4,2,17,1.8,14.5,2.1c-4.6,0.7-7.7,5.3-7.9,9.7c-0.3,0.3-0.5,0.5-0.6,0.8l-0.3-0.3C5.9,7.7,8.7,3.5,12.9,1.8z M16.5,13.6
				c0.7,0.6,0.8,1.6,0.2,2.4c-0.1,0.2-0.3,0.3-0.5,0.4c-1.1,0.4-2.2,0.6-3.2,0.5c-1.9,0-3.6,0-5.5-0.2c-0.7-0.1-1.5-0.1-2.3-0.1
				c-1,0.3-2,0.3-2.9,0l-0.1-0.1H2H1.9c-0.6-0.4-0.9-1.4,0-1.5c0.2,0,0.5,0,0.7,0c0.1,0,0.3-0.1,0.3-0.2v-0.1
				c-0.5-1.1-0.3-2.2,1-2.6c0.8-0.3,1.5,0.5,2.1,1c0.1,0.1,0.3,0.1,0.4,0c0,0,0,0,0-0.1c0.4-1.2,1.7-1.8,2.9-1.4
				c0.8,0.3,1.4,1,1.5,1.9c0,0.1,0.2,0.2,0.3,0.2c0.4-0.2,0.8-0.3,1.2-0.5c0.1,0.1,0.2,0,0.3-0.1l0,0C13.8,12.6,15.4,12.7,16.5,13.6
				L16.5,13.6z M17.5,7.4c-2.2,0.7-5.2,2.8-5.3,5.3c-0.4,0.1-0.7,0.3-1,0.4c0-0.1,0-0.2-0.1-0.3c0-2.8,2-5.2,4.7-5.7
				c2.7-0.7,6.5-0.7,8.6,1.5c0,0,0.1,0.1,0.2,0.1c0,0.2,0,0.4,0,0.6c-0.2,0-0.3,0-0.5,0.1V9.2C22.8,6.9,19.7,6.6,17.5,7.4L17.5,7.4z
				 M33.2,13c-1.6,0.2-3,0.2-4.6,0c-2-0.2-3.8,0-5.8-0.5h-0.1c-0.4-0.6,0-1.4,0.3-2c0.3-0.6,1.3-0.8,2-0.8c0.1,0,0.3-0.1,0.3-0.3
				l0,0V9.3C25,9,25,8.7,25,8.3c0-0.7,0.3-1.5,0.8-2c0.5-0.5,1.1-0.8,1.8-0.8l-0.2-0.9c0.3-0.1,0.7-0.2,1-0.2c0.5,0,1.1,0,1.6,0.3
				c1.2,0.5,1.5,2,1.5,3c0,0.2,0.1,0.3,0.3,0.3h0.1c1.7-1,3.7-0.7,4.3,1.3S34.8,12.7,33.2,13L33.2,13z"/>
		</g>
	</g>
</g>
</svg>
