<?xml version="1.0" encoding="utf-8"?>
<!-- Generator: Adobe Illustrator 22.0.1, SVG Export Plug-In . SVG Version: 6.00 Build 0)  -->
<svg version="1.1" id="Layer_1" xmlns="http://www.w3.org/2000/svg" xmlns:xlink="http://www.w3.org/1999/xlink" x="0px" y="0px"
	 viewBox="0 0 20.5 19.7" style="enable-background:new 0 0 20.5 19.7;" xml:space="preserve">
<style type="text/css">
	.st0{fill:#D32424;}
</style>
<title>Asset 19</title>
<g id="Layer_2_1_">
	<g id="Layer_1-2">
		<path class="st0" d="M1,0.6C0.9,0.5,0.7,0.4,0.6,0.5c-0.1,0-0.1,0.1-0.1,0.2v0.1c0,0-0.1,0.1-0.1,0.2c0.1,4.4-1,9,1.7,12.9
			C4,16.7,9,17.1,12.2,16.4c0,0.3,0,0.6,0,0.9c0,0.6,0.1,1.2,0.1,1.8c0,0.2,0.2,0.4,0.4,0.2l4.1-3.2c1.2-0.9,2.2-1.9,3.3-3
			c0.1-0.1,0.1-0.3,0-0.4c-1.6-1.3-3.2-2.6-4.8-3.9c-0.9-0.7-1.9-2-3.1-2.3c-0.1,0-0.3,0.1-0.3,0.2c0,0.5,0,5-0.3,5
			c-1.9-0.1-3.5-0.1-4.3-2.1C6.9,8.4,6.8,7.1,6.8,5.8c0-1.7-0.2-3.4-0.4-5.1c0,0,0,0,0-0.1c0.1,0,0-0.2-0.2-0.2c0,0,0,0-0.1,0
			C4.4,0.4,2.7,0.6,1,0.6z M6.6,9.2c0.2,1,0.7,1.9,1.5,2.5c1.2,0.7,2.5,0.6,3.8,0.6c0.1,0,0.2-0.1,0.2-0.2c0.2-1.6,0.1-3.3,0.2-4.9
			c0.9,0.6,1.8,1.3,2.6,2.1c1.4,1.1,2.6,2.3,4,3.3c0.7,0.6,0.1,0.8-0.4,1.4c-0.6,0.6-1.4,1.2-2.1,1.7c-1.3,1-2.5,1.9-3.7,2.9
			c-0.1-0.5-0.1-1-0.1-1.5c0.1-0.4,0-0.8-0.2-1.1c-0.1-0.1-0.2-0.1-0.3-0.1c0,0-0.1,0-0.1,0.1c-3.4,0.7-8.1,0.1-10-3
			C0,9.4,1,4.9,1,1.1c1.6,0,3.3-0.2,5-0.2C6.3,3.7,6,6.5,6.6,9.2z"/>
	</g>
</g>
</svg>
