<?xml version="1.0" encoding="utf-8"?>
<!-- Generator: Adobe Illustrator 22.0.1, SVG Export Plug-In . SVG Version: 6.00 Build 0)  -->
<svg version="1.1" id="Layer_1" xmlns="http://www.w3.org/2000/svg" xmlns:xlink="http://www.w3.org/1999/xlink" x="0px" y="0px"
	 viewBox="0 0 22.5 20" style="enable-background:new 0 0 22.5 20;" xml:space="preserve">
<style type="text/css">
	.st0{fill:#FF4500;}
</style>
<title>Asset 22</title>
<g id="Layer_2_1_">
	<g id="Layer_1-2">
		<path class="st0" d="M6.2,16L6.2,16c0.3,0,0.4-0.1,0.4-0.3l0,0v-1.4c0-0.2-0.2-0.3-0.3-0.3c-0.9,0-1.8-0.2-2.7-0.2
			c-0.6,0-1.2,0-1.8,0c-0.1,0-0.2,0.1-0.3,0.2c-0.1,0-0.2,0.1-0.2,0.3c0,0.6-0.2,1.3,0.5,1.6C2.4,16.1,3,16.1,3.6,16
			c0.6,0,1.2,0,1.6,0c-0.6,0.2-0.6,1.1-0.6,1.6c-0.5,0-1,0-1.4,0c-0.4,0-0.9-0.3-1.2-0.1c-0.3,0.1-0.5,0.6-0.5,1.1
			c0,0.1,0.1,0.2,0.2,0.2l0,0C2,18.9,2.3,18.4,2,18.3c0.3,0.1,0.1-0.4,0.7-0.2c0.3,0,0.6,0.1,0.9,0.1c0.6,0,1.1,0,1.6,0
			c0.2,0,0.3-0.2,0.3-0.3v-0.7c0-0.6,1-0.8,1.1-0.1c0,0.6,0,1.2-0.1,1.7c-0.1,0.5-3.5-0.1-4-0.1s-0.3,0.6,0,0.6
			c0.9,0,1.8,0.1,2.7,0.2c0.3,0,0.8,0,1.2,0c0.9-0.2,0.7-1.4,0.7-2.1C6.9,16.8,6.8,16.2,6.2,16z M6,15.6c-0.9,0-1.8-0.1-2.7,0
			c-0.3,0-1.3,0.2-1.4-0.4c0-0.3,0-0.5,0-0.8c0.6,0,1.2-0.1,1.7-0.1c0.8,0,1.6,0.1,2.4,0.2V15.6z"/>
		<path class="st0" d="M7,10.1C6.5,9.9,6.3,9.4,5.7,9.6c-0.4,0.1-2.1,1.2-2.2,1.1c-0.9-1.2-1.8-1.6-3-0.6c-0.1,0.1-0.1,0.3,0,0.4
			c0.3,0.3,0.6,0.6,0.9,0.8c-0.5,0.1-0.7,0.4-0.6,1.2c0,0.2,0.2,0.3,0.3,0.3s0.1,0,0.1-0.1c-0.1,0.2,0,0.3,0.2,0.4h0.1
			c1.5,0,3.2,0.1,4.7,0.1c0.1,0,0.2-0.1,0.3-0.2c0.4-1.2-0.1-1.5-1-1.5c0.5-0.3,1-0.6,1.5-0.9C7.2,10.5,7.2,10.3,7,10.1
			C7.1,10.2,7,10.1,7,10.1z M4.6,11.5c-0.1,0.1-0.1,0.3,0.1,0.4c0.1,0,0.1,0.1,0.2,0.1c0.3,0,1.4-0.3,1.2,0.4
			c-0.1,0.5-0.7,0.2-1.1,0.2c-1.2,0-2.3-0.1-3.5-0.1c-0.1,0-0.1,0-0.2,0.1v-0.1c0-0.6,0.3-0.6,0.8-0.6c0.2,0,0.3-0.2,0.3-0.3
			s0-0.1-0.1-0.2c-0.4-0.4-0.8-0.7-1.2-1.1c1-0.7,1.6,0.3,2.1,0.9c0.1,0.1,0.2,0.2,0.3,0.1c0.6-0.3,1.2-0.5,1.6-0.9
			c0.6-0.4,0.8-0.3,1.1-0.1C5.6,10.7,5.1,11.1,4.6,11.5z"/>
		<path class="st0" d="M1,8.8c0,0.1,0.1,0.1,0.2,0.1C1.8,9,2.5,9,3,9c1.1,0.1,2.1,0.1,3.2,0.1c0.2,0,0.3-0.2,0.3-0.3
			c0-1.2,0.6-2.5-0.9-2.8c-0.4-0.1-0.8,0-1,0.3C4.6,6.4,4.5,6.6,4.5,6.8c0,0.1-0.2,1-0.2,0.5s0.2-1-0.2-1.2C3.8,5.9,3.4,5.8,3,5.9
			C2.8,6,2.5,6.3,2.5,6.5c-0.1,0.3-0.1,0.7-0.1,1C2.2,7.3,2.1,7.1,2.1,6.8s0-0.5,0-0.8c0-0.2-0.2-0.3-0.3-0.3
			c-1.5,0-1.3,1.7-1.3,2.9C0.5,9,0.8,9,1,8.8z M1.5,6.4c0,0.9,0,1.5,1.2,1.5C2.8,8,2.9,7.9,3,7.8C3,7.5,3,7.2,3,6.9
			c0-0.5,0.3-0.6,0.9-0.2c0,0.2,0,0.5,0,0.7C3.8,7.9,4.1,8.1,4.6,8.1c0.1,0,0.2-0.1,0.3-0.2C4.9,7.6,5,7.4,5,7.1
			c0.1-0.5,1.2-1.1,1.1,0c0,0.5-0.1,1-0.1,1.4c-1,0-2,0-3-0.1c-0.6,0-1.2,0-1.7-0.1c-0.1,0-0.2,0-0.3,0.1C1,7.8,0.9,6.7,1.5,6.4z"/>
		<path class="st0" d="M21.5,15.4L21.5,15.4c0.8-0.6,0.9-1.7,0.3-2.5c0-0.1-0.1-0.1-0.2-0.2l0,0c0.3-0.4,0.5-0.9,0.5-1.3
			c0-0.8-0.5-1.4-1.2-1.8c0.4-0.6,0.3-1.3-0.2-1.9c-0.4-0.4-1-0.7-1.5-0.7c-1.2,0-2.4,0.2-3.6,0.1c0.1-1.2,0.5-2.1,0.7-3.3
			c0-0.8-0.3-1.5-0.8-2.1c-0.7-1-1.7-1.4-2.9-1.2C12.2,0.6,12,0.8,12,1.2c0.1,1.3,1.7,1.9,0.4,3.5c-0.7,0.7-1.2,1.4-1.8,2.2
			C10.1,7.6,10,7.5,9.3,7.6c-0.6,0-1.2,0.1-1.7,0.1H7.5C7.3,7.6,7.2,7.8,7.2,7.9c0,1.8,0.2,3.6,0.3,5.5c0.1,1.8,0,3.9,0,5.9
			c0,0.3,0.4,0.3,0.6,0.1c0,0,0-0.1,0.1-0.1c0.6,0.4,1.5,0.1,2.1,0.1c1.9-0.1,3.7,0,5.7-0.1c1.4,0,2.9-0.2,4.2-0.8
			C21.4,17.8,21.6,16.9,21.5,15.4L21.5,15.4z M21.1,15c-0.2,0.2-0.5,0.4-0.8,0.6L20,15.8c-0.2,0.1-0.3,0.1-0.1,0.2
			c-0.3-0.2-0.6,0.3-0.3,0.5s0.9-0.2,1.3-0.6c0,1.6-1.2,2.3-2.7,2.6c-1.2,0.2-2.6,0.3-3.8,0.3s-2.6,0-3.8,0c-0.5,0-1.7,0.3-2.1,0.1
			c-0.1-0.1-0.2-0.1-0.3,0H8c0-1.6,0-3.4,0-5c0-1.9-0.3-3.7-0.3-5.7c0.9,0,1.7,0,2.7-0.1c0.1,0,0.2-0.1,0.2-0.2
			c0.7-1.7,3.8-3.5,2.6-5.5c-0.4-0.6-0.9-1.6,0.3-1.3c0.7,0.2,1.2,0.7,1.6,1.2c1,1.3-0.1,3.1-0.2,4.6c-0.2,0-0.2,0.2-0.2,0.4
			c0,0.1,0.1,0.2,0.2,0.2H15c0.1,0.1,0.2,0.1,0.3,0c1.1,0.1,2.1,0.1,3.1,0c0.7-0.1,1.3,0.1,1.9,0.6c0.3,0.4,0.3,0.9,0,1.2
			c-0.2,0-0.3,0.2-0.3,0.3c-0.1,0.1-0.1,0.1-0.2,0.2c-0.3,0.2,0,0.7,0.3,0.5c0.1-0.1,0.2-0.2,0.4-0.3c0.6,0.3,0.9,0.8,1,1.3
			c0.1,1-0.7,1.2-1.2,1.5c-0.3,0.2,0,0.7,0.3,0.5c0.3-0.2,0.5-0.2,0.7-0.4c0.4,0.4,0.6,0.9,0.5,1.3C21.5,14.6,21.2,14.9,21.1,15z"/>
	</g>
</g>
</svg>
