<?xml version="1.0" encoding="utf-8"?>
<!-- Generator: Adobe Illustrator 22.0.1, SVG Export Plug-In . SVG Version: 6.00 Build 0)  -->
<svg version="1.1" id="Layer_1" xmlns="http://www.w3.org/2000/svg" xmlns:xlink="http://www.w3.org/1999/xlink" x="0px" y="0px"
	 viewBox="0 0 30 30" style="enable-background:new 0 0 30 30;" xml:space="preserve">
<style type="text/css">
	.st0{fill:#010101;}
</style>
<title>Asset 7</title>
<g id="Layer_2_1_">
	<g id="Layer_1-2">
		<path class="st0" d="M28.2,27.8c0-1.6-0.1-3.1-0.5-4.6c0-0.1-0.1-0.2-0.3-0.2c-1.6,0-3.2,0.1-4.6,0.1c-0.2-1.5,0.3-4.1-1.4-4.5
			c-1.2-0.1-2.5-0.1-3.6,0h-2.3c-1,0-0.9-0.5-1-1.4h0.7c0.9-0.1,1.8-0.1,2.8,0c0.1,0.1,0.2,0.1,0.3,0h0.1l0,0c0.1,0,0.2,0,0.3,0
			c0.5-0.2,0.2-1.4,0.2-1.7c0-1.6-0.2-3.1-0.5-4.6c0-0.1-0.1-0.2-0.3-0.2c-2.4,0-4.8,0.1-7.1,0.1c-0.3,0-0.6,0.1-0.6,0.3v0.1l0,0
			c-0.1,0-0.3,0.1-0.3,0.3l0,0c0,1.7,0.2,3.5,0.3,5.2c-0.1,0.1-0.1,0.3,0,0.5c0.1,0,0.1,0.1,0.2,0.1h2.2c-0.1,0.3-0.1,0.8,0,1.1
			c-2.4,0.1-4.8,0.1-7.1,0.2c-0.1,0-0.3,0.1-0.3,0.3c0,1.5,0.2,2.9,0.3,4.4c-1.1,0-2.3,0.1-3.4,0.1c-0.1,0-0.3,0.1-0.3,0.2v0.1l0,0
			c-0.2,0-0.3,0.2-0.3,0.3c0,1.8,0.2,3.5,0.3,5.2c-0.1,0.1-0.1,0.3,0.1,0.5c0,0,0.1,0.1,0.2,0.1c1.4,0,2.7-0.1,4.2-0.1
			c0.9-0.1,1.8-0.1,2.8,0C9.5,30,9.6,30,9.7,30h0.1l0,0c0.1,0,0.2,0,0.3,0c0.5-0.2,0.2-1.4,0.2-1.7c0-1.6-0.2-3.1-0.5-4.6
			c0-0.1-0.1-0.2-0.3-0.2H7.9c0-0.1,0-0.2-0.1-0.2c-0.2-0.1-0.1-0.9,0-1.1c-0.1-0.5,0-0.8,0.3-1.1c0.3-0.1,0.8-0.1,1.1-0.1
			c1.2,0,2.5,0,3.7-0.2c0,0.9,0.1,1.8,0.1,2.6h-1.8c-0.1,0-0.3,0.1-0.3,0.2v0.1h-0.1c-0.1,0-0.3,0.1-0.3,0.3c0,1.8,0.2,3.5,0.3,5.2
			c-0.1,0.2-0.1,0.5,0.1,0.6c0,0,0.1,0.1,0.2,0.1c1.5,0,2.9-0.1,4.3-0.1c0.9-0.1,1.8-0.1,2.8,0c0.1,0.1,0.2,0.1,0.3,0l0,0l0,0
			c0.1,0,0.2,0,0.3,0c0.5-0.2,0.2-1.4,0.2-1.7c0-1.6-0.2-3.1-0.5-4.6c0-0.1-0.1-0.2-0.3-0.2c-1.1,0-2.3,0-3.4,0.1v-0.1
			c-0.1-0.6-0.5-2.6,0.6-2.7c0.7,0,1.5,0,2.2,0c0.7,0,1.5,0,2.3,0c1.1-0.1,1,2,0.9,2.7h-0.5c-0.1,0-0.3,0.1-0.3,0.3c0,0,0,0,0,0.1
			h-0.1c-0.1,0-0.3,0.1-0.3,0.3l0,0c0,1.8,0.2,3.5,0.3,5.2c-0.1,0.1-0.1,0.3,0.1,0.5c0,0,0.1,0.1,0.2,0.1c1.5,0,2.8-0.1,4.3-0.1
			c0.9-0.1,1.9-0.1,2.8,0c0.1,0.1,0.2,0.1,0.3,0.1h-0.1l0,0c0.1,0,0.2,0,0.3,0C28.5,29.3,28.2,28.2,28.2,27.8z M11.1,16.6
			c0-0.6-0.1-1-0.1-1.6v-0.1v-0.1v-0.1c-0.1-0.9-0.2-1.9-0.2-2.8c0.1-0.1,0.2-0.2,0.1-0.5l0,0l0,0c0.8,0,6.8-0.6,6.9,0.1
			c0.1,0.3,0.7,4.5,0.5,5.1l0,0c-0.9-0.1-1.7-0.1-2.6,0C14.1,16.5,12.6,16.6,11.1,16.6z M9.3,24.2c0.1,0.3,0.7,4.5,0.5,5.1l0,0
			c-0.9-0.1-1.7-0.1-2.6,0c-1.5,0-2.9,0-4.5,0.1c0-1.6-0.3-3.2-0.3-4.8c0.1-0.1,0.1-0.2,0.1-0.3v-0.1l0,0c0.5,0,1.9-0.1,3.5-0.2
			c0.1,0.1,0.3,0.1,0.5,0l0,0C7.8,23.9,9.3,23.9,9.3,24.2z M18.3,24c0.1,0.3,0.7,4.5,0.5,5.1l0,0c-0.9-0.1-1.7-0.1-2.6,0
			c-1.5,0-2.9,0-4.5,0.1c0-1.6-0.3-3.2-0.3-4.8c0.1-0.1,0.2-0.2,0.1-0.5v-0.1l0,0C12.1,23.9,18,23.3,18.3,24L18.3,24z M18.1,19.8
			c-0.8,0-1.6,0-2.4,0c-0.3-0.1-0.8,0-1.1,0.2c-0.8,0.7-0.5,2.3-0.2,3.2h-0.7c0-1-0.1-2-0.1-3.1c0-0.1-0.1-0.3-0.3-0.3
			c0,0,0,0-0.1,0C12,20,10.9,20,9.6,20c-0.6,0-1.8-0.2-2.3,0.2C6.9,20.7,7,21.4,7,22.1c-0.1,0.5,0,0.8,0.1,1.2H6.3
			c0-1.4-0.2-2.7-0.2-4.1c2.4,0,4.6-0.1,7-0.2c0.1,0,0.3-0.1,0.3-0.3c0-0.5-0.2-1,0-1.5l0,0h0.3c0,0.6,0.1,1.1,0.2,1.7
			c0,0.1,0.1,0.3,0.3,0.3c1.8,0,3.5,0,5.3,0c1,0,2.2-0.1,2.2,1.2c0,0.9,0.1,1.8,0.3,2.7h-0.7c0.2-0.9,0.1-1.9-0.3-2.8
			C20.6,19.5,18.8,19.9,18.1,19.8L18.1,19.8z M27.7,28.9L27.7,28.9c-0.9-0.1-1.7-0.1-2.6,0c-1.5,0-2.9,0-4.5,0.1
			c0-1.6-0.3-3.2-0.3-4.8c0.1-0.1,0.2-0.2,0.1-0.5v-0.1l0,0c0.8,0,6.8-0.6,6.9,0.1C27.3,24.2,28,28.4,27.7,28.9L27.7,28.9z"/>
	</g>
</g>
</svg>
