<?xml version="1.0" encoding="utf-8"?>
<!-- Generator: Adobe Illustrator 22.0.1, SVG Export Plug-In . SVG Version: 6.00 Build 0)  -->
<svg version="1.1" id="Layer_1" xmlns="http://www.w3.org/2000/svg" xmlns:xlink="http://www.w3.org/1999/xlink" x="0px" y="0px"
	 viewBox="0 0 18.2 20.4" style="enable-background:new 0 0 18.2 20.4;" xml:space="preserve">
<style type="text/css">
	.st0{fill:#F47A20;}
</style>
<title>Asset 11</title>
<g id="Layer_2_1_">
	<g id="Layer_1-2">
		<path class="st0" d="M17.6,4.2c0.1-0.1,0.1-0.3,0-0.4c0,0,0,0,0,0c-1-0.7-2.1-1.3-3.2-1.8c-1-0.5-1.8-1.4-2.9-1.4
			c-0.1,0-0.2,0-0.2,0.1C9.5,0.8,7.7,1.1,5.9,1.2C4.3,1.1,2.6,1.2,1,1.5c-0.1,0-0.2,0.1-0.2,0.2c-0.1,0-0.1,0.1-0.1,0.2
			c-0.2,2.9-0.2,5.9-0.1,8.8c0,1.6,0.1,3.1,0.3,4.7c0.2,1,0,1.9,0.2,2.9c0.4,2.1,4.2,1.6,5.7,1.5c3.3-0.2,6.5-0.5,9.8-0.5
			c0.1,0,0.2-0.1,0.2-0.1c0.2,0,0.4,0,0.6-0.1c0.1,0,0.2-0.1,0.2-0.3c-0.1-4.7-0.1-9.4-0.1-14.1C17.7,4.5,17.7,4.3,17.6,4.2z
			 M14.1,2.5C15.1,3,16.1,3.5,17,4c0,0,0,0.1,0,0.1c-1.4,0.3-2.8,0.9-4,1.6c-0.1-1.6-0.4-3.1-1-4.6C12.7,1.5,13.5,2,14.1,2.5z
			 M16.2,18.5c-0.1,0-0.2,0-0.2,0.1c-2.4,0-4.8,0.3-7.2,0.4c-1.3,0.1-2.6,0.2-3.8,0.2c-0.8,0-1.5-0.1-2.3-0.2c-0.9-0.2-1-1-1.1-1.8
			c-0.1-2.2-0.4-4.4-0.4-6.6C1,7.7,1,4.8,1.2,2c1.7-0.2,3.5-0.3,5.2-0.3c1.6,0,3.2-0.4,4.8-0.4c0,0,0.1,0.1,0.1,0.1
			c0.6,1.5,1,3.2,1.1,4.9c0,0.2,0.1,0.3,0.3,0.3c0,0,0.1,0,0.1,0C14.1,5.6,15.6,5,17,4.7c0,2.4,0,4.7,0,7.1c0,1.2,0,2.5,0,3.7
			c0,0.5,0,1.1,0,1.6C17.1,17.9,17.2,18.5,16.2,18.5L16.2,18.5z"/>
		<path class="st0" d="M4.1,5.2c1.7,0,3.4,0.1,5,0.1c0.4,0,0.3-0.6,0-0.6c-1.7,0-3.4-0.1-5-0.1C3.7,4.6,3.8,5.2,4.1,5.2z"/>
		<path class="st0" d="M3.5,6.8h6.3c0.4,0,0.3-0.6,0-0.6H3.5C3.2,6.2,3.2,6.8,3.5,6.8z"/>
		<path class="st0" d="M13.9,9c0.2,0,0.3-0.1,0.3-0.2c0-0.1-0.1-0.2-0.2-0.3c-1.6-0.2-3.3-0.3-4.9-0.1c-2,0-4,0.3-6.1,0.3
			c-0.4,0-0.3,0.6,0,0.6c1.9,0,3.7-0.3,5.6-0.3C10.2,8.9,12.3,8.6,13.9,9z"/>
		<path class="st0" d="M13.9,9.9c-3.3,0-6.7,0.4-10,0.5c-0.2,0-0.3,0.2-0.2,0.3c0,0.1,0.1,0.2,0.2,0.2c3.3,0,6.7-0.4,10-0.5
			c0.2,0,0.3-0.2,0.2-0.3C14.1,10,14,9.9,13.9,9.9z"/>
		<path class="st0" d="M15.2,12.4c-1.3-0.4-2.7-0.1-4,0c-2.2,0.2-4.3,0.4-6.5,0.5c-0.3,0-0.3,0.6,0,0.6c1.9,0,3.8-0.2,5.7-0.4
			c1.4-0.1,3.3-0.5,4.7-0.1C15.4,13,15.5,12.5,15.2,12.4z"/>
		<path class="st0" d="M14.1,14.8c-1.4,0-2.8,0-4.2,0c-1.6,0-3.1,0.4-4.7,0.4c-0.3,0-0.3,0.5,0,0.6c1.6,0,3.1-0.3,4.7-0.4
			c1.4-0.1,2.8,0,4.2,0C14.5,15.3,14.4,14.8,14.1,14.8z"/>
		<path class="st0" d="M10.1,16.9c-1.6,0.1-3.4,0.5-5,0c-0.3-0.1-0.4,0.4-0.1,0.5c1.4,0.3,2.8,0.3,4.2,0.1c0.9,0,3-0.5,3.6,0.2
			c0.2,0.3,0.6-0.1,0.4-0.4C12.5,16.6,11,16.9,10.1,16.9z"/>
	</g>
</g>
</svg>
