<?xml version="1.0" encoding="utf-8"?>
<!-- Generator: Adobe Illustrator 22.0.1, SVG Export Plug-In . SVG Version: 6.00 Build 0)  -->
<svg version="1.1" id="Layer_1" xmlns="http://www.w3.org/2000/svg" xmlns:xlink="http://www.w3.org/1999/xlink" x="0px" y="0px"
	 viewBox="0 0 500 500" style="enable-background:new 0 0 500 500;" xml:space="preserve">
<style type="text/css">
	.st0{fill:none;stroke:#E97103;stroke-width:1.4324;}
</style>
<g>
	<path class="st0" d="M363.3,341c8.6,3.7,16.6,9.8,16.6,23.7c0,20.2-16.6,31.2-41,31.2c-17.1,0-30.7-6.6-35.9-10.7l12.2-23
		c6.3,4.1,17.8,9.1,24.9,9.1c3.6,0,5.1-1.4,5.1-3.6c0-3.4-5.8-5.4-12.2-7.8c-8.5-3.2-18.3-7.8-18.3-24.6c0-0.3,0-0.7,0.1-1
		c-2.9-2-6-2.7-9.9-2.7c-6,0.1-10.4,2.4-11.6,9l-9.4,52.8h-34.4l9.4-53.2c-10.9-1.2-18.5-5.6-23.3-12c-3.7,3.6-8,6.4-12.2,8.4
		l13.3,42.3H199l-8.6-34.8h-1l-1.1,0.2l-6.1,34.7h-34.5l6.4-36.4c-2.1,1.4-4.5,2.5-7,3.2c-2.6,0.8-5.3,1.2-8.2,1.2
		c-9.5,0-15.9-3.3-20.1-8.5c-8.5,5.6-19.2,8.6-31.9,8.6c-13.4,0-28.4-3.2-35.7-6.8l20.2-114h34.3l-5.4,30.9
		c3.4-1.7,8.7-3.4,15.3-3.4c8.9,0,15.9,2.9,20.6,8.9c8.7-5.8,19.5-9.1,32.3-9.1c7.3,0,20.6,1.7,34.3,7.3l0,0h0.2l-8.2,45.4l0.5,0.2
		c7.1-11.4,17.3-18,30.9-18c1.6,0,3.2,0.2,4.7,0.5c5.9-22.6,24-41.8,51.9-41.8c17.7,0,28.6,7.8,28.6,23.9
		c0,27.9-28.8,34.2-48.2,36.1c0.5,5.1,4.6,8.3,11.9,8.3c5,0,11.2-1.6,17.8-4.7c4.7-2.6,7.8-4.6,10.4-5.9c0.1-0.1,0.3-0.1,0.4-0.2
		c1-0.5,2-0.9,3-1.2c3-1,6.5-1.6,10.3-1.6c6.8,0,12.8,1.9,16.7,4.8c5.8-2.5,12.5-3.8,20-3.8c14.1,0,28.6,5.8,36.3,14.1l-17.6,18.5
		c-7.3-5.8-13.4-8.5-17.5-8.5c-4.2,0-5.6,2.5-5.6,4.4C349.3,335.9,354.7,337.3,363.3,341z M422,271c-26,0-36.5-15.3-36.5-35.5
		c0-0.9,0-1.7,0.1-2.6c-1.7-0.4-3.5-0.7-5.4-0.7c-5.9,0-10.4,2.4-11.6,9l-9.3,52.7H325l10.5-59.8h-14.8v-7c-0.3,0-0.7,0-1,0
		c-5.9,6.1-13.4,9.2-21.9,9.2c-16.8,0-25-7.5-24.8-22.6c0-2.7,0.3-5.8,0.8-9l5.6-32h-27l-4.9,27.2c-0.2,1.5-0.3,3.6-0.3,4.8
		c0.3,5.4,3.7,6.5,7.8,6.5c2.4,0,5.3-0.9,8.2-2.4l3.9,21.6c-6.1,3.4-17.3,6.5-27.9,6.5c-22.4,0-27.5-10.9-27.5-22.8
		c0-4.4,0.7-8.8,1.5-13.6v-0.2c-5.1,3.7-11.1,5.5-17.7,5.5c-16.8,0-25-7.5-24.8-22.6c0-2.7,0.3-5.8,0.9-9l5.5-31.8h-11.2l-17,96.9
		h-34.2L137,112.7c3-17.2,9.4-35.7,37.8-35.7c10.7,0,22.6,3.4,29.9,8l-11,21.6c-5.6-3.2-11.6-4.8-14.3-4.8c-3.4,0-6.5,1-7.6,7
		l-1.2,7h11.1h11H216l-9.7,54.7c-0.2,1.4-0.3,2.7-0.5,3.9c-0.3,3.6,0.3,5.6,3.6,5.6c3.6,0,6.1-3.6,7-8.2l9.9-56.1h34.3l-0.1,0.3h1.9
		l-5.4,30.2h28.9l0,0h32.5l-9.7,54.7c-0.2,1.4-0.3,2.7-0.5,3.9c-0.3,3.6,0.3,5.6,3.6,5.6c3.6,0,6.1-3.6,7-8.2l9.9-56.1H363
		L352.3,206h12.9l0.7,11.7c7-11.6,16-14.4,21.9-14.4c1.9,0,4.1,0.2,6.2,0.6c8.8-15.1,24.3-26.2,45.4-26.2c17.7,0,28.6,7.8,28.6,23.8
		c0,27.9-28.7,34.2-48.1,36c0.5,5.1,4.6,8.3,11.9,8.3c7,0,15-2.9,22.1-7l5.6,22.1C456.9,262.7,443.1,271,422,271z"/>
	<path class="st0" d="M101,277.9c-2.5,0-4.8,1.5-5.4,4.8l-7.1,40.6c2,0.5,3.6,0.5,4.4,0.5c9.3,0,15-21.7,15-33.5
		C107.8,283,106,277.9,101,277.9z"/>
	<path class="st0" d="M205.2,312.9c-4.9,0-11,6-14,14.4l-0.1,2.5c10-1.5,18-6.7,18-13C209.1,314.4,207.6,312.9,205.2,312.9z"/>
	<path class="st0" d="M281.6,274.8c0-2.2-1.4-3.7-3.7-3.7c-0.9,0-1.5,0-2.4,0.3c-4.1,1.4-8.3,6.1-10.4,15.5
		C275.1,286.1,281.6,279.9,281.6,274.8z"/>
	<path class="st0" d="M146.1,310.8c0,7,1.7,11.9,5.9,11.9c2.6,0,4.8-1.5,6.1-3.5l7.3-41.4c-1.3-0.4-2.5-0.5-3.7-0.5
		C151,277.3,146.1,298.8,146.1,310.8z"/>
	<path class="st0" d="M438.2,205.2c0-2.2-1.4-3.7-3.7-3.7c-0.9,0-1.5,0-2.4,0.3c-4.1,1.4-8.3,6.1-10.4,15.5
		C431.7,216.5,438.2,210.3,438.2,205.2z"/>
</g>
</svg>
