<?xml version="1.0" encoding="utf-8"?>
<!-- Generator: Adobe Illustrator 22.0.1, SVG Export Plug-In . SVG Version: 6.00 Build 0)  -->
<svg version="1.1" id="Layer_1" xmlns="http://www.w3.org/2000/svg" xmlns:xlink="http://www.w3.org/1999/xlink" x="0px" y="0px"
	 viewBox="0 0 30 30" style="enable-background:new 0 0 30 30;" xml:space="preserve">
<style type="text/css">
	.st0{fill:#010101;}
</style>
<title>Asset 5</title>
<g id="Layer_2_1_">
	<g id="Layer_1-2">
		<path class="st0" d="M29.5,22.4c-0.9-1.1-2.4-1.3-3.5-0.7c-0.2-1.7-1.1-2.9-3-2.9c-0.5,0-0.9,0.2-1.2,0.4
			c-1.4-1.5-3.2-2.5-5.1-3.1c-2-0.6-4.2-0.4-6.2,0.4C6.7,18,4.1,21.5,4,25.5C3.5,25,2.8,25,2.3,25.3c-0.8,0.4-1.2,1.5-0.8,2.3
			c-0.5,0-1.2,0.1-1.4,0.6c-0.2,0.7,0.3,1.2,1,1.3l0.1,0.1c0.7,0.3,1.4,0.5,2,0.3c1.2-0.2,2.4-0.2,3.6,0c2,0.2,4.6,0.4,6.5-0.4
			c1.2-0.5,1.1-2.1,0.3-2.9c-0.9-1-2.3-0.9-3.5-0.6c0.7-3.4,7-6,9-2.5c-0.3,0.2-0.7,0.4-0.9,0.7c-0.5,0.6-0.5,1.4-0.1,2
			c0,0.1,0.1,0.2,0.2,0.2c2,0.5,4,0.3,6,0.5c1.6,0.1,3.5,0.2,4.8-1C30.1,25,30.3,23.5,29.5,22.4z M17.8,20.2
			c-1.8-0.4-3.7-0.6-5.5-0.3c-2.8,0.4-4.8,2.2-4.7,5.1c-0.2-0.1-0.6-0.2-0.8-0.2c0-0.5,0.2-1.1,0.3-1.5c0.2-0.7,0.5-1.5,1-2.1
			c0.8-1.1,2.4-1.6,3.7-2c1.5-0.3,3.2-0.3,4.8-0.1c1.5,0.2,2.8,0.9,3.7,2c-0.1,0.2-0.2,0.2-0.2,0.4C19.8,20.6,18.7,20.5,17.8,20.2z
			 M20,22c0,0.1,0,0.2-0.1,0.3c-1.9-1.8-5.1-1.7-7.4-1.1c-2.2,0.5-3.9,2.3-4.2,4.6c-0.2-0.2-0.3-0.3-0.5-0.5c0-1.1,0.3-2.1,0.9-3
			c0.9-0.9,2-1.5,3.3-1.7c1.5-0.3,3.2-0.2,4.6,0.1c0.9,0.2,2.7,0.2,3.1,1.2C19.9,21.9,19.9,22,20,22z M16.5,18.6
			c-1.9-0.2-3.7-0.2-5.6,0.4c-1.6,0.3-2.9,1.4-3.7,2.8c-0.3,0.7-0.5,1.4-0.7,2.1c-0.1,0.2-0.2,0.6-0.1,0.9c-0.4,0.1-0.7,0.2-1,0.3
			c0.4-3.3,2.5-6.5,5.9-7.3c1.9-0.3,3.7-0.2,5.5,0.3c1.5,0.3,3.7,0.9,4.5,2.4c-0.2,0-0.4,0.1-0.6,0.2C19.7,19.5,18.2,18.8,16.5,18.6
			z M10.3,17.1c1.8-0.7,3.7-1,5.6-0.6c2,0.4,3.8,1.4,5.3,2.9c-1.1-0.8-2.3-1.4-3.6-1.6c-2-0.6-4-0.7-6-0.5c-3.8,0.6-6.4,4.4-6.5,8.1
			c-0.2,0.2-0.4,0.4-0.5,0.7l-0.2-0.2C4.5,22,6.8,18.6,10.3,17.1z M13.3,26.9c0.6,0.5,0.7,1.3,0.2,2c-0.1,0.2-0.2,0.2-0.4,0.3
			c-0.9,0.3-1.8,0.5-2.7,0.4c-1.5,0-3,0-4.6-0.2c-0.6-0.1-1.2-0.1-1.9-0.1c-0.8,0.2-1.6,0.2-2.4,0l-0.1-0.1H1.3H1.2
			c-0.5-0.3-0.7-1.1,0-1.2c0.2,0,0.4,0,0.6,0C1.9,28.1,2,28,2,27.9v-0.1c-0.4-0.9-0.2-1.8,0.8-2.1c0.7-0.2,1.2,0.4,1.7,0.8
			c0.1,0.1,0.2,0.1,0.3,0c0,0,0,0,0-0.1c0.3-1,1.4-1.5,2.4-1.1c0.7,0.2,1.1,0.8,1.2,1.5c0,0.1,0.2,0.2,0.2,0.2
			c0.3-0.2,0.7-0.2,1-0.4c0.1,0.1,0.2,0,0.2-0.1l0,0C11.1,26.1,12.4,26.2,13.3,26.9L13.3,26.9z M14.1,21.8c-1.8,0.6-4.3,2.3-4.4,4.4
			c-0.3,0.1-0.6,0.2-0.8,0.3c0-0.1,0-0.2-0.1-0.2c0-2.3,1.6-4.3,3.9-4.7c2.2-0.6,5.4-0.6,7.1,1.2c0,0,0.1,0.1,0.2,0.1
			c0,0.2,0,0.3,0,0.5c-0.2,0-0.2,0-0.4,0.1v-0.1C18.5,21.4,16,21.1,14.1,21.8L14.1,21.8z M27.1,26.4c-1.3,0.2-2.5,0.2-3.8,0
			c-1.6-0.2-3.2,0-4.8-0.4h-0.1c-0.3-0.5,0-1.1,0.2-1.6c0.2-0.5,1.1-0.7,1.6-0.7c0.1,0,0.2-0.1,0.2-0.2l0,0v-0.1
			c-0.2-0.2-0.2-0.6-0.2-0.9c0-0.6,0.2-1.2,0.7-1.6c0.4-0.4,0.9-0.7,1.5-0.7l-0.2-0.7c0.2-0.1,0.6-0.2,0.8-0.2c0.4,0,0.9,0,1.3,0.2
			c1,0.4,1.2,1.6,1.2,2.5c0,0.2,0.1,0.2,0.2,0.2H26c1.4-0.8,3.1-0.6,3.6,1.1C30,25,28.4,26.2,27.1,26.4L27.1,26.4z"/>
	</g>
</g>
</svg>
