<svg xmlns="http://www.w3.org/2000/svg" viewBox="0 0 20.45 22.34"><defs><style>.cls-1{fill:#f47a20;}</style></defs><title>Asset 28</title><g id="Layer_2" data-name="Layer 2"><g id="Layer_1-2" data-name="Layer 1"><path class="cls-1" d="M15.59.59A13.62,13.62,0,0,0,8.18.44a14.93,14.93,0,0,0-4,1.67c-1,.56-1.05.64-1.89-.13A7.23,7.23,0,0,0,.72.89C.39.7.14,1.22.46,1.4a11,11,0,0,1,2.43,2,.29.29,0,0,0,.35,0C7,.78,12-.38,16.36,1.5A5.43,5.43,0,0,1,19.92,6c.08,1.79-1.7,3-3.07,3.76a18.91,18.91,0,0,1-10,2.36C1.4,11.57,2.39,5.2.57,1.53c-.16-.33-.7-.15-.54.19C1.26,4.21,1,7.16,2.29,9.61a5.9,5.9,0,0,0,5.28,3.14,18.42,18.42,0,0,0,6.3-1.19,13.08,13.08,0,0,0,5.19-2.62C22.42,5.7,19.07,1.78,15.59.59Z"/><path class="cls-1" d="M12.26,4.31h-.48a.26.26,0,0,0-.19.08c-1.15.15-2.29.42-3.45.59-1,.15-2-.05-3,.09-.14,0-.29.15-.26.31s0,.07,0,.1a.31.31,0,0,0,.54.14c.9-.09,1.84,0,2.74-.07,1.39-.11,2.74-.54,4.13-.67A.29.29,0,0,0,12.26,4.31Z"/><path class="cls-1" d="M10.4,6.57C10.22,7,8.39,7,8,7a21.65,21.65,0,0,1-2.28.16c-.37,0-.32.58,0,.58A27.17,27.17,0,0,0,8.9,7.5c.51-.07,1.75-.1,2-.67C11.07,6.49,10.55,6.24,10.4,6.57Z"/><path class="cls-1" d="M15.11,2.9c-.64-.37-2.07-.2-1.75.83.1.35.65.16.54-.19s1.09-.33,1.18.22c.07.38-.29.72-.48,1a1.58,1.58,0,0,0-.3,1c0,.37.59.32.57,0,0-.58.54-1,.72-1.49A1.1,1.1,0,0,0,15.11,2.9Z"/><path class="cls-1" d="M14.35,6.9a.29.29,0,0,0-.33.23.28.28,0,0,0,.19.32.3.3,0,0,0,.09.24.31.31,0,0,0,.41,0c.11-.1.23-.15.25-.33a.29.29,0,0,0-.3-.34C14.56,7,14.47,6.91,14.35,6.9Z"/><path class="cls-1" d="M18.09,20.22H18a.31.31,0,0,0-.08-.21,10.48,10.48,0,0,0-.9-.86c-.58-.51-.21-.79,0-1.41a1.94,1.94,0,0,0-.14-1.81,8.27,8.27,0,0,0-4.72-2.41c-3.65-.83-8-.13-10.45,2.89a3.76,3.76,0,0,0-.83,3.82c.62,1.43,2.58,1.9,4,2.06a15.06,15.06,0,0,0,5-.48c1.17-.27,2.29-.67,3.43-1.05a7.93,7.93,0,0,1,4.32,0,.29.29,0,0,0,.19.07h.19C18.39,20.79,18.4,20.29,18.09,20.22Zm-4-.27c-1.48.38-2.89.94-4.37,1.31-2.37.58-7.15,1.33-8.39-1.54-.65-1.51,1-3.32,2.07-4.2a8.68,8.68,0,0,1,4.39-1.63,13.27,13.27,0,0,1,4.7.28,12.21,12.21,0,0,1,2.35.85,2.79,2.79,0,0,1,1.8,1.83c.1.58-.41,1.32-.7,1.8A.29.29,0,0,0,16,19c.37.34.75.67,1.12,1A6.79,6.79,0,0,0,14.11,20Z"/><path class="cls-1" d="M9,17.12a.24.24,0,0,0,.27,0l.29-.19a.29.29,0,0,0-.26-.51c-1.53.63-3.38.47-5,.47-.37,0-.33.57,0,.57A16.21,16.21,0,0,0,9,17.12Z"/><path class="cls-1" d="M9.48,18.11c-1.71,0-3.36.53-5.08.48-.37,0-.32.56,0,.57,1.71.05,3.37-.44,5.08-.48C9.9,18.68,9.85,18.1,9.48,18.11Z"/><path class="cls-1" d="M13,18.19a2.31,2.31,0,0,0-.15-1.39,2.48,2.48,0,0,0-.49-1.25c-.33-.35-.93-.21-1.34-.11a.24.24,0,0,0-.19.27v0a5.46,5.46,0,0,0,.59,2.37.29.29,0,0,0,.3.17.29.29,0,0,0,.28.4C12.42,18.67,12.85,18.6,13,18.19Zm-1-.27a5.33,5.33,0,0,1-.55-2,.59.59,0,0,1,.63.12,2.12,2.12,0,0,1,.22.7c.06.29.15.59.2.89s-.12.46-.48.47A.22.22,0,0,0,12,17.92Z"/><path class="cls-1" d="M13.11,19.07a3.34,3.34,0,0,0-.94-.1.3.3,0,0,0-.27.31v.29a.23.23,0,0,0,.14.22.66.66,0,0,0,.77.35.71.71,0,0,0,.53-.81A.31.31,0,0,0,13.11,19.07Z"/></g></g></svg>