<?xml version="1.0" encoding="utf-8"?>
<!-- Generator: Adobe Illustrator 22.0.1, SVG Export Plug-In . SVG Version: 6.00 Build 0)  -->
<svg version="1.1" id="Layer_1" xmlns="http://www.w3.org/2000/svg" xmlns:xlink="http://www.w3.org/1999/xlink" x="0px" y="0px"
	 viewBox="0 0 20.5 22.3" style="enable-background:new 0 0 20.5 22.3;" xml:space="preserve">
<style type="text/css">
	.st0{fill:#FF4500;}
</style>
<title>Asset 28</title>
<g id="Layer_2_1_">
	<g id="Layer_1-2">
		<path class="st0" d="M15.4,0.9c-2.3-0.7-4.8-0.8-7.2-0.1C6.9,1.1,5.6,1.6,4.3,2.4c-1,0.5-1,0.6-1.8-0.1C2,1.8,1.5,1.4,1,1.2
			C0.7,1,0.4,1.5,0.7,1.7c0.9,0.5,1.7,1.2,2.4,1.9c0.1,0.1,0.2,0.1,0.3,0C7.1,1.1,12-0.1,16.2,1.8c1.9,0.7,3.2,2.4,3.5,4.4
			c0.1,1.7-1.7,2.9-3,3.7c-3,1.6-6.3,2.4-9.7,2.3C1.6,11.6,2.6,5.4,0.8,1.8C0.7,1.5,0.1,1.6,0.3,2c1.2,2.4,0.9,5.3,2.2,7.7
			c1,1.9,3,3.1,5.1,3.1c2.1,0,4.2-0.4,6.1-1.2c1.9-0.5,3.6-1.3,5.1-2.5C22.1,5.8,18.8,2,15.4,0.9z"/>
		<path class="st0" d="M12.2,4.5h-0.5c-0.1,0-0.1,0-0.2,0.1C10.4,4.7,9.3,5,8.2,5.1c-1,0.1-1.9,0-2.9,0.1C5.1,5.2,5,5.4,5,5.5
			s0,0.1,0,0.1c0,0.2,0.2,0.3,0.4,0.2c0.1,0,0.1,0,0.2-0.1c0.9-0.1,1.8,0,2.7-0.1c1.4-0.1,2.7-0.5,4-0.7c0.2,0,0.2-0.2,0.2-0.3
			C12.4,4.6,12.3,4.5,12.2,4.5z"/>
		<path class="st0" d="M10.4,6.7c-0.2,0.4-2,0.4-2.3,0.4C7.3,7.2,6.6,7.3,5.8,7.3c-0.4,0-0.3,0.6,0,0.6c1,0,2.1-0.1,3.1-0.2
			c0.5-0.1,1.7-0.1,1.9-0.7C11,6.6,10.5,6.4,10.4,6.7z"/>
		<path class="st0" d="M15,3.1c-0.6-0.4-2-0.2-1.7,0.8c0.1,0.3,0.6,0.2,0.5-0.2C13.7,3.4,14.9,3.4,15,4c0.1,0.4-0.3,0.7-0.5,1
			c-0.2,0.3-0.3,0.6-0.3,1c0,0.4,0.6,0.3,0.6,0c0-0.6,0.5-1,0.7-1.5C15.6,4,15.4,3.4,15,3.1z"/>
		<path class="st0" d="M14.2,7c-0.1,0-0.3,0.1-0.3,0.2c0,0.1,0.1,0.3,0.2,0.3c0,0.1,0,0.2,0.1,0.2c0.1,0.1,0.3,0.1,0.4,0
			c0.1-0.1,0.2-0.1,0.2-0.3c0-0.2-0.1-0.3-0.2-0.3c0,0,0,0-0.1,0C14.4,7.1,14.4,7,14.2,7z"/>
		<path class="st0" d="M17.9,20L17.9,20c-0.1-0.1-0.1-0.1-0.2-0.2c-0.3-0.3-0.6-0.6-0.9-0.8c-0.6-0.5-0.2-0.8,0-1.4
			c0.2-0.6,0.2-1.2-0.1-1.8c-1.2-1.3-2.8-2.1-4.6-2.3c-3.6-0.8-7.8-0.1-10.2,2.8c-0.9,1-1.3,2.4-0.8,3.7c0.6,1.4,2.5,1.8,3.9,2
			c1.6,0.1,3.3,0,4.9-0.5c1.1-0.3,2.2-0.7,3.3-1c1.4-0.4,2.8-0.4,4.2,0c0.1,0,0.1,0.1,0.2,0.1h0.2C18.2,20.5,18.2,20,17.9,20z
			 M14,19.7c-1.4,0.4-2.8,0.9-4.3,1.3c-2.3,0.6-7,1.3-8.2-1.5c-0.6-1.5,1-3.2,2-4.1c1.3-0.9,2.7-1.5,4.3-1.6
			c1.5-0.2,3.1-0.1,4.6,0.3c0.8,0.2,1.6,0.5,2.3,0.8c0.8,0.3,1.5,0.9,1.8,1.8c0.1,0.6-0.4,1.3-0.7,1.8c-0.1,0.1,0,0.3,0.1,0.3
			c0.4,0.3,0.7,0.7,1.1,1C16,19.5,15,19.5,14,19.7L14,19.7z"/>
		<path class="st0" d="M9,17C9.1,17,9.2,17,9.3,17l0.3-0.2c0.1-0.1,0.2-0.3,0.1-0.4c-0.1-0.1-0.2-0.1-0.3-0.1
			c-1.5,0.6-3.3,0.5-4.9,0.5c-0.4,0-0.3,0.6,0,0.6C6,17.4,7.5,17.3,9,17z"/>
		<path class="st0" d="M9.5,17.9c-1.7,0-3.3,0.5-4.9,0.5c-0.4,0-0.3,0.5,0,0.6c1.7,0,3.3-0.4,4.9-0.5C9.9,18.5,9.9,17.9,9.5,17.9z"
			/>
		<path class="st0" d="M12.9,18c0.1-0.5,0-0.9-0.1-1.4c0-0.4-0.2-0.9-0.5-1.2c-0.3-0.3-0.9-0.2-1.3-0.1c-0.1,0-0.2,0.1-0.2,0.3l0,0
			c0,0.8,0.2,1.6,0.6,2.3c0.1,0.1,0.2,0.2,0.3,0.2c-0.1,0.1,0,0.3,0.2,0.4c0,0,0.1,0,0.1,0C12.4,18.5,12.8,18.4,12.9,18z M12,17.7
			c-0.3-0.6-0.5-1.3-0.5-1.9c0.2-0.1,0.4,0,0.6,0.1c0.1,0.2,0.2,0.4,0.2,0.7c0.1,0.3,0.1,0.6,0.2,0.9c0,0.3-0.1,0.4-0.5,0.5
			C12,17.9,12,17.8,12,17.7z"/>
		<path class="st0" d="M13,18.9c-0.3-0.1-0.6-0.1-0.9-0.1c-0.2,0-0.3,0.1-0.3,0.3v0.3c0,0.1,0.1,0.2,0.1,0.2
			c0.1,0.3,0.5,0.4,0.7,0.3c0.4-0.1,0.6-0.4,0.5-0.8C13.2,19,13.2,18.9,13,18.9z"/>
	</g>
</g>
</svg>
