<?xml version="1.0" encoding="utf-8"?>
<!-- Generator: Adobe Illustrator 22.0.1, SVG Export Plug-In . SVG Version: 6.00 Build 0)  -->
<svg version="1.1" id="Layer_1" xmlns="http://www.w3.org/2000/svg" xmlns:xlink="http://www.w3.org/1999/xlink" x="0px" y="0px"
	 viewBox="0 0 30 30" style="enable-background:new 0 0 30 30;" xml:space="preserve">
<style type="text/css">
	.st0{fill:#010101;}
</style>
<title>Asset 9</title>
<g id="Layer_2_1_">
	<g id="Layer_1-2">
		<path class="st0" d="M26.4,15.3c-0.1-0.3-0.3-0.6-0.7-0.7c-0.1,0-0.2,0-0.3,0c0.1-0.3,0.2-0.5,0.3-0.8c0-0.1,0-0.3-0.2-0.3
			c-0.2,0-0.3,0-0.3,0.2l0,0c0,0.3-0.2,0.7-0.4,1l-0.1,0.1l-0.3,0.1c0.1-0.3,0.3-0.7,0.4-1c0.2-0.3-0.1-0.5-0.3-0.3
			c-0.3,0.3-0.3,1-0.7,1.3c-0.1,0.1-0.1,0.2,0,0.2l-0.3,0.1c0.2-0.4,0.3-0.9,0.4-1.3c0-0.1,0-0.3-0.2-0.3c-0.1,0-0.3,0-0.3,0.2
			c-0.1,0.4-0.3,0.9-0.4,1.4c0,0.1,0,0.2,0.1,0.3L23,15.5c0-0.3,0.1-0.7,0.2-1c0.3-0.2-0.2-0.3-0.3,0c-0.2,0.4-0.3,0.9-0.3,1.3l0,0
			c-1.3,0.5-2.7,1-4.1,1.4c-0.5,0.2-1,0.3-1.5,0.4c-0.1-1.9,0-3.9-0.9-5.8c-0.9-1.9-3-3.1-5.1-2.8H11L10.9,9
			C5.3,8.4,4,14.7,3.7,18.9c-0.3,4.8,2,11.4,7.8,11.1c0.1,0,0.2-0.1,0.2-0.2c0.3,0,0.6,0,0.9,0c2-0.2,3.4-2.3,4-4
			c0.8-2.4,0.3-5,0.5-7.4c0-0.1-0.1-0.2-0.2-0.2l0,0v-0.1c0.4-0.1,0.9-0.3,1.2-0.3c1.5-0.4,3-0.9,4.4-1.4l0.1,0.1
			c0.4,0.1,0.8,0.5,1.2,0.7c0.1,0,0.3-0.1,0.3-0.2s-0.1-0.2-0.2-0.3c-0.3-0.2-0.6-0.3-0.9-0.5l0.7-0.3l0.1,0.1
			c0.4,0.2,0.7,0.4,1.1,0.5c0.1,0,0.3-0.1,0.3-0.2S25.1,16.1,25,16c-0.3-0.1-0.5-0.3-0.8-0.4l0.4-0.2c0.1,0.1,0.2,0.2,0.3,0.2
			c0.3,0.2,0.5,0.3,0.9,0.3c0.2,0,0.3-0.1,0.2-0.3c0.1,0.1,0.3,0,0.3-0.1C26.4,15.5,26.4,15.4,26.4,15.3z M4.1,19.3
			c0.2-3.7,1.2-9.2,5.4-9.8c-3.7,1.7-4.4,7.1-4.1,10.6c0.3,3.1,1.7,8.1,5.1,9.3C5.8,29,4,23.4,4.1,19.3z M13.2,29.2
			c-2,0.8-4.1-1-5.2-2.4c-1.2-1.8-1.9-4-2.1-6.3c-0.4-3.9,0.3-9.4,4.7-10.9c2.4-0.8,4.6,1,5.4,3.1c0.6,1.6,0.5,3.4,0.6,5.1L16,18
			v-0.3c0.3-3.1-0.5-7-4.2-6.7v-0.1v-0.5c0-0.1-0.1-0.3-0.3-0.3s-0.3,0.2-0.3,0.3v0.5c0,0.1,0,0.2,0.1,0.2l0,0
			c-1.6-0.2-2.7,1-3.5,2.3c-1,1.7-1.5,3.7-1.4,5.8L6.4,19C6.1,18.9,6,19.2,6,19.3c0,0.1,0.1,0.2,0.2,0.3h0.1c0.1,0,0.1,0,0.2,0
			c0,0.2,0,0.3,0,0.4c0.1,1.9,0.7,3.7,1.8,5.2c0.8,1.1,2.1,2.7,3.7,2.8c1.7,0.1,2.7-1.6,3.1-3c0.8-2.1,0.6-4.4,0.8-6.6l0.7-0.3
			l0.1,0.6c0,0.1,0,0.1,0.1,0.2C16.7,22.6,17.3,27.7,13.2,29.2z M13.2,15.6c-0.6-0.8-1.7-1-2.5-0.6c-1,0.5-1.6,1.5-1.7,2.5
			c-0.5,1.7-0.6,4.9,0.9,6.2c0.8,0.6,1.7,0.7,2.6,0.2c1-0.5,1.3-1.9,1.5-3c0.1-0.7,0.2-1.3,0.2-2l0.7-0.2c0,2.1-0.3,5-2,6.2
			c-2.3,1.6-4-2.3-4.4-3.8c-0.3-1.3-0.4-2.6-0.1-3.9c0.4-1.6,2.4-4.4,4.3-3.4c0,0.1,0.1,0.2,0.2,0.2l0,0c1.8-0.2,2,3.1,2,4.4v0.1
			L14,18.6c0-0.3,0-0.5,0-0.7C14.1,17.1,14.1,15.9,13.2,15.6L13.2,15.6z M11.4,18.9C11.4,18.9,11.4,18.9,11.4,18.9
			c-0.2-0.1-0.1-0.3,0-0.4c0.2-0.2,0.2,0.3,0.2,0.4c0,0,0,0,0,0.1L11.4,18.9z M11.5,19.3c0,0.1-0.1,0.3-0.1,0.3
			c-0.1-0.2-0.2-0.3-0.2-0.5l0,0C11.3,19.3,11.4,19.3,11.5,19.3L11.5,19.3z M11.2,18.1c-0.1,0.1-0.1,0.1-0.2,0.2
			c-0.1,0-0.3,0.1-0.3,0.2l0,0c0,0.6,0,1.4,0.5,1.7c0.1,0.1,0.3,0.1,0.3,0c0.2-0.3,0.3-0.5,0.4-0.9l0.6-0.1v0.1c0,0.5-0.1,1-0.2,1.6
			c-0.3,1-1.4,1.4-2.1,0.5c-0.7-0.9-0.6-5.2,1.3-4.4c0.1,0,0.3,0,0.3-0.1c0.6,0.1,0.7,1.2,0.7,1.9l-0.5,0.1c0-0.2,0-0.4-0.1-0.6
			C11.9,18,11.6,18,11.4,18C11.3,18,11.3,18,11.2,18.1L11.2,18.1z M11.8,16.5C11.7,16.5,11.7,16.5,11.8,16.5
			c-2.4-0.6-3.1,4.7-1.3,5.8c1.6,1,2.5-1,2.6-2.3c0-0.2,0.1-0.4,0.1-0.7l0.4-0.1c-0.1,0.5-0.1,0.9-0.1,1.1c-0.1,1.7-1,4.6-3.3,3.3
			c-1.2-0.7-1-3-1-4.3h0.1c0.1,0,0.3-0.1,0.3-0.3c0-0.1-0.1-0.3-0.3-0.3H9.1c0.1-0.8,0.3-1.6,0.6-2.3c0.4-1,2.4-2.1,3.1-0.7
			c0,0,0,0.1,0.1,0.1c0,0,0.1,0,0.1,0.1c0.6,0.2,0.7,1.5,0.6,2.6l-0.4,0.1C13.1,17.6,12.8,16.3,11.8,16.5L11.8,16.5z M12.7,13.5
			C12.7,13.5,12.7,13.4,12.7,13.5c-1.6-0.9-3,0.3-4,1.4c-1,1.4-1.6,3.1-1.3,4.9c0.2,2.1,1.6,5.8,4.1,5.9c1.2,0,2.3-1.2,2.7-2.3
			c0.5-1.6,0.8-3.1,0.8-4.8l0.4-0.2c-0.1,1.2-0.2,2.4-0.3,3.7c-0.1,1.8-0.6,4.8-2.7,5.3c-1.3,0.5-2.7-1-3.5-2c-1.1-1.3-1.8-3-2-4.7
			c-0.2-1.9,0-3.8,0.6-5.7c0.5-1.6,1.9-3.9,3.9-3.5c0.1,0,0.2,0,0.3-0.1c3.2-0.3,4,3.1,3.8,5.8c0,0.3,0,0.6-0.1,0.9l-0.4,0.2
			C15.1,16.6,14.7,13.5,12.7,13.5L12.7,13.5z M25.7,15.4l-0.3-0.2l-0.2-0.1C25.5,15.1,25.7,15.2,25.7,15.4c0.1-0.1,0.1,0,0.2,0H25.7
			z"/>
	</g>
</g>
</svg>
