<?xml version="1.0" encoding="utf-8"?>
<!-- Generator: Adobe Illustrator 22.0.1, SVG Export Plug-In . SVG Version: 6.00 Build 0)  -->
<svg version="1.1" id="Layer_1" xmlns="http://www.w3.org/2000/svg" xmlns:xlink="http://www.w3.org/1999/xlink" x="0px" y="0px"
	 viewBox="0 0 30.1 31.8" style="enable-background:new 0 0 30.1 31.8;" xml:space="preserve">
<style type="text/css">
	.st0{fill:#FF4500;}
</style>
<title>Asset 47</title>
<g id="Layer_2_1_">
	<g id="Layer_1-2">
		<path class="st0" d="M13.8,18.5c-0.4,0.9-1.3,0.1-1.4-0.6c0.5,0.2,1.1-0.1,1.3-0.6c0,0,0,0,0-0.1c0.2-0.7-0.7-1.1-1.3-1.2
			c-0.3-0.1-0.7,0-0.9,0.2c-0.2,0.1-0.2,0.3-0.1,0.5l0.1,0.1c0,0.4,0.2,0.8,0.5,0.9l0,0c-0.2,1.2,1.6,2.2,2.2,1
			C14.3,18.5,13.9,18.2,13.8,18.5z M11.9,16.9c0.1,0,0.2-0.1,0.2-0.2v-0.1l0,0c0.2,0,0.4,0,0.5,0.1c0.3,0.1,0.7,0.4,0.5,0.7
			c-0.2,0.2-0.5,0.3-0.8,0.2C12.1,17.4,11.9,17.2,11.9,16.9z"/>
		<path class="st0" d="M13.8,17c0,0.1,0.1,0.2,0.2,0.2s0.2-0.1,0.2-0.2c0-0.3,0.4-0.1,0.5,0c0.2,0.1,0.4,0.3,0.5,0.5
			c0.1,0.3,0.5,0.2,0.5-0.1C15.5,16.6,13.8,15.9,13.8,17z"/>
		<path class="st0" d="M9.5,16.1c0.2-0.3,0.2-0.8,0-1.1c-0.3-0.3-0.6-0.3-1-0.3c0-0.1-0.1-0.2-0.2-0.1c0,0,0,0-0.1,0
			c-0.1,0.1-0.2,0.2-0.2,0.3s0.1,0.2,0.2,0.3c0.3,0,0.6,0,0.9,0c0.2,0.1,0.1,0.4,0.1,0.5c0,0.1-0.7,0.3-0.8,0
			c-0.1-0.3-0.6-0.2-0.5,0.1c0.2,0.5,0.8,0.8,1.3,0.6C9.2,16.4,9.3,16.3,9.5,16.1z"/>
		<path class="st0" d="M13.5,14.8c0.6,0.6,1.4,0.9,2.2,0.8c0.5,0,1.2-0.4,1.1-1c-0.1-0.6-2.1-1.5-2.3-0.6c0,0.2,0.2,0.4,0.4,0.2
			c0.3-0.3,1.3,0.2,1.4,0.5c0.2,0.3-0.8,0.4-0.9,0.4c-0.6,0-1.2-0.2-1.5-0.6c-0.1-0.1-0.2-0.1-0.3,0S13.4,14.7,13.5,14.8L13.5,14.8z
			"/>
		<path class="st0" d="M14.7,13.2c0.1-0.2,0.4-0.2,0.6-0.3c0.2,0,0.4,0,0.6,0.1c0.1,0.1,0.3,0,0.3-0.1s0-0.1,0-0.2
			c-0.1-0.4-0.6-0.4-0.9-0.4c-0.4,0-0.7,0.3-0.9,0.6c0,0.1,0,0.2,0.1,0.2C14.6,13.3,14.7,13.3,14.7,13.2z"/>
		<path class="st0" d="M13.3,15.4c0.1-0.1,0.1-0.3,0-0.4s-0.3-0.1-0.4,0l0,0c-0.5,0.4-1.2,0.3-1.5-0.2l0,0c-0.2-0.4,0.3-0.7,0.5-0.9
			c0.5-0.2,1.1-0.2,1.6,0c0.1,0,0.2-0.1,0.2-0.2c0-0.1,0-0.1-0.1-0.2c-0.7-0.3-1.4-0.3-2,0c-0.6,0.2-0.9,0.8-0.8,1.4
			C11.1,15.8,12.7,16,13.3,15.4z"/>
		<path class="st0" d="M29.1,6.5c-0.4-1.2-1.4-1.9-2.6-2.1c-0.2,0-0.3,0-0.5,0c-0.4-0.3-0.9-0.5-1.4-0.5c-1.1-0.1-2.1-0.4-3.1-0.7
			c-2.3-0.8-4.6-1.4-6.9-2.2C13,0.5,11.1,0.4,9.4,1C8.6,1.2,7.2,1.6,6.9,2.6l0,0C6.6,2.7,5.7,3.3,5.7,3.7c-0.1,0-0.2,0.2-0.2,0.3
			c0,0,0,0.1,0.1,0.1c0.9,1.2,1.6,2.3,2.2,3.6c0.3,0.6,0.7,1.2,1,1.8c0.1,0.3,0.1,0.7,0.2,1c-1.1,0-2,0.6-2.4,1.5
			c-0.6,0-1.1,0.2-1.5,0.6c-0.4,0.3-0.9,0.9-0.8,1.4H4.1c-0.5,0.1-1,0.3-1.4,0.6c-0.2,0.2-0.3,0.4-0.4,0.6c-0.1,0-0.2,0-0.2,0
			c-0.3,0.1-0.5,0.3-0.7,0.4c-0.2,0.1-0.6,0.3-0.7,0.6l0,0c-0.1,0-0.2,0.2-0.1,0.3l0.1,0.1l0,0C0.7,17,0.9,17.5,1.1,18
			c0,2,0.2,4.1,0.6,6.1c0.1,0.6,0.3,1.3,0.6,1.7c0.4,0.7,1.4,0.9,2.1,1.2c0.9,0.4,1.8,0.8,2.9,1c1.4,0.3,2.7,0.6,4.1,1
			c1.4,0.4,2.7,0.8,4,1.4c0.7,0.4,1.4,0.6,2.2,0.8c0,0.1,0.1,0.1,0.2,0.1c0.7-0.3,1.4-0.7,1.9-1.1c0.7-0.5,1.5-1,2.2-1.4l2.4-1.4
			c0.9-0.5,1.8-1.4,2.7-1.5c0.2-0.1,0.3-0.2,0.3-0.4c-0.5-2-0.8-4.1-0.9-6.3l0,0c0.3-0.7,0.3-1.4,0.1-2.1c0.4-0.6,0.7-1.2,1.1-1.7
			c0.1,0,0.2,0,0.2-0.1c0.7-1.5,1.6-3,1.8-4.7C29.7,9.1,29.6,7.8,29.1,6.5z M10.3,1.1c1.8-0.6,3.8,0.2,5.5,0.8s3.5,1.1,5.3,1.6
			c0.8,0.3,1.5,0.5,2.3,0.6c0.5,0.1,1.2,0.1,1.7,0.3c-0.9,0.1-1.6,0.5-2.3,1.1c-3.4-0.2-6.7-0.6-9.9-1.3c-1.3-0.3-2.3-0.8-3.5-1.2
			C8.7,2.9,8.1,2.7,7.3,2.6C7.9,1.7,9.4,1.3,10.3,1.1z M6,3.6l0.2-0.1C6.5,3.1,7,3,7.4,3.1c0.4,0.1,0.8,0.1,1.2,0.2
			c0.9,0.2,1.7,0.5,2.6,0.8c1.6,0.6,3.4,1,5.1,1.1c2,0.3,4,0.6,6,0.8c-0.2,0.2-0.4,0.5-0.6,0.7l0,0c-0.6-0.3-1.3-0.4-2-0.4
			C18,6,16.4,5.9,14.8,5.6s-3.4-0.5-5.1-1C9,4.4,8.3,4.3,7.5,4.1C7,3.9,6.6,3.7,6,3.6C6.1,3.6,6,3.6,6,3.6z M1.6,15.9
			c0.2-0.1,0.4-0.3,0.6-0.4c0,0.3,0.2,0.5,0.5,0.6c0.2,0.1,0.3-0.2,0.1-0.3c-0.6-0.4,0.2-1.1,0.6-1.4c0.3-0.2,0.7-0.2,1-0.2
			c0.3,0,0.5,0.1,0.8,0.1c0.1,0,0.2-0.1,0.2-0.2c0,0,0-0.1-0.1-0.1c-0.1-0.1-0.3-0.2-0.5-0.2c-0.1-0.4,0.5-0.9,0.7-1.1
			c0.2-0.2,0.5-0.3,0.8-0.4c0.1,0,0.2,0,0.4,0c-0.3,0.3-0.4,0.6-0.3,1c0.1,0.1,0.3,0.2,0.4,0c0-0.3,0.2-0.7,0.5-0.9
			c0.3-0.2,0.6-0.3,0.9-0.2c0.4,0.2,0.1,0.6-0.1,0.8c-0.3,0.4-0.7,0.6-1.2,0.5c-0.1,0-0.2,0-0.2,0.1v0.1c0.8,1,2.8-0.8,1.9-1.6
			c-0.5-0.3-1.1-0.3-1.5,0L6.8,12c0.2-1.2,2.2-1.5,3-0.8l0,0c-0.3,0-0.5,0.4-0.6,0.7c-0.1,0.5,0.3,0.9,0.7,1.1
			c0.7,0.3,1.4,0.2,2-0.3c0.1,0,0.2-0.1,0.2-0.3l0,0c-0.2-0.8-0.6-1.8-1.6-1.5c-0.1,0-0.3,0.1-0.4,0.2c-0.2-0.3-0.5-0.5-0.8-0.6
			v-0.1C9.2,9.9,9.2,9.3,9,8.9c-0.3-0.7-0.7-1.3-1-1.9C7.6,6,7,5,6.2,4.1c0.5,0.1,1,0.4,1.4,0.5c0.7,0.2,1.4,0.3,2,0.5
			c1.5,0.4,3.1,0.7,4.6,0.9c1.4,0.3,2.8,0.4,4.2,0.6c0.8,0.1,2.2,0,2.9,0.5l0.1,0.1l0,0l0.1,0.1c-0.1,0.7,1.6,3.5,1.9,4
			c1,1.6,1.6,3.5,2,5.3c-0.1-0.2-0.1-0.3-0.3-0.5c-0.4-0.4-0.9-0.5-1.4-0.5c0-0.1-0.1-0.2-0.1-0.2c-0.4-0.4-1-0.6-1.4-0.4
			c-0.1-0.6-0.4-1.2-1-1.4c-0.1,0-0.2-0.1-0.3-0.1c0.2-0.8-0.7-1.4-1.4-1.5c0.1-0.3,0.1-0.5,0-0.8c-0.1-0.4-0.3-0.7-0.7-0.9v-0.1
			c0-0.1,0-0.3,0-0.4c0-0.2-0.1-0.3-0.2-0.4l0,0c-0.3-0.3-0.7-0.5-1.1-0.5c-0.3,0-0.6,0.1-0.8,0.4C16.5,9,16.1,8.9,15.6,9
			c-0.1,0-0.3,0.1-0.4,0.1c0.5-1.2-3.1-1.8-3.1-0.4c-0.4,0.1-0.8,0.4-0.7,0.9c-0.3,0-0.6,0.1-0.8,0.3c-0.4,0.2-0.6,0.7-0.5,1.1
			c0,0.1,0.1,0.2,0.2,0.1l0,0c-0.1,0,0.1,0,0.1,0c0.1,0,0.1-0.1,0-0.2l0,0v-0.1c0.1-0.1,0.1-0.3,0.2-0.4c0.3-0.4,0.9-0.5,1.3-0.2
			l0.1,0.1c0.2,0.2,0.6-0.1,0.4-0.4c-0.2-0.2-0.4-0.3-0.6-0.3c-0.1-0.5,0.4-0.5,0.8-0.5c0.5,0,1,0.3,1.1,0.8
			c0.1,0.1,0.2,0.1,0.3,0.1c-0.4,0.2-0.7,0.4-1,0.7c-0.5,0.4-0.6,1.1-0.3,1.5c0.1,0.1,0.2,0.1,0.3,0c0.1,0,0.1-0.1,0.1-0.2
			c-0.3-0.9,0.5-1.4,1.3-1.7c0.1,0,0.2,0,0.3,0c0,0.1,0.1,0.2,0.3,0.3c0,0.1,0,0.2,0,0.3c-0.1,0.4-0.4,0.5-0.5,0.8
			c0,0.1,0.1,0.2,0.2,0.2h0.1c0.5-0.1,0.8-0.8,0.8-1.2c0-0.3-0.1-0.5-0.3-0.7c0-0.1,0-0.2,0-0.2c0.2-0.3,0.4-0.5,0.8-0.6
			c0.3-0.1,0.7-0.1,0.9,0.1c0.4,0.2,0.4,0.7,0.5,1.1l-0.4,0.2c-0.3,0.2-0.5,0.6-0.1,0.8c0.1,0,0.2,0,0.2-0.1v-0.1
			c-0.1-0.2,0.9-0.5,1.1-0.5c0.3-0.1,0.7,0,1,0.2c0.2,0.1,0.5,1,0.1,1.1s-0.3,0.6,0,0.5c0.1,0,0.2,0,0.3-0.1
			c0.6,0.1,1.6,0.5,1.3,1.3c-0.1,0-0.3,0.1-0.4,0.2c-0.4-1.1-2.4-1.7-2.7-0.3c0,0.1,0,0.2,0.1,0.2c0.1,0,0.2,0,0.2-0.1
			c0.4-0.9,1.8-0.4,1.9,0.5v0.1c-0.3,0.4-0.3,0.9-0.1,1.4c0,0.1,0.1,0.1,0.2,0.1s0.1-0.1,0.1-0.2c-0.2-0.7,0.3-1.6,1.1-1.4
			c0.3,0.1,1,0.9,0.7,1.2c-0.1,0-0.1,0-0.2,0.1l0,0c-0.6,0.2-0.9,0.8-0.8,1.4c0.1,0.5,1.1,0.9,1.4,0.5c0.1-0.1,0.1-0.2,0-0.3
			c-0.2-0.3-0.7,0-0.9-0.3s0.1-0.7,0.5-0.9l0,0l0.1-0.1c0.1-0.1,0.3-0.1,0.4-0.1c0.4-0.1,1.3,0,1.2,0.6c0,0.3-0.4,0.5-0.4,0.8
			c0,0.1,0.2,0.1,0.2,0.1l0.1-0.1l0,0c0.1,0,0.1-0.1,0.1-0.1c0.1-0.1,0.2-0.3,0.3-0.5c0,0,0-0.1,0-0.2c0.4,0,0.7,0.1,1,0.3
			c0.2,0.2,0.3,0.6,0.3,0.9c-0.4,0.2-0.7,0.4-1,0.6c-0.9,0.4-1.7,1-2.6,1.4c-0.9,0.5-1.5,0.9-2.3,1.3c-0.1-0.3-0.2-0.6-0.2-0.9l0,0
			c0.1,0,0.1-0.1,0.2-0.1c0.2-0.1,0.4-0.2,0.6-0.2c0.3,0,0.3-0.5,0-0.5c-0.1,0-0.2,0-0.3,0.1c0.1-0.1,0.3-0.2,0.4-0.4
			c0.2-0.2,0.2-0.5,0.1-0.8c-0.3-0.3-0.7-0.4-1.1-0.3c-0.1,0-0.2,0.2-0.2,0.3c0,0.1,0.1,0.2,0.2,0.2c0.1,0,0.3,0,0.4,0h0.1l0,0l0,0
			l0,0l0,0l0,0l0,0V18l0,0v0.1c-0.1,0.1-0.2,0.2-0.3,0.3l0,0l-0.1-0.1c0-0.1-0.2-0.1-0.3-0.1c-0.1,0-0.1,0.1-0.1,0.2
			c0.1,0.3,0.3,0.4,0.6,0.4l-0.2,0.1c-0.2,0.1-0.3,0.2-0.4,0.4c0,0.2,0,0.4,0.1,0.6c0,0.2,0.1,0.4,0.3,0.6l-0.1,0.1
			c-0.7,0.3-1.4,0.7-1.9,1.1c-0.2-0.1-0.4-0.3-0.7-0.4c0.5-0.7,0.6-2-0.5-2.1c-0.6-0.1-1.8,0.5-1.6,1.2l-1-0.4
			c-1.1-0.4-2.1-0.8-3.2-1.1c0.4-1.5-2.2-1.6-2.6-0.8c-1.2-0.1-2.5-0.6-3.8-1.1c-0.7-0.4-1.4-0.7-2.2-0.9L1.6,15.9z M9.6,12L9.6,12
			L9.6,12c0.1-0.2,0.2-0.3,0.3-0.4H10c0.1,0,0.1,0,0.1-0.1l0,0c0.2-0.1,0.5-0.2,0.8-0.3c0.5-0.1,0.7,0.5,0.8,1
			c-0.2,0.4-0.7,0.6-1.1,0.5c-0.3,0-0.5-0.1-0.8-0.3C9.7,12.3,9.6,12.2,9.6,12C9.7,12.2,9.7,12.1,9.6,12z M17.4,22
			c0.6-0.4,1.2-0.7,1.8-1c0.8-0.4,1.6-0.9,2.4-1.4c0.8-0.5,1.4-0.9,2.3-1.3c0.6-0.4,1.3-0.8,1.9-1.1l0,0c0.2,0.7,0,1.4-0.6,1.9
			c-0.9,0.6-1.8,1.1-2.7,1.6c-0.9,0.6-2,1-3,1.5c-0.8,0.5-1.6,0.7-2.4,1.2c0,0,0,0,0-0.1c0-0.5,0-0.9,0-1.3
			C17.4,22.3,17.5,22.2,17.4,22z M18.8,9.9L18.8,9.9C18.8,10,18.8,10,18.8,9.9L18.5,10c-0.3,0-0.6,0.1-0.9,0.2
			c0-0.3-0.1-0.6-0.3-0.8c0.1-0.3,0.6-0.3,0.8-0.2s0.4,0.4,0.6,0.5l0,0C18.8,9.8,18.8,9.9,18.8,9.9z M14.1,9.5
			c-0.3-0.7-0.9-1.1-1.6-1.1c0.2-0.4,1-0.3,1.4-0.3c0.3,0,0.5,0.1,0.8,0.3c0.2,0.1,0.2,0.3,0.3,0.5c0,0.1,0.1,0.1,0.2,0.1
			c-0.2,0.1-0.3,0.3-0.4,0.4c0,0.1-0.1,0.1-0.1,0.2l0,0c-0.2,0-0.4,0-0.5,0.1C14.1,9.8,14.2,9.6,14.1,9.5z M16,21.1L16,21.1
			c-0.4-0.2-0.8-0.4-1.3-0.5v-0.1c-0.3-0.6,0.8-0.9,1.1-0.9C16.5,19.8,16.4,20.8,16,21.1L16,21.1z M9.6,18.9l-1.2-0.4l-0.6-0.2
			c0.3-0.2,0.6-0.3,0.9-0.2C9.3,18.2,9.6,18.4,9.6,18.9z M3.7,17.5c1.3,0.4,2.5,0.8,3.8,1.2c0,0.1,0.1,0.1,0.2,0.1L8.4,19
			c1.4,0.5,3,0.9,4.4,1.4c1.4,0.5,2.7,1,4,1.6c0,0.1,0,0.2,0.1,0.2v1.1c-1.2-0.2-2.3-0.6-3.5-0.9c-0.7-0.2-1.3-0.4-1.9-0.6
			c-0.5-0.3-1.1-0.4-1.6-0.5l0,0c-0.1-0.1-0.1-0.3-0.2-0.4c-0.3-0.5-0.8-0.8-1.4-0.9c0-0.1,0-0.3-0.1-0.4c0-0.1-0.1-0.1-0.2-0.1l0,0
			c-0.4-0.4-1-0.3-1.4,0.2c0-0.1,0-0.2-0.1-0.2c-1-0.5-2-0.8-3.1-1.1c-0.5-0.1-0.9-0.2-1.4-0.3c-1-0.3-1.2-1.1-1.2-1.8
			C2,16.8,2.9,17.2,3.7,17.5z M5.7,23.1c-0.3-0.3-0.1-0.9,0.1-1.2c0.1-0.2,0.1-0.3,0.2-0.5c0,0.2,0.1,0.4,0.2,0.6l0,0
			c0,0.3-0.1,0.7-0.1,1c0,0.1,0,0.2,0.1,0.2c0.7,0.4,1.9,0.8,2.5,0.1c0,0,0.1-0.1,0.1-0.2C8.9,23,8.9,23,8.9,22.9
			c-0.1-0.6-0.3-1.5-1-1.5c0-0.1-0.1-0.2-0.2-0.3c-0.2-0.3,0.2-0.6,0.4-0.6c0.1,0,0.2,0,0.2-0.1c0.2,0,0.3,0.1,0.5,0.2
			c0.3,0.1,0.5,0.3,0.6,0.6c0.2,0.3,0.2,0.6,0.3,0.9c0,0.1,0,0.3-0.1,0.4c0,0,0,0.1-0.1,0.1c0,0.1,0,0.1,0,0.2s0.1,0.2,0.2,0.2h0.1
			l0,0c0.3,0.5,0.1,1.4-0.1,1.8c-0.3,0.8-1,1.4-1.7,1.5c-1.9,0.6-2.5-1.4-2.3-3h0.1C5.8,23.3,5.8,23.2,5.7,23.1
			C5.8,23.1,5.8,23.1,5.7,23.1z M6.9,20.5L6.9,20.5c0.2-0.4,0.6-0.9,1-0.5c0,0,0.1,0.1,0.1,0c0,0.1,0,0.2,0,0.3
			c-0.4,0-0.6,0.4-0.7,0.8c0,0.2,0,0.4,0.1,0.5c0.1,0.1,0.1,0.2,0.1,0.3c0.1,0.3,0.1,0.3-0.2,0.3l0,0C7,22.1,6.7,22,6.6,21.7
			c0-0.2,0-0.5,0.1-0.7c0.1-0.1,0.2-0.2,0.3-0.2C7.1,20.8,7.1,20.5,6.9,20.5z M8.1,22.1c0.2,0.3,0.4,0.7,0.4,1.1
			c-0.4,0.4-1.4,0.1-1.8-0.1c0-0.2,0-0.4,0-0.6c0.2,0.1,0.4,0.1,0.6,0.1h0.1C7.6,22.6,8.1,22.6,8.1,22.1C8.2,22.2,8.2,22.1,8.1,22.1
			z M16.9,30.6c-0.8-0.2-1.5-0.6-2.3-0.9c-1.4-0.5-2.8-1-4.1-1.3c-1.4-0.4-2.9-0.7-4.3-1c-0.7-0.2-1.3-0.5-1.8-0.8
			c-0.7-0.2-1.3-0.5-1.7-1.1c-0.6-0.8-0.5-2-0.6-3c-0.3-1.4-0.5-2.8-0.6-4.1c0.1,0.1,0.2,0.1,0.3,0.1c1.5,0.6,3.2,0.7,4.8,1.4
			c0.1,0,0.1,0,0.2,0c-0.1,0.2-0.3,0.4-0.3,0.6C6,21,5.7,21.4,5.6,21.9c-0.1,0.2-0.3,1.1-0.1,1.4c-0.7,1.9,0.7,4,2.8,3.6
			c1.1-0.3,1.8-1.1,2.1-2.1c0.3-0.7,0.2-1.4-0.2-2.1c0.1-0.3,0-0.6-0.1-0.9c0.6,0.2,1.2,0.4,1.7,0.7c0.6,0.2,1.3,0.4,1.8,0.5
			c1.1,0.3,2.1,0.7,3.2,0.9c0,0.6,0.1,1.2,0.4,1.7c0.3,1.3,0.4,2.6,0.4,3.9C17.6,30,17.8,30.7,16.9,30.6z M26.6,25.3
			c-0.6,0.3-1.2,0.6-1.6,1c-1,0.6-1.8,1.1-2.8,1.6c-0.8,0.5-1.5,0.9-2.3,1.4c-0.8,0.5-1.3,0.9-1.8,1.3c0.1-1.1,0.1-2.1,0-3.2
			c0-0.6-0.1-1.2-0.2-1.6c-0.2-0.5-0.4-1.1-0.5-1.5c1.1-0.6,2.3-1,3.4-1.5c1.1-0.6,2.3-1.2,3.4-1.9c0.5-0.4,1.3-0.6,1.8-1
			c0,0.8,0.2,1.5,0.3,2.3C26.2,23.1,26.3,24.3,26.6,25.3z M26.6,16.1c-0.1,0.1-0.1,0.3-0.2,0.4l-0.1-0.1c-0.2-1.4-0.7-2.7-1.4-4
			c-0.5-1-1-1.9-1.4-2.9c-0.6-0.8-1-1.7-1.3-2.7l0,0c0.2-0.1,0.3-0.4,0.5-0.6c0.5-0.5,0.6,0,0.8,0.4c0.5,0.9,0.8,1.8,1.3,2.7
			c0.5,0.9,0.9,1.9,1.4,2.9c0.2,0.5,0.4,1,0.7,1.4c0.3,0.4,0.5,0.8,0.7,1.3l0,0C27,15.3,26.7,15.7,26.6,16.1L26.6,16.1z M29,10.9
			c-0.3,1.3-0.9,2.4-1.4,3.6c-0.2-0.5-0.5-0.9-0.8-1.3c-0.5-0.9-0.9-1.7-1.2-2.6c-0.4-0.9-0.9-1.6-1.3-2.5s-0.8-1.7-1.3-2.5
			c1.3-0.8,2.7-1,4.1-0.5c1,0.6,1.6,1.6,1.7,2.8C29.2,8.9,29.1,9.9,29,10.9L29,10.9z"/>
		<path class="st0" d="M16.9,16.6c0.2,0.1,0.3-0.2,0.2-0.3c-0.3-0.6,1.1-1,1.4-0.7c0.4,0.3,0,0.8-0.3,0.9
			C17.9,16.6,17.5,16.7,16.9,16.6c0,0.1-0.1,0.2-0.1,0.3s0.1,0.2,0.2,0.2c0.6,0.1,1.3,0,1.8-0.4c0.4-0.4,0.4-1,0.1-1.4l-0.1-0.1
			c-0.6-0.3-1.3-0.2-1.6,0.2C16.7,15.7,16.4,16.4,16.9,16.6z"/>
		<path class="st0" d="M5.1,16.7c0.1,0,0.2-0.1,0.2-0.2c0,0,0-0.1-0.1-0.1l0,0l0,0l0,0c0.1-0.2,0.2-0.3,0.3-0.4
			c0.2-0.3,0.6-0.5,1-0.5c0.2,0,0.4,0.1,0.4,0.3c0.1,0.2-0.1,0.4-0.2,0.6c-0.3,0.3-0.8,0.5-1.2,0.4c-0.2-0.1-0.4,0.3-0.2,0.4
			c0.6,0.2,1.3,0,1.7-0.5c0.4-0.3,0.4-0.9,0.1-1.3C6.9,15.1,6.8,15,6.6,15c-0.6-0.1-1.2,0.1-1.5,0.6C4.9,15.8,4.4,16.7,5.1,16.7z"/>
		<path class="st0" d="M7.9,25.3L7.9,25.3z"/>
		<path class="st0" d="M7.9,25.3L7.9,25.3L7.9,25.3c0-0.2,0-0.2,0-0.3s0-0.2,0-0.3c0.1-0.1,0.1-0.2,0-0.3l0,0
			c-0.1-0.1-0.2,0-0.3,0.1c-0.3,0.2-0.3,0.4-0.3,0.5c0,0.2,0,0.4,0.1,0.5C7.6,25.7,7.9,25.5,7.9,25.3z"/>
		<path class="st0" d="M7.9,25.3L7.9,25.3L7.9,25.3z"/>
	</g>
</g>
</svg>
