<?xml version="1.0" encoding="utf-8"?>
<!-- Generator: Adobe Illustrator 22.0.1, SVG Export Plug-In . SVG Version: 6.00 Build 0)  -->
<svg version="1.1" id="Layer_1" xmlns="http://www.w3.org/2000/svg" xmlns:xlink="http://www.w3.org/1999/xlink" x="0px" y="0px"
	 viewBox="0 0 30.1 31.8" style="enable-background:new 0 0 30.1 31.8;" xml:space="preserve">
<style type="text/css">
	.st0{fill:#F47A20;}
</style>
<title>Asset 47</title>
<g id="Layer_2_1_">
	<g id="Layer_1-2">
		<path class="st0" d="M13.7,18.6c-0.4,0.9-1.3,0.1-1.5-0.6c0.5,0.2,1.1-0.1,1.3-0.6c0,0,0,0,0-0.1c0.2-0.7-0.7-1.1-1.3-1.2
			c-0.3-0.1-0.7,0-0.9,0.2c-0.2,0.1-0.2,0.3-0.1,0.5c0,0,0.1,0.1,0.1,0.1c0,0.4,0.2,0.8,0.5,0.9l0,0c-0.2,1.2,1.7,2.3,2.3,1
			C14.3,18.6,13.9,18.3,13.7,18.6z M11.8,16.9c0.1,0,0.2-0.1,0.2-0.2c0,0,0-0.1,0-0.1H12c0.2,0,0.4,0,0.5,0.1
			c0.3,0.1,0.7,0.4,0.5,0.7c-0.2,0.2-0.5,0.3-0.8,0.2C12,17.5,11.8,17.2,11.8,16.9z"/>
		<path class="st0" d="M13.8,17c0,0.1,0.1,0.2,0.2,0.2s0.2-0.1,0.2-0.2c0-0.3,0.4-0.1,0.5,0c0.2,0.1,0.4,0.3,0.5,0.5
			c0.1,0.3,0.5,0.2,0.5-0.1C15.5,16.6,13.8,15.9,13.8,17z"/>
		<path class="st0" d="M9.3,16.1c0.2-0.3,0.2-0.8,0-1.1c-0.3-0.3-0.6-0.3-1-0.3c0-0.1-0.1-0.2-0.2-0.1c0,0,0,0-0.1,0
			c-0.1,0.1-0.2,0.2-0.2,0.3c0,0.1,0.1,0.2,0.2,0.3c0.3,0,0.6,0,0.9,0c0.2,0.1,0.1,0.4,0.1,0.5s-0.7,0.3-0.8,0s-0.6-0.2-0.5,0.1
			c0.2,0.5,0.8,0.8,1.3,0.6C9,16.4,9.1,16.3,9.3,16.1z"/>
		<path class="st0" d="M13.4,14.8c0.6,0.6,1.4,0.9,2.3,0.8c0.5,0,1.2-0.4,1.1-1s-2.2-1.6-2.4-0.6c0,0.2,0.2,0.4,0.4,0.2
			c0.3-0.3,1.3,0.2,1.5,0.5s-0.8,0.4-0.9,0.4c-0.6,0-1.2-0.2-1.6-0.6c-0.1-0.1-0.2-0.1-0.3,0S13.3,14.7,13.4,14.8L13.4,14.8z"/>
		<path class="st0" d="M14.7,13.1c0.1-0.2,0.4-0.2,0.6-0.3c0.2,0,0.4,0,0.6,0.1c0.1,0.1,0.3,0,0.3-0.1c0-0.1,0-0.1,0-0.2
			c-0.1-0.4-0.6-0.4-0.9-0.4c-0.4,0-0.7,0.3-0.9,0.6c0,0.1,0,0.2,0.1,0.2C14.6,13.2,14.7,13.2,14.7,13.1z"/>
		<path class="st0" d="M13.2,15.4c0.1-0.1,0.1-0.3,0-0.4s-0.3-0.1-0.4,0l0,0c-0.5,0.4-1.2,0.3-1.6-0.2c0,0,0,0,0,0
			c-0.2-0.4,0.3-0.7,0.5-0.9c0.5-0.2,1.1-0.2,1.7,0c0.1,0,0.2-0.1,0.2-0.2c0-0.1,0-0.1-0.1-0.2c-0.7-0.3-1.4-0.3-2.1,0
			c-0.6,0.2-0.9,0.8-0.8,1.4C11,15.8,12.6,16,13.2,15.4z"/>
		<path class="st0" d="M29.6,6.2c-0.4-1.2-1.5-2-2.7-2.2c-0.2,0-0.3,0-0.5,0C26,3.7,25.5,3.5,25,3.5c-1.1-0.1-2.2-0.4-3.2-0.7
			c-2.4-0.8-4.8-1.5-7.2-2.3C12.9-0.1,11-0.2,9.2,0.4C8.4,0.7,6.9,1.1,6.6,2.1l0,0C6.3,2.2,5.4,2.8,5.3,3.2c-0.1,0-0.2,0.2-0.2,0.3
			c0,0,0,0.1,0.1,0.1C6.1,4.8,6.9,6,7.5,7.3c0.3,0.6,0.7,1.2,1,1.9c0.1,0.3,0.1,0.7,0.2,1c-1.1,0-2.1,0.6-2.5,1.6
			c-0.6,0-1.1,0.2-1.6,0.6c-0.4,0.3-0.9,0.9-0.8,1.4H3.7c-0.5,0.1-1,0.3-1.4,0.6c-0.2,0.2-0.3,0.4-0.4,0.6c-0.1,0-0.2,0-0.2,0
			c-0.3,0.1-0.5,0.3-0.7,0.4c-0.2,0.1-0.6,0.3-0.7,0.6l0,0c-0.1,0-0.2,0.2-0.1,0.3c0,0,0.1,0.1,0.1,0.1l0,0
			c-0.1,0.6,0.1,1.2,0.3,1.7c0,2.1,0.2,4.2,0.6,6.3c0.1,0.6,0.3,1.3,0.6,1.8c0.4,0.7,1.5,0.9,2.2,1.2c0.9,0.4,1.9,0.8,3,1
			c1.4,0.3,2.8,0.6,4.2,1c1.4,0.4,2.8,0.8,4.1,1.4c0.7,0.4,1.5,0.6,2.3,0.8c0,0.1,0.1,0.1,0.2,0.1c0.7-0.3,1.4-0.7,2-1.1
			c0.7-0.5,1.6-1,2.3-1.4l2.5-1.5c0.9-0.5,1.9-1.4,2.8-1.6c0.2-0.1,0.3-0.2,0.3-0.4c-0.5-2.1-0.8-4.3-0.9-6.5l0,0
			c0.3-0.7,0.3-1.5,0.1-2.2c0.4-0.6,0.7-1.2,1.1-1.8c0.1,0,0.2,0,0.2-0.1c0.7-1.6,1.7-3.1,1.9-4.9C30.2,8.9,30.1,7.5,29.6,6.2z
			 M10.1,0.6C12,0,14,0.8,15.8,1.4s3.6,1.1,5.5,1.7c0.8,0.3,1.6,0.5,2.4,0.6c0.5,0.1,1.2,0.1,1.8,0.3c-0.9,0.1-1.7,0.5-2.4,1.1
			c-3.5-0.2-6.9-0.6-10.3-1.3C11.5,3.5,10.4,3,9.2,2.6C8.5,2.4,7.8,2.2,7,2.1C7.6,1.2,9.2,0.8,10.1,0.6z M5.7,3.1L5.9,3
			c0.3-0.4,0.8-0.5,1.2-0.4c0.4,0.1,0.8,0.1,1.2,0.2c0.9,0.2,1.8,0.5,2.7,0.8c1.7,0.6,3.5,1,5.3,1.1c2.1,0.3,4.1,0.6,6.2,0.8
			c-0.2,0.2-0.4,0.5-0.6,0.7l0,0c-0.6-0.3-1.3-0.4-2.1-0.4c-1.7-0.2-3.4-0.3-5-0.6s-3.5-0.5-5.3-1C8.8,4,8,3.9,7.2,3.7
			C6.7,3.5,6.3,3.3,5.8,3.2C5.8,3.1,5.7,3.1,5.7,3.1z M1.1,15.9c0.2-0.1,0.4-0.3,0.6-0.4c0,0.3,0.2,0.5,0.5,0.6
			c0.2,0.1,0.3-0.2,0.1-0.3c-0.6-0.4,0.2-1.1,0.6-1.4c0.3-0.2,0.7-0.2,1-0.2c0.3,0,0.5,0.1,0.8,0.1c0.1,0,0.2-0.1,0.2-0.2
			c0,0,0-0.1-0.1-0.1c-0.1-0.1-0.3-0.2-0.5-0.2c-0.1-0.4,0.5-0.9,0.7-1.1c0.2-0.2,0.5-0.3,0.8-0.4c0.1,0,0.2,0,0.4,0
			c-0.3,0.3-0.4,0.6-0.3,1c0.1,0.1,0.3,0.2,0.4,0c0-0.3,0.2-0.7,0.5-0.9c0.3-0.2,0.6-0.3,0.9-0.2c0.4,0.2,0.1,0.6-0.1,0.8
			c-0.3,0.4-0.7,0.6-1.2,0.5c-0.1,0-0.2,0-0.2,0.1c0,0,0,0.1,0,0.1C7,14.7,9.1,12.9,8.2,12c-0.5-0.3-1.1-0.3-1.6,0
			c0,0-0.1-0.1-0.1-0.1c0.2-1.2,2.3-1.6,3.1-0.8l0,0c-0.3,0-0.5,0.4-0.6,0.7c-0.1,0.5,0.3,0.9,0.7,1.1c0.7,0.3,1.5,0.2,2.1-0.3
			c0.1,0,0.2-0.1,0.2-0.3c0,0,0,0,0,0c-0.2-0.8-0.6-1.9-1.7-1.6c-0.1,0-0.3,0.1-0.4,0.2c-0.2-0.3-0.5-0.5-0.8-0.6c0,0,0-0.1,0-0.1
			C9,9.7,9,9.1,8.8,8.6c-0.3-0.7-0.7-1.3-1-2c-0.5-1-1.1-2-1.9-2.9c0.5,0.1,1,0.4,1.4,0.5c0.7,0.2,1.4,0.3,2.1,0.5
			c1.6,0.4,3.2,0.7,4.8,0.9c1.5,0.3,2.9,0.4,4.4,0.6c0.8,0.1,2.3,0,3,0.5c0,0,0.1,0.1,0.1,0.1l0,0l0.1,0.1c-0.1,0.7,1.7,3.6,2,4.1
			c1,1.7,1.7,3.6,2.1,5.5c-0.1-0.2-0.1-0.3-0.3-0.5c-0.4-0.4-0.9-0.5-1.4-0.5c0-0.1-0.1-0.2-0.1-0.2c-0.4-0.4-1-0.6-1.5-0.4
			c-0.1-0.6-0.4-1.2-1-1.5c-0.1,0-0.2-0.1-0.3-0.1c0.2-0.8-0.7-1.4-1.5-1.6c0.1-0.3,0.1-0.5,0-0.8c-0.1-0.4-0.3-0.7-0.7-0.9
			c0,0,0-0.1,0-0.1c0-0.1,0-0.3,0-0.4c0-0.2-0.1-0.3-0.2-0.4c0,0,0,0,0,0c-0.3-0.3-0.7-0.5-1.1-0.5c-0.3,0-0.6,0.1-0.8,0.4
			c-0.4-0.3-0.9-0.4-1.4-0.3c-0.1,0-0.3,0.1-0.4,0.1c0.5-1.2-3.2-1.9-3.2-0.4c-0.4,0.1-0.8,0.4-0.7,0.9c-0.3,0-0.6,0.1-0.8,0.3
			c-0.4,0.2-0.6,0.7-0.5,1.1c0,0.1,0.1,0.2,0.2,0.1c0,0,0,0,0,0c-0.1,0,0.1,0,0.1,0c0.1,0,0.1-0.1,0-0.2c0,0,0,0,0,0
			c0,0,0-0.1,0-0.1c0.1-0.1,0.1-0.3,0.2-0.4c0.3-0.4,0.9-0.5,1.3-0.2c0,0,0.1,0.1,0.1,0.1c0.2,0.2,0.6-0.1,0.4-0.4
			c-0.2-0.2-0.4-0.3-0.6-0.3c-0.1-0.5,0.4-0.5,0.8-0.5c0.5,0,1,0.3,1.1,0.8c0.1,0.1,0.2,0.1,0.3,0.1c-0.4,0.2-0.7,0.4-1,0.7
			c-0.5,0.4-0.6,1.1-0.3,1.6c0.1,0.1,0.2,0.1,0.3,0c0.1,0,0.1-0.1,0.1-0.2c-0.3-0.9,0.5-1.5,1.3-1.8c0.1,0,0.2,0,0.3,0
			c0,0.1,0.1,0.2,0.3,0.3c0,0.1,0,0.2,0,0.3c-0.1,0.4-0.4,0.5-0.5,0.8c0,0.1,0.1,0.2,0.2,0.2c0,0,0.1,0,0.1,0
			c0.5-0.1,0.8-0.8,0.8-1.2c0-0.3-0.1-0.5-0.3-0.7c0-0.1,0-0.2,0-0.2c0.2-0.3,0.4-0.5,0.8-0.6c0.3-0.1,0.7-0.1,0.9,0.1
			c0.4,0.2,0.4,0.7,0.5,1.1L17,10.3c-0.3,0.2-0.5,0.6-0.1,0.8c0.1,0,0.2,0,0.2-0.1c0,0,0-0.1,0-0.1c-0.1-0.2,0.9-0.5,1.1-0.5
			c0.3-0.1,0.7,0,1,0.2c0.2,0.1,0.5,1,0.1,1.1s-0.3,0.6,0,0.5c0.1,0,0.2,0,0.3-0.1c0.6,0.1,1.7,0.5,1.3,1.3c-0.1,0-0.3,0.1-0.4,0.2
			c-0.4-1.1-2.5-1.8-2.8-0.3c0,0.1,0,0.2,0.1,0.2s0.2,0,0.2-0.1c0.4-0.9,1.9-0.4,2,0.5c0,0,0,0.1,0,0.1c-0.3,0.4-0.3,0.9-0.1,1.4
			c0,0.1,0.1,0.1,0.2,0.1s0.1-0.1,0.1-0.2c-0.2-0.7,0.3-1.7,1.1-1.4c0.3,0.1,1,0.9,0.7,1.2c-0.1,0-0.1,0-0.2,0.1l0,0
			c-0.6,0.2-0.9,0.8-0.8,1.4c0.1,0.5,1.1,0.9,1.4,0.5c0.1-0.1,0.1-0.2,0-0.3c-0.2-0.3-0.7,0-0.9-0.3s0.1-0.7,0.5-0.9l0,0l0.1-0.1
			c0.1-0.1,0.3-0.1,0.4-0.1c0.4-0.1,1.3,0,1.2,0.6c0,0.3-0.4,0.5-0.4,0.8c0,0.1,0.2,0.1,0.2,0.1c0,0,0.1-0.1,0.1-0.1l0,0
			c0.1,0,0.1-0.1,0.1-0.1c0.1-0.1,0.2-0.3,0.3-0.5c0,0,0-0.1,0-0.2c0.4,0,0.7,0.1,1,0.3c0.2,0.2,0.3,0.6,0.3,0.9
			c-0.4,0.2-0.7,0.4-1,0.6c-0.9,0.4-1.8,1-2.7,1.5s-1.6,0.9-2.4,1.3c-0.1-0.3-0.2-0.6-0.2-0.9c0,0,0,0,0,0c0.1,0,0.1-0.1,0.2-0.1
			c0.2-0.1,0.4-0.2,0.6-0.2c0.3,0,0.3-0.5,0-0.5c-0.1,0-0.2,0-0.3,0.1c0.1-0.1,0.3-0.2,0.4-0.4c0.2-0.2,0.2-0.5,0.1-0.8
			c-0.3-0.3-0.7-0.4-1.1-0.3c-0.1,0-0.2,0.2-0.2,0.3c0,0.1,0.1,0.2,0.2,0.2c0.1,0,0.3,0,0.4,0h0.1l0,0l0,0l0,0l0,0l0,0V18
			c0,0,0,0.1,0,0.1l0,0v0.1c-0.1,0.1-0.2,0.2-0.3,0.3h0l-0.1-0.1c0-0.1-0.2-0.1-0.3-0.1c-0.1,0-0.1,0.1-0.1,0.2
			c0.1,0.3,0.3,0.4,0.6,0.4l-0.2,0.1c-0.2,0.1-0.3,0.2-0.4,0.4c0,0.2,0,0.4,0.1,0.6c0,0.2,0.1,0.4,0.3,0.6l-0.1,0.1
			c-0.7,0.3-1.4,0.7-2,1.1c-0.2-0.1-0.4-0.3-0.7-0.4c0.5-0.7,0.6-2.1-0.5-2.2c-0.6-0.1-1.9,0.5-1.7,1.2l-1-0.4
			c-1.1-0.4-2.2-0.8-3.3-1.1c0.4-1.6-2.3-1.7-2.7-0.8C5.8,18,4.4,17.5,3.1,17c-0.7-0.4-1.5-0.7-2.3-0.9L1.1,15.9z M9.4,11.9
			L9.4,11.9c0,0,0-0.1,0-0.1c0.1-0.1,0.2-0.2,0.3-0.3h0.1c0.1,0,0.1,0,0.1-0.1c0,0,0,0,0,0c0.2-0.1,0.5-0.2,0.8-0.3
			c0.5-0.1,0.7,0.5,0.8,1c-0.2,0.4-0.7,0.6-1.1,0.5c-0.3,0-0.5-0.1-0.8-0.3c-0.1-0.1-0.2-0.2-0.2-0.3C9.5,12.1,9.5,12,9.4,11.9z
			 M17.5,22.2c0.6-0.4,1.2-0.7,1.9-1c0.8-0.4,1.7-0.9,2.5-1.4s1.5-0.9,2.4-1.3c0.6-0.4,1.3-0.8,2-1.1l0,0c0.2,0.7,0,1.5-0.6,2
			c-0.9,0.6-1.9,1.1-2.8,1.7s-2.1,1-3.1,1.6c-0.8,0.5-1.7,0.7-2.5,1.2c0,0,0,0,0-0.1c0-0.5,0-0.9,0-1.3
			C17.5,22.5,17.6,22.4,17.5,22.2z M18.9,9.7L18.9,9.7C18.9,9.8,18.9,9.8,18.9,9.7l-0.3,0.1c-0.3,0-0.6,0.1-0.9,0.2
			c0-0.3-0.1-0.6-0.3-0.8C17.5,8.9,18,8.9,18.2,9s0.4,0.4,0.6,0.5l0,0C18.9,9.6,18.9,9.7,18.9,9.7z M14.1,9.3
			c-0.3-0.7-0.9-1.1-1.7-1.1c0.2-0.4,1-0.3,1.4-0.3c0.3,0,0.5,0.1,0.8,0.3c0.2,0.1,0.2,0.3,0.3,0.5c0,0.1,0.1,0.1,0.2,0.1
			c-0.2,0.1-0.3,0.3-0.4,0.4c0,0.1-0.1,0.1-0.1,0.2l0,0c-0.2,0-0.4,0-0.5,0.1C14.1,9.6,14.2,9.4,14.1,9.3z M16,21.3L16,21.3
			c-0.4-0.2-0.8-0.4-1.3-0.5c0,0,0-0.1,0-0.1c-0.3-0.6,0.8-0.9,1.1-0.9C16.6,19.9,16.4,21,16,21.3L16,21.3z M9.4,19l-1.2-0.4
			l-0.6-0.2c0.3-0.2,0.6-0.3,0.9-0.2C9.1,18.3,9.4,18.5,9.4,19z M3.3,17.6c1.3,0.4,2.6,0.8,3.9,1.2c0,0.1,0.1,0.1,0.2,0.1l0.7,0.2
			c1.5,0.5,3.1,0.9,4.6,1.5c1.4,0.5,2.8,1,4.1,1.7c0,0.1,0,0.2,0.1,0.2v1.1c-1.2-0.2-2.4-0.6-3.6-0.9c-0.7-0.2-1.3-0.4-2-0.6
			c-0.5-0.3-1.1-0.4-1.7-0.5l0,0c-0.1-0.1-0.1-0.3-0.2-0.4c-0.3-0.5-0.8-0.8-1.4-0.9c0-0.1,0-0.3-0.1-0.4c0-0.1-0.1-0.1-0.2-0.1
			c0,0,0,0,0,0c-0.4-0.4-1-0.3-1.4,0.2c0-0.1,0-0.2-0.1-0.2c-1-0.5-2.1-0.8-3.2-1.1c-0.5-0.1-0.9-0.2-1.4-0.3
			c-1-0.3-1.2-1.1-1.2-1.9C1.5,16.8,2.4,17.2,3.3,17.6z M5.4,23.4c-0.3-0.3-0.1-0.9,0.1-1.2c0.1-0.2,0.1-0.3,0.2-0.5
			c0,0.2,0.1,0.4,0.2,0.6l0,0c0,0.3-0.1,0.7-0.1,1c0,0.1,0,0.2,0.1,0.2c0.7,0.4,2,0.8,2.6,0.1c0,0,0.1-0.1,0.1-0.2
			c0.1-0.1,0.1-0.1,0.1-0.2c-0.1-0.6-0.3-1.6-1-1.6c0-0.1-0.1-0.2-0.2-0.3c-0.2-0.3,0.2-0.6,0.4-0.6c0.1,0,0.2,0,0.2-0.1
			c0.2,0,0.3,0.1,0.5,0.2c0.3,0.1,0.5,0.3,0.6,0.6c0.2,0.3,0.2,0.6,0.3,0.9c0,0.1,0,0.3-0.1,0.4c0,0,0,0.1-0.1,0.1
			c0,0.1,0,0.1,0,0.2c0,0.1,0.1,0.2,0.2,0.2c0,0,0.1,0,0.1,0l0,0c0.3,0.5,0.1,1.4-0.1,1.9c-0.3,0.8-1,1.4-1.8,1.6
			c-2,0.6-2.6-1.5-2.4-3.1h0.1C5.5,23.6,5.5,23.5,5.4,23.4C5.5,23.4,5.5,23.4,5.4,23.4z M6.6,20.7L6.6,20.7c0.2-0.4,0.6-0.9,1-0.5
			c0,0,0.1,0.1,0.1,0c0,0.1,0,0.2,0,0.3c-0.4,0-0.6,0.4-0.7,0.8c0,0.2,0,0.4,0.1,0.5c0.1,0.1,0.1,0.2,0.1,0.3
			c0.1,0.3,0.1,0.3-0.2,0.3H7c-0.3-0.1-0.6-0.2-0.7-0.5c0-0.2,0-0.5,0.1-0.7C6.5,21.1,6.6,21,6.7,21C6.8,21,6.8,20.7,6.6,20.7z
			 M7.8,22.3c0.2,0.3,0.4,0.7,0.4,1.1c-0.4,0.4-1.4,0.1-1.9-0.1c0-0.2,0-0.4,0-0.6c0.2,0.1,0.4,0.1,0.6,0.1H7
			c0.3,0.1,0.8,0.1,0.8-0.4C7.9,22.4,7.9,22.3,7.8,22.3z M17,31.1c-0.8-0.2-1.6-0.6-2.4-0.9c-1.4-0.5-2.9-1-4.3-1.3
			c-1.5-0.4-3-0.7-4.5-1c-0.7-0.2-1.3-0.5-1.9-0.8c-0.7-0.2-1.3-0.5-1.8-1.1c-0.6-0.8-0.5-2.1-0.6-3.1C1.2,21.4,1,20,0.9,18.6
			c0.1,0.1,0.2,0.1,0.3,0.1c1.6,0.6,3.3,0.7,5,1.5c0.1,0,0.1,0,0.2,0c-0.1,0.2-0.3,0.4-0.3,0.6c-0.4,0.4-0.8,0.8-0.9,1.3
			c-0.1,0.2-0.3,1.1-0.1,1.5c-0.7,2,0.7,4.1,2.9,3.7c1.1-0.3,1.9-1.1,2.2-2.2c0.3-0.7,0.2-1.5-0.2-2.2c0.1-0.3,0-0.6-0.1-0.9
			c0.6,0.2,1.2,0.4,1.8,0.7c0.6,0.2,1.3,0.4,1.9,0.5c1.1,0.3,2.2,0.7,3.3,0.9c0,0.6,0.1,1.2,0.4,1.8c0.3,1.3,0.4,2.7,0.4,4
			C17.7,30.5,17.9,31.3,17,31.1z M27,25.7c-0.6,0.3-1.2,0.6-1.7,1c-1,0.6-1.9,1.1-2.9,1.7c-0.8,0.5-1.6,0.9-2.4,1.4
			s-1.3,0.9-1.9,1.3c0.1-1.1,0.1-2.2,0-3.3c0-0.6-0.1-1.2-0.2-1.7c-0.2-0.5-0.4-1.1-0.5-1.6c1.1-0.6,2.4-1,3.5-1.6s2.4-1.2,3.5-2
			c0.5-0.4,1.3-0.6,1.9-1c0,0.8,0.2,1.6,0.3,2.4C26.6,23.4,26.7,24.6,27,25.7z M27,16.1c-0.1,0.1-0.1,0.3-0.2,0.4
			c0,0-0.1-0.1-0.1-0.1c-0.2-1.4-0.7-2.8-1.5-4.1c-0.5-1-1-2-1.5-3c-0.6-0.8-1-1.8-1.3-2.8l0,0c0.2-0.1,0.3-0.4,0.5-0.6
			c0.5-0.5,0.6,0,0.8,0.4c0.5,0.9,0.8,1.9,1.3,2.8s0.9,2,1.4,3c0.2,0.5,0.4,1,0.7,1.4c0.3,0.4,0.5,0.8,0.7,1.3l0,0
			C27.4,15.3,27.1,15.7,27,16.1L27,16.1z M29.5,10.7c-0.3,1.3-0.9,2.5-1.5,3.7c-0.2-0.5-0.5-0.9-0.8-1.3c-0.5-0.9-0.9-1.8-1.2-2.7
			c-0.4-0.9-0.9-1.7-1.3-2.6c-0.4-0.9-0.8-1.8-1.3-2.6c1.3-0.8,2.8-1,4.2-0.5c1,0.6,1.7,1.7,1.8,2.9C29.7,8.6,29.6,9.7,29.5,10.7
			L29.5,10.7z"/>
		<path class="st0" d="M17,16.6c0.2,0.1,0.3-0.2,0.2-0.3c-0.3-0.6,1.1-1,1.5-0.7s0,0.8-0.3,0.9c-0.4,0.1-0.8,0.2-1.3,0.2
			c-0.1,0-0.2,0.1-0.2,0.2s0.1,0.2,0.2,0.2c0.6,0.1,1.3,0,1.9-0.4c0.4-0.4,0.4-1,0.1-1.4c0,0-0.1-0.1-0.1-0.1
			c-0.6-0.3-1.3-0.2-1.7,0.2C16.8,15.7,16.4,16.4,17,16.6z"/>
		<path class="st0" d="M4.7,16.7c0.1,0,0.2-0.1,0.2-0.2c0,0,0-0.1-0.1-0.1l0,0l0,0l0,0C4.9,16.2,5,16.1,5.1,16
			c0.2-0.3,0.6-0.5,1-0.5c0.2,0,0.4,0.1,0.4,0.3c0.1,0.2-0.1,0.4-0.2,0.6c-0.3,0.3-0.8,0.5-1.2,0.4c-0.2-0.1-0.4,0.3-0.2,0.4
			c0.6,0.2,1.3,0,1.8-0.5c0.4-0.3,0.4-0.9,0.1-1.3C6.6,15.1,6.5,15,6.3,15c-0.6-0.1-1.2,0.1-1.6,0.6C4.5,15.8,4,16.7,4.7,16.7z"/>
		<path class="st0" d="M7.6,25.6L7.6,25.6z"/>
		<path class="st0" d="M7.6,25.6C7.6,25.6,7.6,25.6,7.6,25.6v-0.1c0-0.1,0-0.1,0-0.2c0-0.1,0-0.2,0-0.3c0.1-0.1,0.1-0.2,0-0.3
			c0,0,0,0,0,0c-0.1-0.1-0.2,0-0.3,0.1C7,25,7,25.2,7,25.3c0,0.2,0,0.4,0.1,0.5C7.3,26.1,7.6,25.9,7.6,25.6z"/>
		<path class="st0" d="M7.6,25.6L7.6,25.6L7.6,25.6z"/>
	</g>
</g>
</svg>
