<?xml version="1.0" encoding="utf-8"?>
<!-- Generator: Adobe Illustrator 22.0.1, SVG Export Plug-In . SVG Version: 6.00 Build 0)  -->
<svg version="1.1" id="Layer_1" xmlns="http://www.w3.org/2000/svg" xmlns:xlink="http://www.w3.org/1999/xlink" x="0px" y="0px"
	 viewBox="0 0 15.5 19.9" style="enable-background:new 0 0 15.5 19.9;" xml:space="preserve">
<style type="text/css">
	.st0{fill:#010101;}
</style>
<title>Asset 29</title>
<g id="Layer_2_1_">
	<g id="Layer_1-2">
		<path class="st0" d="M0.7,4.3L0.7,4.3C-0.1,5-0.2,6.2,0.4,7c0,0.1,0.1,0.1,0.1,0.1l0,0C0.2,7.5,0.1,8,0.1,8.6
			c0,0.8,0.5,1.5,1.2,1.9c-0.4,0.6-0.3,1.4,0.2,2c0.4,0.4,1,0.7,1.6,0.6c1.3,0,2.5-0.2,3.8-0.1c-0.2,1.1-0.4,2.3-0.7,3.4
			c0,0.8,0.3,1.6,0.8,2.2c0.7,1,1.9,1.5,3.1,1.3c0.3-0.1,0.5-0.4,0.5-0.7c-0.1-1.4-1.8-2-0.4-3.7c0.7-0.7,1.3-1.5,1.9-2.3
			c0.4-0.6,0.6-0.6,1.3-0.7s1.2-0.1,1.8-0.1h0.1c0.2,0,0.3-0.2,0.3-0.3c0-1.9-0.2-3.8-0.3-5.7s0-4.1,0-6.1c0-0.3-0.4-0.3-0.6-0.1
			c0,0-0.1,0.1-0.1,0.1c-0.6-0.3-1.6-0.1-2.2-0.1c-2,0.1-3.9,0-5.9,0.1c-1.5,0-3,0.2-4.4,0.8C0.7,1.9,0.6,2.7,0.7,4.3
			C0.7,4.3,0.7,4.3,0.7,4.3z M1.1,4.7c0.2-0.2,0.5-0.4,0.8-0.6l0.3-0.2c0.2-0.1,0.3-0.1,0.1-0.2c0.3,0.2,0.6-0.3,0.3-0.5
			S1.7,3.4,1.2,3.8c0-1.7,1.2-2.4,2.8-2.7c1.3-0.2,2.7-0.3,4-0.3c1.3,0,2.7,0,4,0c0.5,0,1.8-0.3,2.2-0.1c0.1,0.1,0.3,0.1,0.4,0h0.1
			c0,1.7,0,3.5,0,5.2c0,2,0.3,4,0.3,5.9C14,11.9,13,12,12.1,12c-0.1,0-0.2,0.1-0.2,0.1c-0.7,1.8-4,3.6-2.7,5.7
			c0.4,0.6,0.9,1.7-0.3,1.4c-0.7-0.2-1.3-0.7-1.7-1.4c-1-1.4,0.1-3.2,0.2-4.8c0.2,0,0.2-0.2,0.2-0.4c0-0.1-0.1-0.2-0.2-0.2h0
			c-0.1,0-0.2,0-0.3,0c-1.1-0.1-2.2-0.1-3.2,0c-0.7,0.2-1.4,0-1.9-0.5c-0.3-0.4-0.3-0.9,0-1.3c0.2,0,0.3-0.2,0.2-0.3
			c0.1-0.1,0.1-0.1,0.2-0.2c0.3-0.2,0-0.7-0.3-0.5C1.9,9.8,1.8,9.9,1.7,10c-0.6-0.3-0.9-0.8-1-1.4C0.6,7.5,1.4,7.3,2,6.9
			c0.3-0.2,0-0.7-0.3-0.5S1.2,6.7,1,6.8C0.7,6.4,0.5,5.9,0.6,5.4C0.6,5.1,0.9,4.9,1.1,4.7z"/>
	</g>
</g>
</svg>
