<?xml version="1.0" encoding="utf-8"?>
<!-- Generator: Adobe Illustrator 22.0.1, SVG Export Plug-In . SVG Version: 6.00 Build 0)  -->
<svg version="1.1" id="Layer_1" xmlns="http://www.w3.org/2000/svg" xmlns:xlink="http://www.w3.org/1999/xlink" x="0px" y="0px"
	 viewBox="0 0 22.5 14.3" style="enable-background:new 0 0 22.5 14.3;" xml:space="preserve">
<title>Asset 48</title>
<g>
	<path d="M2.7,3.7c0,0,3.5,0.2,10-0.1H14h0.7c0.5,0,0.8-0.4,0.8-0.8V0.3c0-0.2,0.3-0.3,0.4-0.2c1,1.1,3.3,3.8,5.7,5.5
		c0.4,0.3,0.5,0.8,0.2,1.2c-0.6,0.9-1.8,2.5-3.2,5.1c-0.2,0.4-0.8,1.5-1.1,2.2c-0.1,0.2-0.4,0.2-0.5-0.1l-0.3-2
		c-0.1-0.3-0.3-0.6-0.7-0.6H4.3c0,0-3.9,0.2-4-2.9L0,5.1c0,0-0.2-2.7,1.2-3.7c0,0,0.4-0.3,0.5-0.2c0,0,0.1,0.1,0.1,0.2s0,1.2,0.2,2
		C2.1,3.4,2.2,3.7,2.7,3.7z"/>
</g>
</svg>
