<?xml version="1.0" encoding="utf-8"?>
<!-- Generator: Adobe Illustrator 22.0.1, SVG Export Plug-In . SVG Version: 6.00 Build 0)  -->
<svg version="1.1" id="Layer_1" xmlns="http://www.w3.org/2000/svg" xmlns:xlink="http://www.w3.org/1999/xlink" x="0px" y="0px"
	 viewBox="0 0 200 200" style="enable-background:new 0 0 200 200;" xml:space="preserve">
<style type="text/css">
	.st0{fill:#ff7a00;}
</style>
<g>
	<path class="st0" d="M100.2,2.1c-54.4,0-98.6,44.1-98.6,98.6c0,54.5,44.1,98.6,98.6,98.6c54.4,0,98.6-44.1,98.6-98.6
		C198.8,46.3,154.7,2.1,100.2,2.1z M145.3,136.9c3.4,1.5,6.6,3.9,6.6,9.4c0,8-6.6,12.4-16.3,12.4c-6.8,0-12.2-2.6-14.3-4.2l4.9-9.2
		c2.5,1.6,7.1,3.6,9.9,3.6c1.4,0,2-0.5,2-1.4c0-1.3-2.3-2.2-4.9-3.1c-3.4-1.3-7.3-3.1-7.3-9.8c0-0.1,0-0.3,0-0.4
		c-1.2-0.8-2.4-1.1-3.9-1.1c-2.4,0-4.1,1-4.6,3.6l-3.7,21H100l3.7-21.2c-4.3-0.5-7.4-2.2-9.3-4.8c-1.5,1.4-3.2,2.5-4.9,3.4l5.3,16.8
		h-15l-3.4-13.9H76l-0.4,0.1l-2.4,13.8H59.4l2.6-14.5c-0.9,0.6-1.8,1-2.8,1.3c-1,0.3-2.1,0.5-3.2,0.5c-3.8,0-6.3-1.3-8-3.4
		c-3.4,2.2-7.6,3.4-12.7,3.4c-5.3,0-11.3-1.3-14.2-2.7l8-45.4h13.7l-2.2,12.3c1.4-0.7,3.4-1.4,6.1-1.4c3.5,0,6.3,1.2,8.2,3.5
		c3.5-2.3,7.8-3.6,12.8-3.6c2.9,0,8.2,0.7,13.7,2.9v0h0.1l-3.2,18l0.2,0.1c2.8-4.5,6.9-7.2,12.3-7.2c0.6,0,1.3,0.1,1.9,0.2
		c2.3-9,9.6-16.6,20.7-16.6c7,0,11.4,3.1,11.4,9.5c0,11.1-11.5,13.6-19.2,14.4c0.2,2,1.8,3.3,4.7,3.3c2,0,4.5-0.6,7.1-1.9
		c1.9-1,3.1-1.8,4.1-2.3c0.1,0,0.1-0.1,0.2-0.1c0.4-0.2,0.8-0.4,1.2-0.5c1.2-0.4,2.6-0.6,4.1-0.6c2.7,0,5.1,0.8,6.6,1.9
		c2.3-1,5-1.5,7.9-1.5c5.6,0,11.4,2.3,14.4,5.6l-7,7.3c-2.9-2.3-5.3-3.4-6.9-3.4c-1.7,0-2.2,1-2.2,1.8
		C139.7,134.9,141.9,135.5,145.3,136.9z M168.7,109.1c-10.3,0-14.5-6.1-14.5-14.1c0-0.3,0-0.7,0-1c-0.7-0.2-1.4-0.3-2.2-0.3
		c-2.4,0-4.1,0.9-4.6,3.6l-3.7,21H130l4.2-23.8h-5.9v-2.8h-0.4c-2.4,2.4-5.3,3.7-8.7,3.7c-6.7,0-9.9-3-9.9-9c0-1.1,0.1-2.3,0.3-3.6
		l2.2-12.7h-10.8l-2,10.8c-0.1,0.6-0.1,1.4-0.1,1.9c0.1,2.2,1.5,2.6,3.1,2.6c0.9,0,2.1-0.3,3.2-0.9l1.6,8.6
		c-2.4,1.4-6.9,2.6-11.1,2.6c-8.9,0-11-4.3-11-9.1c0-1.8,0.3-3.5,0.6-5.4l0-0.1c-2,1.5-4.4,2.2-7,2.2c-6.7,0-9.9-3-9.9-9
		c0-1.1,0.1-2.3,0.3-3.6l2.2-12.6h-4.4L60,96.4H46.4l8.9-50.4c1.2-6.8,3.8-14.2,15.1-14.2c4.3,0,9,1.4,11.9,3.2l-4.4,8.6
		c-2.2-1.3-4.6-1.9-5.7-1.9c-1.4,0-2.6,0.4-3,2.8l-0.5,2.8H73h4.4h9.3l-3.9,21.8c-0.1,0.5-0.1,1.1-0.2,1.6c-0.1,1.4,0.1,2.2,1.4,2.2
		c1.4,0,2.4-1.4,2.8-3.2l3.9-22.3h13.7l0,0.1h0.8l-2.2,12h11.5l0,0h12.9l-3.9,21.8c-0.1,0.5-0.1,1.1-0.2,1.6
		c-0.1,1.4,0.1,2.2,1.4,2.2c1.4,0,2.4-1.4,2.8-3.2l3.9-22.3h13.7l-4.2,23.8h5.1l0.3,4.7c2.8-4.6,6.4-5.7,8.7-5.7
		c0.8,0,1.6,0.1,2.5,0.2c3.5-6,9.7-10.4,18.1-10.4c7,0,11.4,3.1,11.4,9.5c0,11.1-11.4,13.6-19.1,14.3c0.2,2,1.8,3.3,4.7,3.3
		c2.8,0,5.9-1.1,8.8-2.8l2.2,8.8C182.5,105.8,177.1,109.1,168.7,109.1z"/>
	<path class="st0" d="M41,111.8c-1,0-1.9,0.6-2.2,1.9L36,129.9c0.8,0.2,1.4,0.2,1.8,0.2c3.7,0,5.9-8.7,5.9-13.3
		C43.7,113.9,42.9,111.8,41,111.8z"/>
	<path class="st0" d="M82.4,125.7c-2,0-4.4,2.4-5.6,5.7l-0.1,1c4-0.6,7.2-2.7,7.2-5.2C84,126.3,83.4,125.7,82.4,125.7z"/>
	<path class="st0" d="M112.8,110.6c0-0.9-0.5-1.5-1.5-1.5c-0.3,0-0.6,0-1,0.1c-1.6,0.5-3.3,2.4-4.1,6.2
		C110.2,115.1,112.8,112.6,112.8,110.6z"/>
	<path class="st0" d="M58.9,124.9c0,2.8,0.7,4.7,2.4,4.7c1,0,1.9-0.6,2.4-1.4l2.9-16.5c-0.5-0.1-1-0.2-1.5-0.2
		C60.9,111.6,58.9,120.1,58.9,124.9z"/>
	<path class="st0" d="M175.1,82.9c0-0.9-0.5-1.5-1.5-1.5c-0.3,0-0.6,0-0.9,0.1c-1.6,0.5-3.3,2.4-4.1,6.2
		C172.5,87.4,175.1,85,175.1,82.9z"/>
</g>
</svg>
