<svg xmlns="http://www.w3.org/2000/svg" viewBox="0 0 21.46 22.42"><defs><style>.cls-1{fill:#010101;}</style></defs><title>Asset 43</title><g id="Layer_2" data-name="Layer 2"><g id="Layer_1-2" data-name="Layer 1"><path class="cls-1" d="M21.38,13.59c-.71-.73-.61-1.67-1.06-2.54a2.45,2.45,0,0,0-1.79-1.37A.89.89,0,0,0,17.9,9c1.33-1.47,1.26-3.92.44-5.66C17.1.78,13.72.09,11.17.67l-.08,0C9.33-1,5.4.82,3.83,2S2,4.78,2.09,6.55a5.1,5.1,0,0,0,2.7,4,1.68,1.68,0,0,0-.42.27C2.59,11,1.79,12.54.18,13.22c-.16.06-.26.32-.09.43,2,1.37,5.56,1.25,6.52-1.21a6.33,6.33,0,0,0,.77.66,5,5,0,0,0,1.31.66c-.41,1.36-3.5,1.89-4.56,2.42A3.17,3.17,0,0,0,2.07,19c.08,1.17,2.21,1.87,3,2.21a14.74,14.74,0,0,0,6,1.17c2.91-.06,6.77-1.6,8.27-4.23.6-1.06-.32-1.81-1.21-2.18s-1.86-.54-2.75-.9c-.73-.29-.87-1-1.28-1.53a5,5,0,0,0,2.29-1.92,3.69,3.69,0,0,0,1.47,1.7,4.67,4.67,0,0,0,2.72.76c.29,0,.32-.5,0-.52l-.19,0a.24.24,0,0,0-.25,0,4.38,4.38,0,0,1-1.5-.35c-.76-.34-1.83-1.23-1.86-2.12a.29.29,0,0,0,0-.09,1.54,1.54,0,0,0,1.72-.83c1.06.18,1.5,1.27,1.71,2.25A2.9,2.9,0,0,0,21,14C21.27,14.22,21.61,13.83,21.38,13.59ZM4.72,2c1.21-.8,4-2,5.59-1.17a.57.57,0,0,1,.46.41,2,2,0,0,1,.07.43,1.78,1.78,0,0,1,.1.93.22.22,0,0,0-.12.3.14.14,0,0,0,0,.06A5.1,5.1,0,0,1,8,5.33,10.08,10.08,0,0,0,5,6.94L5,7l-.14.12a.23.23,0,0,0,.07.38,9.79,9.79,0,0,0,.35,2.72A4.73,4.73,0,0,1,4.72,2Zm.73,8.83,0,0a5.58,5.58,0,0,0,.35.69,1.27,1.27,0,0,1-.28,0C4.92,11.61,4.88,11.38,5.45,10.81ZM.79,13.48C2,12.8,2.85,11.62,4.15,11.33a.6.6,0,0,0,.13.21,1.76,1.76,0,0,0,1.87.39l.07.07C5.58,14.22,2.63,14.46.79,13.48Zm2.8,6.46c-1.25-.68-1.08-1.55-.48-2.27A2.76,2.76,0,0,1,4,20.14Zm15.06-3a.88.88,0,0,1,.22,1,3,3,0,0,1-.58.93l-.07-.05A1.3,1.3,0,0,1,18.65,16.94Zm-2.82-1.19a11.38,11.38,0,0,1,2.38.85,1.82,1.82,0,0,0-.41,2.53s0,0,0,0a.28.28,0,0,0,.09.1,11.11,11.11,0,0,1-2.66,1.53,11.44,11.44,0,0,1-4.63,1.13,14.08,14.08,0,0,1-5.27-1.13c-.31-.12-.6-.25-.89-.38,0-1.13,0-2.39-1-3.1a5.34,5.34,0,0,1,1.19-.81,12.22,12.22,0,0,1,1.58-.56c-.69,1.71,4.16,2.19,4.84,2.23C12.76,18.27,15.61,17.79,15.83,15.75Zm-1-.35a3.24,3.24,0,0,0,.47.19c-.05,1.69-2.46,2-3.76,2.07-.22,0-5.45-.44-4.79-1.63a.22.22,0,0,0,0-.26c1.12-.38,2.22-.89,2.46-1.86a8.38,8.38,0,0,0,3.76,0,6.32,6.32,0,0,0,.62-.18C14.09,14.24,14.19,15,14.85,15.4ZM16.17,11a4.81,4.81,0,0,1-4,2.51,6.67,6.67,0,0,1-4.79-1,4.08,4.08,0,0,1-.65-.57.09.09,0,0,1,0-.05,2.43,2.43,0,0,1-.5-.61h0a7.63,7.63,0,0,1-.84-4C6.89,6,8.92,5.81,10.36,4.5a3.78,3.78,0,0,0,.77-1,6.31,6.31,0,0,0,2.45,2,7,7,0,0,0,1.43.6.22.22,0,0,0,.14.19c.52.24.68,1,.87,1.55A3.79,3.79,0,0,1,16.17,11Zm.25-3.58a3.67,3.67,0,0,0-.73-1.38L15.77,6l-.06-.07a2.64,2.64,0,0,1-.35-.23h0s-1.57-.66-1.8-.78a4.94,4.94,0,0,1-2.17-2,2.56,2.56,0,0,0,0-1.2.28.28,0,0,0,.15-.39l-.09-.15C13.9.62,16.82,1.38,18,3.81c.79,1.68.65,4.19-1,5.32l0,0A11.66,11.66,0,0,0,16.42,7.45Zm.5,3h0a.14.14,0,0,1,0-.07,2.45,2.45,0,0,0,.09-.7.31.31,0,0,0,.12-.05l.62.64A1,1,0,0,1,16.92,10.49Z"/><path class="cls-1" d="M9,7.9a.45.45,0,0,0-.32-.5A.65.65,0,0,0,7.91,8a.54.54,0,0,0,.44.48.58.58,0,0,0,.55-.33A.38.38,0,0,0,9,7.9Z"/><path class="cls-1" d="M13.08,8.07a1.09,1.09,0,0,0,.67,0,.82.82,0,0,0,.35-.2l0-.06c.24-.32-.18-.76-.54-.74a.37.37,0,0,0-.3.21l-.07,0a.56.56,0,0,0-.29.53A.24.24,0,0,0,13.08,8.07Z"/><path class="cls-1" d="M13.78,10.76c.05.49-1.39.77-1.73.82-.94.13-2-.5-2.82-.81-.31-.11-.54.35-.23.46,1.1.4,2.25,1.09,3.46.8.59-.14,1.93-.47,1.83-1.31C14.25,10.39,13.74,10.43,13.78,10.76Z"/></g></g></svg>