<svg xmlns="http://www.w3.org/2000/svg" viewBox="0 0 22.7 22.88"><defs><style>.cls-1{fill:#010101;}</style></defs><title>Asset 23</title><g id="Layer_2" data-name="Layer 2"><g id="Layer_1-2" data-name="Layer 1"><path class="cls-1" d="M8.53,7.63a.49.49,0,0,0-.39.2.26.26,0,0,0-.08.2h0v.13a.26.26,0,0,0,.19.22c.29.23.82.17.84-.29C9.11,7.79,8.77,7.64,8.53,7.63Z"/><path class="cls-1" d="M13.07,7.93a.46.46,0,0,0,.57-.07.67.67,0,0,0,.14-.45.25.25,0,0,0-.21-.23.6.6,0,0,0-.47.05.49.49,0,0,0-.16.19.28.28,0,0,0-.08.15.33.33,0,0,0,0,.2A.26.26,0,0,0,13.07,7.93Z"/><path class="cls-1" d="M12.94,12.43c.1-.32-.4-.41-.5-.1a1.13,1.13,0,0,1-2,.23c-.16-.29-.59,0-.43.29A1.65,1.65,0,0,0,12.94,12.43Z"/><path class="cls-1" d="M22.69,11.94c0-.47,0-1.1-.42-1.34a1.24,1.24,0,0,0,.25-1.39,1.17,1.17,0,0,0-1-.58c.31-.46.6-.85.32-1.47a2.08,2.08,0,0,0-1.29-1.08,1.22,1.22,0,0,0,.13-1.6A1.77,1.77,0,0,0,19,3.94a2.11,2.11,0,0,0-.17-1c-.26-.62-1-.69-1.61-.69a1.39,1.39,0,0,0-.61-1A3.62,3.62,0,0,0,14.51.9c-.6-.45-.94-.92-1.77-.9a2.3,2.3,0,0,0-1.5.48A2.91,2.91,0,0,0,7.87,1,2,2,0,0,0,6.75,1,1.88,1.88,0,0,0,5.27,2.5l-.08,0c-1.26,0-2.45.89-2.23,2.21a2.06,2.06,0,0,0-1.6,2.58A2,2,0,0,0,0,8.56c-.16.67.33,1.12.74,1.56-.38.4-.78.82-.6,1.43a2.07,2.07,0,0,0,1.34,1.27,1.34,1.34,0,0,0,.34,1.23A2,2,0,0,0,4,14.62c.16.18.28.41.46.58a1.43,1.43,0,0,0,.69.3,1.52,1.52,0,0,0,1.32-.39,1.46,1.46,0,0,0,1.18.26,1,1,0,0,0,.88-1,4.51,4.51,0,0,0,.59.47.31.31,0,0,0,0,.17c.26,1,.32,1.9-.93,2.5a5.85,5.85,0,0,1-1.86.31,3.26,3.26,0,0,0-1.7.65c-.9.7-.18,1.72.42,2.3a9.4,9.4,0,0,0,4.29,1.88,10.86,10.86,0,0,0,5.36-.38c1.53-.42,4-1.55,4.6-3.15.26-.72-.29-1.24-.85-1.58a4,4,0,0,0-1.91-.25,2.46,2.46,0,0,1-2.61-2.63,2.54,2.54,0,0,0,.2-.24,2.13,2.13,0,0,0,2,.1h0a1.94,1.94,0,0,0,1,.83,1.58,1.58,0,0,0,1.59-.27,2.48,2.48,0,0,0,2.19,0,2.55,2.55,0,0,0,.87-.76,1.22,1.22,0,0,0,.11-1.08,1.54,1.54,0,0,0,.59-.37A1.42,1.42,0,0,0,22.69,11.94Zm-16.33-5A1.61,1.61,0,0,0,7.72,5.23,2.42,2.42,0,0,0,10.3,4.5a.23.23,0,0,0,.24,0c-.12.06.29.13.41.17l.51.17A2.42,2.42,0,0,0,13,4.57c.19.58,1.06.71,1.67.74a1.21,1.21,0,0,0,.2.41,1.52,1.52,0,0,0,.37.3l.05,0c.37,2.83-.25,9.85-4.49,9C7.24,14.4,6.66,9.82,6.36,6.89ZM6,8.38c.08.56.18,1.13.3,1.69C5.79,10,5.56,8.66,6,8.38ZM5.8,10.83a.72.72,0,0,1,.37-.13c.08,0,.26,0,.2,0a.22.22,0,0,0,.14.06c.1.34.2.68.33,1a.27.27,0,0,0-.21.2c0,.16-.39.11-.51.09a.68.68,0,0,1-.57-.55A.69.69,0,0,1,5.8,10.83Zm9.84-.38a.21.21,0,0,0,.11,0,1.47,1.47,0,0,1,1,0,.56.56,0,0,1,.21.87,1.34,1.34,0,0,1-1.58.27C15.5,11.18,15.58,10.82,15.64,10.45Zm.11-.57h0A18.91,18.91,0,0,0,15.89,8c.35-.08.35.42.36.72S16.26,9.85,15.75,9.88Zm-6,5.94c0-.22-.05-.43-.09-.64a5.49,5.49,0,0,0,1.4.47,2.86,2.86,0,0,0,2.35-.5c0,.11,0,.22,0,.33a3.74,3.74,0,0,1-3.58.36A.27.27,0,0,0,9.75,15.82ZM18.2,18c2.43.86-2.83,3.49-3.57,3.75a10.36,10.36,0,0,1-5.21.4c-.75-.13-6.21-1.94-4.28-3.44.9-.71,2.23-.42,3.31-.82a.25.25,0,0,0,.12.13c1.75,1.06,5.18,1.36,6.73-.27a.24.24,0,0,0,.06-.09C16.26,18,17.31,17.71,18.2,18Zm-3.55-.7a1.43,1.43,0,0,0,.22.15c-1.37,1.37-4.36,1-5.93.19l.1-.06a1.76,1.76,0,0,0,.7-1.28A4.27,4.27,0,0,0,13.61,16,3.24,3.24,0,0,0,14.65,17.33ZM22.18,12a.93.93,0,0,1-.12.59,1.18,1.18,0,0,1-.47.25.27.27,0,0,0-.19.11.24.24,0,0,0,0,.35,1,1,0,0,1,0,.66,1.82,1.82,0,0,1-.88.74,2,2,0,0,1-1.77-.13.23.23,0,0,0-.35.16l0,0c-.29.33-.91.24-1.26.08a1.31,1.31,0,0,1-.71-.77.25.25,0,0,0-.38-.11.25.25,0,0,0-.27.19,1.71,1.71,0,0,1-1.37-.08,8.45,8.45,0,0,0,.87-2,1.86,1.86,0,0,0,2.27-.68,1.1,1.1,0,0,0-.32-1.31,1.14,1.14,0,0,0-.62-.25,3.2,3.2,0,0,0,.16-1.16c0-.6-.25-1.29-.87-1.21a12.29,12.29,0,0,0-.06-1.29.38.38,0,0,0,.09-.09.26.26,0,0,0-.06-.31.66.66,0,0,0-.19-.09c-.08,0-.15-.09-.23-.13s-.16-.09-.19-.17a1.12,1.12,0,0,0-.05-.13v0a.26.26,0,0,0,0-.34.23.23,0,0,0-.22-.05h0c-.28,0-1.23,0-1.38-.37A.28.28,0,0,0,13.29,4h-.08l-.08,0a.2.2,0,0,0-.22,0,2,2,0,0,1-1.76.17A2.47,2.47,0,0,0,10.5,4a4.66,4.66,0,0,0-.45-1.68c-.15-.3-.57,0-.42.29A4.08,4.08,0,0,1,10,4a1.87,1.87,0,0,1-2.39.64A.28.28,0,0,0,7.23,5V5c0,.7-.26,1.37-1.05,1.39A.21.21,0,0,0,6,6.53a.21.21,0,0,0-.13.24c0,.35.07.71.11,1.07-.89.22-.86,1.8-.23,2.46a1,1,0,0,0-.21.11,1.17,1.17,0,0,0-.44,1.27,1.21,1.21,0,0,0,1,.88,1,1,0,0,0,1-.31A7,7,0,0,0,8.1,14a.25.25,0,0,0-.06.17c0,.37-.07.62-.46.74a.9.9,0,0,1-1-.31.25.25,0,0,0-.46.15,1.08,1.08,0,0,1-1,.27c-.47-.09-.56-.6-.89-.85a.27.27,0,0,0-.32,0,1.56,1.56,0,0,1-1.53-.24c-.15-.12-.63-.77-.34-.9s.16-.52-.07-.51l-.05,0a1.91,1.91,0,0,1-1.22-.9c-.22-.49.24-.85.55-1.16a.22.22,0,0,0,.1-.36C1.06,9.67.6,9.35.53,8.88c-.11-.63.68-1,1.17-1.18a.22.22,0,0,0,.15-.15.25.25,0,0,0,0-.22c-.27-1,.19-2.11,1.36-2.15.19,0,.25-.17.22-.32a.25.25,0,0,0,0-.15C3.19,3.61,4.28,3,5.23,3a.25.25,0,0,0,.19-.11.27.27,0,0,0,.35-.26c0-.54.48-.89.94-1.08a4.3,4.3,0,0,1,.91-.14.23.23,0,0,0,.14.26.26.26,0,0,0,.45-.19c0-.41.83-.63,1.14-.71S10.62.49,11,.91a.26.26,0,0,0,.2.1.26.26,0,0,0,.38-.08c.2-.36.88-.39,1.24-.42.68,0,1,.49,1.48.84a.27.27,0,0,0,.19,0l.09,0c1,0,2.09-.06,2.21,1.14a.24.24,0,0,0,.17.21l0,0,.12,0a.19.19,0,0,0,.21,0,1.43,1.43,0,0,1,1,.29c.14.13.32.83.14,1a.26.26,0,0,0,0,.43.24.24,0,0,0,.26.07,1.48,1.48,0,0,1,1.41.16c.44.31.25.83-.06,1.14a.21.21,0,0,0,0,.31.27.27,0,0,0,.23.41,1.49,1.49,0,0,1,1.1.88c.22.49-.32.9-.53,1.28a.24.24,0,0,0,.17.36.25.25,0,0,0,.16,0,1.13,1.13,0,0,1,.84.24c.3.36,0,.85-.32,1.05a.24.24,0,0,0-.06.35.2.2,0,0,0,.2.24C22.27,11,22.19,11.66,22.18,12Z"/></g></g></svg>