<svg xmlns="http://www.w3.org/2000/svg" viewBox="0 0 22.87 22.59"><defs><style>.cls-1{fill:#231f20;}</style></defs><title>Asset 39</title><g id="Layer_2" data-name="Layer 2"><g id="Layer_1-2" data-name="Layer 1"><path class="cls-1" d="M22.67,11.4c-1-.24-.83-1.91-1-2.67a2.86,2.86,0,0,0-1.19-1.64,3.29,3.29,0,0,0-2.11-.72,5.69,5.69,0,0,0-1-4.94A3.5,3.5,0,0,0,12.42.9a4.54,4.54,0,0,0-2-.74,5.82,5.82,0,0,0-4.72,1A4.7,4.7,0,0,0,4.1,8.07,1.77,1.77,0,0,0,2.42,9c-.83,1.51.23,3.89-2.19,4.09a.26.26,0,0,0-.15.45c1.85,1.79,6.26,2,6.84-1A4.39,4.39,0,0,0,8.8,13.85c.34,2.78-3.16,1.86-4.63,3.14-1,.86-.32,2.33.36,3.13,1.12,1.29,3.29,1.62,4.83,2.09a9.46,9.46,0,0,0,6.4-.41c1.78-.71,5-2,5.09-4.23,0-1.12-1.14-1.79-2.06-2-1.81-.4-3.69.33-4.45-1.91h0a5.31,5.31,0,0,0,2.16-2.45,3.39,3.39,0,0,0,1.66,1A5.52,5.52,0,0,0,22.72,12a.21.21,0,0,0,.12-.24A.29.29,0,0,0,22.67,11.4Zm-5-4.82a1.83,1.83,0,0,0-.39.32.27.27,0,0,0-.14.2.19.19,0,0,0,0,.13h-.11a10,10,0,0,0-.21-1.09.26.26,0,0,0,0-.15A1.86,1.86,0,0,0,15.5,5a3.43,3.43,0,0,1-2.32-1.8.24.24,0,0,0-.09-.11,3.89,3.89,0,0,0-.38-1.69s0,0,0,0C15.54-1.47,19.46,3.76,17.71,6.58Zm-.59,1.19c.28-.07.35.29.39.54a1.88,1.88,0,0,1,0,.41c0,.12-.26.42-.4.35h0A8,8,0,0,0,17.12,7.77Zm-4-.49a1.77,1.77,0,0,1,1.47.13.92.92,0,0,1,.5.53.23.23,0,0,0,0,.14,1.39,1.39,0,0,1-.31,1c-.34.45-2,.64-2.23-.14h0C12.65,8.36,12.46,7.58,13.16,7.28Zm.08-.56c-.87.17-1.05.78-1.09,1.47a1.66,1.66,0,0,0-1.25.11A1.8,1.8,0,0,0,9.24,7.22a1.7,1.7,0,0,0-1.73,1A2.13,2.13,0,0,0,5.85,8a3.87,3.87,0,0,1,0-1A.21.21,0,0,0,6,6.84C6.63,5,10.3,5.69,11.8,4.92A2.36,2.36,0,0,0,12.93,3.8,3.85,3.85,0,0,0,14.15,5c.62.39,2,.45,2.23,1.21a.28.28,0,0,0,0,.13c.06.25.12.49.16.74a4.11,4.11,0,0,0-1.07.42A2.27,2.27,0,0,0,13.24,6.72ZM9.09,10A1.31,1.31,0,0,1,7.93,8.53c.25-1.14,2.34-1,2.52.06v0a.23.23,0,0,0-.05.18A1,1,0,0,1,9.09,10ZM5.71,9.54c.11.36.19.72.3,1.06a.26.26,0,0,0-.16.13c-.08.13-.52-.2-.56-.24a.81.81,0,0,1-.15-.64c0-.24,0-1,.38-1h0C5.58,9.09,5.65,9.31,5.71,9.54ZM5.31,2.1A7.37,7.37,0,0,1,8.67.51c.59-.09,3.32.11,3.51,1a.2.2,0,0,0,.08.13c2.08,4.81-5.6,2.06-6.74,5a.22.22,0,0,0-.16.19,3.86,3.86,0,0,0,0,1.59A.7.7,0,0,0,5,8.52C3.42,6.49,3.05,3.85,5.31,2.1Zm1.16,10C6.32,14.84,2.7,14.69.89,13.5a1.7,1.7,0,0,0,1.22-.74C2.85,11.5,2,8,4.49,8.65h0l.12.15a.24.24,0,0,0,.06.09L4.75,9a3.87,3.87,0,0,0-.13,1,1.2,1.2,0,0,0,.66,1.08.8.8,0,0,0,.89,0,5.48,5.48,0,0,0,.36.83A.25.25,0,0,0,6.47,12.1Zm1,4.42a.23.23,0,0,0,.13.17c1.55.59,2.46,1.7,4.22,1.68-1.35,2.22-3.56-.7-4.77-1.76A3.15,3.15,0,0,0,7.46,16.52Zm10-.57a10.76,10.76,0,0,1,1.47.19A1.63,1.63,0,0,1,20.3,18a3,3,0,0,1-1.23,1.5,13.85,13.85,0,0,1-3.16,1.73,9.33,9.33,0,0,1-5.58.75C8.57,21.59,6,21,4.76,19.59a2.5,2.5,0,0,1-.56-1.3C4,17.16,5.26,16.9,6,16.77l.44-.07a.24.24,0,0,0,.1.15c1.52,1.17,3.93,4.38,5.59,2a2,2,0,0,0,2.13.73c1.56-.46,2.39-2.19,3.2-3.46A.18.18,0,0,0,17.48,16Zm-1.4-.16c.27.05.56.08.86.11a.23.23,0,0,0-.07.16c-.4.63-.79,1.27-1.25,1.86-.68.86-2.49,2-3.23.39A6.55,6.55,0,0,0,16,15.85Zm-1-.33a3.3,3.3,0,0,0,.43.19.14.14,0,0,0,0,.06,6.06,6.06,0,0,1-3.72,2.15c-1.52.18-2.52-1-3.79-1.56l.24-.14a5.61,5.61,0,0,0,4.18,1.08A3.49,3.49,0,0,0,15.1,15.46Zm-.43-.3,0,.07a.29.29,0,0,0,0,.09c-.4.94-1.73,1.34-2.63,1.46a4.72,4.72,0,0,1-3.33-1A2.23,2.23,0,0,0,9.33,14a8.56,8.56,0,0,0,2.26.32,5.62,5.62,0,0,0,2.28-.46A2.87,2.87,0,0,0,14.67,15.16Zm-3.12-1.33A5.38,5.38,0,0,1,7.2,12.06a4.86,4.86,0,0,1-.83-2c-.13-.51-.3-1-.42-1.54l.07,0c.14-.15.57,0,.74,0a1.56,1.56,0,0,1,.62.23c-.09,1,.87,1.69,1.75,1.83a1.52,1.52,0,0,0,1.8-1.67h0c.17-.17,1.18-.49,1.19,0V9s0,0,0,.06,0,0,0,0c.17.78,1.52,1.06,2.18.88a1.79,1.79,0,0,0,1.36-2,1.78,1.78,0,0,1,.92-.42C16.91,10.76,15.12,13.67,11.55,13.83ZM19.09,12c-.19,0-2.27-.58-2.17-1.13a.24.24,0,0,0-.17-.28,6.67,6.67,0,0,0,.26-1,.82.82,0,0,0,.76-.29A1.08,1.08,0,0,0,18,8.34a1.57,1.57,0,0,0-.36-.9l0,0A2.12,2.12,0,0,0,18,7l.22-.08a2,2,0,0,1,1.65.42,2.82,2.82,0,0,1,1.4,2.3c.12.82.15,1.69.85,2.1A4.86,4.86,0,0,1,19.09,12Z"/><path class="cls-1" d="M8.72,8.13a.4.4,0,0,0-.07.68.26.26,0,0,0,.32,0H9a.37.37,0,0,0,.37-.46A.46.46,0,0,0,8.72,8.13Z"/><path class="cls-1" d="M13.68,8.48h.18a.2.2,0,0,0,.11,0,.83.83,0,0,0,.22,0,.41.41,0,0,0,.23-.53.27.27,0,0,0-.26-.18,1.3,1.3,0,0,0-.44,0,.48.48,0,0,0-.31.49C13.4,8.4,13.56,8.48,13.68,8.48Z"/><path class="cls-1" d="M12.56,12c-.16.72-1.42.31-1.77,0s-.59.17-.34.38a2.08,2.08,0,0,0,2,.4c.31-.1.94-.71.57-1A.26.26,0,0,0,12.56,12Z"/></g></g></svg>