<svg xmlns="http://www.w3.org/2000/svg" viewBox="0 0 15.61 20.82"><defs><style>.cls-1{fill:#010101;}</style></defs><title>Asset 40</title><g id="Layer_2" data-name="Layer 2"><g id="Layer_1-2" data-name="Layer 1"><path class="cls-1" d="M14.62,16.12c-1.85-.47-3.51.49-4.57-1.7a.4.4,0,0,0-.1-.12,6.4,6.4,0,0,0,2.21-4.24,1.28,1.28,0,0,0,1.29-1.32,1.36,1.36,0,0,0-.26-1,.67.67,0,0,0-.3-.18,1,1,0,0,0,0-.56.73.73,0,0,0,.42-.92.94.94,0,0,1,.15-1,1.18,1.18,0,0,0,.15-.9c0-.31-.17-.41-.38-.64-.4-.41-.36-.79-.61-1.29a1.45,1.45,0,0,0-1.31-.69C11,.46,9.8.53,8.84.17,7.39-.37,6.68.56,5.37.71,2.42,1.06.5,4.79,2.05,7.29a1.61,1.61,0,0,0-.64,1.46c0,.76.57,1.07,1.23,1.16A15.72,15.72,0,0,0,3.21,12a4.14,4.14,0,0,0,1.93,2.28.29.29,0,0,0,0,.14c.21,2.48-2.35,1.88-3.88,2.25-.82.19-1.55.9-1.08,1.81.61,1.2,2.1,1.56,3.3,1.84a22.79,22.79,0,0,0,6.33.41c1.89-.11,5-.8,5.74-2.81A1.38,1.38,0,0,0,14.62,16.12Zm-4.13-.2a2.27,2.27,0,0,0,.4.29h0a.26.26,0,0,0-.08.28c-.3.59-1,1.93-1.36,1.68s-.56-.56-.89-.75A3.5,3.5,0,0,0,10.45,16,.3.3,0,0,0,10.49,15.92Zm-.31-.32a.18.18,0,0,0-.12.08A2.55,2.55,0,0,1,7.92,17a4.05,4.05,0,0,1-2.29-1.06.05.05,0,0,0,0,0l-.06-.06a.18.18,0,0,0-.13-.06,2.45,2.45,0,0,0,.22-1.17A5.56,5.56,0,0,0,7.41,15a4,4,0,0,0,2-.32.25.25,0,0,0,.3.18A4.64,4.64,0,0,0,10.18,15.6Zm2.76-6.86a.79.79,0,0,1-.69.81c.07-.52.12-1,.16-1.55a.68.68,0,0,1,.38.07C13,8.18,13,8.56,12.94,8.74Zm-11,.16A2,2,0,0,1,2,8.22a.57.57,0,0,1,.38-.5,15.59,15.59,0,0,0,.18,1.66C2.26,9.33,2,9.22,1.93,8.9Zm.49-3.45c0,.43-.07.87-.08,1.32A2.65,2.65,0,0,1,2,4.69c.15-.44.4-.6.46-1.06.19-1.37,2-2.3,3.25-2.45.24,0,.64.05.85-.09C7.33.6,7.6.4,8.41.57S10.76,1,10.9,1.79a.25.25,0,0,0,.27.24c2.17.09.82.79,1.25,1.43.31.46,1.16.6.47,1.45-.32.4.11,1.54-.34,1.7a.21.21,0,0,0-.1.06c0-.6,0-1.15,0-1.64,0,0,0,0,0,0a.24.24,0,0,0-.08-.25c-.12-.1,0-.29-.17-.4a2.68,2.68,0,0,0-1.49-.49c-.36,0-1.14-.35-1.5-.23s-1.59,1-1.64,0a.26.26,0,0,0-.4-.2c-.3.23-1.42.84-1.59,0a.26.26,0,0,0-.34-.22A4.93,4.93,0,0,0,2.66,5.26.21.21,0,0,0,2.42,5.45Zm1.05,5.72A15.54,15.54,0,0,1,2.91,5.7a.2.2,0,0,0,.18-.15A4.44,4.44,0,0,1,5.15,3.71c.34.73,1.24.66,1.95.29.16.72.69.92,1.54.71A.72.72,0,0,0,9,4.5c.47-.54.48-.32,1.16-.21a3.6,3.6,0,0,1,1.7.67.64.64,0,0,0,0,.07.3.3,0,0,0,.1.33c0,.68,0,1.44,0,2.23a.27.27,0,0,0,0,.45c-.16,2.94-1,6.07-4.18,6.39C5.57,14.65,4,13.11,3.47,11.17Zm1.68,5h0l0,.05h0l.06.07h0a4.4,4.4,0,0,0,2.19,1.13l-.31.17c-.44.28-.88,1.07-1.49.24a8.3,8.3,0,0,1-.87-1.34A2.22,2.22,0,0,0,5.15,16.12Zm9.18,2.6a6,6,0,0,1-1.63.88,10.71,10.71,0,0,1-3.4.68A23.69,23.69,0,0,1,4,19.94a9.62,9.62,0,0,1-2.24-.66,2.52,2.52,0,0,1-1-.81c-.9-1.14.76-1.29,1.18-1.33a7.79,7.79,0,0,0,2.46-.46,4.48,4.48,0,0,0,1.37,1.94C6.4,19,6.9,18.38,7.43,18c1.05-.82,1.53,1.15,2.46.82.65-.23,1.19-1.77,1.49-2.31a.11.11,0,0,0,0-.07c1.08.27,2.22-.14,3.27.28S14.74,18.38,14.33,18.72Z"/><path class="cls-1" d="M5.42,6.47a.94.94,0,0,0-.64.08.65.65,0,0,0-.25.64.25.25,0,0,0,.26.23.55.55,0,0,0,.25,0,.67.67,0,0,0,.59-.76A.27.27,0,0,0,5.42,6.47Z"/><path class="cls-1" d="M9.32,7.25s0,0,.06,0a.84.84,0,0,0,.23.12A.5.5,0,0,0,10,7.35a.67.67,0,0,0,.29-.68.59.59,0,0,0-.75-.45c-.38.1-.34.54-.33.84A.26.26,0,0,0,9.32,7.25Z"/><path class="cls-1" d="M9.41,11.85a.26.26,0,0,0-.5-.1c-.24,1.06-2.23.63-2.79.12a.25.25,0,0,0-.34.38C6.65,13,9.08,13.35,9.41,11.85Z"/><path class="cls-1" d="M7.89,18.94a.27.27,0,0,0,.24-.28V18.6a.26.26,0,0,0-.28-.24.27.27,0,0,0-.23.28v.06A.26.26,0,0,0,7.89,18.94Z"/><path class="cls-1" d="M7.92,19.45c-.33,0-.29.51,0,.51S8.25,19.45,7.92,19.45Z"/></g></g></svg>