<svg xmlns="http://www.w3.org/2000/svg" viewBox="0 0 17.19 21.53"><defs><style>.cls-1{fill:#010101;}</style></defs><title>Asset 41</title><g id="Layer_2" data-name="Layer 2"><g id="Layer_1-2" data-name="Layer 1"><path class="cls-1" d="M17.14,18.08c-.8-2.91-5.57-.54-6.23-3.55h0a4.36,4.36,0,0,0,1-1.16,8,8,0,0,0,.78-1.85c.63-.07.92-.63,1.11-1.17a1.83,1.83,0,0,0-.3-1.75c.18-.44.51-.81.65-1.26a4.5,4.5,0,0,0,.15-1.68,3.47,3.47,0,0,0-1.15-2.38,7,7,0,0,0-3.6-1.48A1.15,1.15,0,0,0,8.44.69.26.26,0,0,0,8.26.33C6.78,0,5.63-.29,4.26.5A6.62,6.62,0,0,0,1.77,4.08,15.66,15.66,0,0,0,.92,8.82c-.11,2.06.17,3.94-.89,5.81A.26.26,0,0,0,.14,15c2,.74,3.67-.31,4.78-1.82A4.38,4.38,0,0,0,6.72,15a4,4,0,0,1-.3,1.24,3.17,3.17,0,0,1-1.6.83,21,21,0,0,0-2.4.59,1.54,1.54,0,0,0-.7,2.39c.89,1,3,1.05,4.19,1.22a19.91,19.91,0,0,0,6.67-.05C13.77,21,17.66,20,17.14,18.08ZM13.36,10a1.35,1.35,0,0,1-.5.92A17.43,17.43,0,0,0,13.17,9,1.37,1.37,0,0,1,13.36,10ZM9,1.74a3.72,3.72,0,0,0-.91.08c-.61,0-1.21,0-1.81.06a.25.25,0,0,0-.22.17L6,2.16v0c0-.45.25-.55.57-.68a4.69,4.69,0,0,1,.91-.24C8,1.11,8.91,1.06,9,1.74ZM.63,14.6c1.22-2.44.63-5.23,1-7.88A10.83,10.83,0,0,1,3.3,2.15,4.29,4.29,0,0,1,5.13.63,3.58,3.58,0,0,1,7.48.68a1.66,1.66,0,0,0-.22,0,2.56,2.56,0,0,0-1.57.64c-.2.25-.42.81-.22,1.12-1.1.69-2.35,1.41-2.62,2.72a4.58,4.58,0,0,0,.57,3.6,1.66,1.66,0,0,0,.84,2.79,8,8,0,0,0,.4,1.06C3.77,14,2.31,15.08.63,14.6ZM3.74,9.22A16.38,16.38,0,0,0,4.1,11C3.44,10.76,3.17,9.62,3.74,9.22Zm2.9,5a4.72,4.72,0,0,1-1.39-1.65.23.23,0,0,0-.1-.19,8.4,8.4,0,0,1-.44-1.12.28.28,0,0,0,0-.13,25.68,25.68,0,0,1-.73-4.86.26.26,0,0,0-.51,0c0,.52.1,1.13.17,1.77a4,4,0,0,1,0-3.4C4.12,3.64,5.55,3.1,6.48,2.42l0,0c.59-.05,1.18-.06,1.77-.06a.21.21,0,0,0,.15-.05,7.36,7.36,0,0,1,3.89,1A2.91,2.91,0,0,1,13.79,5.7a3.52,3.52,0,0,1-.52,2.14c0-.65.07-1.29.11-1.9,0-.33-.49-.43-.51-.1a34,34,0,0,1-.65,5.51C11.66,13.81,9.05,16,6.64,14.27Zm.83,6.65a16.78,16.78,0,0,1-4.78-.84c-.7-.28-1.13-.79-.48-1.64a2.5,2.5,0,0,1,1.53-.63,14,14,0,0,0,1.56-.35,3,3,0,0,0,1.2-.64,1.24,1.24,0,0,0,.56.42c.69.34,1.1.1,1.18,1A8.45,8.45,0,0,0,9.08,21C8.54,21,8,21,7.47,20.92ZM9.7,21h0a.22.22,0,0,0-.15-.22,7.36,7.36,0,0,1-.82-3.34.25.25,0,0,0-.15-.21c-.2-.08-1.53-.43-1.61-.63a.27.27,0,0,0-.18-.15,3.34,3.34,0,0,0,.42-1.25l.1,0a3.85,3.85,0,0,0,3.15-.4,2.21,2.21,0,0,0,.7,1.15.33.33,0,0,0,0,.14c0,.42-1.39.88-1.7,1a.26.26,0,0,0-.13.39A6.18,6.18,0,0,1,10.15,21Zm6.22-1.66a9.08,9.08,0,0,1-3.09,1.3,12,12,0,0,1-2.17.33,7,7,0,0,0-.78-3.46c.63-.25,1.57-.61,1.73-1.22a10.27,10.27,0,0,0,3.13.67C16.08,17.17,17.37,18.24,15.92,19.34Z"/><path class="cls-1" d="M6.58,7.64A.59.59,0,0,0,6,7.83h0a.26.26,0,0,0-.24.28.57.57,0,0,0,.7.47.6.6,0,0,0,.38-.77A.25.25,0,0,0,6.58,7.64Z"/><path class="cls-1" d="M10.19,7.48a.52.52,0,0,0-.49.26.17.17,0,0,0,0,.1.29.29,0,0,0,0,.14.63.63,0,0,0,.76.52.51.51,0,0,0,.34-.84A.86.86,0,0,0,10.19,7.48Z"/><path class="cls-1" d="M11.26,3.4a1,1,0,0,1,.49.7.25.25,0,0,0-.13.38,1.38,1.38,0,0,1,.24,1.29.26.26,0,0,0,.46.23,1.69,1.69,0,0,0-.13-1.54.23.23,0,0,0,.09-.21,1.51,1.51,0,0,0-.79-1.31C11.2,2.78,11,3.25,11.26,3.4Z"/><path class="cls-1" d="M9.45,3a2.79,2.79,0,0,1,1,.75.72.72,0,0,0-.47-.2c-.33,0-.43.48-.1.5.57,0,.68,1.42.53,1.83s.35.55.46.23a2.91,2.91,0,0,0,0-1.68.25.25,0,0,0,.42-.26A3,3,0,0,0,9.68,2.55C9.38,2.41,9.15,2.88,9.45,3Z"/><path class="cls-1" d="M6.83,3.37a.53.53,0,0,0-.44.26A.26.26,0,0,0,6,3.48a3.86,3.86,0,0,0-1.73,3c0,.33.47.43.51.1A3.46,3.46,0,0,1,6.18,4l-.1.24a4.48,4.48,0,0,0-.39,1.56c0,.33.51.29.52,0a3.66,3.66,0,0,1,.22-1c0-.14.27-.88.44-.87C7.21,3.89,7.16,3.38,6.83,3.37Z"/><path class="cls-1" d="M7.43,5.61c.16-.67.67-1.73.22-2.39-.19-.27-.62,0-.43.29s0,.72,0,1-.18.67-.26,1S7.36,5.94,7.43,5.61Z"/><path class="cls-1" d="M8.29,3.17c.72.06.51,2,.34,2.41s.33.54.46.23c.3-.74.49-3-.7-3.15C8.06,2.63,8,3.14,8.29,3.17Z"/><path class="cls-1" d="M11.38,18.41v-.06a.26.26,0,0,0-.52,0v.06a.26.26,0,1,0,.52,0Z"/><path class="cls-1" d="M11.42,19.86a.26.26,0,0,0-.23.27v.07a.26.26,0,0,0,.27.24.27.27,0,0,0,.24-.28v-.07A.25.25,0,0,0,11.42,19.86Z"/><path class="cls-1" d="M9.85,11.57c.09-.32-.42-.42-.51-.1A.86.86,0,0,1,8,11.88a.27.27,0,0,0-.25-.36H7.57a.25.25,0,0,0-.22.34A1.34,1.34,0,0,0,9.85,11.57Z"/></g></g></svg>