<?xml version="1.0" encoding="utf-8"?>
<!-- Generator: Adobe Illustrator 22.0.1, SVG Export Plug-In . SVG Version: 6.00 Build 0)  -->
<svg version="1.1" id="Layer_1" xmlns="http://www.w3.org/2000/svg" xmlns:xlink="http://www.w3.org/1999/xlink" x="0px" y="0px"
	 viewBox="0 0 25.8 15.6" style="enable-background:new 0 0 25.8 15.6;" xml:space="preserve">
<style type="text/css">
	.st0{fill:#D4DE50;}
</style>
<title>Asset 22</title>
<g id="Layer_2_1_">
	<g id="Layer_1-2">
		<path class="st0" d="M23.5,15.5c0.8-1.8,1.3-3.7,2.2-5.5c0.6-1.3-0.9-1.8-1.9-2.1c-2.3-0.6-4.5-1.3-6.7-2.2
			c-2-0.9-4.2-1.3-6.2-2.2c0,0-0.1,0-0.1,0c0-0.1,0-0.3,0-0.4c-0.2-2.7-4.4-3.6-6.3-2.6c-0.1,0-0.1,0.1-0.1,0.1H4.3
			c-0.1,0-0.3,0-0.3,0.1c0,0,0,0.1,0,0.1c-1.1,0.9-2,2-2.5,3.4C1,5.3-0.3,7.3,0.1,8.6c0.4,1.4,1.8,1.8,3.2,2.1s2.8,1.1,4.1,0.1
			c0,0,0,0.1,0.1,0.1c0.3,0.5,0.9,0.8,1.4,0.9c0.1,0,0.3-0.2,0.4-0.3c0.7-0.6,0.9-0.1,1.2,0.6c0.1,0.2,0.2,0.2,0.4,0.2
			c0,0,0,0,0.1,0c0.8-0.5,1.7-1,2.4,0c0.2,0.3,0.4,0.6,0.6,0.8c0.1,0.1,0.3,0.1,0.4,0c0.6-0.5,1.3-1.4,1.9-0.3
			c0.2,0.4,0.4,0.8,0.9,0.9s0.7-0.3,0.9-0.5c0.9-0.9,1-0.1,1.4,0.9c0.1,0.2,0.2,0.2,0.4,0.2c0,0,0,0,0,0c0.6-0.3,1.3-0.9,2-0.2
			c0.4,0.4,0.7,0.9,1,1.3C23,15.6,23.2,15.6,23.5,15.5C23.4,15.5,23.4,15.5,23.5,15.5z M3.3,10.1c-0.5-0.1-1-0.3-1.5-0.5
			C0.3,9,0.8,7.5,1.2,6.4c0.8-2,1.5-4.1,3.4-5.2c0.1,0,0.1-0.1,0.1-0.2l0,0c1.3-0.6,2.8-0.5,4,0.3c1.5,0.9,1.7,2.2,1.1,3.7
			C9.6,5.8,9.1,6.5,8.7,7.3S8,9,7.6,9.7C6.7,11.4,4.7,10.5,3.3,10.1z M21.6,13.2c-0.5-0.3-1.2,0.2-1.7,0.5c-0.2-0.7-0.5-1.6-1.3-1.6
			c-0.4,0-0.8,0.6-1,0.9c-0.5,0.6-1.3-1-1.6-1.2c-1.1-0.8-1.3,1.6-2.4,0.1c-0.8-1.1-1.8-0.7-2.8-0.1c-0.2-0.5-0.6-1.2-1-1.3
			c-1.2-0.3-0.8,1.6-2.1,0l0,0C8.7,9.6,9,8,9.5,6.9c0.5-0.9,1-1.8,1.2-2.8c0,0,0.1,0,0.1,0c1.1,0.5,2.3,0.8,3.4,1.2
			c1.9,0.7,3.6,1.6,5.5,2.1c1.2,0.4,6,1,5,3c-0.6,1.4-1.2,2.9-1.7,4.4C22.8,14.1,22.3,13.6,21.6,13.2z"/>
		<path class="st0" d="M6.7,7.5c0.2-1,1.4-1.1,1.8-2c0.3-0.8,0.4-1.7,0-2.5l0,0c0-0.1-0.1-0.3-0.2-0.3c-2.1-0.5-3.5,0.2-4.7,2
			C2.9,5.5,1.1,7.5,3,8C3.8,8.3,6.4,8.8,6.7,7.5z M4.5,7.7c-0.7,0-2.4,0-1.4-1.3C3.3,6,3.6,5.6,3.8,5.2c0.7-1.5,2.4-2.4,4.1-2
			c0,0,0,0.1,0,0.1C8.2,3.8,8,4.5,7.9,5C7.8,5.8,7.1,5.7,6.6,6.1C6.4,6.4,6.2,6.7,6.1,7.1C6,7.9,5,7.7,4.5,7.7z"/>
		<path class="st0" d="M11.6,6L11.6,6c-0.4,0.1-0.3,0.7,0.1,0.6h0.1C12.2,6.5,12,5.9,11.6,6z"/>
		<path class="st0" d="M14,6.9c-0.1-0.4-0.7-0.2-0.6,0.2c0.1,0.2,0.2,0.2,0.4,0.2C14,7.2,14,7,14,6.9z"/>
	</g>
</g>
</svg>
