<?xml version="1.0" encoding="utf-8"?>
<!-- Generator: Adobe Illustrator 22.0.1, SVG Export Plug-In . SVG Version: 6.00 Build 0)  -->
<svg version="1.1" id="Layer_1" xmlns="http://www.w3.org/2000/svg" xmlns:xlink="http://www.w3.org/1999/xlink" x="0px" y="0px"
	 viewBox="0 0 23.3 21.9" style="enable-background:new 0 0 23.3 21.9;" xml:space="preserve">
<style type="text/css">
	.st0{fill:#D4DE50;}
</style>
<title>Asset 9</title>
<g id="Layer_2_1_">
	<g id="Layer_1-2">
		<path class="st0" d="M15.6,4.3c0.1,0,0.2,0,0.2-0.1c0.2,0,0.4-0.4,0.1-0.5c-1-0.5-2.1-1-3.3-1.2c-0.9-0.2-2.3-0.2-2.9-0.9
			c-0.1-0.1-0.2-0.1-0.3,0C8.6,2,7.8,2.5,7,3C6.6,3.3,6.1,3.5,5.6,3.7C5.5,3.7,5.2,4,4.9,4.2l0,0c-0.1,0-0.1,0-0.2,0.1l-0.1,0
			c-0.2,0.2,0,0.4,0.2,0.5c0.1,0,0.2,0,0.3-0.1l0,0c1.8,0,3.5-0.3,5.3-0.4S13.9,4.3,15.6,4.3z M6,4.2C6.3,4,6.7,3.8,7,3.6
			c0.6-0.3,2.1-1.8,2.7-1.4c0.7,0.4,1.5,0.6,2.3,0.6c1,0.2,1.9,0.4,2.8,0.8c-1.5,0-2.9,0-4.4,0S7.4,4.1,6,4.2z"/>
		<path class="st0" d="M23.3,20c-0.1-0.1-0.2-0.2-0.3-0.2c0-0.6-0.5-1.2-1.2-1.2h-0.1c0-0.1,0-0.1,0-0.2c-0.1-0.4-0.4-0.7-0.8-0.8
			v-0.1l0,0v-0.1c0-0.1,0-0.2,0-0.3s0.1-0.5-0.1-0.6l0,0c-0.1-0.1-0.2-0.2-0.3-0.1l-1.1,0.2c0-0.1,0-0.1,0-0.2
			c-0.3-1.7-0.5-3.3-0.5-5c-0.2-1.7-0.4-3.4-0.4-5.2V6.1c0.1-0.2,0.3-0.4,0.3-0.6c0.4-0.1,0.8-0.2,1.2-0.4c0.1-0.1,0.2-0.2,0.1-0.3
			L20,4.7c0.3,0,0.4-0.4,0.1-0.5c-1.6-0.8-3.5-1.3-5.2-2S11.5,0.1,9.6,0C8.5-0.1,8.7,0.1,7.8,0.7S6.2,1.9,5.4,2.4
			C3.7,3.5,1.9,4.6,0.1,5.8C0,5.8-0.1,6,0,6.1s0.2,0.2,0.3,0.1l0,0c0,0.1,0.1,0.1,0.2,0.1H1v0.1l0,0l0,0c0,0.1,0.2,0.2,0.2,0.3
			C1.3,6.8,1.4,7,1.6,7.1C1.7,7.2,1.8,7.3,2,7.3l0,0c0.4,3.4,0.6,6.9,0.4,10.3c-0.1,0-0.1,0.1-0.2,0.2c0,0.1,0,0.2,0,0.3
			c0,0.2,0.1,0.5,0.3,0.6l0,0c-0.4,0.1-0.6,0.5-0.6,0.9c0,0.1,0.1,0.2,0.2,0.3c-0.6,0.1-0.9,0.7-0.8,1.3v0.1c0,0.1,0.1,0.2,0.2,0.2
			c0,0.1,0.1,0.3,0.3,0.3l0,0c0.6-0.1,1.3-0.2,1.9-0.3c1-0.1,2-0.1,3-0.2c2.3-0.1,4.5-0.2,6.8-0.4c2.1-0.2,4.1-0.2,6.2-0.5
			c0.4-0.1,3-0.4,3-0.3c0,0.2,0.2,0.2,0.4,0.2C23.2,20.3,23.3,20.2,23.3,20z M20.4,16.9v0.2c0,0.1,0,0.3-0.1,0.4l0,0
			c-0.7,0.1-1.4,0.2-2.1,0.4c-2.7,0.3-5.4,0.4-8.1,0.4c-2,0-4.1,0.1-6.2,0.3c-0.3,0-0.7,0.1-1,0.1c0-0.1,0-0.2,0-0.3
			c0.1,0.1,0,0,0,0l0,0l0,0l-0.1-0.2l0,0c3,0,6-0.5,8.9-0.5c1.7,0,3.4-0.1,5.1-0.3c0,0.1,0.2,0.2,0.3,0.2c0.1,0,0.2-0.1,0.2-0.2l0,0
			C18.5,17.2,19.5,17.1,20.4,16.9L20.4,16.9z M11.6,5.6c1.3,0,2.7,0,4,0c0,0.3,0.8,0.7,1.1,0.8c0,3.5,0.2,6.9,0.3,10.4
			c-1.7,0.2-3.4,0.3-5.1,0.3h-0.3V17c0-2,0.1-4-0.1-6c-0.1-0.9-0.1-1.7-0.1-2.6c0-0.5-0.4-1.4-0.1-1.9c0,0,0.1-0.1,0.1-0.2
			c0.2-0.1,0.4-0.4,0.5-0.6C11.7,5.8,11.7,5.7,11.6,5.6z M16.2,5.6L16.2,5.6l0.7-0.1c0.4,0,0.9,0,1.3,0c-0.2,0.4-0.6,0.6-1,0.6
			c-0.2,0-0.4-0.1-0.5-0.2l-0.3-0.1C16.4,5.8,16.3,5.8,16.2,5.6L16.2,5.6z M11.2,5.7c-0.3,0.8-1.8,0.6-2.3,0l0,0
			C9.7,5.7,10.5,5.7,11.2,5.7L11.2,5.7z M10,12.1c0-1.8-0.2-3.5-0.1-5.3c0,0,0,0,0-0.1l0,0c0.2,0,0.4,0,0.6,0c0,1,0,2,0.2,2.9
			c0.1,2.5,0.2,4.9,0.2,7.4v0.1h-1C10,15.5,10,13.8,10,12.1z M9.4,6.7c-0.1,1.7,0,3.3,0.1,5c0.1,1.9,0,3.8,0,5.6
			c-1.6,0.1-3.2,0.3-4.8,0.4l0,0c-0.1-1.7-0.2-3.5-0.3-5.2c0-0.8-0.1-1.7-0.2-2.5C3.8,9,3.7,8.1,3.5,7.2l0,0C3.9,7,4.1,6.5,4.1,6.1
			L5.3,6c1-0.1,1.9-0.2,2.9-0.2l0,0C8.3,5.8,8.3,6,8.4,6C8.7,6.3,9,6.5,9.4,6.7z M3.8,11.9c0.1,1.9,0.3,3.8,0.3,5.7l0,0L3,17.7
			C3.1,14.3,3,11,2.6,7.6V7.5l0,0h0.1c0.1,0,0.2,0,0.3,0c0,0.4,0.2,0.9,0.3,1.3C3.5,9.8,3.7,10.8,3.8,11.9z M18.9,16.5L18.9,16.5
			c-0.5,0.1-1,0.2-1.5,0.3c0-3.4-0.2-6.8-0.3-10.2c0.3,0,0.6,0,0.8-0.2c0,1.5,0.1,3,0.3,4.5C18.6,12.8,18.5,14.7,18.9,16.5z M1,5.8
			C2.3,5,3.6,4.1,5,3.3c0.8-0.5,1.5-1,2.2-1.5c0.4-0.3,1.4-1.3,2-1.3c1.8-0.1,3.6,1.4,5.3,2.1s3.7,1.2,5.4,2.1h-0.1
			c-0.3,0.1-0.6,0.2-0.9,0.3c-0.1-0.1-0.4-0.2-0.4,0c-0.8,0.1-1.6,0-2.2,0.1c-1.9,0.1-3.8,0-5.7,0.1C8.8,5,7.1,5.2,5.4,5.3
			C4,5.5,2.5,5.8,1,5.8z M2.3,6.9C2,6.8,1.9,6.6,1.7,6.3c0.6,0,1.3-0.1,2-0.2C3.6,6.7,2.9,7,2.3,6.9z M2.5,19.7
			c-0.1-1,7.6-0.9,8.2-0.9c1.9,0,3.7-0.1,5.6-0.2c0.8-0.1,1.7-0.2,2.5-0.3c0.6-0.1,2.1-0.7,2.4,0.2l0,0l-0.6,0.1
			c-2.9,0.4-5.8,0.6-8.7,0.6c-1.5,0-2.9,0.3-4.4,0.4c-1.3,0.1-2.7,0.1-4,0.2c-0.3,0-0.6,0.1-0.9,0.1C2.5,19.8,2.5,19.8,2.5,19.7z
			 M20.9,19.8c-1.8,0.1-3.5,0.4-5.3,0.5c-2.4,0.2-4.9,0.5-7.4,0.5c-1.2,0-2.4,0.1-3.6,0.1c-0.9,0-1.8,0.4-2.7,0.4v-0.1
			c-0.3-1.3,3.9-1.1,4.4-1.1c1.8,0,3.6-0.3,5.5-0.4s3.6-0.1,5.4-0.3c0.7,0,4.6-1,5.1,0.2C21.8,19.7,21.2,19.8,20.9,19.8z"/>
	</g>
</g>
</svg>
