<?xml version="1.0" encoding="utf-8"?>
<!-- Generator: Adobe Illustrator 22.0.1, SVG Export Plug-In . SVG Version: 6.00 Build 0)  -->
<svg version="1.1" id="Layer_1" xmlns="http://www.w3.org/2000/svg" xmlns:xlink="http://www.w3.org/1999/xlink" x="0px" y="0px"
	 viewBox="0 0 48.6 58.8" style="enable-background:new 0 0 48.6 58.8;" xml:space="preserve">
<style type="text/css">
	.st0{fill:#D4DE50;}
</style>
<title>Asset 20</title>
<g id="Layer_2_1_">
	<g id="Layer_1-2">
		<path class="st0" d="M23.1,11.3c0.3,0,0.5-0.3,0.4-0.6C23.2,8,23,5.2,23,2.4c0-0.6,0-1.3,0-1.9C23,0.2,22.8,0,22.5,0
			S22,0.2,22,0.5c0,0.6,0,1.3,0,1.9c0,2.8,0.2,5.7,0.6,8.5C22.7,11.2,22.9,11.4,23.1,11.3z"/>
		<path class="st0" d="M36.8,13.2l6.4-4.6c0.2-0.1,0.3-0.4,0.1-0.7c0,0,0,0,0,0c-0.2-0.2-0.5-0.3-0.7-0.1c0,0,0,0,0,0l-6.4,4.6
			c-0.2,0.2-0.3,0.5-0.1,0.7C36.2,13.3,36.5,13.4,36.8,13.2C36.8,13.2,36.8,13.2,36.8,13.2z"/>
		<path class="st0" d="M40.7,24.8c0,0.3,0.2,0.5,0.5,0.5c0,0,0,0,0,0c2.5-0.1,4.9-0.7,7.2-1.8c0.3-0.1,0.4-0.4,0.3-0.7
			c-0.1-0.3-0.4-0.4-0.7-0.3c0,0,0,0-0.1,0c-2.1,1-4.4,1.6-6.7,1.7C40.9,24.3,40.7,24.5,40.7,24.8z"/>
		<path class="st0" d="M39.9,35.1c-0.2,0.2-0.2,0.5,0,0.7c0,0,0,0,0,0l5.3,4.4c0.2,0.2,0.5,0.1,0.7-0.1c0.2-0.2,0.1-0.5-0.1-0.7
			L40.6,35C40.4,34.8,40.1,34.9,39.9,35.1C39.9,35.1,39.9,35.1,39.9,35.1z"/>
		<path class="st0" d="M4.9,8.5c1.9,1.3,3.6,2.9,4.8,4.9c0.2,0.2,0.5,0.3,0.7,0.1c0.2-0.1,0.3-0.4,0.1-0.7c-1.3-2.1-3.1-3.8-5.1-5.2
			C5.2,7.6,4.9,7.6,4.8,7.8C4.6,8.1,4.7,8.4,4.9,8.5C4.9,8.5,4.9,8.5,4.9,8.5z"/>
		<path class="st0" d="M0.4,24c2.1,0.2,4.2,0.7,6.3,1.5c0.3,0.1,0.6,0,0.7-0.3c0.1-0.3,0-0.6-0.3-0.6l0,0C5,23.8,2.8,23.2,0.6,23
			C0.3,23,0,23.2,0,23.5C0,23.7,0.2,24,0.4,24z"/>
		<path class="st0" d="M8.1,37.2c-0.9,0.9-1.8,1.7-2.8,2.4c-1.1,0.7-2,1.6-2.9,2.5c-0.2,0.2-0.2,0.5,0,0.7c0,0,0,0,0,0
			c0.2,0.2,0.5,0.2,0.7,0c0,0,0,0,0,0c0.9-0.9,1.8-1.7,2.8-2.4c1-0.8,2-1.6,2.9-2.5c0.2-0.2,0.2-0.5,0-0.7c0,0,0,0,0,0
			C8.6,37,8.3,37,8.1,37.2C8.1,37.2,8.1,37.2,8.1,37.2z"/>
		<path class="st0" d="M18.8,56.4c0.4,0.5,0.9,0.9,1.4,1.2c0.9,0.6,1.9,1,2.9,1.2l2.4-0.1c0.1,0,0.3-0.1,0.4-0.1
			c0.9-0.4,1.7-0.9,2.3-1.6c0.2-0.2,0.4-0.4,0.5-0.6c0.2-0.3,0.4-0.7,0.6-1c0.2-0.3,0.3-0.6,0.3-1l0,0c0,0,0.1-0.1,0.1-0.1
			c0.1-0.2,0.1-0.3,0.1-0.5c0-0.2-0.1-0.4-0.2-0.5c0.3-0.1,0.4-0.3,0.4-0.6c0-0.1-0.1-0.2-0.2-0.3c0-0.1,0.1-0.2,0.1-0.3V52
			c0-0.2-0.1-0.4-0.3-0.5l0,0l-0.2-0.1v-0.1l0.1-0.2l0.1,0c0.2,0,0.4-0.2,0.4-0.4c0-0.1,0-0.2,0-0.3c0-0.3-0.1-0.6-0.3-0.8l-0.1-0.1
			c0.1-0.1,0.2-0.2,0.2-0.3c0.1-0.1,0.1-0.3,0.1-0.5v-0.2c0-0.5-0.1-0.9-0.1-1.4c0,0,0.1-0.1,0.1-0.1c0.7-0.9,1.2-1.9,1.5-2.9
			c0.3-0.9,0.4-1.8,0.6-2.6c0.5-1.8,1.3-3.5,2.3-5c1.8-2.7,2.7-5.9,2.6-9.2c0.1-3.1-0.9-6.2-2.8-8.7c-2-2.5-5.3-4.2-10.2-4.4h-0.6
			c-3.6,0-7.1,1.6-9.4,4.4c-3.7,4.7-4.4,11.1-1.9,16.5c0.6,1.3,1.4,2.3,2.1,3.5c0.7,1,1.2,2.1,1.4,3.2c0.1,0.5,0.1,1,0.1,1.5
			c0.2,1.1,0.7,2.1,1.4,3c0.3,0.4,0.4,0.9,0.4,1.4c0,0.2,0,0.4,0,0.6c0,0.3,0,0.5,0,0.8l0.1,0.9c0,0.2,0.1,0.4,0.1,0.6
			c0,0.1,0.1,0.2,0.1,0.3c-0.1,0.3-0.2,0.6-0.2,0.9c0.1,1.2,0.2,2.3,0.5,3.5C18.2,55.7,18.5,56.1,18.8,56.4z M17.8,52.7
			c0,0,0-0.1,0-0.1L17.8,52.7L17.8,52.7z M18.4,47.1l0.1-0.1c0,0,0.1,0,0.1,0c1.8,0.2,3.6,0.3,5.5,0.3c0.9,0,1.9,0,2.8-0.1
			c0.6,0,1.3-0.1,1.9-0.3l0.1,0.8l-8.1,0.5h-0.8c-0.5,0-1,0-1.5-0.2c0-0.1,0-0.2,0-0.3S18.4,47.3,18.4,47.1L18.4,47.1z M22.5,46.3
			L21,46.2c0.5-0.1,0.9-0.2,1.4-0.2L22.5,46.3C22.4,46.2,22.4,46.3,22.5,46.3L22.5,46.3z M24.5,34.3c0.4,0.4,0.9,0.6,1.5,0.6
			c-0.4,2.6-0.7,5.3-0.7,8c0,0.6,0,1.3,0.1,1.9h-0.9h-0.9c0-3.1-0.3-6.2-0.8-9.3h0.1c0.5-0.1,1-0.4,1.3-0.8
			C24.3,34.6,24.3,34.5,24.5,34.3L24.5,34.3z M24.3,29.3c0-1,0.1-2.1,0.4-3.1c0-0.2,0.1-0.4,0.2-0.5c0-0.1,0.1-0.2,0.2-0.2h0.1
			c0.2,0,0.4,0.2,0.5,0.4c0.1,0.2,0.1,0.4,0.1,0.7c0,0.2,0,0.4,0,0.6c-0.2,1.6-0.6,3.2-1.2,4.7C24.4,31,24.3,30.2,24.3,29.3
			L24.3,29.3z M25.4,46.3c-0.4,0-0.9,0-1.3,0h-0.7c0,0,0-0.1,0-0.1v-0.3h0.9h1c0,0.1,0,0.2,0,0.2C25.3,46.2,25.3,46.2,25.4,46.3
			L25.4,46.3z M26.4,45.9c0.6,0,1.1,0.1,1.7,0.2c-0.4,0.1-0.8,0.1-1.2,0.2h-0.6C26.3,46.2,26.3,46.1,26.4,45.9L26.4,45.9z
			 M28.5,51.4c-1.2,0.2-2.4,0.3-3.7,0.5c-1.2,0.2-2.5,0.3-3.8,0.3c-0.8,0-1.6-0.1-2.3-0.2l-0.2-0.1c0-0.2,0.1-0.4,0.1-0.5H19h0.1
			c3.3-0.2,6.6-0.5,9.8-1.1c-0.1,0-0.1,0.1-0.2,0.2c-0.2,0.2-0.3,0.5-0.3,0.8C28.5,51.3,28.5,51.4,28.5,51.4L28.5,51.4z M18.5,49.1
			c0.5,0.1,1,0.2,1.4,0.2c0.3,0,0.6,0,0.9,0l8-0.5L28.7,49c-0.1,0.1-0.1,0.2-0.2,0.3c0,0,0,0.1,0,0.1c-3.1,0.5-6.3,0.9-9.4,1H19
			c-0.1,0-0.2,0-0.2,0c0,0-0.1-0.1-0.1-0.1c0-0.1-0.1-0.2-0.1-0.4C18.5,49.6,18.5,49.3,18.5,49.1L18.5,49.1z M18.8,53.6h-0.2
			c0,0,0-0.1,0-0.2c0-0.2,0.1-0.3,0.2-0.5c0.8,0.1,1.6,0.2,2.3,0.2c1.3,0,2.6-0.1,3.9-0.3c1.3-0.2,2.5-0.3,3.8-0.5l-0.1,0.2
			c-2.4,0.7-4.9,1.2-7.4,1.3C20.4,53.8,19.6,53.8,18.8,53.6L18.8,53.6z M26.8,57.2c-0.8,0.5-1.7,0.8-2.7,0.8h-0.4
			c-1-0.1-2-0.5-2.8-1.1c-0.5-0.3-0.9-0.6-1.2-1c-0.1-0.2-0.3-0.4-0.4-0.5c0.3,0.1,0.6,0.1,0.9,0.2c1.3,0.2,2.7,0.3,4,0.3
			c1.5,0,3-0.2,4.4-0.6C28,56,27.4,56.6,26.8,57.2L26.8,57.2z M28.8,54c-0.2,0.1-0.4,0.1-0.6,0.2c-1.3,0.4-2.7,0.5-4.1,0.5h-0.8
			c1.8-0.2,3.6-0.6,5.4-1.1c0.1,0,0.1,0,0.2,0l0.1,0l0.1,0.1C28.9,53.9,28.8,54,28.8,54L28.8,54z M18,45.7c-0.6-0.8-1-1.6-1.2-2.6
			c-0.1-0.5,0-1-0.1-1.5c-0.3-1.3-0.8-2.5-1.6-3.6c-0.7-1.2-1.5-2.2-2-3.4c-2.4-5.1-1.7-11,1.7-15.4c2.1-2.6,5.3-4.1,8.7-4.1H24
			c4.7,0.2,7.6,1.8,9.5,4c1.8,2.3,2.7,5.1,2.6,8c0.1,3.1-0.8,6.1-2.4,8.7c-1.2,1.6-2,3.3-2.5,5.2c-0.3,0.9-0.4,1.8-0.6,2.6
			c-0.2,0.6-0.5,1.2-0.8,1.8c-0.1-0.1-0.2-0.2-0.3-0.2c-0.1,0-0.2,0-0.4,0c-0.9-0.1-1.8-0.2-2.7-0.3c0-0.6-0.1-1.3-0.1-1.9
			c0-2.7,0.2-5.5,0.7-8.2c0.1,0,0.3-0.1,0.4-0.1c0.8-0.5,1.4-1.1,1.9-1.9c1.1-1.8,1.6-3.8,1.6-5.8c0-0.4-0.1-0.7-0.3-1.1
			c-0.2-0.3-0.5-0.4-0.9-0.4c-0.3,0-0.7,0.1-0.9,0.3c-0.4,0.3-0.6,0.8-0.8,1.2c-0.8,2.3-1.4,4.6-1.9,7c-0.5,0-0.9-0.2-1.1-0.7
			c0.9-1.9,1.5-4,1.8-6.1c0-0.3,0-0.5,0-0.8c0-0.4-0.1-0.7-0.2-1.1c-0.2-0.6-0.8-1-1.4-1c-0.2,0-0.4,0-0.5,0.1
			c-0.3,0.1-0.5,0.4-0.7,0.7c-0.1,0.2-0.2,0.5-0.3,0.8c-0.5,2.2-0.5,4.5,0,6.7c0.1,0.2,0.1,0.4,0.2,0.6c-0.1,0.3-0.3,0.5-0.5,0.8
			c-0.2,0.2-0.4,0.4-0.7,0.5h-0.1c-0.4-2.4-1-4.7-1.7-7.1c-0.1-0.4-0.3-0.8-0.5-1.2c-0.2-0.4-0.5-0.8-0.9-1.1
			c-0.4-0.2-0.8-0.3-1.2-0.3c-0.5,0-1,0.1-1.4,0.4c-0.7,0.5-1.1,1.3-1.1,2.2v0.1c0.1,0.7,0.3,1.4,0.6,2c1,1.9,2.3,3.6,3.9,5
			c0.4,0.3,0.8,0.6,1.3,0.8c0.5,3.2,0.8,6.4,0.8,9.6c-1.4,0.1-2.7,0.5-4,1.1c-0.1,0-0.1,0-0.2,0h-0.1h-0.1C18,45.9,18,45.8,18,45.7
			L18,45.7z M27.2,33.6c0.4-2.1,1-4.2,1.7-6.2c0.1-0.3,0.2-0.6,0.5-0.8l0.3-0.1h0.1c0.1,0.1,0.1,0.3,0.1,0.4c0,1.9-0.5,3.7-1.5,5.3
			C28.1,32.7,27.7,33.2,27.2,33.6L27.2,33.6z M21.5,34.2c-0.2-0.1-0.3-0.2-0.5-0.4c-1.5-1.3-2.8-2.9-3.7-4.7c-0.3-0.5-0.5-1-0.5-1.5
			v-0.1c0-0.5,0.2-1,0.7-1.4c0.2-0.2,0.5-0.3,0.8-0.3c0.2,0,0.5,0.1,0.7,0.2c0.2,0.2,0.4,0.4,0.6,0.7c0.2,0.3,0.3,0.7,0.4,1
			C20.6,29.9,21.1,32,21.5,34.2L21.5,34.2z"/>
	</g>
</g>
</svg>
