<?xml version="1.0" encoding="utf-8"?>
<!-- Generator: Adobe Illustrator 22.0.1, SVG Export Plug-In . SVG Version: 6.00 Build 0)  -->
<svg version="1.1" baseProfile="basic" id="Layer_1"
	 xmlns="http://www.w3.org/2000/svg" xmlns:xlink="http://www.w3.org/1999/xlink" x="0px" y="0px" viewBox="0 0 202 202"
	 xml:space="preserve">
<path fill="none" d="M142.9,132.3c1.6,0,4,1.1,6.9,3.4l7-7.3c-3-3.3-8.8-5.6-14.4-5.6c-3,0-5.7,0.5-7.9,1.5
	c-1.6-1.2-3.9-1.9-6.6-1.9c-1.5,0-2.9,0.2-4.1,0.6c-0.4,0.1-0.8,0.3-1.2,0.5c-0.1,0-0.1,0.1-0.2,0.1c-1,0.5-2.3,1.3-4.1,2.3
	c-2.6,1.2-5.1,1.9-7.1,1.9c-2.9,0-4.5-1.3-4.7-3.3c7.7-0.7,19.2-3.3,19.2-14.4c0-6.4-4.3-9.5-11.4-9.5c-11.1,0-18.3,7.7-20.7,16.6
	c-0.6-0.1-1.2-0.2-1.9-0.2c-5.4,0-9.5,2.6-12.3,7.2l-0.2-0.1l3.2-18h-0.1v0c-5.5-2.2-10.7-2.9-13.7-2.9c-5.1,0-9.4,1.3-12.8,3.6
	c-1.8-2.4-4.6-3.5-8.2-3.5c-2.6,0-4.7,0.7-6.1,1.4l2.2-12.3H30.1l-8,45.4c2.9,1.4,8.9,2.7,14.2,2.7c5,0,9.3-1.2,12.7-3.4
	c1.7,2.1,4.2,3.4,8,3.4c1.1,0,2.2-0.1,3.2-0.5c1-0.3,1.9-0.7,2.8-1.3l-2.6,14.5h13.7l2.4-13.8l0.4-0.1h0.4l3.4,13.9h15l-5.3-16.8
	c1.7-0.8,3.4-1.9,4.9-3.4c1.9,2.6,5,4.3,9.3,4.8l-3.7,21.2h13.7l3.7-21c0.5-2.6,2.2-3.5,4.6-3.6c1.5,0,2.8,0.3,3.9,1.1
	c0,0.1,0,0.3,0,0.4c0,6.7,3.9,8.5,7.3,9.8c2.6,0.9,4.9,1.8,4.9,3.1c0,0.9-0.6,1.4-2,1.4c-2.8,0-7.4-2-9.9-3.6l-4.9,9.2
	c2.1,1.6,7.5,4.2,14.3,4.2c9.7,0,16.3-4.4,16.3-12.4c0-5.5-3.2-8-6.6-9.4c-3.4-1.5-5.6-2-5.6-3.8
	C140.7,133.4,141.3,132.3,142.9,132.3z M111.4,110.2c0.3-0.1,0.6-0.1,1-0.1c0.9,0,1.5,0.6,1.5,1.5c0,2-2.6,4.5-6.6,4.8
	C108,112.7,109.7,110.8,111.4,110.2z M38.7,131.1c-0.3,0-0.9,0-1.8-0.2l2.8-16.2c0.3-1.3,1.1-1.9,2.2-1.9c2,0,2.7,2,2.7,4.9
	C44.7,122.4,42.5,131.1,38.7,131.1z M64.7,129.3c-0.5,0.8-1.4,1.4-2.4,1.4c-1.7,0-2.4-2-2.4-4.7c0-4.8,2-13.3,6.2-13.3
	c0.5,0,1,0.1,1.5,0.2L64.7,129.3z M77.8,133.5l0.1-1c1.2-3.3,3.6-5.7,5.6-5.7c0.9,0,1.6,0.6,1.6,1.6C85,130.8,81.8,132.9,77.8,133.5
	z"/>
<path fill="none" d="M173.5,100.1c-2.9,0-4.5-1.3-4.7-3.3c7.7-0.7,19.1-3.2,19.1-14.3c0-6.4-4.3-9.5-11.4-9.5
	c-8.4,0-14.6,4.4-18.1,10.4c-0.8-0.2-1.7-0.2-2.5-0.2c-2.4,0-5.9,1.1-8.7,5.7l-0.3-4.7h-5.1l4.2-23.8h-13.7l-3.9,22.3
	c-0.3,1.8-1.4,3.2-2.8,3.2c-1.3,0-1.6-0.8-1.4-2.2c0.1-0.5,0.1-1,0.2-1.6l3.9-21.8h-12.9l0,0H104l2.2-12h-0.8l0-0.1H91.7l-3.9,22.3
	c-0.3,1.8-1.4,3.2-2.8,3.2c-1.3,0-1.6-0.8-1.4-2.2c0.1-0.5,0.1-1,0.2-1.6l3.9-21.8h-9.3H74h-4.4l0.5-2.8c0.5-2.4,1.7-2.8,3-2.8
	c1.1,0,3.4,0.6,5.7,1.9l4.4-8.6c-2.9-1.8-7.6-3.2-11.9-3.2c-11.3,0-13.9,7.4-15.1,14.2l-8.9,50.4H61l6.8-38.5h4.4L70,71.6
	c-0.2,1.3-0.3,2.5-0.3,3.6c-0.1,6,3.2,9,9.9,9c2.6,0,5-0.7,7-2.2l0,0.1c-0.3,1.9-0.6,3.7-0.6,5.4c0,4.7,2,9.1,11,9.1
	c4.2,0,8.7-1.2,11.1-2.6l-1.6-8.6c-1.1,0.6-2.3,0.9-3.2,0.9c-1.6,0-3-0.4-3.1-2.6c0-0.5,0.1-1.3,0.1-1.9l2-10.8h10.8l-2.2,12.7
	c-0.2,1.3-0.3,2.5-0.3,3.6c-0.1,6,3.2,9,9.9,9c3.4,0,6.4-1.2,8.7-3.7h0.4v2.8h5.9l-4.2,23.8h13.7l3.7-21c0.5-2.6,2.2-3.6,4.6-3.6
	c0.8,0,1.5,0.1,2.2,0.3c0,0.3,0,0.7,0,1c0,8,4.2,14.1,14.5,14.1c8.4,0,13.9-3.3,14.9-4l-2.2-8.8C179.5,98.9,176.3,100.1,173.5,100.1
	z M173.7,82.6c0.3-0.1,0.6-0.1,0.9-0.1c0.9,0,1.5,0.6,1.5,1.5c0,2-2.6,4.5-6.6,4.8C170.3,85,172,83.1,173.7,82.6z"/>
<path fill="#FF4500" d="M101.2,3.1c-54.4,0-98.6,44.1-98.6,98.6c0,54.5,44.1,98.6,98.6,98.6c54.4,0,98.6-44.1,98.6-98.6
	C199.8,47.3,155.7,3.1,101.2,3.1z M146.3,137.9c3.4,1.5,6.6,3.9,6.6,9.4c0,8-6.6,12.4-16.3,12.4c-6.8,0-12.2-2.6-14.3-4.2l4.9-9.2
	c2.5,1.6,7.1,3.6,9.9,3.6c1.4,0,2-0.5,2-1.4c0-1.3-2.3-2.2-4.9-3.1c-3.4-1.3-7.3-3.1-7.3-9.8c0-0.1,0-0.3,0-0.4
	c-1.2-0.8-2.4-1.1-3.9-1.1c-2.4,0-4.1,1-4.6,3.6l-3.7,21H101l3.7-21.2c-4.3-0.5-7.4-2.2-9.3-4.8c-1.5,1.4-3.2,2.5-4.9,3.4l5.3,16.8
	h-15l-3.4-13.9H77l-0.4,0.1l-2.4,13.8H60.4l2.6-14.5c-0.9,0.6-1.8,1-2.8,1.3c-1,0.3-2.1,0.5-3.2,0.5c-3.8,0-6.3-1.3-8-3.4
	c-3.4,2.2-7.6,3.4-12.7,3.4c-5.3,0-11.3-1.3-14.2-2.7l8-45.4h13.7l-2.2,12.3c1.4-0.7,3.4-1.4,6.1-1.4c3.5,0,6.3,1.2,8.2,3.5
	c3.5-2.3,7.8-3.6,12.8-3.6c2.9,0,8.2,0.7,13.7,2.9v0h0.1l-3.2,18l0.2,0.1c2.8-4.5,6.9-7.2,12.3-7.2c0.6,0,1.3,0.1,1.9,0.2
	c2.3-9,9.6-16.6,20.7-16.6c7,0,11.4,3.1,11.4,9.5c0,11.1-11.5,13.6-19.2,14.4c0.2,2,1.8,3.3,4.7,3.3c2,0,4.5-0.6,7.1-1.9
	c1.9-1,3.1-1.8,4.1-2.3c0.1,0,0.1-0.1,0.2-0.1c0.4-0.2,0.8-0.4,1.2-0.5c1.2-0.4,2.6-0.6,4.1-0.6c2.7,0,5.1,0.8,6.6,1.9
	c2.3-1,5-1.5,7.9-1.5c5.6,0,11.4,2.3,14.4,5.6l-7,7.3c-2.9-2.3-5.3-3.4-6.9-3.4c-1.7,0-2.2,1-2.2,1.8
	C140.7,135.9,142.9,136.5,146.3,137.9z M169.7,110.1c-10.3,0-14.5-6.1-14.5-14.1c0-0.3,0-0.7,0-1c-0.7-0.2-1.4-0.3-2.2-0.3
	c-2.4,0-4.1,0.9-4.6,3.6l-3.7,21H131l4.2-23.8h-5.9v-2.8h-0.4c-2.4,2.4-5.3,3.7-8.7,3.7c-6.7,0-9.9-3-9.9-9c0-1.1,0.1-2.3,0.3-3.6
	l2.2-12.7h-10.8l-2,10.8c-0.1,0.6-0.1,1.4-0.1,1.9c0.1,2.2,1.5,2.6,3.1,2.6c0.9,0,2.1-0.3,3.2-0.9l1.6,8.6
	c-2.4,1.4-6.9,2.6-11.1,2.6c-8.9,0-11-4.3-11-9.1c0-1.8,0.3-3.5,0.6-5.4l0-0.1c-2,1.5-4.4,2.2-7,2.2c-6.7,0-9.9-3-9.9-9
	c0-1.1,0.1-2.3,0.3-3.6l2.2-12.6h-4.4L61,97.4H47.4l8.9-50.4c1.2-6.8,3.8-14.2,15.1-14.2c4.3,0,9,1.4,11.9,3.2l-4.4,8.6
	c-2.2-1.3-4.6-1.9-5.7-1.9c-1.4,0-2.6,0.4-3,2.8l-0.5,2.8H74h4.4h9.3l-3.9,21.8c-0.1,0.5-0.1,1.1-0.2,1.6c-0.1,1.4,0.1,2.2,1.4,2.2
	c1.4,0,2.4-1.4,2.8-3.2l3.9-22.3h13.7l0,0.1h0.8l-2.2,12h11.5l0,0h12.9l-3.9,21.8c-0.1,0.5-0.1,1.1-0.2,1.6
	c-0.1,1.4,0.1,2.2,1.4,2.2c1.4,0,2.4-1.4,2.8-3.2l3.9-22.3h13.7l-4.2,23.8h5.1l0.3,4.7c2.8-4.6,6.4-5.7,8.7-5.7
	c0.8,0,1.6,0.1,2.5,0.2c3.5-6,9.7-10.4,18.1-10.4c7,0,11.4,3.1,11.4,9.5c0,11.1-11.4,13.6-19.1,14.3c0.2,2,1.8,3.3,4.7,3.3
	c2.8,0,5.9-1.1,8.8-2.8l2.2,8.8C183.5,106.8,178.1,110.1,169.7,110.1z M44.7,117.8c0,4.7-2.2,13.3-5.9,13.3c-0.3,0-0.9,0-1.8-0.2
	l2.8-16.2c0.3-1.3,1.1-1.9,2.2-1.9C43.9,112.8,44.7,114.9,44.7,117.8z M85,128.3c0,2.5-3.2,4.6-7.2,5.2l0.1-1
	c1.2-3.3,3.6-5.7,5.6-5.7C84.4,126.7,85,127.3,85,128.3z M66.1,112.6c0.5,0,1,0.1,1.5,0.2l-2.9,16.5c-0.5,0.8-1.4,1.4-2.4,1.4
	c-1.7,0-2.4-2-2.4-4.7C59.9,121.1,61.9,112.6,66.1,112.6z M113.8,111.6c0,2-2.6,4.5-6.6,4.8c0.8-3.7,2.5-5.6,4.1-6.2
	c0.3-0.1,0.6-0.1,1-0.1C113.3,110.1,113.8,110.7,113.8,111.6z M176.1,83.9c0,2-2.6,4.5-6.6,4.8c0.8-3.7,2.5-5.6,4.1-6.2
	c0.3-0.1,0.6-0.1,0.9-0.1C175.5,82.4,176.1,83,176.1,83.9z"/>
</svg>
