<?xml version="1.0" encoding="utf-8"?>
<!-- Generator: Adobe Illustrator 22.0.1, SVG Export Plug-In . SVG Version: 6.00 Build 0)  -->
<svg version="1.1" id="Layer_1" xmlns="http://www.w3.org/2000/svg" xmlns:xlink="http://www.w3.org/1999/xlink" x="0px" y="0px"
	 viewBox="0 0 14.5 29.1" style="enable-background:new 0 0 14.5 29.1;" xml:space="preserve">
<style type="text/css">
	.st0{fill:#D4DE50;}
</style>
<title>Asset 7</title>
<g id="Layer_2_1_">
	<g id="Layer_1-2">
		<path class="st0" d="M14,5.6C13.4,3,11.8,0.1,8.8,0C6,0,4.7,2.9,4.8,5.4C4.6,5.3,4.3,5.2,4,5.2c-6.4-0.7-4.4,11.3,1.3,11.2
			c0,0.2-0.1,0.4-0.1,0.6c0,0.1,0,0.3,0.2,0.3h0.1c0.4,0,0.7-0.2,1-0.4c0.4,1-0.2,2.1-0.4,3.2c0,0.3,0,0.6,0.1,0.9
			c0.5,0.6,0.7,1.4,0.7,2.2c-0.2,0.9-0.3,1.9-0.3,2.9c0,0.9,0.1,1.8,0.3,2.8c0.1,0.3,0.6,0.2,0.5-0.1C7.2,27.9,7.1,27,7.1,26
			c-0.1-1.4,0.5-2.6,0.3-4c-0.1-0.3-0.2-0.5-0.4-0.7c-0.8-1.1-0.2-1.7,0-2.8c0.2-0.7,0.1-1.4-0.2-2.1C7,16.3,7,16.1,7,15.8l0.2-0.1
			c0.5,1,1.4,1.6,2.5,1.6c-0.1,0.2-0.1,0.4-0.2,0.6c-0.1,0.1,0,0.3,0.2,0.3c0,0,0,0,0.1,0c0.5,0,1,0,1.4-0.2l0.1-0.1
			c0.9,1.4-0.8,3.3-0.7,4.8c0.1,1.1,0.7,2,0.7,3.1c0,0.9-0.1,1.8-0.1,2.7c0.2,0,0.4,0,0.5,0c0-0.4,0-0.8,0-1.2
			c0.2-1.1,0.1-2.2-0.2-3.3c-0.4-1-0.4-2.2,0.1-3.2c0.5-1.2,0.7-2.5-0.1-3.4c0-0.1-0.1-0.3-0.2-0.4c0.9-0.5,1.6-1.2,2-2.1
			C14.6,12,14.9,8.7,14,5.6z M5.7,16.7c0-0.2,0-0.4,0.1-0.5v-0.1H6c0,0.1,0,0.2,0,0.3l0.1,0.1C6,16.6,5.9,16.7,5.7,16.7z M6.7,15.4
			c-0.2,0-0.3,0-0.4,0.1c-0.2,0.1-0.5,0.1-0.7,0.1c-0.1,0-0.3,0.1-0.3,0.2c0,0,0,0,0,0.1c-3.2,0-5.2-4.4-4.7-7.4
			c0.1,0,0.2-0.1,0.2-0.2V8.1c0,0,0-0.1-0.1-0.1c0.3-1.4,1.6-2.3,3-2.3c0.4,0,0.8,0.1,1.2,0.2C4.9,6,5,6.1,5,6.2s0.2,0.2,0.3,0.2
			c0.1,0,0.2-0.1,0.2-0.2C8.3,8.1,9.3,14.2,6.7,15.4z M10.8,17.6c-0.2,0.1-0.5,0.1-0.7,0.1l0.2-0.4c0.1,0,0.2,0,0.3-0.1
			c0,0.1,0,0.2,0.1,0.3L10.8,17.6L10.8,17.6z M13.7,12.2c-0.3,1.4-1,2.7-1.9,3.8c-1,1-2.6,1-3.6,0c-0.2-0.2-0.4-0.4-0.5-0.7l0,0
			c0.9-1.2,1.2-2.7,1-4.2C8.5,9,7.4,6.5,5.4,5.6c-0.3-2.4,1-5.1,3.7-5s3.9,3,4.4,5.2C14.1,7.8,14.2,10.1,13.7,12.2z"/>
		<path class="st0" d="M3.3,7.8C3.1,7.7,2.7,7.6,2.4,7.7c0-0.1-0.1-0.2-0.3-0.2H2C1.3,8,1.4,9.3,1.6,10c0,0.1,0.2,0.2,0.3,0.2
			c0.2,0,0.4-0.1,0.6-0.1C2.7,10,2.7,9.8,2.8,9.6c0.1-0.5,0.6-1,0.7-1.5C3.6,8,3.5,7.8,3.3,7.8z M2.4,9.1C2.3,9.2,2.3,9.4,2.2,9.6
			c0,0-0.1,0-0.2,0c-0.1-0.5-0.1-1,0.2-1.5c0.1,0.1,0.2,0.1,0.2,0.1c0.2,0,0.3,0,0.5,0C2.8,8.5,2.6,8.8,2.4,9.1z"/>
		<path class="st0" d="M8,2.2c-0.5,0-0.9,0.2-1.2,0.6c-0.1,0-0.2,0-0.2,0.1C6.2,3.5,6.1,4.3,6.2,5.1c0,0.1,0.1,0.3,0.3,0.3
			c0.1,0,0.2,0,0.2-0.1C6.9,5,7.3,4.8,7.6,4.9c0.2,0,0.3-0.2,0.3-0.3C7.8,3.9,8,3.2,8.2,2.6C8.3,2.4,8.2,2.3,8,2.2L8,2.2z M6.7,4.5
			c0-0.4,0-0.8,0.2-1.2c0.1,0,0.2-0.1,0.3-0.2c0-0.1,0.2-0.2,0.4-0.3c-0.2,0.5-0.2,1-0.2,1.6C7.1,4.4,6.9,4.4,6.7,4.5z"/>
	</g>
</g>
</svg>
