<?xml version="1.0" encoding="utf-8"?>
<!-- Generator: Adobe Illustrator 22.0.1, SVG Export Plug-In . SVG Version: 6.00 Build 0)  -->
<svg version="1.1" id="Layer_1" xmlns="http://www.w3.org/2000/svg" xmlns:xlink="http://www.w3.org/1999/xlink" x="0px" y="0px"
	 viewBox="0 0 22 22" style="enable-background:new 0 0 22 22;" xml:space="preserve">
<style type="text/css">
	.st0{fill:#010101;}
</style>
<title>Asset 14</title>
<g id="Layer_2_1_">
	<g id="Layer_1-2">
		<path class="st0" d="M13.6,6.7C11.2,5.5,8,5.4,6.1,7.6C5.3,8.5,4.8,9.8,5,11c0.2,1.5,1.5,3.2,0.7,4.8l0,0
			c-0.4,0.2-0.5,0.5-0.4,0.8c-0.4,0.2-0.5,0.5-0.5,0.9c-0.3,0-0.5,0.4-0.5,0.7c0,0.4,0.1,0.6,0.3,0.9c-0.8,0.8,0,1.9,0.7,2.4
			s2.6,0.8,3.1-0.4c0.1-0.3,0-0.3-0.2-0.4c-0.1,0-0.2,0-0.3,0c-0.5,0.5-1.5,0.6-2.1,0.3c-0.4-0.2-0.6-0.4-0.9-0.6
			c-0.1-0.2-0.4-0.8-0.2-1c0.3,0.4,0.5,0.6,0.9,0.9c0.7,0.6,1.8,0.7,2.6,0.3c0.5-0.2,1.2-0.7,1.2-1.3l0.3-0.1
			c0.5-0.3,0.8-0.9,0.5-1.3c0-0.1,0.1-0.1,0.1-0.2c0.1,0.1,0.4,0.1,0.5,0l0.1-0.1c0.5-1.4,1.9-1.8,3.1-2.3c1-0.4,1.8-1.1,2.3-2
			C17.4,10.8,15.8,7.7,13.6,6.7z M6.6,20.3c-0.5-0.2-0.9-0.5-1.3-1c-0.1-0.1-0.2-0.3-0.3-0.4c-0.1-0.1-0.5-1-0.2-1.2c0,0,0,0,0,0.1
			c0.2,0.9,1.2,1.2,1.9,1.5c0.5,0.2,1.1,0.3,1.7,0.3C8,20.2,7.3,20.5,6.6,20.3L6.6,20.3z M7.1,18.7c-0.5-0.1-0.9-0.3-1.3-0.5
			c-0.3-0.1-0.6-0.9-0.3-1.3l0,0c0.5,0.7,1.4,1.2,2.2,1.4c0.6,0.2,1.3,0.2,1.9-0.1C9.6,19.1,7.4,18.8,7.1,18.7L7.1,18.7z M8,13
			c0-0.7,0-1.5-0.1-2.2c0.3,0.2,0.5,0.3,0.9,0.3v0.1c0.4,0.5,0.9,0.5,1.4,0.4c0.1,0.2,0.2,0.3,0.4,0.4c0.2,0.1,0.4,0.1,0.5,0.1
			c0.4,0,0.7,0.1,1,0.3c-1.6,1.2-3.4,2.4-4.2,4.4l-0.2-0.1c-0.1,0-0.3,0-0.3-0.2h0.1C8,15.3,8.2,14.2,8,13z M8.3,17.3
			c0.4,0.2,0.8,0.3,1.3,0.3c-0.6,0.9-4.3-0.3-3.7-1.5l0,0c0.3,0.2,0.5,0.4,0.8,0.5C7.2,16.9,7.7,17.1,8.3,17.3z M14.2,14.4
			c-1.5,0.8-3.3,1.1-4,2.6c0-0.1-0.1-0.1-0.2-0.1c-0.3,0-0.5,0.2-0.8,0.2c-0.2,0-0.4,0-0.6-0.1c0.8-1.9,2.6-3.2,4.3-4.4
			c0.1-0.1,0.2-0.3,0.1-0.5c0,0,0,0-0.1-0.1c-0.3-0.3-0.5-0.5-0.8-0.5c-0.3-0.1-1.3,0-1.2-0.3c0-0.2-0.1-0.4-0.3-0.4
			c-0.1,0-0.1,0-0.2,0c-0.4,0.3-0.6,0.3-0.8-0.2c0-0.1,0.1-0.1,0.1-0.2c0.1-0.2,0-0.4-0.2-0.4c-0.1,0-0.2,0-0.3,0
			c-0.2,0.1-0.3,0.2-0.4,0.4c-0.4,0.1-1-0.5-1.2-0.7c-0.2-0.3-0.5-0.1-0.5,0.3c0.3,1.1,0.4,2.2,0.3,3.3c0,0.9-0.1,1.9-0.3,2.8
			c-0.3-0.2-0.6-0.4-1-0.5C7.2,14,5.4,11.9,5.5,10C5.6,8.4,7,7.2,8.3,6.7c1.5-0.5,3.3-0.4,4.7,0.4C15.8,8.1,17.3,12.6,14.2,14.4z"/>
		<path class="st0" d="M2.4,12.9c-0.3-0.2-0.7-0.1-1.1,0L0.6,13H0.4c-0.1,0-0.2,0-0.1,0C0.2,12.9,0.1,13,0,13c0,0.1,0,0.2,0,0.3
			c0.3,0.2,0.7,0.1,1,0.1s1.1,0,1.3-0.4C2.4,12.9,2.4,12.9,2.4,12.9z"/>
		<path class="st0" d="M2.4,6.9c-0.3-0.2-0.6-0.5-1-0.6C1.3,6.2,1.1,6.1,0.9,6C0.8,5.9,0.7,5.9,0.6,6s-0.1,0.2,0,0.3
			c0,0.1,0,0.1,0.1,0.1l0,0l0.2,0.2c0.2,0.1,0.4,0.2,0.5,0.3C1.6,7,1.9,7.1,2.3,7.1C2.4,7.1,2.4,7,2.4,6.9L2.4,6.9z"/>
		<path class="st0" d="M7.5,2.5c0-0.4-0.4-0.7-0.5-1.1C7,1,6.8,0.6,6.7,0.2C6.6-0.1,6.3,0,6.3,0.3c0.1,0.5,0.3,0.9,0.4,1.4
			C6.8,2,7,2.5,7.5,2.5C7.5,2.6,7.5,2.6,7.5,2.5C7.7,2.5,7.7,2.5,7.5,2.5z"/>
		<path class="st0" d="M14.9,1.6c0-0.1,0-0.3-0.1-0.3c-0.1,0-0.3,0-0.3,0.1c-0.4,0.9-1.4,1.6-1.5,2.6c0,0.1,0.1,0.3,0.3,0.1
			C14.1,3.4,14.6,2.5,14.9,1.6z"/>
		<path class="st0" d="M20.6,6.5c-0.7-0.7-2.2,0-3.1,0c-0.3,0-0.3,0.5,0,0.5c0.5,0.1,1,0,1.5-0.1c0.5-0.1,1-0.1,1.5-0.1
			C20.6,6.8,20.8,6.7,20.6,6.5C20.8,6.7,20.8,6.5,20.6,6.5z"/>
		<path class="st0" d="M20.8,12.9c0-0.9-1.1-0.8-1.5-1.2C19,11.5,18.8,11.8,19,12c0.5,0.5,1.2,0.5,1.6,1C20.6,13,20.6,13,20.8,12.9
			L20.8,12.9z"/>
		<path class="st0" d="M16.1,19.8c-0.1-0.3-0.5-0.5-0.6-0.7c-0.2-0.2-0.4-0.3-0.5-0.5l-0.2-0.2c-0.1-0.1,0-0.1-0.1,0
			c0.1-0.3-0.3-0.5-0.5-0.3c-0.2,0.4,0.3,0.8,0.5,1c0.3,0.2,0.8,0.9,1.3,0.8C16.1,20,16.1,19.8,16.1,19.8L16.1,19.8z"/>
	</g>
</g>
</svg>
