<?xml version="1.0" encoding="utf-8"?>
<!-- Generator: Adobe Illustrator 22.0.1, SVG Export Plug-In . SVG Version: 6.00 Build 0)  -->
<svg version="1.1" id="Layer_1" xmlns="http://www.w3.org/2000/svg" xmlns:xlink="http://www.w3.org/1999/xlink" x="0px" y="0px"
	 viewBox="0 0 22 22" style="enable-background:new 0 0 22 22;" xml:space="preserve">
<style type="text/css">
	.st0{fill:#010101;}
</style>
<title>Asset 8</title>
<g id="Layer_2_1_">
	<g id="Layer_1-2">
		<path class="st0" d="M19.9,19.3l-0.1-0.1c2.3-3,2.9-7,1.3-10.5c-1.6-3.4-5-5.7-8.8-5.9C7.9,2.5,4.2,5.1,1.7,8.4
			c-2.6,3.5-1.9,8.1,0.3,11.8c-0.1,0.1-0.1,0.2-0.1,0.2v0.1c0.1,1.2,1,1.4,2,1.5c2.3,0.1,4.7,0,7-0.1c2.5-0.1,4.9-0.3,7.3-0.7
			c0.7-0.1,1.9-0.6,1.2-1.5C19.9,19.5,19.9,19.5,19.9,19.3L19.9,19.3z M1.9,9C4,5.7,7.5,3.5,11.4,3.2c3.6,0,7,1.9,8.9,5.1
			c1.8,3.4,1.4,7.6-1.1,10.7c0,0.1,0,0.2,0,0.2c-2.5,0-5.1,0.6-7.7,0.7C9.2,20,7,20,4.8,20c0.1-0.2,0.2-0.4,0.4-0.5
			c0.1-0.1,0.1-0.2,0.1-0.3l-0.1-0.1C5.3,19,5.3,19,5.4,18.9c0.1-0.1,0-0.3-0.1-0.4c-0.1-0.1-0.2-0.1-0.3,0l-0.2,0.3
			c-0.2,0.2-0.4,0.4-0.5,0.6c-0.1,0.1-0.1,0.2,0,0.3c0,0.1-0.1,0.2-0.1,0.3c0,0,0,0,0,0.1H2.5V20C0.4,16.6-0.3,12.4,1.9,9z
			 M17.6,20.8L15.3,21c-1.6,0.2-3.2,0.3-4.8,0.4C9,21.5,7.5,21.6,6,21.6c-0.9,0-3.5,0.3-3.7-1c2.8,0,5.6,0,8.5-0.1s5.6-0.8,8.4-0.7
			c-0.1,0.1-0.1,0.2,0,0.3C19.8,20.5,17.8,20.8,17.6,20.8z"/>
		<path class="st0" d="M9.3,13.4c0.2,0.8,1,1.2,1.8,1c0.3-0.1,0.6-0.2,0.7-0.5c0.1,0.1,0.3,0.1,0.4,0l0,0c0.8-1.4,1.9-2.7,2.2-4.3
			c0-0.2-0.1-0.4-0.3-0.3c-0.8,0.3-1.5,0.8-2.1,1.4c-0.5,0.3-1.1,0.6-1.7,0.9c-0.5-0.1-1,0.1-1.3,0.4c-0.4,0.4-0.4,1-0.1,1.4
			C9,13.5,9.2,13.5,9.3,13.4L9.3,13.4z M12.2,11.2c0.5-0.4,1-0.8,1.6-1.1c-0.4,1.2-1,2.3-1.8,3.3c-0.1-0.7-0.5-1.2-1.1-1.5
			C11.3,11.6,11.8,11.4,12.2,11.2z M9.7,12.2c0.1,0,0.1-0.1,0.2-0.1c0,0.1,0.2,0.2,0.4,0.2c0,0,0.1,0,0.1-0.1l0.1-0.1
			c0.2,0.1,0.3,0.1,0.5,0.2c0.4,0.2,0.8,0.9,0.6,1.3S10,13.9,10,13.2c0-0.1-0.1-0.3-0.3-0.2c-0.1,0-0.1,0-0.2,0.1l0,0
			C9.2,12.8,9.2,12.4,9.7,12.2C9.5,12.2,9.5,12.2,9.7,12.2L9.7,12.2z"/>
		<path class="st0" d="M9.8,6.3c0.2-0.2,0.3-0.5,0.3-0.8s0-0.7-0.1-1c0-0.1-0.1-0.3-0.3-0.2c-0.1,0-0.2,0.1-0.2,0.1
			C9.4,4.5,9.4,4.7,9.4,4.9V5c0,0.4,0,0.7,0.1,1.1C9.5,6.3,9.7,6.3,9.8,6.3L9.8,6.3z"/>
		<path class="st0" d="M4.4,14.4c-1,0-1.9,0.2-2.9,0.2c-0.1,0-0.2,0.2-0.2,0.3c0,0.1,0.1,0.2,0.2,0.2H2c0,0.2,0.1,0.4,0.3,0.4
			c0.8-0.1,1.5-0.3,2.2-0.5c0.1,0,0.3-0.1,0.2-0.3C4.7,14.5,4.5,14.4,4.4,14.4z"/>
		<path class="st0" d="M17.6,18.7c-0.2-0.1-0.5-0.2-0.7-0.3c-0.2-0.2-0.6,0.1-0.4,0.4c0.3,0.2,0.6,0.4,0.9,0.5
			C17.9,19.3,17.9,18.8,17.6,18.7z"/>
		<path class="st0" d="M4.3,8.5l0.2,0.2C4.7,9,5,9.2,5.3,9.5c0.4,0.3,0.6-0.1,0.4-0.4L5.6,9c0.1-0.1,0.1-0.2,0-0.3l0,0
			C5.2,8.3,4.9,7.9,4.4,7.6c-0.1-0.1-0.2-0.1-0.3,0C4,7.6,3.8,7.7,3.9,7.9C4,8.1,4.1,8.3,4.3,8.5z"/>
		<path class="st0" d="M15.9,8L15.9,8L15.9,8c0.2,0.1,0.3,0.2,0.4,0.2h0.1c0.6,0,1.1-0.4,1.1-1c0.1-0.2,0.1-0.5,0.1-0.8V6.3
			c0-0.3-0.1-0.5-0.3-0.7c-0.4-0.3-1,0-1.3,0.3c-0.1,0.1-0.2,0.3-0.2,0.4c-0.3,0.3-0.4,0.8-0.2,1.2C15.6,7.7,15.8,7.8,15.9,8z"/>
		<path class="st0" d="M2.5,12.8c0.4,0,0.8,0.1,1.2,0.1C4,13,4.1,12.5,3.8,12.4c-0.5-0.1-0.9-0.1-1.4-0.1
			C2.1,12.2,2.1,12.8,2.5,12.8z"/>
		<path class="st0" d="M3,11.1h0.7c0.3,0,0.3-0.5,0-0.5H3C2.7,10.6,2.7,11.1,3,11.1z"/>
		<path class="st0" d="M7.2,7.4c0.1,0,0.3-0.1,0.3-0.2S7.4,6.9,7.3,6.9l0,0C7,6.8,6.8,6.6,6.6,6.3C6.5,6,6,6.3,6.2,6.6
			C6.4,7,6.8,7.3,7.2,7.4z"/>
		<path class="st0" d="M7.9,6.6c0.2,0.3,0.6,0,0.4-0.3C8.2,6.1,8,5.8,7.8,5.6c-0.1-0.3-0.5,0-0.4,0.2C7.6,6.1,7.7,6.4,7.9,6.6z"/>
		<path class="st0" d="M12.4,5.7c-0.1-0.3-0.1-0.6,0-0.8c0-0.1-0.1-0.3-0.2-0.3c-0.1,0-0.2,0.1-0.3,0.2c-0.1,0.4-0.1,0.7,0,1.1
			C12,6.1,12.5,6,12.4,5.7z"/>
		<path class="st0" d="M14.3,5.9c0.1-0.2,0.1-0.5,0.3-0.7c0.1-0.1,0.1-0.3,0-0.4c-0.1-0.1-0.3-0.1-0.4,0l0,0C14,5,14,5.3,13.8,5.6
			C13.7,5.9,14.1,6.2,14.3,5.9z"/>
		<path class="st0" d="M17.9,9.1C18.1,9,18.2,9,18.4,9c0.1,0,0.3-0.1,0.3-0.3c0-0.1-0.1-0.3-0.3-0.3c-0.2,0-0.4,0.1-0.6,0.1
			C17.4,8.7,17.6,9.2,17.9,9.1z"/>
		<path class="st0" d="M18.4,10.9c0.2,0,0.5-0.1,0.7-0.1c0.2,0,0.3-0.5,0-0.5c-0.3,0-0.5,0.1-0.7,0.1c-0.1,0-0.3,0.1-0.3,0.3
			C18.1,10.8,18.3,10.9,18.4,10.9z"/>
		<path class="st0" d="M18.3,16.5c-0.2,0-0.4,0-0.6,0c-0.1,0-0.3,0.1-0.3,0.3s0.1,0.3,0.3,0.3l0,0c0.3,0,0.5,0,0.8-0.1
			c0.1-0.1,0.1-0.3,0-0.4C18.4,16.6,18.3,16.5,18.3,16.5z"/>
		<path class="st0" d="M19,14.9h-0.9c-0.1,0-0.2,0.2-0.2,0.3c0,0.1,0.1,0.2,0.2,0.2h0.8c0.1,0,0.2-0.2,0.2-0.3
			C19.1,15,19.1,14.9,19,14.9z"/>
		<path class="st0" d="M4,16.9c-0.4,0.1-0.7,0.2-1,0.4c-0.3,0.2,0,0.6,0.3,0.4c0.3-0.2,0.6-0.3,0.8-0.4C4.4,17.2,4.3,16.7,4,16.9z"
			/>
	</g>
</g>
</svg>
