<?xml version="1.0" encoding="utf-8"?>
<!-- Generator: Adobe Illustrator 22.0.1, SVG Export Plug-In . SVG Version: 6.00 Build 0)  -->
<svg version="1.1" id="Layer_1" xmlns="http://www.w3.org/2000/svg" xmlns:xlink="http://www.w3.org/1999/xlink" x="0px" y="0px"
	 viewBox="0 0 22 22" style="enable-background:new 0 0 22 22;" xml:space="preserve">
<style type="text/css">
	.st0{fill:#010101;}
</style>
<title>Asset 33</title>
<g id="Layer_2_1_">
	<g id="Layer_1-2">
		<path class="st0" d="M13.4,14.4c0.7,0.3,1.3-0.9,1.4-1.4c0-0.1,0-0.2-0.1-0.2c-0.3-0.1-0.5-0.2-0.8-0.2c-0.1,0-0.1,0.1-0.1,0.1
			c0,0,0,0.1,0.1,0.1c0.1,0,0.1,0.1,0.2,0.1c-0.3,0.4-0.6,0.8-0.7,1.3C13.2,14.3,13.3,14.4,13.4,14.4z M14.2,13l0.3,0.1
			c-0.1,0.4-0.4,1-0.8,1.1C13.8,13.8,13.9,13.4,14.2,13z"/>
		<path class="st0" d="M17.5,4.7c-0.7-1.1-1.6-2-2.6-2.7C14.3,1.5,13.6,1.2,13,1c0.1-0.3,0-0.6-0.2-0.8c-0.4-0.4-0.8-0.1-1.1,0.4
			c0-0.1-0.1-0.1-0.2-0.1c-0.7-0.1-1.4-0.2-2.1-0.1C9.2,0.4,9.3,0.8,9.6,0.7c0.6,0,1.3,0,1.9,0.2c-0.1,0.2-0.1,0.4-0.2,0.6
			c-2.4-0.7-5-0.2-7,1.3c-2.9,2.1-5.2,6.2-4,9.9c0.8,2.4,2.8,4,5.1,4.9c0.7,0.3,1.5,0.6,2.3,0.7c0,0,0,0.1,0,0.1
			c0.1,0.3,0.1,0.6,0.1,0.9c-0.6,0-1.1,0.1-1.7,0.2c-0.2,0.1-0.1,0.5,0.1,0.4c0.4-0.1,0.9-0.2,1.3-0.2c0,0.2,0,0.3,0.1,0.4
			c-0.8,0.2-2.6,0.2-2.8,1c-0.3,0.9,2.8,0.8,3.2,0.8c1.1,0.1,3.3,0.4,4-0.7c0.5-0.8-1.8-1-2.6-1.1c0.1-0.2,0.2-0.4,0.2-0.6
			c0,0,0,0,0-0.1l0.7-0.1c1.2-0.2,2.4-0.6,3.5-1.2c2.3-1.3,3.9-3.5,4.4-6C18.9,9.5,18.6,6.9,17.5,4.7z M11.9,0.9
			c0.1-0.2,0.5-0.7,0.6-0.2C12.8,1,12.4,1.4,12,1.7l-0.3-0.1C11.7,1.3,11.8,1.1,11.9,0.9z M7,2C7,2,7,2,7,2c0.8-0.3,1.6-0.4,2.4-0.3
			l0,0C9.2,1.8,9,1.9,8.8,1.9c-0.3,0.2-0.7,0.4-1,0.5C7.4,2.7,7,2.8,6.5,2.9C5.7,3,6.7,2.1,7,2z M2.5,5.5c0,0,0-0.1,0-0.2
			c0,0,0,0,0,0c0.2-0.3,0.4-0.5,0.7-0.8v0.1c0,0.1,0,0.1,0.1,0.1c0,0.2,0.1,0.5,0.3,0.6c0.3,0.3-0.1,0.5-0.2,0.8S3.2,6.5,3.1,6.7
			C3,6.7,3,6.8,2.9,6.8C3.1,6.5,3.1,6.2,3,5.9C2.9,5.8,2.8,5.7,2.7,5.7L2.5,5.6C2.4,5.6,2.4,5.6,2.5,5.5z M3,15.4L3,15.4
			c-0.4-0.6-0.6-1.2-0.7-1.8c-0.2-0.8-0.4-1.6-0.7-2.4C1.3,10.5,1.4,9.7,1.8,9C2,8.7,2,8.4,1.8,8.2c0.5-0.7,1.4-0.1,2,0.4
			c0.6,0.5,1.7,1.7,0.5,2c-0.7,0.3-1.3,1-1.3,1.8c-0.1,0.5-0.2,1-0.2,1.5C2.9,14.4,3.1,14.9,3,15.4z M5.6,16.9
			c-0.8-0.3-1.5-0.7-2.2-1.2c0-0.6,0-1.2-0.1-1.8c0-1.1,0.3-2.7,1.4-3c0.8-0.2,0.7-1,0.3-1.6C4.6,8.7,1.8,6.5,1.6,8.1
			c0,0.1,0,0.1,0,0.2l0,0v0.1c0,0,0,0,0,0.1c0,0.4-0.4,1-0.5,1.4c0,0.6,0.1,1.3,0.3,1.8c0.3,0.9,0.4,2,0.7,2.9
			C1.5,13.9,1,13,0.8,12.1c-0.5-2.3,0-4.6,1.4-6.5c0,0.1,0.1,0.1,0.2,0.1c0.2,0.1,0.4,0.1,0.4,0.3c0,0.3-0.1,0.5-0.2,0.8
			c0,0.1,0,0.2,0.1,0.2c0.1,0,0.2,0,0.3,0l0,0c0,0.2,0.2,0.2,0.2,0.1C3.3,6.8,3.5,6.4,3.7,6c0.1-0.1,0.1-0.3,0.2-0.4
			c0-0.5-0.4-0.6-0.3-1.1c0-0.1,0-0.2-0.1-0.2c0-0.1,0.1-0.2,0.1-0.2C3.6,4.1,3.7,4,3.8,3.9C4,3.7,4.1,3.6,4.3,3.4
			C4.9,3,5.5,2.6,6.2,2.3C6,2.4,5.9,2.6,5.8,2.8c0,0.1,0,0.1,0.1,0.2c0.6,0.2,1.2,0.2,1.8-0.1c0.4-0.2,0.8-0.4,1.2-0.6
			c0.3-0.1,0.7-0.3,1-0.5c0,0,0,0,0-0.1C11,1.9,12.1,2.3,13.1,3c-0.6,0.2-1,0.8-1.6,1s-1.4,0-1.7,0.7c0,0,0,0.1,0,0.1c0,0,0,0,0,0.1
			c0,0,0,0.1,0,0.1c0,0,0.1,0,0.1,0l0,0c0-0.1,0.1-0.1,0.2-0.1h0.2c0.1,0,0.1-0.1,0-0.1h0c0.3-0.2,0.8-0.1,1,0.2
			c0.1,0.2,0.2,0.5,0.2,0.8c0.1,0.5,0.5,0.9,1,1c0.2,0,0.3-0.2,0.1-0.3l-0.2-0.1c0,0-0.1,0-0.1,0c-0.4-0.1-0.6-0.5-0.6-0.9
			c0-0.3-0.1-0.5-0.3-0.7c-0.2-0.2-0.5-0.3-0.7-0.3l0,0c0.3-0.1,0.6-0.1,0.9-0.2c0.7-0.2,1.1-0.8,1.8-0.9c0.5,0.4,0.9,0.9,1.3,1.4
			c0.4,0.6,0.8,1.2,1,1.8h-0.1c-0.3,0-0.5,0.1-0.7,0.2c-0.3,0.3-0.6,0.6-1,0.6c-0.1-0.1-0.3-0.2-0.4-0.3c-0.1,0-0.2,0-0.3,0
			c-0.4,0.1-0.5-0.3-0.9-0.3c-0.8-0.1-1.6,0.2-2-0.6C10,5.6,9.7,4.9,9.1,5.5C9,5.5,9,5.6,9,5.7C8.2,6.4,6.9,6.9,6.9,8.2
			s0.3,1.4,1.4,2.1c0.7,0.4,1.5,0.2,2.3,0.2c1.1,0,0,2.3-0.2,2.7c-0.4,0.7-0.7,1.4-0.9,2.2c0,0.1,0,0.2,0.1,0.2c1,0.5,1.7-0.2,2.3-1
			c0.5-0.6,0.9-1.1,1.5-1.7c0.4-0.3,0.6-0.8,0.6-1.3c0.2,0.1,0.3,0.1,0.5,0.2c0.1,0,0.2,0,0.2-0.1c0.4-1.1,1.2-1.4,0.6-2.5
			c-0.2-0.5-0.5-1.1-0.9-1.6c0.4-0.1,0.7-0.3,1-0.6c0.5-0.3,0.6-0.1,0.3,0.7l-0.3,0.1C15.1,7.8,15,7.9,15,8
			c-0.1,0.2-0.1,0.4-0.1,0.6c0.2,0.3,0.4,0.6,0.6,1c0.1,0.3,0.2,0.6,0.3,0.9c0.1,0.2,0.3,0.4,0.5,0.3c-0.1,0.4-0.1,0.9-0.2,1.3
			c-0.6,1.9-1.8,3.6-3.5,4.7L11.9,17c-0.1-0.1-0.2,0-0.2,0c0,0,0,0.1,0,0.1l0,0c-0.7,0.3-1.3,0.5-2,0.6C8.2,17.8,6.8,17.5,5.6,16.9z
			 M16.1,7.6L16.1,7.6c0.2,0.9,0.3,1.8,0.2,2.7c0,0-0.1,0-0.1,0c-0.1,0.1,0,0.1-0.1,0C16,10.1,16,9.9,15.9,9.8
			c-0.1-0.2-0.1-0.4-0.2-0.6c-0.2-0.3-1-0.9-0.2-1.2C15.8,7.9,16,7.8,16.1,7.6z M12,13.6c-0.4,0.7-0.9,1.2-1.5,1.7
			c-1.2,0.7-0.4-1.1-0.2-1.4c0.2-0.5,0.5-1,0.7-1.5c0.3-0.6,0.4-1.2,0.3-1.8c-0.2-0.9-1.9-0.3-2.5-0.4c-0.4-0.1-0.7-0.3-1-0.6
			C7.3,9.2,7.1,8.6,7.3,8c0.2-1,1.4-1.5,2-2.2c0.3-0.3,1,1,1.3,1.2C11,7,11.3,7,11.7,6.9c0.4,0,0.7,0.2,1,0.4c0,0,0.1,0.1,0.1,0.1
			c0,0,0.1,0,0.1,0c0,0,0,0,0,0c0,0,0-0.1,0-0.1c0.9,0,1.3,1.2,1.7,1.9c0.3,0.5,0.2,1.1-0.2,1.5c-0.3,0.4-0.3,0.6-0.8,0.6l0,0
			c-0.1-0.1-0.2,0-0.3,0.1c0,0,0,0.1,0,0.1C13.5,12.4,12.5,13,12,13.6z M8.9,19.1L8.9,19.1l-0.6,0.1c-0.1-0.3-0.1-0.6-0.2-0.9
			c0.3,0,0.6,0.1,0.9,0c0,0,0,0,0,0C9,18.6,8.9,18.8,8.9,19.1z M8.1,19.6L8.1,19.6c0.4,0,0.7-0.1,1.1-0.1l0,0c0,0.3-0.3,0.5-0.6,0.5
			c-0.1,0-0.3,0-0.4,0c-0.1,0-0.2-0.1-0.2-0.2C7.9,19.7,8,19.7,8.1,19.6L8.1,19.6z M11.3,20.8c0.1,0.5-0.1,0.7-0.6,0.7
			c-0.3,0.1-0.7,0.1-1,0.1c-0.6,0-1.3,0-1.9-0.1c-0.3,0-0.7-0.1-1-0.1c-0.2,0-2,0-1.1-0.5c0.7-0.3,1.6-0.2,2.3-0.6
			c0.1,0,0.2,0.1,0.3,0.1c0.2,0,0.4,0,0.6-0.1l0,0C9.7,20.6,10.6,20.6,11.3,20.8L11.3,20.8z M17.5,13.2c-0.9,2.3-2.8,4.2-5.1,5.1
			c-1,0.4-2.1,0.7-3.2,0.8c0.1-0.3,0.1-0.5,0.1-0.8l0,0c1.1-0.1,2.1-0.4,3-0.9c4.5-2.3,5.7-8.5,3.1-12.7c-0.7-1.2-1.8-2.2-3-2.8
			c0.1-0.1,0.2-0.2,0.3-0.4c0.8-0.1,2.1,1,2.6,1.4c0.9,0.7,1.7,1.7,2.2,2.8c0.4,1.1,0.6,2.2,0.6,3.4C18.1,10.4,18,11.9,17.5,13.2
			L17.5,13.2z"/>
	</g>
</g>
</svg>
