<?xml version="1.0" encoding="utf-8"?>
<!-- Generator: Adobe Illustrator 22.0.1, SVG Export Plug-In . SVG Version: 6.00 Build 0)  -->
<svg version="1.1" id="Layer_1" xmlns="http://www.w3.org/2000/svg" xmlns:xlink="http://www.w3.org/1999/xlink" x="0px" y="0px"
	 viewBox="0 0 22 22" style="enable-background:new 0 0 22 22;" xml:space="preserve">
<style type="text/css">
	.st0{fill:#010101;}
</style>
<title>Asset 6</title>
<g id="Layer_2_1_">
	<g id="Layer_1-2">
		<path class="st0" d="M16.4,8.6c-0.2-2-0.7-4-0.8-6c0.1-0.2,0.1-0.3,0-0.4c0-0.1,0-0.1,0-0.2c0-0.5-0.1-1.1-0.1-1.7
			c0-0.1-0.1-0.3-0.3-0.3C12.8-0.1,10.4,0,8,0.3C5.5,0.5,3,0.6,0.5,0.6c-0.1,0-0.3,0.1-0.3,0.2v0.1c0-0.1-0.1,0-0.2,0.1
			c0,0,0,0,0,0.1C0,2,0.1,2.9,0.1,3.8v0.1c0,0,0,0,0,0.1C0,5.2,0.3,6.3,0.3,7.5s0.1,2.5,0,3.8c0,0.1,0.1,0.2,0.2,0.3
			c1.8,0.2,3.7,0.2,5.6,0c0.1,0.4-2.3,4-2.4,4.2c-0.3,0.4-2.8,3-1.8,3.7s1.9-0.8,2.3-1.5c0.5-1.1,1.3-2.1,2-3.1
			c0.5-0.9,1-1.8,1.5-2.7c0.1,3.2-0.1,6.3,0,9.5C7.7,21.8,7.8,22,8,22c0.6,0,1.2,0.1,1.5-0.4c0.2-0.7,0.2-1.5,0.1-2.3
			c0-2.6-0.3-5.2-0.4-7.8h0.2c0,0.1,0,0.1,0,0.2c0.9,2.2,1.9,4.4,2.6,6.6c0.2,0.6,0.3,2.5,1.4,2.1c0.7-0.3,0.4-1.7,0.3-2.1
			c-0.5-1.1-1-2.1-1.6-3.2c-0.5-1.2-0.8-2.4-1.1-3.7h0.6c1.2-0.1,2.4,0,3.6-0.1C16.4,11.2,16.5,9.5,16.4,8.6z M0.5,1.1L0.5,1.1
			c3.3,0,6.4-0.2,9.5-0.4c1.4-0.2,2.9-0.2,4.3-0.2c0.8,0,0.6-0.1,0.7,0.7c0,0.2,0,0.5,0.1,0.7C15,1.9,15,2.1,15,2.2l0,0
			c-1,0-2,0.1-3,0.3L7.7,2.9C6.3,3,4.9,3.1,3.5,3.1c-1,0-2,0-2.9,0.2C0.6,2.6,0.5,1.9,0.5,1.1L0.5,1.1z M4.7,16.2
			c-0.5,0.7-0.9,1.3-1.3,2c-0.3,0.5-1.4,1.3-0.9,0c0.3-0.6,0.7-1.1,1.1-1.5c0.9-1.2,1.6-2.4,2.3-3.7c0.2-0.3,0.8-1.1,0.7-1.6h0.8
			C6.5,13,5.7,14.7,4.7,16.2z M8.5,21.4c-0.5,0-0.4-0.4-0.4-0.8c0-1,0-2.1,0.1-3.1c0.1-2,0.1-4,0-6h0.4c0,3,0.3,6,0.4,9
			C9.1,20.8,8.9,21.2,8.5,21.4L8.5,21.4z M11.7,15.5c0.5,1.2,1.4,2.3,1.5,3.5c0.1,0.6-0.1,0.5-0.6-0.1c-0.1-0.2-0.1-0.8-0.2-1
			c-0.2-0.6-0.4-1.1-0.6-1.6c-0.7-1.6-1.2-3.2-1.9-4.8v-0.1c0-0.1,0-0.1-0.1-0.1h0.6C10.7,12.8,11.2,14.2,11.7,15.5z M15.7,10.1
			c-0.3,0.8-1.8,0.5-2.4,0.5c-1.2,0-2.5,0.1-3.7,0.3H7.9c-0.1,0-0.1,0-0.2,0c-2.1,0.2-4.1,0.2-6.2,0.2c-1,0-0.7-1.1-0.7-1.8
			s0-1.3,0-1.9c0-1.2-0.2-2.3-0.2-3.5c0,0,0,0,0-0.1h0.1c1-0.2,2.1-0.3,3.2-0.2c1.3,0,2.6-0.2,3.8-0.2l3.8-0.2
			c1.2-0.1,2.4-0.3,3.6-0.3c0.1,1.9,0.5,3.8,0.7,5.7C15.9,9.1,15.9,9.6,15.7,10.1L15.7,10.1z"/>
		<path class="st0" d="M15.1,8.8L15.1,8.8C15,8.7,15,8.6,15,8.4c0-0.1-0.2-0.2-0.3-0.2c-0.1,0-0.2,0.1-0.2,0.2v0.4L13.6,9l-1,0.1
			c0-0.1-0.1-0.2-0.3-0.2c-0.1,0-0.2,0.1-0.2,0.3L10,9.3L8.8,9.5c0-0.1,0-0.1,0-0.1c0-0.1-0.2-0.2-0.3-0.2S8.3,9.3,8.3,9.4v0.2
			L6.4,9.7V9.5c0-0.4-0.5-0.3-0.5,0v0.2C4.8,9.8,3.7,9.9,2.6,9.9L2.5,8.5h0.3c0.1,0,0.3-0.1,0.3-0.3c0-0.1-0.1-0.3-0.3-0.3H2.5
			c0-0.5,0-1-0.1-1.5c0.2,0,0.3,0,0.5,0.1C3.2,6.6,3.5,6.2,3.2,6C2.9,6,2.6,6,2.4,6c0-0.4,0-0.7,0-1.1c0.1,0,0.2-0.1,0.2-0.3V4.5
			l0,0c0.2,0,0.3,0.1,0.5,0.1c0.3,0.1,0.6-0.4,0.3-0.5C3,4.1,2.7,4,2.5,4S2.1,3.9,1.9,3.8C1.6,3.6,1.3,4.1,1.6,4.3
			c0.1,0,0.2,0.1,0.2,0.1v0.1c0,0.5,0,1,0,1.5H1.7C1.6,6,1.5,6.2,1.5,6.3s0.1,0.2,0.2,0.2h0.2L2,8H1.8c-0.3,0-0.3,0.5,0,0.5H2
			c0,0.5,0,1,0.1,1.4C2,10,1.9,10.1,2,10.3c0,0.1,0.1,0.1,0.1,0.1l0,0c0,0.1,0.1,0.3,0.3,0.3c0.1,0,0.3-0.1,0.3-0.3l0,0
			c1.1,0,2.2-0.1,3.3-0.2c0,0.1,0,0.2,0.1,0.2c0.1,0.3,0.6,0.2,0.5-0.2v-0.1l1.9-0.2V10c0.1,0.1,0.2,0.2,0.4,0.1C9,10,9.1,9.9,9,9.8
			h0.6c0.9-0.1,1.8-0.1,2.7-0.3c0.1,0.1,0.3,0.1,0.4,0c0,0,0-0.1,0.1-0.1H13c0.4-0.1,1-0.2,1.5-0.3c0,0.1,0,0.3,0.1,0.4
			c0.1,0.3,0.6,0.2,0.5-0.1V9.3h0.1c0.2,0,0.3-0.1,0.3-0.3C15.4,8.9,15.3,8.8,15.1,8.8L15.1,8.8z"/>
		<path class="st0" d="M3,9.1C2.8,9.4,3.2,9.8,3.4,9.5c0.5-0.5,1.1-1,1.7-1.4L5.2,8c0.1,0.1,0.1,0.1,0.2,0.1c0.1,0,0.1,0,0.2,0
			c0.2,0,0.3-0.3,0.4-0.6c0.2-0.2,0.4-0.3,0.6-0.4c0,0.8,0.3,1.6,1.2,1.2L8,8.2c0.1,0.1,0.3,0.2,0.5,0.1c0.1,0,0.2-0.1,0.3-0.2
			C9.2,8,9.5,7.7,9.5,7.3c0-0.1,0-0.1-0.1-0.2c0.6-0.5,1.1-1,1.7-1.5c0.1,0.1,0.3,0.1,0.4,0l0,0c0.1-0.1,0.1-0.2,0.2-0.3l0.1-0.1
			C12,5,12.2,4.9,12.5,4.8c0.1,0.4,0.3,0.7,0.5,1.1c0,0,0.1,0,0.2-0.1l0,0c0.6-0.5,1-1,1.4-1.7c0.1-0.1,0-0.3-0.1-0.4
			c-0.1-0.1-0.2-0.1-0.3,0h-0.1c-0.1,0-0.3,0.1-0.3,0.3c0,0.1,0,0.1,0.1,0.1c-0.2,0.3-0.5,0.6-0.8,0.9c-0.1-0.3-0.3-0.7-0.3-1
			c0-0.1-0.2-0.2-0.4-0.2l0,0c-0.2,0.1-0.5,0.3-0.7,0.4c-0.1-0.1-0.1-0.1-0.2-0.1c-0.1,0-0.1,0-0.2,0.1l0,0c-0.1,0-0.2,0.1-0.2,0.3
			v0.1c0,0.1,0,0.1-0.1,0.2C10.5,5.2,10.1,5.6,9.6,6C9.4,6.4,9.1,6.7,8.7,6.9c0,0-0.1,0-0.2,0C8.2,7.1,8,7.3,7.9,7.5
			c-0.6,0.4-0.8-0.4-0.8-1c0-0.2-0.2-0.3-0.3-0.3H6.7C6.3,6.5,6,6.7,5.7,7H5.5c0-0.1-0.2-0.2-0.3-0.2C5.1,6.8,5,7,5,7.1s0,0.1,0,0.2
			S4.9,7.5,4.9,7.6L4.8,7.7C4.2,8.1,3.5,8.6,3,9.1z"/>
	</g>
</g>
</svg>
