<?xml version="1.0" encoding="utf-8"?>
<!-- Generator: Adobe Illustrator 22.0.1, SVG Export Plug-In . SVG Version: 6.00 Build 0)  -->
<svg version="1.1" id="Layer_1" xmlns="http://www.w3.org/2000/svg" xmlns:xlink="http://www.w3.org/1999/xlink" x="0px" y="0px"
	 viewBox="0 0 22 22" style="enable-background:new 0 0 22 22;" xml:space="preserve">
<style type="text/css">
	.st0{fill:#010101;}
</style>
<title>Asset 7</title>
<g id="Layer_2_1_">
	<g id="Layer_1-2">
		<path class="st0" d="M21.9,20.1c0-1.4-0.1-2.5-0.4-3.8c0-0.1-0.1-0.2-0.3-0.2c-1.4,0-2.6,0.1-3.8,0.1c-0.1-1.2,0.4-3.3-1-3.7
			c-1-0.1-2.1-0.1-3,0h-1.9c-0.8,0-0.7-0.4-0.8-1.1h0.5c0.7-0.1,1.5-0.1,2.3,0c0.1,0.1,0.2,0.1,0.3,0h0.1l0,0c0.1,0,0.2,0,0.3,0
			c0.4-0.2,0.2-1.1,0.2-1.4c0-1.4-0.2-2.5-0.4-3.8c0-0.1-0.1-0.2-0.3-0.2c-2,0-3.9,0.1-5.8,0.1C7.5,6,7.4,6.1,7.4,6.3v0.1l0,0
			c-0.1,0-0.3,0.1-0.3,0.3l0,0c0,1.4,0.2,2.9,0.3,4.3c-0.1,0.1-0.1,0.3,0,0.4c0.1,0,0.1,0.1,0.2,0.1h1.8c-0.1,0.3-0.1,0.6,0,0.9
			c-2,0-3.9,0-5.9,0.1c-0.1,0-0.3,0.1-0.3,0.3c0,1.2,0.2,2.4,0.3,3.6c-0.9,0-1.9,0.1-2.8,0.1c-0.1,0-0.3,0.1-0.3,0.2v0.1l0,0
			c-0.2,0-0.3,0.2-0.3,0.3c0,1.5,0.2,2.9,0.3,4.3c-0.1,0.1-0.1,0.3,0.1,0.4c0,0,0.1,0.1,0.2,0.1c1.1,0,2.3-0.1,3.4-0.1
			c0.7-0.1,1.5-0.1,2.3,0C6.4,22,6.5,22,6.7,22h0.2l0,0c0.1,0,0.2,0,0.3,0c0.4-0.2,0.2-1.1,0.2-1.4c0-1.4-0.2-2.5-0.4-3.8
			c0-0.1-0.1-0.2-0.3-0.2H5.2c0-0.1,0-0.2-0.1-0.2c-0.2-0.1-0.1-0.7,0-0.9c-0.1-0.4,0-0.6,0.3-0.9c0.3-0.1,0.6-0.1,0.9-0.1
			c1,0,2.1,0,3.1-0.2c0,0.7,0.1,1.5,0.1,2.2H8c-0.1,0-0.3,0.1-0.3,0.2v0.1l0,0c-0.1,0-0.3,0.1-0.3,0.3c0,1.5,0.2,2.9,0.3,4.3
			c-0.1,0.2-0.1,0.4,0.1,0.4c0,0,0.1,0.1,0.2,0.1c1.2,0,2.4-0.1,3.5-0.1c0.7-0.1,1.5-0.1,2.3,0c0.1,0.1,0.2,0.1,0.3,0l0,0l0,0
			c0.1,0,0.2,0,0.3,0c0.4-0.2,0.2-1.1,0.2-1.4c0-1.4-0.2-2.5-0.4-3.8c0-0.1-0.1-0.2-0.3-0.2c-0.9,0-1.9,0-2.8,0.1v-0.1
			c-0.1-0.4-0.4-2.2,0.4-2.3c0.5,0,1.2,0,1.8,0c0.5,0,1.2,0,1.9,0c0.9-0.1,0.8,1.7,0.7,2.3h-0.4c-0.1,0-0.3,0.1-0.3,0.3
			c0,0,0,0,0,0.1l0,0c-0.1,0-0.3,0.1-0.3,0.3l0,0c0,1.5,0.2,2.9,0.3,4.3c-0.1,0.1-0.1,0.3,0.1,0.4c0,0,0.1,0.1,0.2,0.1
			c1.2,0,2.3-0.1,3.5-0.1c0.7-0.1,1.6-0.1,2.3,0c0.1,0.1,0.2,0.1,0.3,0.1h-0.1l0,0c0.1,0,0.2,0,0.3,0C22.1,21.3,21.9,20.3,21.9,20.1
			z M7.9,10.9c0-0.4-0.1-0.8-0.1-1.4V9.4l0,0V9.3C7.7,8.5,7.6,7.7,7.6,6.9c0.1-0.1,0.2-0.2,0.1-0.3l0,0l0,0c0.6,0,5.6-0.4,5.7,0.1
			c0.1,0.3,0.5,3.7,0.4,4.2l0,0c-0.7-0.1-1.4-0.1-2.2,0C10.3,10.8,9,10.9,7.9,10.9z M6.3,17.1c0.1,0.3,0.5,3.7,0.4,4.2l0,0
			c-0.7-0.1-1.4-0.1-2.2,0c-1.2,0-2.4,0-3.7,0.1c0-1.2-0.2-2.6-0.2-3.8c0.1-0.1,0.1-0.2,0.1-0.3v-0.1l0,0c0.4,0,1.6-0.1,2.9-0.2
			c0.1,0.1,0.3,0.1,0.4,0l0,0C5.2,16.8,6.3,16.8,6.3,17.1z M13.7,16.9c0.1,0.3,0.5,3.7,0.4,4.2l0,0c-0.7-0.1-1.4-0.1-2.2,0
			c-1.2,0-2.4,0-3.7,0.1c0-1.4-0.3-2.6-0.3-3.9C8,17.1,8.1,17,8,16.8v-0.1l0,0C8.7,16.8,13.5,16.4,13.7,16.9L13.7,16.9z M13.6,13.5
			c-0.6,0-1.4,0-2,0c-0.3-0.1-0.6,0-0.9,0.2c-0.6,0.5-0.4,1.9-0.2,2.6H10c0-0.8-0.1-1.7-0.1-2.5c0-0.1-0.1-0.3-0.3-0.3
			c0,0,0,0-0.1,0c-0.9,0.2-1.9,0.2-2.9,0.2c-0.4,0-1.5-0.2-1.9,0.2s-0.3,0.9-0.3,1.5c-0.1,0.4,0,0.6,0.1,1H3.9
			c0-1.1-0.2-2.3-0.2-3.3c2,0,3.8-0.1,5.8-0.2c0.1,0,0.3-0.1,0.3-0.3c0-0.4-0.2-0.8,0-1.2l0,0h0.3c0,0.4,0.1,0.9,0.2,1.4
			c0,0.1,0.1,0.3,0.3,0.3c1.5,0,2.9,0,4.4,0c0.8,0,1.8-0.1,1.8,1c0,0.7,0.1,1.5,0.3,2.3h-0.5c0.2-0.7,0.1-1.6-0.3-2.3
			C15.7,13.2,14.2,13.6,13.6,13.5L13.6,13.5z M21.4,21L21.4,21c-0.7-0.1-1.4-0.1-2.2,0c-1.2,0-2.4,0-3.7,0.1c0-1.4-0.3-2.6-0.3-3.9
			c0.1-0.1,0.2-0.2,0.1-0.4v-0.1l0,0c0.6,0,5.6-0.4,5.7,0.1C21.2,17.1,21.7,20.5,21.4,21L21.4,21z"/>
	</g>
</g>
</svg>
