<?xml version="1.0" encoding="utf-8"?>
<!-- Generator: Adobe Illustrator 22.0.1, SVG Export Plug-In . SVG Version: 6.00 Build 0)  -->
<svg version="1.1" id="Layer_1" xmlns="http://www.w3.org/2000/svg" xmlns:xlink="http://www.w3.org/1999/xlink" x="0px" y="0px"
	 viewBox="0 0 22 22" style="enable-background:new 0 0 22 22;" xml:space="preserve">
<style type="text/css">
	.st0{fill:#010101;}
</style>
<title>Asset 40</title>
<g id="Layer_2_1_">
	<g id="Layer_1-2">
		<path class="st0" d="M21.7,14.7c-1.1,0.2-2.3,0.2-3.4,0c-1.3-0.1-2.6-0.3-3.9-0.7c-0.4-0.1-4.5-1.7-4.2-2.5c0-0.1,0-0.1,0-0.2
			c0.8-1,1.7-2,2.7-2.9c0.7-0.7,1.6-1.3,2.6-1.7c0.9-0.3,1.2,1.7,1.5,2.2c0.1,0.2,0.4,0.1,0.4,0c1-1.6,3.8-3.6,1.3-5.1
			c-1.1-0.7-2.4-1.3-3.7-1.6C13.5,2,12,2.1,10.6,2.4c-0.1,0-0.3,0.1-0.3,0.2s0.1,0.3,0.2,0.3c0.6,0.2,1.2,0.3,1.8,0.4
			C9.6,3.8,7,5.2,4.9,7.1C4.8,7,4.8,6.8,4.7,6.7C4.6,6.6,4.5,6.4,4.4,6.2c0.3,0,0.6,0,0.9,0c0.1,0,0.3-0.1,0.2-0.3c0,0,0,0,0,0
			c-0.3-1-0.8-2.1-1.3-3C4.2,2.7,4,2.6,3.9,2.7c-1,0.6-1.8,1.5-2.4,2.5C0.7,6.2,0.1,7.5,0,8.8c0,0.3,0.4,0.3,0.5,0.1
			C0.7,8.6,0.9,8.3,1.2,8C1.1,8.5,1.1,8.9,1.1,9.4c0,0.6,0.1,1.2,0.4,1.8c0,0.1,0.1,0.1,0.2,0.1c-1.1,1.8-1.4,4-1,6.1
			c-0.1,0-0.2,0.1-0.2,0.3c0,0,0,0.1,0,0.1c0.4,0.8,1.1,1.5,1.8,2c1,0.8,2,1.5,3.2,2.1c0,0.1,0.1,0.1,0.2,0.1
			c0.1,0.3,0.5,0.1,0.5-0.2c-0.2-1.4,0-2.8,0.5-4.2c0.7,0.6,1.4,1.1,2.2,1.6c1.7,1.1,3.7,1.7,5.4,2.8c0.1,0.1,0.3,0,0.3-0.1
			c0,0,0-0.1,0-0.2c1.5-0.4,2.9-1.2,4-2.4c0.6-0.6,1.2-1.3,1.7-2c0.4-0.7,0.7-1.6,1.3-2C22.1,15,22,14.6,21.7,14.7z M1.7,9.5
			C1.6,9,1.6,8.4,1.8,7.9c0,0,0-0.1,0-0.1c0.1-0.1,0.1-0.3,0-0.4c0,0-0.1-0.1-0.2-0.1c-0.3,0-0.7,0.2-0.9,0.4C1,7.1,1.3,6.4,1.8,5.7
			C2.3,4.7,3,3.9,3.9,3.2c0.4,0.8,0.7,1.6,1,2.4c-0.2,0-0.4,0-0.7,0H4.2C4,5.7,3.9,5.8,4,5.9c0,0.2,0,0.4,0.1,0.6
			c0.1,0.3,0.4,0.6,0.4,0.9c0,0,0,0.1,0,0.1L4.2,7.8c-0.9,0.9-1.6,2-2.3,3.1C1.7,10.5,1.6,10,1.7,9.5z M6.7,16.1
			c-0.7,1.6-1,3.3-1,5.1c-0.9-0.4-1.7-0.9-2.4-1.5c-0.7-0.5-1.4-1.1-2-1.8c0.1,0,0.2-0.2,0.1-0.3c-1.2-3.2,1.1-7.2,3.2-9.5
			c2.5-2.6,5.8-4.2,9.4-4.6c0.1,0,0.3-0.1,0.3-0.3C14.3,3.1,14.2,3,14,3c-0.6-0.1-1.3-0.2-2-0.3c1.7-0.2,3.4,0.1,4.9,0.8
			c0.4,0.2,0.7,0.4,1.1,0.6c0.3,0.1,0.6,0.3,0.9,0.5c0.2,0.6,0,1.3-0.4,1.8c-0.5,0.6-0.9,1.2-1.3,1.8c-0.4-1.2-0.5-2.5-2.2-1.9
			c-2,0.8-3.5,2.7-4.8,4.2C8.6,12.2,7.5,14.1,6.7,16.1z M20.8,15.7c-0.4,0.8-0.9,1.5-1.5,2.2c-1.3,1.6-3,2.7-4.9,3.2h-0.1
			c-1.4-0.8-2.9-1.2-4.3-2.1c-0.6-0.3-1.1-0.7-1.7-1.1c-0.2-0.1-1.3-1-1.3-0.9c0-0.1,0-0.2-0.1-0.3L7,16.6c0.6-1.7,1.5-3.3,2.7-4.7
			c0.4,1,2.8,2,3.4,2.2c1.4,0.6,2.9,0.9,4.3,1c1.2,0.2,2.3,0.3,3.5,0.2L20.8,15.7z"/>
	</g>
</g>
</svg>
