<?xml version="1.0" encoding="utf-8"?>
<!-- Generator: Adobe Illustrator 22.0.1, SVG Export Plug-In . SVG Version: 6.00 Build 0)  -->
<svg version="1.1" id="Layer_1" xmlns="http://www.w3.org/2000/svg" xmlns:xlink="http://www.w3.org/1999/xlink" x="0px" y="0px"
	 viewBox="0 0 22 22" style="enable-background:new 0 0 22 22;" xml:space="preserve">
<style type="text/css">
	.st0{fill:#010101;}
</style>
<title>Asset 9</title>
<g id="Layer_2_1_">
	<g id="Layer_1-2">
		<path class="st0" d="M22,7.9c-0.1-0.3-0.3-0.6-0.7-0.7c-0.1,0-0.2,0-0.3,0c0.1-0.3,0.2-0.5,0.3-0.8c0-0.1,0-0.3-0.2-0.3
			s-0.3,0-0.3,0.2l0,0c0,0.3-0.2,0.7-0.4,0.9l-0.1,0.1l-0.3,0.1c0.1-0.3,0.3-0.7,0.4-0.9c0.2-0.3-0.1-0.5-0.3-0.3
			c-0.3,0.3-0.3,0.9-0.7,1.3c-0.1,0.1-0.1,0.2,0,0.2l-0.3,0c0.2-0.4,0.3-0.8,0.4-1.3c0-0.1,0-0.3-0.2-0.3c-0.1,0-0.3,0-0.3,0.2
			c-0.1,0.4-0.3,0.8-0.4,1.4c0,0.1,0,0.2,0.1,0.3L18.7,8c0-0.3,0.1-0.7,0.2-1c0.3-0.2-0.2-0.3-0.3,0c-0.2,0.4-0.3,0.8-0.3,1.3l0,0
			c-1.3,0.5-2.6,1-4,1.4C13.9,9.7,13.5,9.8,13,10c-0.1-1.9,0-3.8-0.8-5.6c-0.8-1.9-2.9-3-4.9-2.7H7.1L7,1.6c-5.4-0.5-6.7,5.6-7,9.6
			C-0.3,15.9,2,22.4,7.6,22c0.1,0,0.2-0.1,0.2-0.2c0.3,0,0.6,0,0.8,0c1.9-0.2,3.3-2.2,3.9-3.9c0.8-2.3,0.3-4.8,0.5-7.2
			c0-0.1-0.1-0.2-0.2-0.2l0,0v-0.1c0.4-0.1,0.8-0.3,1.2-0.3c1.4-0.4,2.9-0.8,4.2-1.4l0.1,0.1c0.4,0.1,0.8,0.5,1.2,0.7
			c0.1,0,0.3-0.1,0.3-0.2c0-0.1-0.1-0.2-0.2-0.3C19.3,9,19,8.8,18.8,8.6l0.7-0.3l0.1,0.1c0.4,0.2,0.7,0.4,1.1,0.5
			c0.1,0,0.3-0.1,0.3-0.2c0-0.1-0.1-0.2-0.2-0.3C20.5,8.4,20.2,8.2,20,8l0.4-0.2C20.5,8,20.6,8,20.6,8c0.3,0.2,0.5,0.3,0.8,0.3
			c0.2,0,0.3-0.1,0.2-0.3c0.1,0.1,0.3,0,0.3-0.1C22,8,22,7.9,22,7.9z M0.5,11.7c0.2-3.6,1.2-9,5.2-9.5C2.1,3.7,1.5,9,1.7,12.5
			c0.3,3,1.7,7.9,4.9,9C2.1,21.1,0.4,15.7,0.5,11.7z M9.2,21.3c-1.9,0.8-4-0.9-5.1-2.4c-1.2-1.8-1.9-3.9-2-6.1
			C1.7,9,2.5,3.6,6.7,2.2c2.3-0.8,4.5,0.9,5.2,3c0.6,1.5,0.5,3.3,0.6,5l-0.6,0.2v-0.3c0.3-3-0.5-6.8-4.1-6.5v0V3
			c0-0.1-0.1-0.3-0.3-0.3S7.4,2.9,7.4,3v0.5c0,0.1,0,0.2,0.1,0.2l0,0c-1.5-0.2-2.6,1-3.4,2.2c-0.9,1.7-1.4,3.6-1.4,5.6l-0.1-0.1
			c-0.3-0.1-0.3,0.2-0.3,0.3c0,0.1,0.1,0.2,0.2,0.3h0.1c0.1,0,0.1,0,0.2,0c0,0.2,0,0.3,0,0.4c0.1,1.9,0.7,3.6,1.8,5.1
			c0.8,1.1,2,2.6,3.5,2.7c1.7,0.1,2.6-1.5,3-2.9c0.8-2,0.6-4.3,0.8-6.4l0.7-0.3l0.1,0.6c0,0.1,0,0.1,0.1,0.2
			C12.6,14.9,13.2,19.9,9.2,21.3z M9.2,8C8.7,7.3,7.6,7.1,6.8,7.4C5.9,8,5.3,9,5.1,10c-0.5,1.7-0.6,4.7,0.8,6
			c0.8,0.6,1.7,0.7,2.5,0.2c1-0.5,1.3-1.9,1.4-2.9c0.1-0.7,0.2-1.3,0.2-1.9l0.7-0.2c0,2-0.3,4.8-1.9,6c-2.2,1.5-3.9-2.2-4.3-3.7
			c-0.3-1.3-0.4-2.5-0.1-3.8c0.4-1.5,2.3-4.2,4.1-3.3c0,0.1,0.1,0.2,0.2,0.2l0,0c1.8-0.2,1.9,3,1.9,4.2v0.1L10,10.9
			c0-0.3,0-0.5,0-0.7C10.1,9.6,10.1,8.3,9.2,8L9.2,8z M7.6,11.3C7.6,11.3,7.5,11.3,7.6,11.3c-0.2-0.1-0.1-0.3,0-0.4
			c0.2-0.2,0.2,0.3,0.2,0.4c0,0,0,0,0,0.1L7.6,11.3z M7.6,11.7c0,0.1-0.1,0.3-0.1,0.3c-0.1-0.2-0.2-0.3-0.2-0.5l0,0
			C7.4,11.6,7.5,11.7,7.6,11.7L7.6,11.7z M7.3,10.5c-0.1,0.2-0.1,0.2-0.2,0.2s-0.3,0.1-0.3,0.2l0,0c0,0.6,0,1.4,0.5,1.7
			c0.1,0.1,0.3,0.1,0.3,0c0.2-0.3,0.3-0.5,0.4-0.8l0.6-0.1v0.1c0,0.5-0.1,1-0.2,1.5c-0.3,0.9-1.4,1.4-2,0.5s-0.6-5,1.3-4.3
			c0.1,0,0.3,0,0.3-0.1c0.6,0.1,0.7,1.2,0.7,1.9l-0.5,0.1c0-0.2,0-0.4-0.1-0.6c-0.2-0.3-0.4-0.3-0.7-0.3C7.4,10.4,7.4,10.4,7.3,10.5
			L7.3,10.5z M7.9,9C7.8,9,7.8,9,7.9,9c-2.4-0.6-3,4.6-1.3,5.6c1.5,0.9,2.5-1,2.5-2.2c0-0.2,0.1-0.4,0.1-0.7l0.4-0.1
			c-0.1,0.5-0.1,0.8-0.1,1.1c-0.1,1.6-0.9,4.5-3.2,3.2c-1.2-0.7-1-2.9-1-4.1h0.1c0.1,0,0.3-0.1,0.3-0.3c0-0.1-0.1-0.3-0.3-0.3H5.3
			c0.1-0.8,0.3-1.5,0.6-2.2c0.4-0.9,2.4-2,3-0.7c0,0,0,0.1,0.1,0.1c0,0,0.1,0,0.1,0.1c0.6,0.2,0.7,1.4,0.6,2.5l-0.4,0.1
			C9.2,10,8.9,8.7,7.9,9L7.9,9z M8.8,6C8.8,6,8.7,5.9,8.8,6C7.3,5.2,5.9,6.3,4.9,7.4c-1,1.4-1.5,3-1.3,4.6c0.2,2,1.5,5.7,4,5.8
			c1.2,0,2.2-1.2,2.6-2.2c0.5-1.5,0.8-3,0.8-4.6l0.4-0.2c-0.1,1.2-0.2,2.4-0.3,3.5c-0.1,1.8-0.6,4.6-2.6,5.2c-1.3,0.5-2.6-1-3.4-1.9
			c-1.1-1.3-1.8-2.9-1.9-4.6c-0.2-1.9,0-3.7,0.6-5.5c0.5-1.5,1.9-3.8,3.8-3.4c0.1,0,0.2,0,0.3-0.1c3.1-0.3,3.9,3,3.7,5.6
			c0,0.3,0,0.6-0.1,0.8l-0.4,0.2C11.1,9.1,10.7,6,8.8,6L8.8,6z M21.4,7.9l-0.3-0.2L21,7.6C21.2,7.5,21.4,7.6,21.4,7.9
			c0.1-0.1,0.1,0,0.2,0C21.6,7.9,21.4,7.9,21.4,7.9z"/>
	</g>
</g>
</svg>
