<?xml version="1.0" encoding="utf-8"?>
<!-- Generator: Adobe Illustrator 22.0.1, SVG Export Plug-In . SVG Version: 6.00 Build 0)  -->
<svg version="1.1" baseProfile="tiny" id="Layer_1" xmlns="http://www.w3.org/2000/svg" xmlns:xlink="http://www.w3.org/1999/xlink"
	 x="0px" y="0px" viewBox="0 0 202 202" xml:space="preserve">
<g>
	<path fill="#39C5F3" d="M201,101c0,55.2-44.8,100-100,100S1,156.2,1,101S45.8,1,101,1S201,45.8,201,101"/>
</g>
<g>
	<path fill="#231F20" d="M55,54.2c2,0,3.3-0.8,3.6-1l-0.6-2c-0.7,0.4-1.4,0.7-2.1,0.7c-0.7,0-1.1-0.3-1.1-0.8
		c1.9-0.2,4.6-0.8,4.6-3.4c0-1.5-1-2.3-2.7-2.3c-3.3,0-5.2,2.8-5.2,5.5C51.5,52.8,52.5,54.2,55,54.2 M55.9,47.6c0.1,0,0.1,0,0.2,0
		c0.2,0,0.4,0.1,0.4,0.4c0,0.5-0.6,1.1-1.6,1.2C55.1,48.2,55.5,47.8,55.9,47.6"/>
	<path fill="#231F20" d="M39.1,54.2c1,0,2.1-0.3,2.7-0.6l-0.4-2.1c-0.3,0.1-0.5,0.2-0.8,0.2c-0.4,0-0.7-0.1-0.7-0.6
		c0-0.1,0-0.3,0-0.5l0.5-2.6h1.9l0.4-2.5h-1.9l0.5-2.9H38l-1.4,8.1c-0.1,0.5-0.1,0.9-0.1,1.3C36.5,53.2,37,54.2,39.1,54.2"/>
	<path fill="#231F20" d="M45.7,54l0.9-5.3c0.1-0.5,0.3-0.8,0.7-0.8c0.2,0,0.3,0.1,0.3,0.5c0,0.1,0,0.2-0.1,0.4L46.6,54h3.3l1-5.5
		C51,48,51,47.7,51,47.3c0-1.3-0.8-2-2.2-2c-0.7,0-1.2,0.2-1.6,0.4l0.5-3h-3.3l-2,11.3H45.7z"/>
	<path fill="#231F20" d="M175.4,140.7c-3-1.3-5-1.8-5-3.4c0-0.7,0.5-1.6,2-1.6c1.4,0,3.6,1,6.2,3l6.2-6.5c-2.7-2.9-7.8-5-12.8-5
		c-4.6,0-8.5,1.5-10.9,4.1l0.9-4.9c0.4-2.3,2-3.2,4.1-3.2c1.6,0,3,0.5,4.2,1.1l3.3-10.1c-1.3-0.8-3.2-1.1-4.8-1.1
		c-2.1,0-5.3,1-7.7,5.1l-0.2-4.1h-9.6l-0.2,6.4l-0.9,4.9c-1.7-2.2-4.6-3.3-8.5-3.3c-6,0-10.7,2.5-13.9,6.3l3.3-18.8h11.5l3.4-18.9
		c0.4-2.4,2-3.2,4.1-3.2c0.7,0,1.4,0.1,2,0.3c0,0.3-0.1,0.6-0.1,0.9c0,7.3,3.8,12.7,13.1,12.7c7.6,0,12.5-3,13.4-3.6l-2-7.9
		c-2.6,1.5-5.4,2.5-7.9,2.5c-2.6,0-4.1-1.2-4.3-3c7-0.7,17.3-2.9,17.3-12.9c0-5.7-3.9-8.5-10.2-8.5c-7.6,0-13.1,4-16.3,9.4
		c-0.8-0.1-1.5-0.2-2.2-0.2c-2.1,0-5.4,1-7.9,5.2l-0.2-4.2H140l3.8-21.5h-12.3L128,76.8c-0.3,1.6-1.2,2.9-2.5,2.9
		c-1.2,0-1.4-0.7-1.3-2c0.1-0.4,0.1-0.9,0.2-1.4l3.5-19.6h-11.7l0,0h-10.4l2-10.9H107v-0.1H94.7L91.2,66c-0.3,1.6-1.2,2.9-2.5,2.9
		c-1.2,0-1.4-0.7-1.3-2c0.1-0.4,0.1-0.9,0.2-1.4L91,45.9h-8.4h-4h-4l0.4-2.5c0.4-2.1,1.5-2.5,2.7-2.5c1,0,3.1,0.5,5.1,1.7l4-7.7
		c-2.6-1.6-6.9-2.9-10.7-2.9c-10.2,0-12.5,6.6-13.6,12.8l-8,45.4H67l6-34.8h4l-2,11.4c-0.2,1.2-0.3,2.3-0.3,3.2
		c-0.1,5.4,2.9,8.1,8.9,8.1c2.4,0,4.5-0.9,6.4-2.3v0.5c-0.3,1.7-0.5,3.3-0.5,4.9c0,4.3,1.8,8.2,9.9,8.2c3.8,0,7.8-1.1,10-2.3
		l-1.4-7.7c-1,0.5-2.1,0.9-2.9,0.9c-1.5,0-2.7-0.4-2.8-2.3c0-0.4,0.1-1.2,0.1-1.7l1.8-9.8h9.7l-2,11.5c-0.2,1.2-0.3,2.3-0.3,3.2
		c-0.1,5.4,2.9,8.1,8.9,8.1c3,0,5.7-1.1,7.9-3.3h0.4v2.5h5.3l-2.2,12.7h-11.1l-1.7,9.7c-0.2,0-1.1-0.1-1.9-0.1
		c-5.6,0-10.1,2.1-13.3,5.6c0.1-1.3,0.2-2.6,0.2-4c0-1.7-0.1-4.9-0.2-6.2H91.7c0.1,1.3,0.1,4.5,0.1,6c0,9.5-1.9,16.5-4.7,16.5
		c-0.8,0-1-0.4-1-1.1c0-0.3,0.1-1,0.2-1.4l3.6-20H78l-3.5,20.1c-0.3,1.6-0.9,2.4-2,2.4c-0.7,0-1-0.2-1.1-0.8c-0.1-0.3,0-0.7,0.1-1.2
		l3.6-20.5h-12l-1.2,7.1c-2.5-3.9-7.2-4.9-10.5-4.9c-4.5,0-9.8,1.4-13.6,5.7l1-5.6c0.4-2.3,2-3.2,4.1-3.2c1.6,0,3,0.5,4.2,1.1
		l3.3-10.1c-1.4-1-3.3-1.3-4.8-1.3c-2.1,0-5.3,1-7.7,5.1L37.6,96H28l-0.1,3.9c-2.6,1.6-4.2,2.2-6.1,2.2c-2.5,0-3.9-1.8-3.9-5.1
		c0-4.4,1.6-8.9,5.4-8.9c2,0,2.9,1.7,3.8,3.3l8-5.3c-2.2-5.2-6.9-7.4-12-7.5c-8.8-0.1-17.5,6.1-17.5,19.6c0,8.6,4.8,13.3,12.7,13.3
		c3,0,5.8-0.5,8.2-1.5l-3,16.9h9.6c-0.1,0.8-0.2,1.7-0.2,2.4c0,7.6,4.4,11.7,12.2,11.7c6,0,11.4-2.3,14.9-7.7
		c1.3,2.9,4.3,4.4,8.9,4.4c3.8,0,6.8-1.1,9.6-3.5c1.4,1.9,3.8,3.5,8.1,3.5c4.9,0,8.7-1.6,11.6-4.8c0.2,4.9,2.3,10.7,9.9,10.7
		c3.5,0,6.3-2,7.3-3.6h0.4l0.2,2.6h6.6c0,0,0,0,0,0.1c0,7.1,3.7,12.5,12.8,12.5c7.4,0,12.2-2.9,13.1-3.5l-1.6-6.5h11.7l0.4-2.2
		c1.2,2.7,3.5,3.8,5.7,4.6c2.3,0.8,4.3,1.6,4.3,2.7c0,0.8-0.5,1.3-1.8,1.3c-2.5,0-6.6-1.8-8.8-3.2l-4.3,8.1
		c1.9,1.4,6.6,3.8,12.7,3.8c8.6,0,14.5-3.9,14.5-11C181.2,144.2,178.4,142.1,175.4,140.7 M168.6,76.8c0.3-0.1,0.6-0.1,0.9-0.1
		c0.9,0,1.3,0.5,1.3,1.3c0,1.8-2.3,4-5.9,4.3C165.6,79,167.1,77.2,168.6,76.8 M50.7,125c-1,5.8-2,7.3-3.8,7.3c-1.3,0-1.7-1-1.7-2.9
		c0-1.5,0.4-3.9,0.7-6.2c0.8-4.4,1.9-6.5,3.6-6.5c1.2,0,1.7,0.9,1.7,2.9C51.2,120.9,51,122.9,50.7,125 M115,132.8
		c-0.2,1-1,2.1-2.5,2.1c-1.6,0-2.2-1.3-2.2-3.9c0-3.5,1-8.1,3-10.2c1.1-1.1,2.3-1.9,4.1-1.6L115,132.8z M138.9,130.7
		c0.3-0.1,0.5-0.1,0.8-0.1c0.8,0,1.3,0.5,1.3,1.3c0,1.8-2.3,3.9-5.8,4.2C136,132.9,137.5,131.2,138.9,130.7 M146.5,143.7
		c-2.5,1.4-5.3,2.4-7.8,2.4c-2.6,0-4-1.1-4.2-2.9c4.1-0.4,9.4-1.4,13-4.3l-0.9,5.3L146.5,143.7z"/>
</g>
</svg>
