<?xml version="1.0" encoding="utf-8"?>
<!-- Generator: Adobe Illustrator 22.0.1, SVG Export Plug-In . SVG Version: 6.00 Build 0)  -->
<svg version="1.1" id="Layer_1" xmlns="http://www.w3.org/2000/svg" xmlns:xlink="http://www.w3.org/1999/xlink" x="0px" y="0px"
	 viewBox="0 0 21.5 19.6" style="enable-background:new 0 0 21.5 19.6;" xml:space="preserve">
<style type="text/css">
	.st0{fill:#FFFFFF;}
</style>
<title>Asset 46</title>
<g id="Layer_2_1_">
	<g id="Layer_1-2">
		<path class="st0" d="M16.8,1.1C12-1.3,6.1,0.6,2.3,4c-1.7,1.6-2.9,3.8-2,6.1c0.5,1.1,1.3,2.1,2.2,2.9c1.8,1.5,2.2,4.2,1,6.2
			c0,0.1,0,0.3,0.2,0.3c0.1,0,0.2,0,0.3-0.1l0.2-0.3c0,0.1,0.1,0.2,0.1,0.2c0.2,0.3,0.6-0.1,0.4-0.4s1.8-2.1,2-2.4s1-0.2,1.5-0.1
			c0.8,0,1.6,0,2.3,0c2.7-0.1,5.8-0.7,8-2.6c2-1.8,3.2-4.4,3.1-7.1C21.3,4.1,19,2.1,16.8,1.1z M6.6,15.9c-0.1,0-0.2,0.1-0.2,0.1
			c-0.2,0.4-1.2,1.2-1.8,2c0.4-1.5,0.1-3-0.8-4.2c-1.4-1.9-3.6-3.1-3.3-5.9c0.3-2.3,2.5-4,4.3-5.2c2-1.3,4.4-2.1,6.8-2.2
			c2.5-0.1,5,0.7,7,2.3c2.5,2,2.8,5,1.5,7.8C17.7,15.8,11.5,16.1,6.6,15.9z"/>
		<path class="st0" d="M6,9.2L6,9.2L6,9.2C5.8,9.3,5.6,9.4,5.6,9.5c-0.1,0.2-0.1,0.5,0.1,0.6c0.1,0.1,0.3,0.1,0.4,0
			c0,0,0.1-0.1,0.1-0.1c0.1,0,0.2-0.1,0.2-0.3c0-0.1,0.1-0.1,0.1-0.2C6.7,9.3,6.3,8.9,6,9.2z"/>
		<path class="st0" d="M9.7,8.8C9.2,9,8.8,9.4,8.7,9.9l0,0V10c-0.1,0.3,0.4,0.4,0.5,0.2c0.1-0.1,0.1-0.2,0.3-0.3
			C9.5,9.9,9.6,10,9.7,10h0.1c0.1,0,0.3-0.1,0.3-0.3c0,0,0,0,0,0V9c0-0.2-0.1-0.3-0.3-0.3C9.7,8.7,9.7,8.7,9.7,8.8z"/>
		<path class="st0" d="M13.5,8.9L13.5,8.9C13.5,8.9,13.5,8.9,13.5,8.9V8.7l0.1-0.1c0.1-0.1,0-0.3-0.2-0.3c-0.1,0-0.2,0-0.3,0
			c0,0-0.1,0.1-0.1,0.1c0,0-0.1,0-0.1,0.1c-0.1,0-0.2,0.1-0.3,0.2c-0.1,0.1-0.1,0.3,0,0.4c0.1,0.1,0.2,0.1,0.3,0
			c-0.1,0.1,0,0.3,0.1,0.4c0,0,0.1,0,0.1,0h0.4C13.9,9.4,13.9,8.9,13.5,8.9z"/>
		<path class="st0" d="M17.4,7.8L17.4,7.8c-0.1,0-0.2,0-0.3,0.1C17,8.1,16.9,8.2,17,8.4c0.1,0.1,0.3,0.2,0.4,0.2v0.3
			c0,0.1,0.2,0.2,0.3,0.2c0.1,0,0.2-0.1,0.2-0.2V7.9c0-0.1-0.1-0.3-0.2-0.3C17.6,7.6,17.4,7.7,17.4,7.8z"/>
	</g>
</g>
</svg>
