<?xml version="1.0" encoding="utf-8"?>
<!-- Generator: Adobe Illustrator 22.0.1, SVG Export Plug-In . SVG Version: 6.00 Build 0)  -->
<svg version="1.1" id="Layer_1" xmlns="http://www.w3.org/2000/svg" xmlns:xlink="http://www.w3.org/1999/xlink" x="0px" y="0px"
	 viewBox="0 0 19.9 18.9" style="enable-background:new 0 0 19.9 18.9;" xml:space="preserve">
<style type="text/css">
	.st0{fill:#3BC6F3;}
</style>
<title>Asset 47</title>
<g id="Layer_2_1_">
	<g id="Layer_1-2">
		<path class="st0" d="M0.7,0.2C0.6,0.1,0.4,0,0.3,0.1c-0.1,0-0.1,0.1-0.1,0.2v0.1c0,0-0.1,0.1-0.1,0.2c0.1,4.4-1,9,1.7,12.9
			c1.9,2.8,6.9,3.2,10.1,2.5c0,0.3,0,0.6,0,0.9c0,0.6,0.1,1.2,0.1,1.8c0,0.2,0.2,0.4,0.4,0.2l4.1-3.2c1.2-0.9,2.2-1.9,3.3-3
			c0.1-0.1,0.1-0.3,0-0.4C18.2,11,16.6,9.7,15,8.4c-0.9-0.7-1.9-2-3.1-2.3c-0.1,0-0.3,0.1-0.3,0.2c0,0.5,0,5-0.3,5
			C9.4,11.2,7.8,11.2,7,9.2C6.6,8,6.5,6.7,6.5,5.4c0-1.7-0.2-3.4-0.4-5.1c0,0,0,0,0-0.1C6.2,0.2,6.1,0,5.9,0c0,0,0,0-0.1,0
			C4.1,0,2.4,0.2,0.7,0.2z M6.3,8.8c0.2,1,0.7,1.9,1.5,2.5c1.2,0.7,2.5,0.6,3.8,0.6c0.1,0,0.2-0.1,0.2-0.2c0.2-1.6,0.1-3.3,0.2-4.9
			c0.9,0.6,1.8,1.3,2.6,2.1c1.4,1.1,2.6,2.3,4,3.3c0.7,0.6,0.1,0.8-0.4,1.4c-0.6,0.6-1.4,1.2-2.1,1.7c-1.3,1-2.5,1.9-3.7,2.9
			c-0.1-0.5-0.1-1-0.1-1.5c0.1-0.4,0-0.8-0.2-1.1c-0.1-0.1-0.2-0.1-0.3-0.1c0,0-0.1,0-0.1,0.1c-3.4,0.7-8.1,0.1-10-3
			C-0.3,9,0.7,4.5,0.7,0.7c1.6,0,3.3-0.2,5-0.2C6,3.3,5.7,6.1,6.3,8.8z"/>
	</g>
</g>
</svg>
