<?xml version="1.0" encoding="utf-8"?>
<!-- Generator: Adobe Illustrator 22.0.1, SVG Export Plug-In . SVG Version: 6.00 Build 0)  -->
<svg version="1.1" id="Layer_1" xmlns="http://www.w3.org/2000/svg" xmlns:xlink="http://www.w3.org/1999/xlink" x="0px" y="0px"
	 viewBox="0 0 20.5 22.3" style="enable-background:new 0 0 20.5 22.3;" xml:space="preserve">
<style type="text/css">
	.st0{fill:#3BC6F3;}
</style>
<title>Asset 31</title>
<g id="Layer_2_1_">
	<g id="Layer_1-2">
		<path class="st0" d="M15.6,0.6c-2.4-0.7-5-0.8-7.4-0.1c-1.4,0.4-2.8,0.9-4,1.7c-1,0.6-1,0.6-1.9-0.1c-0.5-0.4-1-0.8-1.6-1.1
			C0.4,0.7,0.1,1.2,0.5,1.4c0.9,0.5,1.7,1.2,2.4,2c0.1,0.1,0.2,0.1,0.3,0C7,0.8,12-0.4,16.4,1.5c1.9,0.7,3.3,2.4,3.6,4.5
			c0.1,1.8-1.7,3-3.1,3.8c-3.1,1.7-6.5,2.5-10,2.4C1.4,11.6,2.4,5.2,0.6,1.5C0.4,1.2-0.1,1.4,0,1.7c1.2,2.5,1,5.4,2.3,7.9
			c1,2,3.1,3.2,5.3,3.1c2.2,0,4.3-0.4,6.3-1.2c1.9-0.5,3.7-1.4,5.2-2.6C22.4,5.7,19.1,1.8,15.6,0.6z"/>
		<path class="st0" d="M12.3,4.3h-0.5c-0.1,0-0.1,0-0.2,0.1C10.4,4.5,9.3,4.8,8.1,5c-1,0.2-2-0.1-3,0.1C5,5.1,4.9,5.2,4.9,5.4
			s0,0.1,0,0.1c0,0.2,0.2,0.3,0.4,0.2c0.1,0,0.1,0,0.2-0.1c0.9-0.1,1.8,0,2.7-0.1c1.4-0.1,2.7-0.5,4.1-0.7c0.2,0,0.3-0.2,0.2-0.3
			C12.5,4.4,12.4,4.3,12.3,4.3z"/>
		<path class="st0" d="M10.4,6.6C10.2,7,8.4,7,8,7C7.2,7.1,6.5,7.1,5.7,7.2c-0.4,0-0.3,0.6,0,0.6c1.1,0,2.1-0.1,3.2-0.2
			c0.5-0.1,1.8-0.1,2-0.7C11.1,6.5,10.6,6.2,10.4,6.6z"/>
		<path class="st0" d="M15.1,2.9c-0.6-0.4-2.1-0.2-1.8,0.8c0.1,0.3,0.6,0.2,0.5-0.2s1.1-0.3,1.2,0.2c0.1,0.4-0.3,0.7-0.5,1
			c-0.2,0.3-0.3,0.6-0.3,1c0,0.4,0.6,0.3,0.6,0c0-0.6,0.5-1,0.7-1.5C15.8,3.8,15.6,3.2,15.1,2.9z"/>
		<path class="st0" d="M14.4,6.9c-0.2,0-0.3,0.1-0.3,0.2c0,0.1,0.1,0.3,0.2,0.3c0,0.1,0,0.2,0.1,0.2c0.1,0.1,0.3,0.1,0.4,0
			c0.1-0.1,0.2-0.2,0.3-0.3c0-0.2-0.1-0.3-0.2-0.3c0,0,0,0-0.1,0C14.6,7,14.5,6.9,14.4,6.9z"/>
		<path class="st0" d="M18.1,20.2L18.1,20.2C18,20.1,18,20.1,17.9,20c-0.3-0.3-0.6-0.6-0.9-0.9c-0.6-0.5-0.2-0.8,0-1.4
			c0.3-0.6,0.2-1.3-0.1-1.8c-1.3-1.3-2.9-2.1-4.7-2.4c-3.6-0.8-8-0.1-10.4,2.9c-1,1-1.3,2.5-0.8,3.8c0.6,1.4,2.6,1.9,4,2.1
			c1.7,0.1,3.4,0,5-0.5c1.2-0.3,2.3-0.7,3.4-1c1.4-0.4,2.9-0.4,4.3,0c0.1,0,0.1,0.1,0.2,0.1H18C18.4,20.8,18.4,20.3,18.1,20.2z
			 M14.1,20c-1.5,0.4-2.9,0.9-4.4,1.3c-2.4,0.6-7.2,1.3-8.4-1.5c-0.6-1.5,1-3.3,2.1-4.2c1.3-0.9,2.8-1.5,4.4-1.6
			c1.6-0.2,3.2-0.1,4.7,0.3c0.8,0.2,1.6,0.5,2.4,0.9c0.9,0.3,1.5,1,1.8,1.8c0.1,0.6-0.4,1.3-0.7,1.8c-0.1,0.1,0,0.3,0.1,0.4
			c0.4,0.3,0.8,0.7,1.1,1C16.1,19.8,15.1,19.8,14.1,20L14.1,20z"/>
		<path class="st0" d="M9,17.1c0.1,0.1,0.2,0.1,0.3,0l0.3-0.2c0.1-0.1,0.2-0.3,0.1-0.4c-0.1-0.1-0.2-0.1-0.3-0.1
			c-1.5,0.6-3.4,0.5-5,0.5c-0.4,0-0.3,0.6,0,0.6C5.9,17.6,7.5,17.5,9,17.1z"/>
		<path class="st0" d="M9.5,18.1c-1.7,0-3.4,0.5-5.1,0.5c-0.4,0-0.3,0.6,0,0.6c1.7,0,3.4-0.4,5.1-0.5C9.9,18.7,9.9,18.1,9.5,18.1z"
			/>
		<path class="st0" d="M13,18.2c0.1-0.5,0-1-0.1-1.4c0-0.5-0.2-0.9-0.5-1.3c-0.3-0.4-0.9-0.2-1.3-0.1c-0.1,0-0.2,0.1-0.2,0.3l0,0
			c0,0.8,0.2,1.6,0.6,2.4c0.1,0.1,0.2,0.2,0.3,0.2c-0.1,0.1,0,0.3,0.2,0.4c0,0,0.1,0,0.1,0C12.4,18.7,12.9,18.6,13,18.2z M12,17.9
			c-0.3-0.6-0.5-1.3-0.6-2c0.2-0.1,0.5,0,0.6,0.1c0.1,0.2,0.2,0.5,0.2,0.7c0.1,0.3,0.1,0.6,0.2,0.9s-0.1,0.5-0.5,0.5
			C12,18,12,18,12,17.9z"/>
		<path class="st0" d="M13.1,19.1C12.8,19,12.5,19,12.2,19c-0.2,0-0.3,0.2-0.3,0.3v0.3c0,0.1,0.1,0.2,0.1,0.2
			c0.1,0.3,0.5,0.4,0.8,0.4c0.4-0.1,0.6-0.4,0.5-0.8C13.3,19.2,13.2,19.1,13.1,19.1z"/>
	</g>
</g>
</svg>
