<?xml version="1.0" encoding="utf-8"?>
<!-- Generator: Adobe Illustrator 22.0.1, SVG Export Plug-In . SVG Version: 6.00 Build 0)  -->
<svg version="1.1" id="Layer_1" xmlns="http://www.w3.org/2000/svg" xmlns:xlink="http://www.w3.org/1999/xlink" x="0px" y="0px"
	 viewBox="0 0 25.9 15.2" style="enable-background:new 0 0 25.9 15.2;" xml:space="preserve">
<style type="text/css">
	.st0{fill:#010101;}
</style>
<title>Asset 16</title>
<g id="Layer_2_1_">
	<g id="Layer_1-2">
		<path class="st0" d="M25.7,7.5c0-0.1,0-0.1,0-0.2c-0.5-1.3-0.8-2.6-1.9-3.5c-1.1-0.8-2.3-1.4-3.5-1.9c-2.7-1.4-5.7-2-8.7-1.8
			C6.7,0.4,1.6,3.6,0,8.3c0,0.1,0,0.2,0.1,0.2c0,0,0,0,0.1,0l0,0L0.1,8.6c0,0,0,0.1,0,0.1c-0.4,0.7,2.1,2.9,2.4,3.3
			c2.1,2.2,5.1,2.6,8,3c3.4,0.4,6.9-0.1,10-1.4c2.3-1,5.4-3.1,5.4-5.9C25.9,7.6,25.8,7.5,25.7,7.5z M0.5,8.1
			c1.9-4.4,6.6-7.3,11.3-7.6C14.7,0.3,17.5,1,20,2.2c1,0.5,2,1,3,1.6c0.7,0.4,1.2,1,1.5,1.8c-0.9-0.7-2-1.1-3.1-1.4
			c-2.6-0.9-5.4-1.4-8.1-1.5C8.6,2.6,3.4,4.2,0.5,8.1L0.5,8.1z M15.4,3.5c0.5,1.1,0.5,2.4-0.1,3.4c-0.6,1-1.6,1.6-2.7,1.6
			c-1.1,0.2-2.2-0.4-2.7-1.4c-0.5-1.2-0.4-2.6,0.3-3.7c0.1,0,0.1-0.1,0.1-0.1c0,0,0,0,0,0l0,0c0.8-0.1,1.6-0.2,2.4-0.2
			c1,0,1.9,0,2.9,0.1C15.4,3.2,15.3,3.3,15.4,3.5C15.3,3.4,15.3,3.4,15.4,3.5z M9.4,7.3c0.6,1.1,1.8,1.7,3,1.6
			c1.3-0.1,2.4-0.7,3.1-1.8c0.6-0.9,1-3,0.1-3.9l0,0c1,0.1,1.9,0.3,2.9,0.5c-0.1,0.1-0.2,0.2-0.1,0.3c0.9,2-0.2,4.3-1.6,5.7
			c-1.2,1.2-2.8,1.8-4.4,1.8c-1.7-0.1-3.4-0.9-4.4-2.3c-0.6-0.8-1-1.8-1.1-2.8c0-0.9,0.2-1.7,0.6-2.5c0.1,0,0.1-0.1,0.1-0.1v0l0,0
			C8.3,3.7,9,3.6,9.7,3.4C9,4.6,8.9,6.1,9.4,7.3z M25.4,7.7c0,2.7-3.2,4.7-5.4,5.6c-2.8,1.1-5.8,1.6-8.9,1.4c-2.6-0.2-6.1-0.7-8-2.6
			c-0.3-0.3-2.9-3.1-2.7-3.2c0,0,0-0.1,0-0.1C2.1,6.6,4.4,4.9,7,4.1C6.2,5.6,6.2,7.5,7.1,8.9c1.1,1.8,2.9,2.9,5,3.1
			c4,0.4,8.4-4.2,6.7-8.2l0,0c0.5,0.1,0.9,0.3,1.4,0.4c1.4,0.5,4.2,0.9,4.7,2.7c0,0.1,0.1,0.2,0.2,0.2l0.2,0.5
			C25.3,7.6,25.3,7.7,25.4,7.7C25.4,7.7,25.4,7.7,25.4,7.7L25.4,7.7z"/>
	</g>
</g>
</svg>
