<?xml version="1.0" encoding="utf-8"?>
<!-- Generator: Adobe Illustrator 22.0.1, SVG Export Plug-In . SVG Version: 6.00 Build 0)  -->
<svg version="1.1" id="Layer_1" xmlns="http://www.w3.org/2000/svg" xmlns:xlink="http://www.w3.org/1999/xlink" x="0px" y="0px"
	 viewBox="0 0 30 30" style="enable-background:new 0 0 30 30;" xml:space="preserve">
<style type="text/css">
	.st0{fill:#010101;}
</style>
<title>Asset 10</title>
<g id="Layer_2_1_">
	<g id="Layer_1-2">
		<path class="st0" d="M21.4,22.5c0-2.2-1.7-3.9-3.8-4.1L17,18.3c-1-0.1-0.8-1.2-0.4-1.8c0.4-0.4,0.7-0.9,1-1.3c0.5-0.9,0.7-2,0.4-3
			c-0.5-1.8-2.5-2.7-4.3-2.1c-0.2,0.1-0.4,0.2-0.6,0.3c-2.6,1.3-2.7,3.6-1.7,6.1l0,0c0.1,0.8,0.6,1.9-1,2.1c-0.6,0-1.1,0.2-1.7,0.3
			c-0.8,0.3-1.5,0.8-2,1.6c-0.5,1.1-0.8,2.4-0.8,3.6c-0.2,1.1-0.6,2.2-0.2,3.3c0.2,0.6,0.9,0.8,1.4,1c1.3,0.4,2.7,0.5,4.1,0.8
			c2.6,0.6,5.1,1.2,7.8,0.4c0.1,0,0.2-0.2,0.2-0.3c0,0,0-0.1-0.1-0.1c0.4,0.2,0.7,0.4,1.1,0.5c2.1,0.6,3.7-0.9,4.2-2.8
			s-0.7-3.8-2.5-4.3C21.7,22.5,21.6,22.5,21.4,22.5z M18.7,29.1c-2.5,0.8-5,0.1-7.5-0.5c-1-0.3-2.1-0.5-3.1-0.6
			c-0.5-0.1-1-0.2-1.4-0.4c-1-0.4-0.6-1.9-0.4-2.6c0.2-1,0.3-2,0.5-3.1c0.3-1.9,2-2.6,3.7-2.8c0.6,0,1.2-0.3,1.6-0.8
			c0.4-0.5,0-1.4-0.1-1.9l0,0c0-0.1,0-0.1,0-0.2c-0.7-1-0.9-2.4-0.5-3.7c0.6-1.4,2.6-2.1,4-2c1.6,0.2,2.3,1.7,2.1,3.2
			c-0.2,1.1-0.8,2.1-1.6,2.8c-0.6,0.7-0.8,1.9,0.3,2.3c1,0.1,1.9,0.4,2.8,0.7c1,0.6,1.7,1.8,1.7,3c-1,0-1.9,0.2-2.7,0.8
			c-0.7,0.6-1.1,1.5-1.1,2.4c-0.1,0-0.1,0.1-0.1,0.2c0,0.1,0,0.2,0,0.3l0,0c0,0.1,0,0.1,0,0.2C17.1,27.4,17.8,28.4,18.7,29.1
			C18.7,29,18.7,29,18.7,29.1z M23.8,26.7c-0.7,3.8-5.8,2.7-6.2-0.6c0.1-0.6,0.3-1.3,0.5-1.9c0.4-1,1.9-1.2,2.9-1.2
			c0.1,0.1,0.3,0.1,0.4,0c1.6,0.3,2.7,1.8,2.5,3.4C23.8,26.5,23.8,26.6,23.8,26.7z"/>
		<path class="st0" d="M22,24c-0.6,0-1.2,0-1.9,0.1C20,24,19.8,24,19.7,24.2l0,0c-0.1,0.1-0.2,0.2-0.1,0.4l0,0
			c-0.1,0.4-0.1,0.9-0.2,1.3c0,0.2,0.2,0.3,0.4,0.3c0.4-0.1,0.9-0.3,1.3,0s0.4,0.9,0.1,1.2c-0.5,0.3-1.1,0.3-1.6,0
			c0-0.1-0.1-0.3-0.3-0.3l0,0c-0.2,0-0.3,0.1-0.4,0.2c-0.1,0.1-0.1,0.3,0,0.4c0,0,0,0,0.1,0c0.8,0.4,2.6,0.7,2.9-0.5
			c0.1-0.5-0.1-1.1-0.4-1.5c-0.4-0.3-0.9-0.3-1.4-0.1c0-0.3,0.1-0.6,0.1-0.9c0.6-0.1,1.2-0.1,1.8,0C22.4,24.6,22.4,24,22,24z"/>
	</g>
</g>
</svg>
