<?xml version="1.0" encoding="utf-8"?>
<!-- Generator: Adobe Illustrator 22.0.1, SVG Export Plug-In . SVG Version: 6.00 Build 0)  -->
<svg version="1.1" id="Layer_1" xmlns="http://www.w3.org/2000/svg" xmlns:xlink="http://www.w3.org/1999/xlink" x="0px" y="0px"
	 viewBox="0 0 30 30" style="enable-background:new 0 0 30 30;" xml:space="preserve">
<style type="text/css">
	.st0{fill:#010101;}
</style>
<title>Asset 6</title>
<g id="Layer_2_1_">
	<g id="Layer_1-2">
		<path class="st0" d="M23.2,16.6c-0.2-2-0.7-4-0.8-6c0.1-0.2,0.1-0.3,0-0.4c0-0.1,0-0.1,0-0.2c0-0.5-0.1-1.1-0.1-1.7
			C22.3,8.2,22.2,8,22,8c-2.4-0.1-4.8,0-7.2,0.3c-2.5,0.2-5,0.3-7.5,0.3C7.2,8.6,7,8.7,7,8.8v0.1c0-0.1-0.1,0-0.2,0.1c0,0,0,0,0,0.1
			c0,0.9,0.1,1.8,0.1,2.7v0.1c0,0,0,0,0,0.1c-0.1,1.2,0.2,2.3,0.2,3.5s0.1,2.5,0,3.8c0,0.1,0.1,0.2,0.2,0.3c1.8,0.2,3.7,0.2,5.6,0
			c0.1,0.4-2.3,4-2.4,4.2c-0.3,0.4-2.8,3-1.8,3.7s1.9-0.8,2.3-1.5c0.5-1.1,1.3-2.1,2-3.1c0.5-0.9,1-1.8,1.5-2.7
			c0.1,3.2-0.1,6.3,0,9.5c0,0.1,0.1,0.3,0.3,0.3c0.6,0,1.2,0.1,1.5-0.4c0.2-0.7,0.2-1.5,0.1-2.3c0-2.6-0.3-5.2-0.4-7.8h0.2
			c0,0.1,0,0.1,0,0.2c0.9,2.2,1.9,4.4,2.6,6.6c0.2,0.6,0.3,2.5,1.4,2.1c0.7-0.3,0.4-1.7,0.3-2.1c-0.5-1.1-1-2.1-1.6-3.2
			c-0.5-1.2-0.8-2.4-1.1-3.7h0.6c1.2-0.1,2.4,0,3.6-0.1S23.3,17.5,23.2,16.6z M7.3,9.1L7.3,9.1c3.3,0,6.4-0.2,9.5-0.4
			c1.4-0.2,2.9-0.2,4.3-0.2c0.8,0,0.6-0.1,0.7,0.7c0,0.2,0,0.5,0.1,0.7c-0.1,0-0.1,0.2-0.1,0.3l0,0c-1,0-2,0.1-3,0.3l-4.3,0.4
			c-1.4,0.1-2.8,0.2-4.2,0.2c-1,0-2,0-2.9,0.2C7.4,10.6,7.3,9.9,7.3,9.1L7.3,9.1z M11.5,24.2c-0.5,0.7-0.9,1.3-1.3,2
			c-0.3,0.5-1.4,1.3-0.9,0c0.3-0.6,0.7-1.1,1.1-1.5c0.9-1.2,1.6-2.4,2.3-3.7c0.2-0.3,0.8-1.1,0.7-1.6h0.8
			C13.3,21,12.5,22.7,11.5,24.2z M15.3,29.4c-0.5,0-0.4-0.4-0.4-0.8c0-1,0-2.1,0.1-3.1c0.1-2,0.1-4,0-6h0.4c0,3,0.3,6,0.4,9
			C15.9,28.8,15.7,29.2,15.3,29.4L15.3,29.4z M18.5,23.5c0.5,1.2,1.4,2.3,1.5,3.5c0.1,0.6-0.1,0.5-0.6-0.1c-0.1-0.2-0.1-0.8-0.2-1
			c-0.2-0.6-0.4-1.1-0.6-1.6c-0.7-1.6-1.2-3.2-1.9-4.8v-0.1c0-0.1,0-0.1-0.1-0.1h0.6C17.5,20.8,18,22.2,18.5,23.5z M22.5,18.1
			c-0.3,0.8-1.8,0.5-2.4,0.5c-1.2,0-2.5,0.1-3.7,0.3h-1.7c-0.1,0-0.1,0-0.2,0c-2.1,0.2-4.1,0.2-6.2,0.2c-1,0-0.7-1.1-0.7-1.8
			c0-0.7,0-1.3,0-1.9c0-1.2-0.2-2.3-0.2-3.5c0,0,0,0,0-0.1h0.1c1-0.2,2.1-0.3,3.2-0.2c1.3,0,2.6-0.2,3.8-0.2l3.8-0.2
			c1.2-0.1,2.4-0.3,3.6-0.3c0.1,1.9,0.5,3.8,0.7,5.7C22.7,17.1,22.7,17.6,22.5,18.1L22.5,18.1z"/>
		<path class="st0" d="M21.9,16.8h-0.1c0-0.1,0-0.2,0-0.4c0-0.1-0.2-0.2-0.3-0.2s-0.2,0.1-0.2,0.2v0.4L20.4,17l-1,0.1
			c0-0.1-0.1-0.2-0.3-0.2c-0.1,0-0.2,0.1-0.2,0.3l-2.1,0.1l-1.2,0.2c0-0.1,0-0.1,0-0.1c0-0.1-0.2-0.2-0.3-0.2s-0.2,0.1-0.2,0.2v0.2
			l-1.9,0.1v-0.2c0-0.4-0.5-0.3-0.5,0v0.2c-1.1,0.1-2.2,0.2-3.3,0.2l-0.1-1.4h0.3c0.1,0,0.3-0.1,0.3-0.3c0-0.1-0.1-0.3-0.3-0.3H9.3
			c0-0.5,0-1-0.1-1.5c0.2,0,0.3,0,0.5,0.1c0.3,0.1,0.6-0.3,0.3-0.5c-0.3,0-0.6,0-0.8,0c0-0.4,0-0.7,0-1.1c0.1,0,0.2-0.1,0.2-0.3
			v-0.1l0,0c0.2,0,0.3,0.1,0.5,0.1c0.3,0.1,0.6-0.4,0.3-0.5c-0.4,0-0.7-0.1-0.9-0.1s-0.4-0.1-0.6-0.2c-0.3-0.2-0.6,0.3-0.3,0.5
			c0.1,0,0.2,0.1,0.2,0.1v0.1c0,0.5,0,1,0,1.5H8.5c-0.1,0-0.2,0.2-0.2,0.3c0,0.1,0.1,0.2,0.2,0.2h0.2L8.8,16H8.6
			c-0.3,0-0.3,0.5,0,0.5h0.2c0,0.5,0,1,0.1,1.4c-0.1,0.1-0.2,0.2-0.1,0.4c0,0.1,0.1,0.1,0.1,0.1l0,0c0,0.1,0.1,0.3,0.3,0.3
			c0.1,0,0.3-0.1,0.3-0.3l0,0c1.1,0,2.2-0.1,3.3-0.2c0,0.1,0,0.2,0.1,0.2c0.1,0.3,0.6,0.2,0.5-0.2v-0.1l1.9-0.2V18
			c0.1,0.1,0.2,0.2,0.4,0.1c0.1-0.1,0.2-0.2,0.1-0.3h0.6c0.9-0.1,1.8-0.1,2.7-0.3c0.1,0.1,0.3,0.1,0.4,0c0,0,0-0.1,0.1-0.1h0.2
			c0.4-0.1,1-0.2,1.5-0.3c0,0.1,0,0.3,0.1,0.4c0.1,0.3,0.6,0.2,0.5-0.1v-0.1H22c0.2,0,0.3-0.1,0.3-0.3
			C22.2,16.9,22.1,16.8,21.9,16.8L21.9,16.8z"/>
		<path class="st0" d="M9.8,17.1c-0.2,0.3,0.2,0.7,0.4,0.4c0.5-0.5,1.1-1,1.7-1.4L12,16c0.1,0.1,0.1,0.1,0.2,0.1c0.1,0,0.1,0,0.2,0
			c0.2,0,0.3-0.3,0.4-0.6c0.2-0.2,0.4-0.3,0.6-0.4c0,0.8,0.3,1.6,1.2,1.2l0.2-0.1c0.1,0.1,0.3,0.2,0.5,0.1c0.1,0,0.2-0.1,0.3-0.2
			c0.4-0.1,0.7-0.4,0.7-0.8c0-0.1,0-0.1-0.1-0.2c0.6-0.5,1.1-1,1.7-1.5c0.1,0.1,0.3,0.1,0.4,0l0,0c0.1-0.1,0.1-0.2,0.2-0.3l0.1-0.1
			c0.2-0.2,0.4-0.3,0.7-0.4c0.1,0.4,0.3,0.7,0.5,1.1c0,0,0.1,0,0.2-0.1l0,0c0.6-0.5,1-1,1.4-1.7c0.1-0.1,0-0.3-0.1-0.4
			c-0.1-0.1-0.2-0.1-0.3,0h-0.1c-0.1,0-0.3,0.1-0.3,0.3c0,0.1,0,0.1,0.1,0.1c-0.2,0.3-0.5,0.6-0.8,0.9c-0.1-0.3-0.3-0.7-0.3-1
			c0-0.1-0.2-0.2-0.4-0.2l0,0c-0.2,0.1-0.5,0.3-0.7,0.4c-0.1-0.1-0.1-0.1-0.2-0.1c-0.1,0-0.1,0-0.2,0.1l0,0c-0.1,0-0.2,0.1-0.2,0.3
			v0.1c0,0.1,0,0.1-0.1,0.2c-0.5,0.4-0.9,0.8-1.4,1.2c-0.2,0.4-0.5,0.7-0.9,0.9c0,0-0.1,0-0.2,0c-0.3,0.2-0.5,0.4-0.6,0.6
			c-0.6,0.4-0.8-0.4-0.8-1c0-0.2-0.2-0.3-0.3-0.3h-0.1c-0.4,0.3-0.7,0.5-1,0.8h-0.2c0-0.1-0.2-0.2-0.3-0.2s-0.2,0.2-0.2,0.3
			c0,0.1,0,0.1,0,0.2c0,0.1-0.1,0.2-0.1,0.3l-0.1,0.1C11,16.1,10.3,16.6,9.8,17.1z"/>
	</g>
</g>
</svg>
