<svg xmlns="http://www.w3.org/2000/svg" viewBox="0 0 21.86 22.01"><defs><style>.cls-1{fill:#d4de50;}</style></defs><title>Asset 18</title><g id="Layer_2" data-name="Layer 2"><g id="Layer_1-2" data-name="Layer 1"><path class="cls-1" d="M21.2,18.93h0a3.67,3.67,0,0,0,0-1.28c-.1-1.19,0-2.43,0-3.62s0-2.51,0-3.76-.28-2.59-.26-3.9h.46c.38,0,.36-.59,0-.59h-.15c-.78-1.13-1.7-3.23-3.17-3.54a5.88,5.88,0,0,0-1.73,0A5.2,5.2,0,0,0,16.23.52a.29.29,0,0,0-.3-.21c-1.08,0-2.47-.63-3.51-.07C11.85.55,12,1.43,12,2.06L10.7,2A25.88,25.88,0,0,0,6.57,2a7.51,7.51,0,0,0-2.68.25,7.23,7.23,0,0,0-2,1.93C1.45,4.69,0,5.44,0,6.15a.14.14,0,0,0,0,.07.29.29,0,0,0,.43.32.85.85,0,0,1,.46-.1c.66,4.25.22,8.69.27,13h0a.29.29,0,0,0-.27.38A7.28,7.28,0,0,1,1,21.73a.27.27,0,0,0,.36.26.26.26,0,0,0,.35-.14c.21-.46,2.57-.34,3-.36L8,21.37c2.29-.09,4.59.07,6.88.15a30.27,30.27,0,0,0,3.3,0c.69,0,1.38-.23,2.08-.24a7.72,7.72,0,0,0,1.35-.09.3.3,0,0,0,.21-.3C21.86,20.33,22,19.1,21.2,18.93ZM20.54,5.78h-1.6a7.6,7.6,0,0,0-1.66-3C18.89,2.84,19.7,4.48,20.54,5.78ZM16.48,2.83a.3.3,0,0,0,.14.18,3.2,3.2,0,0,1,1,1.31,11.5,11.5,0,0,1,.68,1.47l-2,0s0,0,0,0a11.32,11.32,0,0,1-.57-2.88Zm-1.69-.56c-.73,0-1.46-.1-2.18-.16,0-.15,0-.31,0-.47a25,25,0,0,1,3.24.06,1.18,1.18,0,0,1-.08.54C15.4,2.26,15.09,2.28,14.79,2.27Zm.91,3.55-1.9,0v-3c.45,0,.89.06,1.34.07A12.24,12.24,0,0,0,15.7,5.82ZM13.11.64A10.42,10.42,0,0,1,15.7.88a2.23,2.23,0,0,0,0,.23,27.25,27.25,0,0,0-3.13-.06A.56.56,0,0,1,13.11.64ZM11.93,4.92a15.51,15.51,0,0,1,.15-2.26l1.13.11V5.84H11.8A2.87,2.87,0,0,0,11.93,4.92ZM10.1,2.5l.62,0,.77.07c-.08.53-.06,1.08-.12,1.62s.11,1.21-.22,1.56c0,0,0,0,0,.06H9.45a12,12,0,0,1,.43-1.67A8.69,8.69,0,0,0,10.1,2.5Zm-2.36,0c.59,0,1.19,0,1.77,0a10.34,10.34,0,0,1-.26,1.83c-.09.42-.29.9-.37,1.34a.51.51,0,0,0,0,.13v.07l-2,0a10.77,10.77,0,0,0,.41-1.29,10.44,10.44,0,0,0,.51-2.07S7.74,2.48,7.74,2.46Zm-2,.1c.46,0,.93-.06,1.4-.08a10.64,10.64,0,0,1-.43,1.75,6.77,6.77,0,0,1-.49,1.48.38.38,0,0,0,0,.17L4,5.91A6.41,6.41,0,0,1,5,4.14a3.44,3.44,0,0,0,.77-1.55ZM1.07,5.8l.21-.18c.37-.33.72-.7,1.08-1C3.19,3.73,3.5,2.8,4.85,2.64l.3,0a5.08,5.08,0,0,1-.9,1.56,5.74,5.74,0,0,0-.83,1.75h0C2.87,5.92,1.87,5.76,1.07,5.8Zm.72.71h2.1c2.08,0,4.17-.08,6.26-.07,3.41,0,6.82-.05,10.22-.07-.05,2,.23,4,.23,6v3.32a10.74,10.74,0,0,1,0,3.15c-.34,0-.68,0-1,.05-1.33.07-2.69,0-4,0l-2.32,0v-.09a.07.07,0,0,0,0,0c0-.85-.15-1.68-.25-2.52-.07-.66,0-1.33-.07-2-.2-1.13-1-1.12-2-1.1-.75,0-2.11,0-2.42.89a4.57,4.57,0,0,0-.06,2.05A20.34,20.34,0,0,1,8.49,19q-3.36.12-6.72.35c-.05-4.27.39-8.68-.26-12.91ZM9,15.73c-.08-.63-.22-1.51.54-1.81a4.16,4.16,0,0,1,1.41-.15c.44,0,1.15-.16,1.34.46a4.81,4.81,0,0,1,.05,1.42c0,1.1.26,2.18.3,3.28q-1.77,0-3.54.09A22.61,22.61,0,0,0,9,15.73ZM21.27,20.4c0,.42-.36.4-.74.34a.29.29,0,0,0-.17-.06h-.29a.28.28,0,0,0-.13,0c-.58.05-1.18.17-1.75.22a29.55,29.55,0,0,1-3.88,0,59.43,59.43,0,0,0-7.55-.07c-1.17.11-2.36.05-3.54.14a5,5,0,0,0-1.59.24A7,7,0,0,0,1.53,20q5.57-.39,11.15-.48c1.91,0,3.83,0,5.74,0,.71,0,1.39,0,2.09,0C21.08,19.61,21.33,19.93,21.27,20.4Z"/><path class="cls-1" d="M12.48,10.27a6.8,6.8,0,0,0-.19-2c-.22-.63-1-.6-1.53-.53s-1.1.09-1.64.18a.32.32,0,0,0-.21.15c-1,.07-.8,2.09-.66,2.75.29,1.39,2.77.6,3.63.57a.25.25,0,0,0,.24-.15C12.58,11.25,12.48,10.58,12.48,10.27ZM9.23,11c-.49-.1-.47-.58-.49-1,0-.18-.06-1.37.26-1.32a.29.29,0,0,0,.32-.16l.7,0a6.46,6.46,0,0,1,1.52-.13c.43.07.3,1.05.31,1.37a4,4,0,0,1,.06,1,.19.19,0,0,0-.06.07A9.63,9.63,0,0,1,9.23,11Z"/></g></g></svg>