<?xml version="1.0" encoding="utf-8"?>
<!-- Generator: Adobe Illustrator 22.0.1, SVG Export Plug-In . SVG Version: 6.00 Build 0)  -->
<svg version="1.1" id="Layer_1" xmlns="http://www.w3.org/2000/svg" xmlns:xlink="http://www.w3.org/1999/xlink" x="0px" y="0px"
	 viewBox="0 0 23.8 24.3" style="enable-background:new 0 0 23.8 24.3;" xml:space="preserve">
<style type="text/css">
	.st0{fill:#010101;}
	.st1{fill:none;stroke:#010101;stroke-width:0.5;stroke-miterlimit:10;}
</style>
<title>Asset 17</title>
<g id="Layer_2_1_">
	<g id="Layer_1-2">
		<path class="st0" d="M23,1.7c0-0.1-0.2-0.1-0.2,0c0,0-0.1,0-0.1,0.1c0,0,0,0.1,0,0.1c-0.1,0-0.2,0.1-0.3,0.1
			c-0.2-0.1-0.4,0.1-0.3,0.3c0.3,0.5-0.3,1.4-0.9,1.4S20.9,3.2,21,3c0-0.2,0.1-0.3,0.2-0.5c0.1-0.1,0.1-0.1,0.3-0.1
			c0.1,0,0.1,0,0.1-0.1c0,0,0-0.1,0-0.1c0,0,0-0.1,0-0.1C21.7,1.5,20.2,1.9,20,2c-0.1,0-0.1,0.1-0.1,0.2c0,0,0,0,0,0
			c-0.1,0-0.1,0.1,0,0.2c0.2,0.9-0.7,1.4-1.5,1.3c-0.4,0-0.7-0.4-0.7-0.7c0-0.4,0.3-0.6,0.6-0.7c0.1,0,0.1-0.1,0-0.2c0,0,0,0,0,0
			h-0.1c0,0,0-0.1,0-0.1c-0.2-0.2-0.5-0.3-0.8-0.3c-0.3,0-0.6,0-0.9,0c-0.1,0-0.3,0-0.4,0c-0.1,0-0.1,0.1-0.1,0.1
			c-0.1,0-0.2,0.1-0.1,0.3c0,0,0,0,0,0c0.3,0.6-0.8,0.9-1.1,1c-0.3,0-0.6,0-0.8-0.2c-0.7-0.3-0.3-1.2,0.3-1.3c0.1,0,0.1-0.1,0.1-0.1
			c0,0,0,0,0,0c0,0,0-0.1-0.1-0.1c-0.4-0.2-0.9-0.3-1.3-0.2c-0.1,0-0.2,0-0.4,0c-0.1,0-0.1,0.1-0.1,0.1c0,0,0,0.1,0,0.1
			c0,0.7-0.6,1-1.2,0.9c-0.4,0-0.8-0.3-0.7-0.7s0.5-0.5,0.9-0.5c0.1,0,0.1-0.1,0.1-0.2c0,0-0.1-0.1-0.1-0.1l0,0
			c-0.1-0.2-0.3-0.3-0.5-0.3c-0.2-0.1-0.5-0.1-0.7-0.2c-0.1,0-0.2,0-0.3,0.1c0,0.1,0,0.1,0,0.2C9.9,1,9.8,1.2,9.7,1.5
			C9.5,1.8,9.2,1.9,8.8,1.8C8.4,1.8,8.5,1.4,8.7,1.1c0.1-0.2,0.2-0.3,0.4-0.4c0,0,0.1,0,0.1,0l0.2-0.1c0,0,0.1-0.1,0-0.1
			c0,0,0,0,0,0c-0.1,0-0.1,0-0.2,0c0-0.1-0.1-0.1-0.2-0.1H8.9l0,0C8.6,0.1,8.4,0.1,8.1,0.1c-0.1,0-0.2,0-0.2,0
			C7.8-0.1,7.4,0,7.4,0.2C7.1,3.8,5.8,7,5,10.4c-0.9,3.2-2.6,6.2-4.8,8.7c-0.1,0.1-0.1,0.2-0.1,0.4c-0.2,0.1-0.2,0.4,0,0.5
			c0.5,0.1,1,0.3,1.4,0.6c0.5,0.2,1,0.4,1.6,0.6c1.6,0.6,3.2,1,4.9,1.4c1.7,0.4,3.4,0.9,5.2,1.3c1.4,0.2,2.8,0.4,4.2,0.4
			c0.1,0,0.1,0,0.2,0h0.2c0.2,0,0.3-0.1,0.3-0.3c0-0.1,0-0.1,0-0.2c2.2-3,2.7-6.8,4-10.3C23.4,9.9,24.6,5.5,23,1.7z M19.7,18.7
			c-0.5,1.8-1.3,3.5-2.4,5c-1.5,0-3-0.2-4.5-0.4C11.1,23,9.4,22.5,7.6,22c-1.5-0.3-2.9-0.8-4.3-1.3C2.6,20.5,2,20.3,1.4,20
			c-0.2-0.1-0.4-0.2-0.6-0.3c2.1-2.5,3.7-5.4,4.7-8.5c1.2-3.4,2-7,2.5-10.6l0.1,0l0.2,0.1c0.1,0,0.3,0.1,0.4,0.1
			C8.5,0.7,8.4,0.8,8.4,0.9c-0.3,0.3-0.3,0.9,0,1.2c0.4,0.3,0.9,0.3,1.3,0.1c0.5-0.3,0.7-0.8,0.7-1.3L10.7,1
			c-0.5,0.2-0.6,0.8-0.4,1.2c0.1,0.2,0.2,0.3,0.4,0.4c0.8,0.4,2.3-0.1,2.2-1.1H13l0,0l0,0c0.2,0.1,0.3,0.1,0.5,0.1
			c-0.2,0.2-0.3,0.5-0.3,0.9c0,0.6,0.7,1,1.2,1c0.7,0,2.2-0.6,1.9-1.5c0.2,0,0.5,0.1,0.7,0.2l0.5,0.1c-0.1,0.1-0.2,0.3-0.2,0.4
			c-0.2,0.5,0.1,1.1,0.6,1.3c0,0,0,0,0,0c0.8,0.4,1.8,0,2.2-0.8c0.1-0.3,0.2-0.6,0.1-0.9c0.2,0,0.4,0,0.6,0h0.1
			c-0.1,0.1-0.1,0.2-0.2,0.3c-0.3,0.4-0.3,1,0.1,1.4c0.5,0.3,1-0.1,1.3-0.4c0.3-0.3,0.5-0.8,0.4-1.3c0.1,0,0.2,0,0.3,0
			c0,0.1,0,0.2,0.1,0.4c0.1,0.6,0.2,1.3,0.2,1.9c0.1,1.1,0,2.2-0.1,3.3c-0.3,1.9-0.9,3.7-1.6,5.5C20.7,15.2,20.2,16.9,19.7,18.7z"/>
		<path class="st1" d="M9.3,7.5c0.3-0.7,0.6-1.3,1.1-1.8c0.1-0.2,0.3-0.3,0.5-0.3s0.4,0.3,0.5,0.6c0.1,0.6,0,1.2-0.2,1.8
			c-0.1,0.2-0.2,0.5-0.1,0.8c0.2,0.2,0.5,0.3,0.8,0.1c0,0,0,0,0,0c0.2-0.2,0.4-0.5,0.5-0.8c0-0.3,0.3,0.5,0.6,0.4
			c0.3-0.1,0.5-0.3,0.7-0.6c0.4-0.2,0.3,0.5,0.6,0.5c0.3-0.1,0.6-0.2,0.9-0.3c0.3-0.2,0.6-0.2,0.9,0c0.3,0.2,0.3,0.6,0.6,0.8
			c0.3,0.2,0.8,0.3,1.2,0.2c0.4-0.1,0.9-0.1,1.1,0.3"/>
		<path class="st1" d="M9.1,9.9C9.3,9.6,9.8,9.8,9.9,10s0.2,0.6,0.3,0.9c0.3,0.5,1,0.8,1.6,0.6c0.6-0.2,1.1-0.5,1.6-0.9
			c0,0.4,0.3,0.8,0.7,0.9c0.4,0.2,0.7,0.3,1.1,0.3c0.9,0.2,1.7,0.3,2.6,0.4"/>
		<path class="st1" d="M5.9,16.4c0,0.3,0.4,0.3,0.6,0.3c0.2-0.1,0.5-0.2,0.7-0.3c0.6-0.1,0.9,0.8,1.5,1c0.5,0.1,1,0,1.4-0.2
			c0.4-0.2,0.9-0.2,1.3,0.1c0.2,0.2,0.3,0.5,0.5,0.5s0.4-0.1,0.6-0.1s0.3,0.3,0.4,0.5c0.5,0.4,1.2-0.4,1.8-0.1"/>
	</g>
</g>
</svg>
