<?xml version="1.0" encoding="utf-8"?>
<!-- Generator: Adobe Illustrator 22.0.1, SVG Export Plug-In . SVG Version: 6.00 Build 0)  -->
<svg version="1.1" id="Layer_1" xmlns="http://www.w3.org/2000/svg" xmlns:xlink="http://www.w3.org/1999/xlink" x="0px" y="0px"
	 viewBox="0 0 30 30" style="enable-background:new 0 0 30 30;" xml:space="preserve">
<style type="text/css">
	.st0{fill:#010101;}
</style>
<title>Asset 12</title>
<g id="Layer_2_1_">
	<g id="Layer_1-2">
		<path class="st0" d="M25.1,25c-0.1-1,0.1-2,0.1-3c0-1.9-0.3-3.7-0.2-5.6c0.1-1.1-0.3-2.1-1.1-2.8c-0.9-0.6-2.3-0.3-3.3-0.3
			c-0.1,0-0.2,0-0.2,0.1c0-0.5-0.1-1.1-0.2-1.6c-0.2-1.2-1.2-2.1-2.4-2c-2.4-0.2-6.1-0.7-7.8,1.3l0,0c-0.1,0-0.2,0.1-0.2,0.3
			c0,0.9,0.1,1.7,0.3,2.6c0-0.1-0.1-0.1-0.1-0.1C8.8,14,5.2,13,5,15.1c0,1.2,0.3,2.3,0.1,3.5c-0.1,1-0.3,2.1-0.4,3.1
			c0,1.2,0,2.4,0.1,3.6c-0.1,0.8-0.1,1.7,0,2.5c0.3,1.4,1.5,1.8,2.7,2c1.9,0.3,3.8,0.3,5.6,0.1c2.6-0.3,1.9-3.3,1.7-5.1h1
			c0.2,2,0.6,4.4,3,4.7c1.5,0.2,3.1,0.2,4.7-0.1c1-0.1,1.8-1,1.8-2C25.3,26.6,25.2,25.8,25.1,25z M20.3,17.1c0-0.8,0-1.6,0-2.4h0.1
			c0.6,0,1.2,0,1.7,0.1c1.3,0.3,1.4,1.4,1.5,2.5c0.2,2,0.2,4,0.1,5.9c0,0.9,0,1.9,0.1,2.8c0.1,1.5-1.9,1.1-2.7,1.1H18
			c-0.5,0-0.6-1.8-0.7-2.1v-0.1c0.4,0,0.8,0,1.3-0.1c0.9-0.1,1.6-0.7,1.9-1.6C20.9,21.3,20.4,19,20.3,17.1z M21.1,28.1
			c-0.1,0-0.1,0.1-0.2,0.1c-0.2,0.1-0.3,0.1-0.5,0l0,0l0,0C20.6,28.1,20.9,28,21.1,28.1L21.1,28.1z M12.2,29.4
			c-1.3,0-2.6-0.1-3.8-0.1c-1,0-2.5-0.2-3-1.3c-0.1-0.7-0.1-1.5,0-2.2c-0.1-1.7-0.1-3.3,0-5c0.2-1.3,0.3-2.6,0.2-3.9
			c0-0.7-0.3-1.7,0.1-2.2s1.2-0.4,1.7-0.3c0.9,0,1.7,0.2,2.6,0.1c0.1,0,0.2-0.1,0.2-0.2v0.2c0.1,1.3,0.1,2.6-0.1,3.8
			c-0.1,1-0.1,2,0,3.1c0.1,0.8,0.1,1.7,0,2.5l0,0v0.6c0.9,0.5,2,0.7,3,0.5c0,0.5,0.3,2.8-0.3,2.8c-1,0-2.1-0.1-3.1-0.1
			c-0.8,0-1.6,0-2.4-0.1c-1.3-0.3-0.8-2-0.8-3c0-2.1,0.1-4.2,0.3-6.3c0-0.3,0-2.7,0.3-2.7c1-0.1,2-0.2,3-0.2c0.3,0,0.3-0.5,0-0.5
			c-1.2-0.1-2.3,0.1-3.4,0.2c-0.1,0-0.3,0.1-0.3,0.3c0,2-0.2,3.9-0.3,5.8C6,22.2,6,23.1,6,24.1c-0.1,0.9-0.1,1.8,0,2.7
			c0.3,0.9,1,1.2,1.9,1.3c1.8,0.2,3.8,0.2,5.6,0.2c0.1,0,0.2-0.1,0.3-0.2c0.1-1.1,0.1-2.1,0-3.2l0.7-0.1c0.1,0.8,0.2,1.5,0.2,2.3
			C14.7,28.8,13.9,29.4,12.2,29.4L12.2,29.4z M14.7,24.3c-1.4,0.1-2.8,0.4-4-0.2l0,0c0.1-0.7,0.1-1.3,0-2c-0.1-1.4-0.1-2.8,0-4.2
			c0.1-1,0.1-2,0.1-3c-0.1-1.1-0.4-2.2-0.5-3.4c0,0,0,0,0.1,0c1.4-1.7,4.2-1.2,6.1-1.2h1.2c1.5,0,1.9,1.1,2,2.3c0.1,1.5,0,3,0.1,4.4
			c0.1,1.4,0.2,3.1,0.3,4.6c0.1,1.8-0.6,2.6-2.4,2.7C16.7,24.4,15.7,24.2,14.7,24.3z M24.1,28.7c-0.9,0.6-2.8,0.3-3.8,0.3
			c-1.5,0-2.8,0-3.4-1.6c-0.3-0.8-0.5-1.7-0.5-2.6H17c-0.1,0.1-0.1,0.2-0.1,0.3c0.2,0.7,0.4,1.5,0.5,2.2c0,0.1,0.1,0.3,0.3,0.3h2.7
			c-0.2,0.1-0.5,0.2-0.7,0.3c-0.3,0.2,0,0.7,0.3,0.5h0.1c0,0.1,0,0.2,0.1,0.2c0.4,0.4,1.8,0.2,1.6-0.5c0-0.2-0.1-0.3-0.3-0.4h0.2
			c0.7,0.1,1.5,0.1,2.2-0.2c0.4-0.3,0.6-0.9,0.5-1.4c0-1.3-0.1-2.5-0.1-3.8c0-1.3,0-2.6-0.1-3.9c0-0.9-0.1-1.8-0.4-2.7
			c-0.7-1.3-2.2-1.4-3.5-1.4h-0.1v-0.7c0,0.1,0.1,0.2,0.2,0.2c0.8,0,1.5,0,2.3,0.1c1.7,0.2,1.6,2.1,1.5,3.4c0,1.2,0,2.5,0.2,3.7
			c0.1,1.3,0,2.7,0,4C24.5,26.1,25.3,27.8,24.1,28.7L24.1,28.7z"/>
		<path class="st0" d="M19.7,20.6c-0.1-2.1-0.2-4.3-0.5-6.5c-0.1-1.3,0.1-3-1.5-3.3c-0.6-0.1-1.3-0.1-1.9,0c-1.3,0-2.6,0.1-3.9,0.3
			c-0.1-0.1-0.2,0-0.2,0.1c-0.3-0.2-0.6,0.2-0.3,0.4c0.3,0.2,0.1,1.6,0.1,1.9c0,0.8-0.1,1.6-0.1,2.4c0,0.7,0,1.4,0.1,2.1
			c0.2,1.5,0.1,3.1,0.2,4.6c0,0.1,0.1,0.3,0.3,0.3l3.6-0.1c0.9-0.1,1.7-0.1,2.6,0c0,0.1,0.2,0.2,0.3,0.2
			C19.7,22.7,19.8,21.7,19.7,20.6z M18.5,22.4L18.5,22.4c-0.4-0.2-0.9-0.2-1.4-0.2l-3.2,0.1c-0.5,0-1,0-1.6,0
			c-0.6,0-0.3-1.2-0.3-1.5c0-1.3-0.1-2.6-0.3-3.8c0-1.1,0-2.2,0.1-3.3c0.1-0.7,0.1-1.3,0-2c0.1,0,0.2-0.1,0.2-0.2c0,0,3.6-0.1,4-0.1
			c0.9,0,2.3-0.4,2.4,1.1c0.2,0.6,0.3,1.4,0.4,2.1C19,16,18.9,17.5,19,19C19.1,19.9,19.7,21.9,18.5,22.4L18.5,22.4z"/>
		<path class="st0" d="M15.2,22.9c-0.4,0-0.8,0.1-1.1,0.3c-0.1,0.1-0.1,0.3,0,0.4c0,0,0.1,0.1,0.2,0.1c0,0.1,0,0.1,0.1,0.1
			c0.4,0.5,1.6,0.6,1.7-0.2C16,23.1,15.5,22.9,15.2,22.9z M15.3,23.6c-0.1,0-0.2,0-0.3,0s-0.3-0.1-0.4-0.2
			C15,23.4,15.4,23.4,15.3,23.6C15.4,23.6,15.4,23.6,15.3,23.6z"/>
		<path class="st0" d="M10.3,28.6c0-0.1-0.1-0.2-0.2-0.2c-0.2-0.1-0.4-0.1-0.6-0.1c-0.1,0-0.2,0.1-0.2,0.2l0,0
			c-0.2-0.1-0.5,0-0.4,0.3c0.1,0.3,0.5,0.5,0.8,0.5C10,29.3,10.3,29.1,10.3,28.6C10.3,28.7,10.3,28.7,10.3,28.6z"/>
	</g>
</g>
</svg>
