<?xml version="1.0" encoding="utf-8"?>
<!-- Generator: Adobe Illustrator 22.0.1, SVG Export Plug-In . SVG Version: 6.00 Build 0)  -->
<svg version="1.1" id="Layer_1" xmlns="http://www.w3.org/2000/svg" xmlns:xlink="http://www.w3.org/1999/xlink" x="0px" y="0px"
	 viewBox="0 0 28.1 11.9" style="enable-background:new 0 0 28.1 11.9;" xml:space="preserve">
<style type="text/css">
	.st0{fill:#010101;}
</style>
<title>Asset 18</title>
<g id="Layer_2_1_">
	<g id="Layer_1-2">
		<path class="st0" d="M28,8.5c-0.2-0.8-0.6-1.5-1-2.2c0,0,0-0.1,0-0.2c0-0.1-0.1-0.3-0.2-0.3c0,0,0,0,0,0c-2.3,0.1-4.6-0.1-6.9-0.1
			c0-0.6-0.2-1.3-0.4-1.9c-0.3-1.2-0.5-3.4-1.9-3.8C16.8,0,16,0,15.1,0.3c-1.3,0.2-2.7,0.2-4,0.1c-1,0-3,0.4-3.4,1.5
			c0,0.1,0,0.2,0.1,0.2c-0.1,0-0.3,0.1-0.3,0.2c0,0,0,0,0,0c0,1,0,2.1,0.1,3.1C6.4,5.2,5,5.9,3.7,6C3,6,2.4,5.7,1.7,6.2
			C1.3,6.4,0.9,6.7,0.6,7H0.4C0.3,7,0.2,7.1,0.3,7.2c0,0,0,0,0,0C0.1,7.3,0,7.4,0,7.5c0,0,0,0,0,0.1c0.2,1.3,0.4,2.7,0.4,4.1
			c0,0.1,0.1,0.3,0.3,0.3c0.1,0,0.2-0.1,0.2-0.1h0.1c1.6,0,3.3-0.3,5-0.4c2.2-0.1,4.4,0,6.7,0s4.6-0.1,6.9-0.3s4.4-0.6,6.6-0.6
			c0.1,0,0.2-0.1,0.2-0.1c0.1,0,0.3-0.1,0.3-0.2c0,0,0,0,0,0l0,0l0.1-0.1c0.4-0.5,0.8-0.9,1.4-1.3C28.1,8.7,28.1,8.6,28,8.5z
			 M9.2,1.4C9.9,1,10.7,0.9,11.5,1c1.4,0.1,2.8,0,4.1-0.3c0.7-0.1,1.9-0.5,2.4,0.3c0.3,0.6,0.6,1.3,0.7,1.9c0.4,1.4,1.2,3.2-0.1,4.3
			c-0.1-1.3-0.4-2.6-0.6-3.8c-0.1-0.7-0.2-1.4-0.9-1.8c-0.9-0.5-2.4-0.1-3.3-0.1c-1.7,0.1-3.4,0.1-5.1,0.2C8.9,1.6,9.1,1.5,9.2,1.4z
			 M4,6.5c1.2,0,2.7-0.8,3.8-0.3l0,0C7.8,6.4,7.9,6.6,8,6.8C5.8,6.8,3.6,6.8,1.3,6.9C2,6.3,3.2,6.5,4,6.5z M26,10
			c-2,0.1-4.1,0.2-6.1,0.5c-2.3,0.2-4.6,0.4-6.9,0.4c-2.2,0-4.5,0-6.7,0c-1,0-2.1,0-3.1,0.1c-0.7,0.1-1.6,0.2-2.3,0.2
			c0-1.2-0.1-2.4-0.4-3.6c0,0,0.1,0,0.1,0h0.1C0.9,7.6,1,7.5,1,7.4c2.4-0.2,4.8-0.2,7.3-0.1c0.1,0,0.3-0.1,0.3-0.3c0,0,0-0.1,0-0.1
			c0-0.1,0-0.2,0-0.2C8.1,5.4,7.9,3.9,8,2.5c0,0,0-0.1,0-0.1c0.1,0,0.2,0,0.3-0.1c0,0,0,0,0,0c2.6,0,5.3-0.3,7.9-0.3
			c1.1,0,1.2,0.6,1.4,1.5c0.3,1.4,0.6,2.8,0.7,4.3c0,0.1,0.1,0.3,0.3,0.3c1.2,0,2.4-0.1,3.5-0.1c0.7,0,3.4-0.3,3.9,0.4l0,0
			c-0.1,0.1-0.2,0.2-0.1,0.4c0,0,0.1,0.1,0.1,0.1l0,0c0,0,0,0.1,0,0.1C26,9,26,9.2,26,9.3C26,9.5,26,9.7,26,10L26,10z M25.7,7.6
			c-0.8-0.2-1.7-0.3-2.5-0.2c-1.4,0-2.7,0.1-4.1,0.1c0.4-0.3,0.6-0.8,0.7-1.3c2.2,0,4.3,0.2,6.5,0.1l0,0l0,0
			C26.1,6.8,25.9,7.2,25.7,7.6L25.7,7.6z M26.5,9.4c0-0.1,0-0.2,0-0.2c0-0.2-0.1-0.5-0.3-0.7c0.1,0,0.2-0.2,0.2-0.3
			c0-0.1,0-0.1-0.1-0.1c-0.1-0.1-0.1-0.2-0.2-0.2c0.2-0.3,0.4-0.7,0.6-1c0.3,0.5,0.6,1,0.8,1.6C27.1,8.6,26.8,9,26.5,9.4L26.5,9.4z"
			/>
	</g>
</g>
</svg>
