<?xml version="1.0" encoding="utf-8"?>
<!-- Generator: Adobe Illustrator 22.0.1, SVG Export Plug-In . SVG Version: 6.00 Build 0)  -->
<svg version="1.1" id="Layer_1" xmlns="http://www.w3.org/2000/svg" xmlns:xlink="http://www.w3.org/1999/xlink" x="0px" y="0px"
	 viewBox="0 0 30.8 29.8" style="enable-background:new 0 0 30.8 29.8;" xml:space="preserve">
<style type="text/css">
	.st0{fill:#FFFFFF;}
</style>
<title>Asset 15</title>
<g id="Layer_2_1_">
	<g id="Layer_1-2">
		<path class="st0" d="M30.3,1.4c0.4-0.3,0.8-1,0.3-1.3c-0.2-0.2-0.5-0.2-0.7,0c0,0,0,0,0,0.1c-0.1,0.1-0.2,0.3-0.1,0.5
			c-0.3-0.2-0.7-0.3-1.1-0.2h0h-0.1l0,0c0,0-0.1,0-0.1,0c0,0-0.1,0-0.1,0c-0.3,0.2-0.6,0.4-0.8,0.7c-0.8,0.8-1.6,1.6-2.3,2.5
			c-1.3,1.6-2.5,3.4-3.7,5.1c-0.1,0-0.3,0-0.4,0c-0.2,0.1-0.5,0.2-0.7,0.3c-0.6,0.3-1.2,0.8-1.7,1.1c0,0-0.1,0-0.1,0.1
			c-1.8-0.7-3.9-0.8-5.7-0.1c-5,1.5-10.5,4.6-12.4,9.6C0.1,20.1,0,20.5,0,20.9l0,0C0,21,0,21,0,21v0.4c0,0.1,0,0.2,0,0.3
			c0,1.5,0.5,3,1.5,4.1c0.2,0.3,0.5,0.5,0.8,0.7c0.5,0.7,1.2,1.3,2,1.6c1.3,0.7,2.7,1.2,4.1,1.5c1.3,0.3,2.6-0.3,3.8-0.9
			c1.5-0.7,3-1.3,4.5-1.9c2.7-1.1,4.7-3.4,5.4-6.2c0.3-1.3,0.3-2.7,0-4c-0.1-0.8-0.2-1.6-0.5-2.4c0.4-0.6,0.4-1.4,0.7-2
			s0.8-1.3,0.5-1.9c0.1,0,0.1-0.1,0.1-0.1c1.7-2.6,5.3-3.5,6.8-6.3c0.1-0.2,0.2-0.4,0.3-0.7C30.5,2.8,30.5,2.1,30.3,1.4z M1.1,24.1
			c-0.6-1.1-0.7-2.4-0.3-3.6c0,0,0-0.1,0-0.1c0.6-1.8,1.7-3.5,3.1-4.8c1.9-1.6,4-2.9,6.3-3.9c2.4-1.1,5.1-2.1,7.8-1.3
			c1.7,0.6,2.9,2.3,2.7,4.1c0,0.2-0.1,0.5-0.1,0.7c-0.7-1.3-2-1.4-3.6-1.6c-2.4-0.2-4.7,0.3-6.8,1.4c-2.2,1.2-4,2.9-5.3,4.9
			c-0.6,0.9-1,2-1.1,3.1c0,1.1,0.2,2.2,0.6,3.3l0,0C2.7,26.4,1.6,25.4,1.1,24.1z M20.3,16.1c-0.1,0.7-0.3,1.4-0.5,2
			c-0.5,1.2-1.2,2.4-2.1,3.3c-0.4,0.5-0.7,1-1.1,1.5c-0.6,0.6-1.3,1.2-2.1,1.6c-0.9,0.4-1.9,0.7-2.8,1c-1.1,0.4-2.3,0.8-3.5,1.1
			C7.1,27,5.8,27,4.5,26.7c-0.3-1-0.4-1.9-0.5-2.9c0.1-1.2,0.5-2.4,1.1-3.4c1.1-1.8,2.7-3.3,4.5-4.4c1.7-1.1,3.6-1.7,5.7-1.8
			c1,0,2.1,0,3.1,0.2c0.9,0.1,1.6,0.7,1.8,1.6C20.2,16,20.3,16.1,20.3,16.1L20.3,16.1z M21.8,17.7c0.2,1.2,0.1,2.5-0.3,3.7
			c-0.8,2.8-3.2,4.5-5.8,5.5c-0.9,0.4-1.8,0.7-2.7,1.1c-1.4,0.6-3,1.7-4.6,1.4c-1.2-0.3-2.4-0.7-3.5-1.2c-0.9-0.3-1.7-0.8-2.3-1.5
			c0,0,0.1,0,0.1,0.1c1.3,0.6,2.8,0.8,4.2,0.7c2.6-0.1,5.1-0.9,7.3-2.2c1.2-0.4,2.3-1.1,3-2.2c0.8-1.2,1.8-2.3,2.6-3.5
			s1.1-3.3,1.3-4.8l0,0C21.5,15.6,21.7,16.6,21.8,17.7L21.8,17.7z M21.8,12.5c-0.1,0.2-0.1,0.4-0.2,0.5c-0.1,0.3-0.3,0.6-0.3,0.9
			c-0.1-0.1-0.2-0.1-0.3-0.2c-0.1-0.8-0.4-1.6-1-2.3c-0.3-0.3-0.6-0.6-0.9-0.8c0.4-0.2,0.8-0.4,1.2-0.7c0.8-0.5,1.2-0.2,1.8,0.3
			S22,11.8,21.8,12.5L21.8,12.5z M22.3,9.6c-0.2-0.2-0.4-0.5-0.6-0.6c1.2-1.3,2.3-2.7,3.3-4.2c0.7-1,1.5-1.9,2.4-2.8
			c0.2-0.2,0.4-0.4,0.6-0.6c0-0.1,0.1-0.1,0.1-0.2h0.1c0,0,0.1,0,0.1-0.1c0.1,0,0.1,0,0.2,0c0.8-0.3,1.1,0.7,1.2,1.3
			c0,0.6-0.2,1.1-0.4,1.6l0,0L29,4.3c-0.7,0.8-1.4,1.5-2.3,2.1l-1.3,1C24.4,8.1,23.4,9,22.6,10C22.5,9.9,22.4,9.7,22.3,9.6L22.3,9.6
			z M30.1,1.1C30.1,1.1,30,1,30,1l0,0c0-0.1,0-0.3,0-0.4c0-0.2,0.2-0.3,0.4-0.2S30.3,1,30.1,1.1z"/>
		<path class="st0" d="M19.2,12.6c0.1,0,0.2,0,0.2-0.1s0.1-0.3,0.1-0.4c0-0.1,0-0.2-0.1-0.2c0,0,0,0,0,0c-0.1,0-0.2,0.1-0.3,0.2
			c-0.1,0-0.1,0-0.1,0.1c0,0,0,0,0,0C18.8,12.4,18.9,12.6,19.2,12.6z"/>
		<path class="st0" d="M20,13.8c0,0,0.1,0,0.1,0c0.1,0,0.1-0.1,0.1-0.1c0-0.1,0-0.1,0-0.2c0-0.1-0.1-0.1-0.2-0.1
			c-0.1,0-0.1,0.1-0.1,0.1v0.2C19.9,13.8,20,13.8,20,13.8z"/>
	</g>
</g>
</svg>
