<?xml version="1.0" encoding="utf-8"?>
<!-- Generator: Adobe Illustrator 22.0.1, SVG Export Plug-In . SVG Version: 6.00 Build 0)  -->
<svg version="1.1" id="Layer_1" xmlns="http://www.w3.org/2000/svg" xmlns:xlink="http://www.w3.org/1999/xlink" x="0px" y="0px"
	 viewBox="0 0 17.7 21.6" style="enable-background:new 0 0 17.7 21.6;" xml:space="preserve">
<style type="text/css">
	.st0{fill:#FFFFFF;}
</style>
<title>Asset 3</title>
<g id="Layer_2_1_">
	<g id="Layer_1-2">
		<path class="st0" d="M17.1,16.5c-0.6-0.4-1.4-0.5-2.1-0.4c-1.5,0.2-2.9-0.7-3.4-2.1c0.2-0.2,0.4-0.4,0.6-0.6
			c1.2,0.3,3.5,0.5,4.3-0.5c0.4-0.5,0.5-1.2,0.2-1.7c-0.4-1.2-0.2-2.7-0.2-4C16.5,6,16.4,4.9,16,3.8c-0.3-0.9-0.9-1.6-1.6-2.2
			c-1.1-1.1-2.7-1.4-4.1-0.9c-1.6-0.9-3.6-0.9-5.2,0c-1.9,1-3.3,2.9-3.7,5c-0.2,1.4-0.6,2.8-1,4.2C0,10.5-0.1,11.3,0.2,12
			c0.9,1.7,3.7,2.2,5.5,1.8c0.2,0.2,0.5,0.4,0.8,0.6c-0.1,0.8-0.2,1.5-1,1.9c-0.6,0.2-1.2,0.3-1.8,0.3C3,16.7,2.4,17,2,17.4
			c-0.5,0.5-0.5,1.2-0.1,1.7C2,19.3,2,19.3,2.1,19.4c0.9,0.7,2,1.2,3.1,1.4c1.6,0.6,3.4,0.9,5.1,0.9c1.5-0.1,3-0.5,4.4-1.3
			c1.1-0.4,2.1-1.1,2.8-2c0.4-0.5,0.4-1.3-0.2-1.7C17.3,16.6,17.2,16.5,17.1,16.5z M10.6,1.1c1.5-0.9,3.3,0.4,4.3,1.6
			c1.2,1.5,1.1,3.2,1.2,5c-0.1,1.3,0,2.7,0.3,4c0.6,1.7-2.5,1.5-3.8,1.3l0.1-0.1c0.2-0.4,0.4-0.8,0.6-1.2c0.1,0.1,0.1,0.1,0.2,0.1
			c0.4,0.2,0.8,0.2,1.2-0.1c0.3-0.3,0.3-0.9,0-1.2c-0.3-0.3-0.6-0.4-1-0.4c0.1-1.3,0.2-2.6,0.1-3.9l0,0c0-0.3-0.2-0.5-0.4-0.8
			c-0.2-0.3-0.5-0.6-0.8-0.9c-0.5-0.6-1.2-0.9-2-0.9c0-0.7-0.2-1.5-0.2-2.2C10.5,1.3,10.5,1.2,10.6,1.1z M13.4,11
			c0-0.1,0.1-0.3,0.1-0.5c0.4,0,1,0.2,0.8,0.6c-0.1,0.2-0.2,0.2-0.4,0.2c-0.1,0-0.2-0.1-0.3-0.1h-0.1C13.6,11.1,13.5,11.1,13.4,11z
			 M0.6,10.6c0.1-0.7,0.5-1.3,0.7-2c0.3-0.9,0.4-2,0.6-2.9c0.3-1.9,1.5-3.5,3.2-4.5c1.4-0.9,3.2-1,4.7-0.2c0,0.8,0.2,1.6,0.3,2.5
			C8.5,3.3,6.9,3.5,5.4,4c-0.9,0.4-2,1.2-2.1,2.2c0,0.2,0.1,0.3,0.3,0.3c0,0,0,0,0,0c0,0.5,0.1,1.1,0.1,1.6c-0.1,0.1-0.1,0.2,0,0.3
			c0.1,0.7,0.2,1.5,0.4,2.2c-0.6-0.1-1.5,0.6-1.2,1.3c0.4,0.6,1.1,0.7,1.7,0.4c0,0,0,0,0,0c0.2,0.4,0.4,0.7,0.6,1
			C3.5,13.6,0.1,12.9,0.6,10.6z M4.3,11.4l0.2,0.4c-0.1,0.3-0.8,0.2-1,0C3.1,11.5,4,11.2,4,11.2C4,11.4,4.2,11.4,4.3,11.4z
			 M4.9,11.9c0-0.1,0-0.1,0-0.2c0-0.1-0.1-0.2-0.2-0.2c0,0,0,0,0,0C4.3,9.8,4.1,8,4.1,6.2C4.1,6.1,4,6,3.9,6
			c0.3-0.9,1.6-1.5,2.4-1.8C7.7,3.9,9,3.8,10.4,4h0.1c0.6,0,1.3,0.2,1.7,0.7c0.2,0.2,0.4,0.4,0.6,0.7c0.1,0.1,0.3,0.4,0.4,0.6
			c-0.1,0.1-0.1,0.3,0,0.4c0,0,0,0,0,0c0.2,1.8,0,3.7-0.6,5.4c-0.2,0.5-0.4,0.9-0.7,1.3v0.1c-0.9,1.1-2.3,1.7-3.7,1.6
			C6.7,14.4,5.4,13.4,4.9,11.9z M6.9,14.7c0.5,0.2,1,0.4,1.5,0.4c1,0.1,2-0.2,2.7-0.7c0.5,0.9,1.3,2.1,2.4,2.2h0.1
			c0,0.1,0,0.1,0,0.2c-0.3,0.6-0.8,1.1-1.3,1.5c-0.9,0.6-2,0.9-3.1,0.9c-1.6,0.1-4-0.2-4.4-2.1l0,0L5.2,17
			C6.2,16.7,6.9,15.7,6.9,14.7L6.9,14.7z M16.9,18.2c-1.5,1.9-4.9,2.9-7.2,2.9c-2.5,0-5-0.7-7.2-2c-0.6-0.4-0.7-0.9-0.1-1.4
			c0.6-0.4,1.2-0.6,1.9-0.6l0,0c0.3,1.7,2,2.5,3.6,2.6c1.2,0.1,2.3,0,3.5-0.4c1.2-0.4,2.1-1.3,2.7-2.4c0-0.1,0.1-0.1,0.1-0.2
			c0.4,0,0.8,0,1.2-0.1C16.4,16.5,17.8,17.1,16.9,18.2L16.9,18.2z"/>
		<path class="st0" d="M6.7,7.3H6.5c-0.1,0-0.3,0-0.4,0.1C6.1,7.5,6,7.7,6,7.8l0,0l0,0l0,0C6,7.9,6,8,6,8l0,0l0,0l0,0l0,0h0.1
			c0.2,0.1,0.4,0.1,0.6-0.1c0.1-0.2,0.2-0.4,0.2-0.6C6.8,7.3,6.7,7.3,6.7,7.3z"/>
		<path class="st0" d="M11.3,7.4c0-0.1,0-0.2-0.1-0.3c0,0-0.1,0-0.1,0c-0.1,0-0.3,0-0.4,0.1c-0.1,0-0.3,0.1-0.3,0.2c0,0,0,0.1,0,0.1
			c0,0.1,0,0.3,0.2,0.3c0.1,0,0.1,0,0.2,0c0.1,0,0.1,0,0.2,0C11.2,7.9,11.3,7.7,11.3,7.4L11.3,7.4L11.3,7.4z"/>
		<path class="st0" d="M10.8,11.8c-0.9,1-2.4,1.1-3.4,0.3c-0.2-0.2-0.6,0.2-0.3,0.4c1.2,1.2,3,0.7,4.2-0.4
			C11.4,11.9,11,11.6,10.8,11.8z"/>
	</g>
</g>
</svg>
