<?xml version="1.0" encoding="utf-8"?>
<!-- Generator: Adobe Illustrator 22.0.1, SVG Export Plug-In . SVG Version: 6.00 Build 0)  -->
<svg version="1.1" id="Layer_1" xmlns="http://www.w3.org/2000/svg" xmlns:xlink="http://www.w3.org/1999/xlink" x="0px" y="0px"
	 viewBox="0 0 21.4 22.1" style="enable-background:new 0 0 21.4 22.1;" xml:space="preserve">
<style type="text/css">
	.st0{fill:#FFFFFF;}
</style>
<title>Asset 2</title>
<g id="Layer_2_1_">
	<g id="Layer_1-2">
		<path class="st0" d="M19.4,12.8c-0.4-0.1-0.7,0-1.1,0.1c-0.1,0-0.1,0.1-0.1,0.2c0,0.1,0.1,0.1,0.1,0.1c0.1,0,0.2,0.1,0.3,0.1
			c-0.3,0.6-0.4,1.2-0.4,1.8c0,0.1,0.1,0.2,0.2,0.2c1,0.1,1.2-1.6,1.3-2.3C19.6,12.9,19.5,12.8,19.4,12.8z M18.6,14.9
			c0-0.5,0.1-1.1,0.3-1.6h0.3C19.1,13.8,19,14.7,18.6,14.9z"/>
		<path class="st0" d="M17.4,2.5c-4.5-4-10.8-2.9-14.4,1.6C0,7.7-1.2,13.7,1.5,17.7c1.8,2.7,4.9,3.9,8,4.3c3.1,0.6,6.4-0.4,8.6-2.7
			C23,14.8,22.1,6.7,17.4,2.5z M18.7,6.5c0.3-0.1,0.4-0.4,0.5-0.7l0,0c0.6,1,1,2.1,1.2,3.3c-0.1,0-0.1,0-0.2,0.1
			c-0.1,0.2,0,0.1-0.1,0c-0.1-0.1-0.2-0.3-0.4-0.5c-0.1-0.3-0.3-0.5-0.5-0.8C19,7.6,17.8,7.1,18.7,6.5z M6,2.3c0,0,0.1-0.1,0.1-0.1
			c0.9-0.6,1.8-1,2.8-1.2l0,0C8.7,1.2,8.4,1.4,8.3,1.5l-1.1,1c-0.4,0.4-0.9,0.7-1.4,1C4.7,4,5.6,2.6,6,2.3z M1.6,8
			c0.1-0.4,0.3-0.8,0.5-1.2c0,0,0,0,0,0.1C2.1,7,2.2,7,2.3,7c0.1,0.3,0.3,0.5,0.6,0.7c0.5,0.3,0,0.7,0,1s0,0.5,0,0.8
			C2.8,9.5,2.7,9.6,2.6,9.7c0.1-0.4,0-0.8-0.2-1.2C2.3,8.4,2.1,8.4,2,8.4H1.7c-0.1,0-0.1,0,0-0.1C1.7,8.1,1.7,8.1,1.6,8
			C1.6,8,1.6,8,1.6,8z M5.8,20.3c-0.6-0.5-1.1-1.2-1.3-1.9c-0.5-1-1-1.9-1.7-2.7c-0.7-0.8-0.9-1.9-0.6-2.9c0.1-0.4,0-0.8-0.3-1
			c0.3-1.1,1.7-0.6,2.6-0.2s2.7,1.5,1.4,2.3c-0.8,0.6-1.2,1.7-0.9,2.7c0.1,0.6,0.2,1.3,0.3,1.9s0.6,1.2,0.7,1.9L5.8,20.3z M18,18.5
			L17.4,19c-0.1,0-0.2,0-0.2,0.1c0,0,0,0,0,0l0,0c-0.7,0.6-1.5,1.1-2.3,1.5c-1.7,0.6-3.5,0.8-5.2,0.5c-1.1-0.1-2.2-0.3-3.2-0.7
			C6.2,19.8,6,19,5.6,18.3C5.2,17,5,15,6.3,14.1c0.9-0.6,0.5-1.4-0.2-2.1s-4.9-2.3-4.6-0.2c-0.1,0.1-0.1,0.2,0,0.3l0,0
			c0,0,0,0.1,0,0.1c0,0,0,0.1,0.1,0.1c0.2,0.5-0.2,1.4-0.1,1.9c0.2,0.8,0.6,1.5,1.1,2.1c0.7,1,1.2,2.3,1.9,3.3
			c-1-0.7-1.9-1.5-2.5-2.5c-1.5-2.6-1.7-5.7-0.6-8.5c0.1,0.1,0.2,0.1,0.3,0.1c0.3,0,0.5,0,0.6,0.3c0.1,0.4,0.1,0.7,0,1.1
			c0,0.1,0.1,0.2,0.2,0.2c0,0,0,0,0,0c0.1,0,0.3,0,0.4-0.1l0,0c0,0.1,0.1,0.2,0.2,0.2c0.1,0,0.2-0.1,0.2-0.2c0-0.5,0.1-1.1,0.3-1.6
			c0.1-0.2,0.1-0.4,0.1-0.6C3.4,7.3,2.7,7.3,2.7,6.7c0-0.1-0.1-0.2-0.2-0.2c0-0.1,0-0.2,0.1-0.3C2.6,6,2.6,5.9,2.7,5.8
			C2.8,5.5,3,5.3,3.2,5c0.6-0.8,1.2-1.5,2-2.1C5,3.2,4.9,3.4,4.9,3.7c0,0.1,0,0.1,0.1,0.2C5.8,4,6.6,3.7,7.1,3.1
			C7.6,2.8,8,2.3,8.4,2s0.8-0.6,1-1c0,0,0-0.1,0-0.1c1.5-0.2,3-0.1,4.4,0.4c-0.6,0.5-1,1.3-1.6,1.8s-1.8,0.5-1.8,1.5
			c0,0.1,0,0.1,0.1,0.1c0,0,0,0.1,0,0.1c-0.1,0.1,0.2,0.2,0.2,0.1c0-0.1,0.1-0.1,0.1-0.2l0.3-0.1c0,0,0.1-0.1,0-0.1c0,0,0,0,0,0H11
			c0.4-0.3,0.9-0.4,1.4-0.2c0.2,0.3,0.4,0.6,0.5,0.9c0.3,0.6,1,0.9,1.6,0.8c0.2,0,0.3-0.3,0-0.4h-0.3c0,0-0.1,0-0.1,0
			c-0.5-0.1-0.8-0.3-1.1-0.9c-0.1-0.3-0.3-0.6-0.6-0.8c-0.3-0.2-0.7-0.2-1-0.1l0,0c0.4-0.2,0.7-0.3,1.1-0.5c0.8-0.5,1.1-1.4,1.9-1.8
			c0.8,0.3,1.5,0.7,2.1,1.2c0.7,0.5,1.3,1.2,1.9,1.9c-0.1,0-0.1,0-0.2,0c-0.3,0.1-0.6,0.3-0.8,0.6c-0.3,0.5-0.5,0.9-1,1.1
			c-0.2-0.1-0.4-0.2-0.7-0.2c-0.1,0-0.3,0.1-0.4,0.1c-0.5,0.3-0.8-0.2-1.2-0.1c-1,0.1-1.8,0.8-2.6,0C11,5.6,10.3,4.9,9.7,5.8
			C9.7,5.9,9.7,6,9.7,6.1C9.1,7.3,7.6,8.4,8,10s1,1.6,2.5,2c1,0.3,1.9-0.4,2.9-0.6c1.4-0.4,0.8,2.8,0.7,3.4c-0.2,1-0.3,2-0.3,3
			c0,0.1,0.1,0.2,0.2,0.2c1.4,0.3,2.1-0.8,2.5-2c0.4-0.9,0.8-1.8,1.2-2.6c0.3-0.5,0.4-1.2,0.2-1.8c0.2,0,0.4,0,0.6,0.1
			c0.1,0,0.2-0.1,0.2-0.2c0.1-1.5,0.9-2.1-0.2-3.3c-0.5-0.6-1-1.2-1.6-1.6c0.5-0.2,0.8-0.6,1-1.1c0.4-0.6,0.6-0.3,0.6,0.7
			c-0.1,0.1-0.2,0.1-0.3,0.2c-0.4,0.3-0.4,0.8-0.2,1.1c0,0,0,0,0.1,0.1c0.3,0.4,0.8,0.6,1.1,1s0.4,0.7,0.7,1s0.5,0.3,0.7,0.1
			c0.1,0.6,0.2,1.1,0.2,1.7C20.7,14,19.7,16.5,18,18.5z M17.4,11.8c0.5,1-0.7,2.1-1,3c-0.2,0.9-0.6,1.8-1.2,2.6
			c-1.2,1.3-0.9-1.2-0.8-1.6c0.1-0.7,0.2-1.4,0.3-2.1c0.2-0.8,0.1-1.6-0.3-2.4c-0.6-1-2.5,0.3-3.3,0.4c-0.5,0-1-0.1-1.4-0.3
			c-0.7-0.3-1.2-1-1.2-1.8c-0.2-1.3,1.2-2.3,1.7-3.5c0.3-0.4,1.6,1,2,1c0.5,0,0.9-0.1,1.4-0.4c0.5-0.2,0.9,0,1.4,0.1
			c0.1,0,0.2,0.1,0.2,0.1c0,0.1,0.1,0.1,0.2,0c0,0,0,0,0,0c0,0,0-0.1,0-0.1c1.1-0.3,2.1,1,2.8,1.7c0.5,0.5,0.7,1.3,0.3,1.9
			c-0.2,0.6-0.1,0.9-0.8,1l0,0c-0.1,0-0.3,0.1-0.3,0.3C17.3,11.7,17.4,11.7,17.4,11.8L17.4,11.8z"/>
	</g>
</g>
</svg>
