<?xml version="1.0" encoding="utf-8"?>
<!-- Generator: Adobe Illustrator 22.0.1, SVG Export Plug-In . SVG Version: 6.00 Build 0)  -->
<svg version="1.1" id="Layer_1" xmlns="http://www.w3.org/2000/svg" xmlns:xlink="http://www.w3.org/1999/xlink" x="0px" y="0px"
	 viewBox="0 0 22.5 14.3" style="enable-background:new 0 0 22.5 14.3;" xml:space="preserve">
<style type="text/css">
	.st0{fill:#010101;}
</style>
<title>Asset 48</title>
<g id="Layer_2_1_">
	<g id="Layer_1-2">
		<path class="st0" d="M22.5,6.3c-0.1-0.4-0.3-0.7-0.7-0.9c-0.7-0.5-1.5-1-2.1-1.6c-1.2-1.1-2.4-2.3-3.4-3.6C16.2,0,16,0,15.9,0.1
			c0,0.1-0.1,0.1-0.1,0.2v2.4c0,1-1,0.8-1.8,0.9c-1.6,0.1-3.3,0.2-5,0.2S5.8,3.9,4.2,3.8c-0.6,0-1.2,0-1.7-0.1H2.2l0,0
			C2,3,1.9,2.2,1.9,1.5c0,0,0-0.1,0-0.1c0-0.1-0.2-0.2-0.3-0.2c0,0-0.1,0-0.1,0C1,1.5,0.6,2,0.5,2.7c-0.1,0-0.1,0.1-0.2,0.1
			C0,3.6-0.1,4.5,0,5.3c0.1,1.2,0.1,2.3,0.2,3.5c0.2,1.8,1.6,2.7,3.3,2.8c1.2,0.1,2.4,0,3.6,0c1.4,0.1,2.9,0,4.3,0s2.9,0,4.4-0.1
			c0.2,0,1.2-0.3,1.2,0.1c0.2,0.8,0.3,1.6,0.4,2.4c0,0.1,0.1,0.3,0.3,0.2c0.1,0,0.2-0.1,0.2-0.1c0.8-1.5,1.7-3.1,2.6-4.6
			C21,8.8,21.6,8,22.2,7.2C22.4,6.9,22.5,6.6,22.5,6.3z"/>
	</g>
</g>
</svg>
